[
    {
        "track": 0,
        "notes": []
    },
    {
        "track": 1,
        "notes": [
            {
                "type": "note_on",
                "note": 78,
                "velocity": 71,
                "time": 0
            },
            {
                "type": "note_off",
                "note": 78,
                "velocity": 0,
                "time": 256
            },
            {
                "type": "note_on",
                "note": 69,
                "velocity": 74,
                "time": 0
            },
            {
                "type": "note_on",
                "note": 73,
                "velocity": 74,
                "time": 0
            },
            {
                "type": "note_on",
                "note": 76,
                "velocity": 74,
                "time": 0
            },
            {
                "type": "note_on",
                "note": 45,
                "velocity": 76,
                "time": 0
            },
            {
                "type": "note_on",
                "note": 52,
                "velocity": 76,
                "time": 0
            },
            {
                "type": "note_off",
                "note": 45,
                "velocity": 0,
                "time": 128
            },
            {
                "type": "note_off",
                "note": 52,
                "velocity": 0,
                "time": 0
            },
            {
                "type": "note_on",
                "note": 45,
                "velocity": 73,
                "time": 26
            },
            {
                "type": "note_on",
                "note": 52,
                "velocity": 73,
                "time": 0
            },
            {
                "type": "note_off",
                "note": 45,
                "velocity": 0,
                "time": 102
            },
            {
                "type": "note_off",
                "note": 52,
                "velocity": 0,
                "time": 0
            },
            {
                "type": "note_on",
                "note": 45,
                "velocity": 83,
                "time": 0
            },
            {
                "type": "note_on",
                "note": 54,
                "velocity": 83,
                "time": 0
            },
            {
                "type": "note_off",
                "note": 45,
                "velocity": 0,
                "time": 128
            },
            {
                "type": "note_off",
                "note": 54,
                "velocity": 0,
                "time": 0
            },
            {
                "type": "note_on",
                "note": 45,
                "velocity": 69,
                "time": 26
            },
            {
                "type": "note_on",
                "note": 54,
                "velocity": 69,
                "time": 0
            },
            {
                "type": "note_off",
                "note": 45,
                "velocity": 0,
                "time": 102
            },
            {
                "type": "note_off",
                "note": 54,
                "velocity": 0,
                "time": 0
            },
            {
                "type": "note_on",
                "note": 45,
                "velocity": 77,
                "time": 0
            },
            {
                "type": "note_on",
                "note": 52,
                "velocity": 77,
                "time": 0
            },
            {
                "type": "note_off",
                "note": 69,
                "velocity": 0,
                "time": 128
            },
            {
                "type": "note_off",
                "note": 73,
                "velocity": 0,
                "time": 0
            },
            {
                "type": "note_off",
                "note": 76,
                "velocity": 0,
                "time": 0
            },
            {
                "type": "note_off",
                "note": 45,
                "velocity": 0,
                "time": 0
            },
            {
                "type": "note_off",
                "note": 52,
                "velocity": 0,
                "time": 0
            },
            {
                "type": "note_on",
                "note": 69,
                "velocity": 60,
                "time": 26
            },
            {
                "type": "note_on",
                "note": 45,
                "velocity": 75,
                "time": 0
            },
            {
                "type": "note_on",
                "note": 52,
                "velocity": 75,
                "time": 0
            },
            {
                "type": "note_off",
                "note": 69,
                "velocity": 0,
                "time": 102
            },
            {
                "type": "note_on",
                "note": 66,
                "velocity": 85,
                "time": 0
            },
            {
                "type": "note_on",
                "note": 69,
                "velocity": 85,
                "time": 0
            },
            {
                "type": "note_on",
                "note": 72,
                "velocity": 85,
                "time": 0
            },
            {
                "type": "note_off",
                "note": 45,
                "velocity": 0,
                "time": 0
            },
            {
                "type": "note_off",
                "note": 52,
                "velocity": 0,
                "time": 0
            },
            {
                "type": "note_on",
                "note": 45,
                "velocity": 87,
                "time": 0
            },
            {
                "type": "note_on",
                "note": 54,
                "velocity": 87,
                "time": 0
            },
            {
                "type": "note_off",
                "note": 45,
                "velocity": 0,
                "time": 128
            },
            {
                "type": "note_off",
                "note": 54,
                "velocity": 0,
                "time": 0
            },
            {
                "type": "note_on",
                "note": 45,
                "velocity": 71,
                "time": 26
            },
            {
                "type": "note_on",
                "note": 54,
                "velocity": 71,
                "time": 0
            },
            {
                "type": "note_off",
                "note": 66,
                "velocity": 0,
                "time": 102
            },
            {
                "type": "note_off",
                "note": 69,
                "velocity": 0,
                "time": 0
            },
            {
                "type": "note_off",
                "note": 72,
                "velocity": 0,
                "time": 0
            },
            {
                "type": "note_on",
                "note": 69,
                "velocity": 72,
                "time": 0
            },
            {
                "type": "note_off",
                "note": 45,
                "velocity": 0,
                "time": 0
            },
            {
                "type": "note_off",
                "note": 54,
                "velocity": 0,
                "time": 0
            },
            {
                "type": "note_on",
                "note": 45,
                "velocity": 76,
                "time": 0
            },
            {
                "type": "note_on",
                "note": 52,
                "velocity": 76,
                "time": 0
            },
            {
                "type": "note_off",
                "note": 45,
                "velocity": 0,
                "time": 128
            },
            {
                "type": "note_off",
                "note": 52,
                "velocity": 0,
                "time": 0
            },
            {
                "type": "note_on",
                "note": 45,
                "velocity": 75,
                "time": 26
            },
            {
                "type": "note_on",
                "note": 52,
                "velocity": 75,
                "time": 0
            },
            {
                "type": "note_off",
                "note": 69,
                "velocity": 0,
                "time": 102
            },
            {
                "type": "note_on",
                "note": 66,
                "velocity": 71,
                "time": 0
            },
            {
                "type": "note_off",
                "note": 45,
                "velocity": 0,
                "time": 0
            },
            {
                "type": "note_off",
                "note": 52,
                "velocity": 0,
                "time": 0
            },
            {
                "type": "note_on",
                "note": 45,
                "velocity": 78,
                "time": 0
            },
            {
                "type": "note_on",
                "note": 54,
                "velocity": 78,
                "time": 0
            },
            {
                "type": "note_off",
                "note": 45,
                "velocity": 0,
                "time": 128
            },
            {
                "type": "note_off",
                "note": 54,
                "velocity": 0,
                "time": 0
            },
            {
                "type": "note_on",
                "note": 45,
                "velocity": 74,
                "time": 26
            },
            {
                "type": "note_on",
                "note": 54,
                "velocity": 74,
                "time": 0
            },
            {
                "type": "note_off",
                "note": 66,
                "velocity": 0,
                "time": 102
            },
            {
                "type": "note_off",
                "note": 45,
                "velocity": 0,
                "time": 0
            },
            {
                "type": "note_off",
                "note": 54,
                "velocity": 0,
                "time": 0
            },
            {
                "type": "note_on",
                "note": 45,
                "velocity": 78,
                "time": 0
            },
            {
                "type": "note_on",
                "note": 52,
                "velocity": 78,
                "time": 0
            },
            {
                "type": "note_off",
                "note": 45,
                "velocity": 0,
                "time": 128
            },
            {
                "type": "note_off",
                "note": 52,
                "velocity": 0,
                "time": 0
            },
            {
                "type": "note_on",
                "note": 45,
                "velocity": 69,
                "time": 26
            },
            {
                "type": "note_on",
                "note": 52,
                "velocity": 69,
                "time": 0
            },
            {
                "type": "note_on",
                "note": 69,
                "velocity": 69,
                "time": 102
            },
            {
                "type": "note_on",
                "note": 74,
                "velocity": 69,
                "time": 0
            },
            {
                "type": "note_on",
                "note": 78,
                "velocity": 69,
                "time": 0
            },
            {
                "type": "note_off",
                "note": 45,
                "velocity": 0,
                "time": 0
            },
            {
                "type": "note_off",
                "note": 52,
                "velocity": 0,
                "time": 0
            },
            {
                "type": "note_on",
                "note": 45,
                "velocity": 88,
                "time": 0
            },
            {
                "type": "note_on",
                "note": 54,
                "velocity": 88,
                "time": 0
            },
            {
                "type": "note_off",
                "note": 45,
                "velocity": 0,
                "time": 128
            },
            {
                "type": "note_off",
                "note": 54,
                "velocity": 0,
                "time": 0
            },
            {
                "type": "note_on",
                "note": 45,
                "velocity": 70,
                "time": 26
            },
            {
                "type": "note_on",
                "note": 54,
                "velocity": 70,
                "time": 0
            },
            {
                "type": "note_off",
                "note": 69,
                "velocity": 0,
                "time": 102
            },
            {
                "type": "note_off",
                "note": 74,
                "velocity": 0,
                "time": 0
            },
            {
                "type": "note_off",
                "note": 78,
                "velocity": 0,
                "time": 0
            },
            {
                "type": "note_on",
                "note": 69,
                "velocity": 71,
                "time": 0
            },
            {
                "type": "note_on",
                "note": 73,
                "velocity": 71,
                "time": 0
            },
            {
                "type": "note_on",
                "note": 76,
                "velocity": 71,
                "time": 0
            },
            {
                "type": "note_off",
                "note": 45,
                "velocity": 0,
                "time": 0
            },
            {
                "type": "note_off",
                "note": 54,
                "velocity": 0,
                "time": 0
            },
            {
                "type": "note_on",
                "note": 45,
                "velocity": 79,
                "time": 0
            },
            {
                "type": "note_on",
                "note": 52,
                "velocity": 79,
                "time": 0
            },
            {
                "type": "note_off",
                "note": 45,
                "velocity": 0,
                "time": 128
            },
            {
                "type": "note_off",
                "note": 52,
                "velocity": 0,
                "time": 0
            },
            {
                "type": "note_on",
                "note": 45,
                "velocity": 73,
                "time": 26
            },
            {
                "type": "note_on",
                "note": 52,
                "velocity": 73,
                "time": 0
            },
            {
                "type": "note_off",
                "note": 45,
                "velocity": 0,
                "time": 102
            },
            {
                "type": "note_off",
                "note": 52,
                "velocity": 0,
                "time": 0
            },
            {
                "type": "note_on",
                "note": 45,
                "velocity": 86,
                "time": 0
            },
            {
                "type": "note_on",
                "note": 54,
                "velocity": 86,
                "time": 0
            },
            {
                "type": "note_off",
                "note": 69,
                "velocity": 0,
                "time": 128
            },
            {
                "type": "note_off",
                "note": 73,
                "velocity": 0,
                "time": 0
            },
            {
                "type": "note_off",
                "note": 76,
                "velocity": 0,
                "time": 0
            },
            {
                "type": "note_off",
                "note": 45,
                "velocity": 0,
                "time": 0
            },
            {
                "type": "note_off",
                "note": 54,
                "velocity": 0,
                "time": 0
            },
            {
                "type": "note_on",
                "note": 64,
                "velocity": 52,
                "time": 26
            },
            {
                "type": "note_on",
                "note": 45,
                "velocity": 73,
                "time": 0
            },
            {
                "type": "note_on",
                "note": 54,
                "velocity": 73,
                "time": 0
            },
            {
                "type": "note_off",
                "note": 64,
                "velocity": 0,
                "time": 102
            },
            {
                "type": "note_on",
                "note": 66,
                "velocity": 79,
                "time": 0
            },
            {
                "type": "note_off",
                "note": 45,
                "velocity": 0,
                "time": 0
            },
            {
                "type": "note_off",
                "note": 54,
                "velocity": 0,
                "time": 0
            },
            {
                "type": "note_on",
                "note": 45,
                "velocity": 77,
                "time": 0
            },
            {
                "type": "note_on",
                "note": 52,
                "velocity": 77,
                "time": 0
            },
            {
                "type": "note_off",
                "note": 66,
                "velocity": 0,
                "time": 128
            },
            {
                "type": "note_off",
                "note": 45,
                "velocity": 0,
                "time": 0
            },
            {
                "type": "note_off",
                "note": 52,
                "velocity": 0,
                "time": 0
            },
            {
                "type": "note_on",
                "note": 64,
                "velocity": 70,
                "time": 26
            },
            {
                "type": "note_on",
                "note": 45,
                "velocity": 73,
                "time": 0
            },
            {
                "type": "note_on",
                "note": 52,
                "velocity": 73,
                "time": 0
            },
            {
                "type": "note_off",
                "note": 64,
                "velocity": 0,
                "time": 102
            },
            {
                "type": "note_on",
                "note": 66,
                "velocity": 84,
                "time": 0
            },
            {
                "type": "note_off",
                "note": 45,
                "velocity": 0,
                "time": 0
            },
            {
                "type": "note_off",
                "note": 52,
                "velocity": 0,
                "time": 0
            },
            {
                "type": "note_on",
                "note": 45,
                "velocity": 79,
                "time": 0
            },
            {
                "type": "note_on",
                "note": 54,
                "velocity": 79,
                "time": 0
            },
            {
                "type": "note_off",
                "note": 66,
                "velocity": 0,
                "time": 128
            },
            {
                "type": "note_off",
                "note": 45,
                "velocity": 0,
                "time": 0
            },
            {
                "type": "note_off",
                "note": 54,
                "velocity": 0,
                "time": 0
            },
            {
                "type": "note_on",
                "note": 67,
                "velocity": 78,
                "time": 26
            },
            {
                "type": "note_on",
                "note": 45,
                "velocity": 74,
                "time": 0
            },
            {
                "type": "note_on",
                "note": 54,
                "velocity": 74,
                "time": 0
            },
            {
                "type": "note_off",
                "note": 45,
                "velocity": 0,
                "time": 102
            },
            {
                "type": "note_off",
                "note": 54,
                "velocity": 0,
                "time": 0
            },
            {
                "type": "note_on",
                "note": 45,
                "velocity": 75,
                "time": 0
            },
            {
                "type": "note_on",
                "note": 52,
                "velocity": 75,
                "time": 0
            },
            {
                "type": "note_off",
                "note": 45,
                "velocity": 0,
                "time": 128
            },
            {
                "type": "note_off",
                "note": 52,
                "velocity": 0,
                "time": 0
            },
            {
                "type": "note_on",
                "note": 45,
                "velocity": 77,
                "time": 26
            },
            {
                "type": "note_on",
                "note": 52,
                "velocity": 77,
                "time": 0
            },
            {
                "type": "note_off",
                "note": 45,
                "velocity": 0,
                "time": 102
            },
            {
                "type": "note_off",
                "note": 52,
                "velocity": 0,
                "time": 0
            },
            {
                "type": "note_on",
                "note": 45,
                "velocity": 76,
                "time": 0
            },
            {
                "type": "note_on",
                "note": 54,
                "velocity": 76,
                "time": 0
            },
            {
                "type": "note_off",
                "note": 45,
                "velocity": 0,
                "time": 128
            },
            {
                "type": "note_off",
                "note": 54,
                "velocity": 0,
                "time": 0
            },
            {
                "type": "note_on",
                "note": 45,
                "velocity": 76,
                "time": 26
            },
            {
                "type": "note_on",
                "note": 54,
                "velocity": 76,
                "time": 0
            },
            {
                "type": "note_off",
                "note": 45,
                "velocity": 0,
                "time": 102
            },
            {
                "type": "note_off",
                "note": 54,
                "velocity": 0,
                "time": 0
            },
            {
                "type": "note_on",
                "note": 45,
                "velocity": 77,
                "time": 0
            },
            {
                "type": "note_on",
                "note": 52,
                "velocity": 77,
                "time": 0
            },
            {
                "type": "note_off",
                "note": 45,
                "velocity": 0,
                "time": 128
            },
            {
                "type": "note_off",
                "note": 52,
                "velocity": 0,
                "time": 0
            },
            {
                "type": "note_on",
                "note": 45,
                "velocity": 72,
                "time": 26
            },
            {
                "type": "note_on",
                "note": 52,
                "velocity": 72,
                "time": 0
            },
            {
                "type": "note_off",
                "note": 67,
                "velocity": 0,
                "time": 102
            },
            {
                "type": "note_on",
                "note": 69,
                "velocity": 100,
                "time": 0
            },
            {
                "type": "note_on",
                "note": 74,
                "velocity": 100,
                "time": 0
            },
            {
                "type": "note_on",
                "note": 78,
                "velocity": 100,
                "time": 0
            },
            {
                "type": "note_off",
                "note": 45,
                "velocity": 0,
                "time": 0
            },
            {
                "type": "note_off",
                "note": 52,
                "velocity": 0,
                "time": 0
            },
            {
                "type": "note_on",
                "note": 45,
                "velocity": 86,
                "time": 0
            },
            {
                "type": "note_on",
                "note": 54,
                "velocity": 86,
                "time": 0
            },
            {
                "type": "note_off",
                "note": 45,
                "velocity": 0,
                "time": 128
            },
            {
                "type": "note_off",
                "note": 54,
                "velocity": 0,
                "time": 0
            },
            {
                "type": "note_on",
                "note": 45,
                "velocity": 74,
                "time": 26
            },
            {
                "type": "note_on",
                "note": 54,
                "velocity": 74,
                "time": 0
            },
            {
                "type": "note_off",
                "note": 69,
                "velocity": 0,
                "time": 102
            },
            {
                "type": "note_off",
                "note": 74,
                "velocity": 0,
                "time": 0
            },
            {
                "type": "note_off",
                "note": 78,
                "velocity": 0,
                "time": 0
            },
            {
                "type": "note_on",
                "note": 66,
                "velocity": 77,
                "time": 0
            },
            {
                "type": "note_on",
                "note": 69,
                "velocity": 77,
                "time": 0
            },
            {
                "type": "note_on",
                "note": 72,
                "velocity": 77,
                "time": 0
            },
            {
                "type": "note_on",
                "note": 76,
                "velocity": 77,
                "time": 0
            },
            {
                "type": "note_off",
                "note": 45,
                "velocity": 0,
                "time": 0
            },
            {
                "type": "note_off",
                "note": 54,
                "velocity": 0,
                "time": 0
            },
            {
                "type": "note_on",
                "note": 50,
                "velocity": 87,
                "time": 0
            },
            {
                "type": "note_on",
                "note": 57,
                "velocity": 87,
                "time": 0
            },
            {
                "type": "note_off",
                "note": 50,
                "velocity": 0,
                "time": 128
            },
            {
                "type": "note_off",
                "note": 57,
                "velocity": 0,
                "time": 0
            },
            {
                "type": "note_on",
                "note": 50,
                "velocity": 75,
                "time": 26
            },
            {
                "type": "note_on",
                "note": 57,
                "velocity": 75,
                "time": 0
            },
            {
                "type": "note_off",
                "note": 66,
                "velocity": 0,
                "time": 102
            },
            {
                "type": "note_off",
                "note": 69,
                "velocity": 0,
                "time": 0
            },
            {
                "type": "note_off",
                "note": 72,
                "velocity": 0,
                "time": 0
            },
            {
                "type": "note_off",
                "note": 76,
                "velocity": 0,
                "time": 0
            },
            {
                "type": "note_on",
                "note": 71,
                "velocity": 65,
                "time": 0
            },
            {
                "type": "note_off",
                "note": 50,
                "velocity": 0,
                "time": 0
            },
            {
                "type": "note_off",
                "note": 57,
                "velocity": 0,
                "time": 0
            },
            {
                "type": "note_on",
                "note": 50,
                "velocity": 83,
                "time": 0
            },
            {
                "type": "note_on",
                "note": 59,
                "velocity": 83,
                "time": 0
            },
            {
                "type": "note_off",
                "note": 50,
                "velocity": 0,
                "time": 128
            },
            {
                "type": "note_off",
                "note": 59,
                "velocity": 0,
                "time": 0
            },
            {
                "type": "note_on",
                "note": 50,
                "velocity": 73,
                "time": 26
            },
            {
                "type": "note_on",
                "note": 59,
                "velocity": 73,
                "time": 0
            },
            {
                "type": "note_off",
                "note": 71,
                "velocity": 0,
                "time": 102
            },
            {
                "type": "note_on",
                "note": 69,
                "velocity": 75,
                "time": 0
            },
            {
                "type": "note_off",
                "note": 50,
                "velocity": 0,
                "time": 0
            },
            {
                "type": "note_off",
                "note": 59,
                "velocity": 0,
                "time": 0
            },
            {
                "type": "note_on",
                "note": 50,
                "velocity": 80,
                "time": 0
            },
            {
                "type": "note_on",
                "note": 57,
                "velocity": 80,
                "time": 0
            },
            {
                "type": "note_off",
                "note": 50,
                "velocity": 0,
                "time": 128
            },
            {
                "type": "note_off",
                "note": 57,
                "velocity": 0,
                "time": 0
            },
            {
                "type": "note_on",
                "note": 50,
                "velocity": 71,
                "time": 26
            },
            {
                "type": "note_on",
                "note": 57,
                "velocity": 71,
                "time": 0
            },
            {
                "type": "note_off",
                "note": 69,
                "velocity": 0,
                "time": 102
            },
            {
                "type": "note_on",
                "note": 66,
                "velocity": 72,
                "time": 0
            },
            {
                "type": "note_off",
                "note": 50,
                "velocity": 0,
                "time": 0
            },
            {
                "type": "note_off",
                "note": 57,
                "velocity": 0,
                "time": 0
            },
            {
                "type": "note_on",
                "note": 50,
                "velocity": 86,
                "time": 0
            },
            {
                "type": "note_on",
                "note": 59,
                "velocity": 86,
                "time": 0
            },
            {
                "type": "note_off",
                "note": 50,
                "velocity": 0,
                "time": 128
            },
            {
                "type": "note_off",
                "note": 59,
                "velocity": 0,
                "time": 0
            },
            {
                "type": "note_on",
                "note": 50,
                "velocity": 74,
                "time": 26
            },
            {
                "type": "note_on",
                "note": 59,
                "velocity": 74,
                "time": 0
            },
            {
                "type": "note_off",
                "note": 66,
                "velocity": 0,
                "time": 102
            },
            {
                "type": "note_off",
                "note": 50,
                "velocity": 0,
                "time": 0
            },
            {
                "type": "note_off",
                "note": 59,
                "velocity": 0,
                "time": 0
            },
            {
                "type": "note_on",
                "note": 50,
                "velocity": 78,
                "time": 0
            },
            {
                "type": "note_on",
                "note": 57,
                "velocity": 78,
                "time": 0
            },
            {
                "type": "note_off",
                "note": 50,
                "velocity": 0,
                "time": 128
            },
            {
                "type": "note_off",
                "note": 57,
                "velocity": 0,
                "time": 0
            },
            {
                "type": "note_on",
                "note": 72,
                "velocity": 68,
                "time": 26
            },
            {
                "type": "note_on",
                "note": 50,
                "velocity": 71,
                "time": 0
            },
            {
                "type": "note_on",
                "note": 57,
                "velocity": 71,
                "time": 0
            },
            {
                "type": "note_off",
                "note": 72,
                "velocity": 0,
                "time": 102
            },
            {
                "type": "note_on",
                "note": 72,
                "velocity": 78,
                "time": 0
            },
            {
                "type": "note_off",
                "note": 50,
                "velocity": 0,
                "time": 0
            },
            {
                "type": "note_off",
                "note": 57,
                "velocity": 0,
                "time": 0
            },
            {
                "type": "note_on",
                "note": 50,
                "velocity": 83,
                "time": 0
            },
            {
                "type": "note_on",
                "note": 59,
                "velocity": 83,
                "time": 0
            },
            {
                "type": "note_off",
                "note": 72,
                "velocity": 0,
                "time": 128
            },
            {
                "type": "note_off",
                "note": 50,
                "velocity": 0,
                "time": 0
            },
            {
                "type": "note_off",
                "note": 59,
                "velocity": 0,
                "time": 0
            },
            {
                "type": "note_on",
                "note": 71,
                "velocity": 68,
                "time": 26
            },
            {
                "type": "note_on",
                "note": 50,
                "velocity": 72,
                "time": 0
            },
            {
                "type": "note_on",
                "note": 59,
                "velocity": 72,
                "time": 0
            },
            {
                "type": "note_off",
                "note": 71,
                "velocity": 0,
                "time": 102
            },
            {
                "type": "note_on",
                "note": 69,
                "velocity": 74,
                "time": 0
            },
            {
                "type": "note_off",
                "note": 50,
                "velocity": 0,
                "time": 0
            },
            {
                "type": "note_off",
                "note": 59,
                "velocity": 0,
                "time": 0
            },
            {
                "type": "note_on",
                "note": 50,
                "velocity": 77,
                "time": 0
            },
            {
                "type": "note_on",
                "note": 57,
                "velocity": 77,
                "time": 0
            },
            {
                "type": "note_off",
                "note": 50,
                "velocity": 0,
                "time": 128
            },
            {
                "type": "note_off",
                "note": 57,
                "velocity": 0,
                "time": 0
            },
            {
                "type": "note_on",
                "note": 50,
                "velocity": 72,
                "time": 26
            },
            {
                "type": "note_on",
                "note": 57,
                "velocity": 72,
                "time": 0
            },
            {
                "type": "note_off",
                "note": 69,
                "velocity": 0,
                "time": 102
            },
            {
                "type": "note_on",
                "note": 66,
                "velocity": 70,
                "time": 0
            },
            {
                "type": "note_off",
                "note": 50,
                "velocity": 0,
                "time": 0
            },
            {
                "type": "note_off",
                "note": 57,
                "velocity": 0,
                "time": 0
            },
            {
                "type": "note_on",
                "note": 50,
                "velocity": 76,
                "time": 0
            },
            {
                "type": "note_on",
                "note": 59,
                "velocity": 76,
                "time": 0
            },
            {
                "type": "note_off",
                "note": 66,
                "velocity": 0,
                "time": 128
            },
            {
                "type": "note_off",
                "note": 50,
                "velocity": 0,
                "time": 0
            },
            {
                "type": "note_off",
                "note": 59,
                "velocity": 0,
                "time": 0
            },
            {
                "type": "note_on",
                "note": 64,
                "velocity": 65,
                "time": 26
            },
            {
                "type": "note_on",
                "note": 50,
                "velocity": 76,
                "time": 0
            },
            {
                "type": "note_on",
                "note": 59,
                "velocity": 76,
                "time": 0
            },
            {
                "type": "note_off",
                "note": 50,
                "velocity": 0,
                "time": 102
            },
            {
                "type": "note_off",
                "note": 59,
                "velocity": 0,
                "time": 0
            },
            {
                "type": "note_on",
                "note": 45,
                "velocity": 76,
                "time": 0
            },
            {
                "type": "note_on",
                "note": 52,
                "velocity": 76,
                "time": 0
            },
            {
                "type": "note_off",
                "note": 45,
                "velocity": 0,
                "time": 128
            },
            {
                "type": "note_off",
                "note": 52,
                "velocity": 0,
                "time": 0
            },
            {
                "type": "note_on",
                "note": 45,
                "velocity": 71,
                "time": 26
            },
            {
                "type": "note_on",
                "note": 52,
                "velocity": 71,
                "time": 0
            },
            {
                "type": "note_off",
                "note": 45,
                "velocity": 0,
                "time": 102
            },
            {
                "type": "note_off",
                "note": 52,
                "velocity": 0,
                "time": 0
            },
            {
                "type": "note_on",
                "note": 45,
                "velocity": 86,
                "time": 0
            },
            {
                "type": "note_on",
                "note": 54,
                "velocity": 86,
                "time": 0
            },
            {
                "type": "note_off",
                "note": 45,
                "velocity": 0,
                "time": 128
            },
            {
                "type": "note_off",
                "note": 54,
                "velocity": 0,
                "time": 0
            },
            {
                "type": "note_on",
                "note": 45,
                "velocity": 71,
                "time": 26
            },
            {
                "type": "note_on",
                "note": 54,
                "velocity": 71,
                "time": 0
            },
            {
                "type": "note_off",
                "note": 45,
                "velocity": 0,
                "time": 102
            },
            {
                "type": "note_off",
                "note": 54,
                "velocity": 0,
                "time": 0
            },
            {
                "type": "note_on",
                "note": 45,
                "velocity": 79,
                "time": 0
            },
            {
                "type": "note_on",
                "note": 52,
                "velocity": 79,
                "time": 0
            },
            {
                "type": "note_off",
                "note": 45,
                "velocity": 0,
                "time": 128
            },
            {
                "type": "note_off",
                "note": 52,
                "velocity": 0,
                "time": 0
            },
            {
                "type": "note_on",
                "note": 45,
                "velocity": 72,
                "time": 26
            },
            {
                "type": "note_on",
                "note": 52,
                "velocity": 72,
                "time": 0
            },
            {
                "type": "note_off",
                "note": 64,
                "velocity": 0,
                "time": 102
            },
            {
                "type": "note_on",
                "note": 66,
                "velocity": 85,
                "time": 0
            },
            {
                "type": "note_off",
                "note": 45,
                "velocity": 0,
                "time": 0
            },
            {
                "type": "note_off",
                "note": 52,
                "velocity": 0,
                "time": 0
            },
            {
                "type": "note_on",
                "note": 45,
                "velocity": 81,
                "time": 0
            },
            {
                "type": "note_on",
                "note": 54,
                "velocity": 81,
                "time": 0
            },
            {
                "type": "note_off",
                "note": 66,
                "velocity": 0,
                "time": 128
            },
            {
                "type": "note_off",
                "note": 45,
                "velocity": 0,
                "time": 0
            },
            {
                "type": "note_off",
                "note": 54,
                "velocity": 0,
                "time": 0
            },
            {
                "type": "note_on",
                "note": 64,
                "velocity": 65,
                "time": 26
            },
            {
                "type": "note_on",
                "note": 45,
                "velocity": 74,
                "time": 0
            },
            {
                "type": "note_on",
                "note": 54,
                "velocity": 74,
                "time": 0
            },
            {
                "type": "note_off",
                "note": 45,
                "velocity": 0,
                "time": 102
            },
            {
                "type": "note_off",
                "note": 54,
                "velocity": 0,
                "time": 0
            },
            {
                "type": "note_on",
                "note": 45,
                "velocity": 76,
                "time": 0
            },
            {
                "type": "note_on",
                "note": 52,
                "velocity": 76,
                "time": 0
            },
            {
                "type": "note_off",
                "note": 45,
                "velocity": 0,
                "time": 128
            },
            {
                "type": "note_off",
                "note": 52,
                "velocity": 0,
                "time": 0
            },
            {
                "type": "note_on",
                "note": 45,
                "velocity": 72,
                "time": 26
            },
            {
                "type": "note_on",
                "note": 52,
                "velocity": 72,
                "time": 0
            },
            {
                "type": "note_off",
                "note": 64,
                "velocity": 0,
                "time": 102
            },
            {
                "type": "note_off",
                "note": 45,
                "velocity": 0,
                "time": 0
            },
            {
                "type": "note_off",
                "note": 52,
                "velocity": 0,
                "time": 0
            },
            {
                "type": "note_on",
                "note": 45,
                "velocity": 82,
                "time": 0
            },
            {
                "type": "note_on",
                "note": 54,
                "velocity": 82,
                "time": 0
            },
            {
                "type": "note_off",
                "note": 45,
                "velocity": 0,
                "time": 128
            },
            {
                "type": "note_off",
                "note": 54,
                "velocity": 0,
                "time": 0
            },
            {
                "type": "note_on",
                "note": 45,
                "velocity": 76,
                "time": 26
            },
            {
                "type": "note_on",
                "note": 54,
                "velocity": 76,
                "time": 0
            },
            {
                "type": "note_off",
                "note": 45,
                "velocity": 0,
                "time": 102
            },
            {
                "type": "note_off",
                "note": 54,
                "velocity": 0,
                "time": 0
            },
            {
                "type": "note_on",
                "note": 45,
                "velocity": 72,
                "time": 0
            },
            {
                "type": "note_on",
                "note": 52,
                "velocity": 72,
                "time": 0
            },
            {
                "type": "note_off",
                "note": 45,
                "velocity": 0,
                "time": 128
            },
            {
                "type": "note_off",
                "note": 52,
                "velocity": 0,
                "time": 0
            },
            {
                "type": "note_on",
                "note": 74,
                "velocity": 67,
                "time": 26
            },
            {
                "type": "note_on",
                "note": 45,
                "velocity": 73,
                "time": 0
            },
            {
                "type": "note_on",
                "note": 52,
                "velocity": 73,
                "time": 0
            },
            {
                "type": "note_off",
                "note": 74,
                "velocity": 0,
                "time": 102
            },
            {
                "type": "note_on",
                "note": 74,
                "velocity": 82,
                "time": 0
            },
            {
                "type": "note_off",
                "note": 45,
                "velocity": 0,
                "time": 0
            },
            {
                "type": "note_off",
                "note": 52,
                "velocity": 0,
                "time": 0
            },
            {
                "type": "note_on",
                "note": 45,
                "velocity": 83,
                "time": 0
            },
            {
                "type": "note_on",
                "note": 54,
                "velocity": 83,
                "time": 0
            },
            {
                "type": "note_off",
                "note": 74,
                "velocity": 0,
                "time": 128
            },
            {
                "type": "note_off",
                "note": 45,
                "velocity": 0,
                "time": 0
            },
            {
                "type": "note_off",
                "note": 54,
                "velocity": 0,
                "time": 0
            },
            {
                "type": "note_on",
                "note": 73,
                "velocity": 63,
                "time": 26
            },
            {
                "type": "note_on",
                "note": 45,
                "velocity": 73,
                "time": 0
            },
            {
                "type": "note_on",
                "note": 54,
                "velocity": 73,
                "time": 0
            },
            {
                "type": "note_off",
                "note": 73,
                "velocity": 0,
                "time": 102
            },
            {
                "type": "note_on",
                "note": 68,
                "velocity": 84,
                "time": 0
            },
            {
                "type": "note_on",
                "note": 71,
                "velocity": 84,
                "time": 0
            },
            {
                "type": "note_on",
                "note": 74,
                "velocity": 84,
                "time": 0
            },
            {
                "type": "note_off",
                "note": 45,
                "velocity": 0,
                "time": 0
            },
            {
                "type": "note_off",
                "note": 54,
                "velocity": 0,
                "time": 0
            },
            {
                "type": "note_on",
                "note": 52,
                "velocity": 85,
                "time": 0
            },
            {
                "type": "note_on",
                "note": 59,
                "velocity": 85,
                "time": 0
            },
            {
                "type": "note_off",
                "note": 68,
                "velocity": 0,
                "time": 128
            },
            {
                "type": "note_off",
                "note": 71,
                "velocity": 0,
                "time": 0
            },
            {
                "type": "note_off",
                "note": 74,
                "velocity": 0,
                "time": 0
            },
            {
                "type": "note_off",
                "note": 52,
                "velocity": 0,
                "time": 0
            },
            {
                "type": "note_off",
                "note": 59,
                "velocity": 0,
                "time": 0
            },
            {
                "type": "note_on",
                "note": 73,
                "velocity": 65,
                "time": 26
            },
            {
                "type": "note_on",
                "note": 52,
                "velocity": 74,
                "time": 0
            },
            {
                "type": "note_on",
                "note": 59,
                "velocity": 74,
                "time": 0
            },
            {
                "type": "note_off",
                "note": 73,
                "velocity": 0,
                "time": 102
            },
            {
                "type": "note_on",
                "note": 74,
                "velocity": 82,
                "time": 0
            },
            {
                "type": "note_off",
                "note": 52,
                "velocity": 0,
                "time": 0
            },
            {
                "type": "note_off",
                "note": 59,
                "velocity": 0,
                "time": 0
            },
            {
                "type": "note_on",
                "note": 52,
                "velocity": 87,
                "time": 0
            },
            {
                "type": "note_on",
                "note": 61,
                "velocity": 87,
                "time": 0
            },
            {
                "type": "note_off",
                "note": 74,
                "velocity": 0,
                "time": 128
            },
            {
                "type": "note_off",
                "note": 52,
                "velocity": 0,
                "time": 0
            },
            {
                "type": "note_off",
                "note": 61,
                "velocity": 0,
                "time": 0
            },
            {
                "type": "note_on",
                "note": 73,
                "velocity": 69,
                "time": 26
            },
            {
                "type": "note_on",
                "note": 52,
                "velocity": 75,
                "time": 0
            },
            {
                "type": "note_on",
                "note": 61,
                "velocity": 75,
                "time": 0
            },
            {
                "type": "note_off",
                "note": 73,
                "velocity": 0,
                "time": 102
            },
            {
                "type": "note_on",
                "note": 74,
                "velocity": 83,
                "time": 0
            },
            {
                "type": "note_off",
                "note": 52,
                "velocity": 0,
                "time": 0
            },
            {
                "type": "note_off",
                "note": 61,
                "velocity": 0,
                "time": 0
            },
            {
                "type": "note_on",
                "note": 52,
                "velocity": 79,
                "time": 0
            },
            {
                "type": "note_on",
                "note": 59,
                "velocity": 79,
                "time": 0
            },
            {
                "type": "note_off",
                "note": 74,
                "velocity": 0,
                "time": 128
            },
            {
                "type": "note_off",
                "note": 52,
                "velocity": 0,
                "time": 0
            },
            {
                "type": "note_off",
                "note": 59,
                "velocity": 0,
                "time": 0
            },
            {
                "type": "note_on",
                "note": 76,
                "velocity": 78,
                "time": 26
            },
            {
                "type": "note_on",
                "note": 52,
                "velocity": 74,
                "time": 0
            },
            {
                "type": "note_on",
                "note": 59,
                "velocity": 74,
                "time": 0
            },
            {
                "type": "note_off",
                "note": 52,
                "velocity": 0,
                "time": 102
            },
            {
                "type": "note_off",
                "note": 59,
                "velocity": 0,
                "time": 0
            },
            {
                "type": "note_on",
                "note": 52,
                "velocity": 84,
                "time": 0
            },
            {
                "type": "note_on",
                "note": 61,
                "velocity": 84,
                "time": 0
            },
            {
                "type": "note_off",
                "note": 52,
                "velocity": 0,
                "time": 128
            },
            {
                "type": "note_off",
                "note": 61,
                "velocity": 0,
                "time": 0
            },
            {
                "type": "note_on",
                "note": 52,
                "velocity": 75,
                "time": 26
            },
            {
                "type": "note_on",
                "note": 61,
                "velocity": 75,
                "time": 0
            },
            {
                "type": "note_off",
                "note": 76,
                "velocity": 0,
                "time": 102
            },
            {
                "type": "note_on",
                "note": 66,
                "velocity": 73,
                "time": 0
            },
            {
                "type": "note_on",
                "note": 69,
                "velocity": 73,
                "time": 0
            },
            {
                "type": "note_off",
                "note": 52,
                "velocity": 0,
                "time": 0
            },
            {
                "type": "note_off",
                "note": 61,
                "velocity": 0,
                "time": 0
            },
            {
                "type": "note_on",
                "note": 50,
                "velocity": 79,
                "time": 0
            },
            {
                "type": "note_on",
                "note": 57,
                "velocity": 79,
                "time": 0
            },
            {
                "type": "note_off",
                "note": 50,
                "velocity": 0,
                "time": 128
            },
            {
                "type": "note_off",
                "note": 57,
                "velocity": 0,
                "time": 0
            },
            {
                "type": "note_on",
                "note": 72,
                "velocity": 67,
                "time": 26
            },
            {
                "type": "note_on",
                "note": 50,
                "velocity": 68,
                "time": 0
            },
            {
                "type": "note_on",
                "note": 57,
                "velocity": 68,
                "time": 0
            },
            {
                "type": "note_off",
                "note": 72,
                "velocity": 0,
                "time": 102
            },
            {
                "type": "note_on",
                "note": 72,
                "velocity": 81,
                "time": 0
            },
            {
                "type": "note_off",
                "note": 50,
                "velocity": 0,
                "time": 0
            },
            {
                "type": "note_off",
                "note": 57,
                "velocity": 0,
                "time": 0
            },
            {
                "type": "note_on",
                "note": 50,
                "velocity": 85,
                "time": 0
            },
            {
                "type": "note_on",
                "note": 59,
                "velocity": 85,
                "time": 0
            },
            {
                "type": "note_off",
                "note": 72,
                "velocity": 0,
                "time": 128
            },
            {
                "type": "note_off",
                "note": 50,
                "velocity": 0,
                "time": 0
            },
            {
                "type": "note_off",
                "note": 59,
                "velocity": 0,
                "time": 0
            },
            {
                "type": "note_on",
                "note": 71,
                "velocity": 65,
                "time": 26
            },
            {
                "type": "note_on",
                "note": 50,
                "velocity": 71,
                "time": 0
            },
            {
                "type": "note_on",
                "note": 59,
                "velocity": 71,
                "time": 0
            },
            {
                "type": "note_off",
                "note": 71,
                "velocity": 0,
                "time": 102
            },
            {
                "type": "note_on",
                "note": 69,
                "velocity": 82,
                "time": 0
            },
            {
                "type": "note_off",
                "note": 50,
                "velocity": 0,
                "time": 0
            },
            {
                "type": "note_off",
                "note": 59,
                "velocity": 0,
                "time": 0
            },
            {
                "type": "note_on",
                "note": 50,
                "velocity": 75,
                "time": 0
            },
            {
                "type": "note_on",
                "note": 57,
                "velocity": 75,
                "time": 0
            },
            {
                "type": "note_off",
                "note": 50,
                "velocity": 0,
                "time": 128
            },
            {
                "type": "note_off",
                "note": 57,
                "velocity": 0,
                "time": 0
            },
            {
                "type": "note_on",
                "note": 50,
                "velocity": 71,
                "time": 26
            },
            {
                "type": "note_on",
                "note": 57,
                "velocity": 71,
                "time": 0
            },
            {
                "type": "note_off",
                "note": 69,
                "velocity": 0,
                "time": 102
            },
            {
                "type": "note_on",
                "note": 66,
                "velocity": 74,
                "time": 0
            },
            {
                "type": "note_off",
                "note": 50,
                "velocity": 0,
                "time": 0
            },
            {
                "type": "note_off",
                "note": 57,
                "velocity": 0,
                "time": 0
            },
            {
                "type": "note_on",
                "note": 50,
                "velocity": 80,
                "time": 0
            },
            {
                "type": "note_on",
                "note": 59,
                "velocity": 80,
                "time": 0
            },
            {
                "type": "note_off",
                "note": 66,
                "velocity": 0,
                "time": 128
            },
            {
                "type": "note_off",
                "note": 50,
                "velocity": 0,
                "time": 0
            },
            {
                "type": "note_off",
                "note": 59,
                "velocity": 0,
                "time": 0
            },
            {
                "type": "note_on",
                "note": 69,
                "velocity": 78,
                "time": 26
            },
            {
                "type": "note_on",
                "note": 50,
                "velocity": 73,
                "time": 0
            },
            {
                "type": "note_on",
                "note": 59,
                "velocity": 73,
                "time": 0
            },
            {
                "type": "note_off",
                "note": 66,
                "velocity": 0,
                "time": 102
            },
            {
                "type": "note_off",
                "note": 69,
                "velocity": 0,
                "time": 0
            },
            {
                "type": "note_off",
                "note": 50,
                "velocity": 0,
                "time": 0
            },
            {
                "type": "note_off",
                "note": 59,
                "velocity": 0,
                "time": 0
            },
            {
                "type": "note_on",
                "note": 45,
                "velocity": 75,
                "time": 0
            },
            {
                "type": "note_on",
                "note": 52,
                "velocity": 75,
                "time": 0
            },
            {
                "type": "note_off",
                "note": 45,
                "velocity": 0,
                "time": 128
            },
            {
                "type": "note_off",
                "note": 52,
                "velocity": 0,
                "time": 0
            },
            {
                "type": "note_on",
                "note": 45,
                "velocity": 70,
                "time": 26
            },
            {
                "type": "note_on",
                "note": 52,
                "velocity": 70,
                "time": 0
            },
            {
                "type": "note_off",
                "note": 45,
                "velocity": 0,
                "time": 102
            },
            {
                "type": "note_off",
                "note": 52,
                "velocity": 0,
                "time": 0
            },
            {
                "type": "note_on",
                "note": 45,
                "velocity": 82,
                "time": 0
            },
            {
                "type": "note_on",
                "note": 54,
                "velocity": 82,
                "time": 0
            },
            {
                "type": "note_off",
                "note": 45,
                "velocity": 0,
                "time": 128
            },
            {
                "type": "note_off",
                "note": 54,
                "velocity": 0,
                "time": 0
            },
            {
                "type": "note_on",
                "note": 45,
                "velocity": 75,
                "time": 26
            },
            {
                "type": "note_on",
                "note": 54,
                "velocity": 75,
                "time": 0
            },
            {
                "type": "note_off",
                "note": 45,
                "velocity": 0,
                "time": 102
            },
            {
                "type": "note_off",
                "note": 54,
                "velocity": 0,
                "time": 0
            },
            {
                "type": "note_on",
                "note": 45,
                "velocity": 79,
                "time": 0
            },
            {
                "type": "note_on",
                "note": 52,
                "velocity": 79,
                "time": 0
            },
            {
                "type": "note_off",
                "note": 45,
                "velocity": 0,
                "time": 128
            },
            {
                "type": "note_off",
                "note": 52,
                "velocity": 0,
                "time": 0
            },
            {
                "type": "note_on",
                "note": 45,
                "velocity": 71,
                "time": 26
            },
            {
                "type": "note_on",
                "note": 52,
                "velocity": 71,
                "time": 0
            },
            {
                "type": "note_off",
                "note": 45,
                "velocity": 0,
                "time": 102
            },
            {
                "type": "note_off",
                "note": 52,
                "velocity": 0,
                "time": 0
            },
            {
                "type": "note_on",
                "note": 45,
                "velocity": 82,
                "time": 0
            },
            {
                "type": "note_on",
                "note": 54,
                "velocity": 82,
                "time": 0
            },
            {
                "type": "note_off",
                "note": 45,
                "velocity": 0,
                "time": 128
            },
            {
                "type": "note_off",
                "note": 54,
                "velocity": 0,
                "time": 0
            },
            {
                "type": "note_on",
                "note": 45,
                "velocity": 72,
                "time": 26
            },
            {
                "type": "note_on",
                "note": 54,
                "velocity": 72,
                "time": 0
            },
            {
                "type": "note_off",
                "note": 69,
                "velocity": 0,
                "time": 102
            },
            {
                "type": "note_off",
                "note": 45,
                "velocity": 0,
                "time": 0
            },
            {
                "type": "note_off",
                "note": 54,
                "velocity": 0,
                "time": 0
            },
            {
                "type": "note_on",
                "note": 45,
                "velocity": 75,
                "time": 0
            },
            {
                "type": "note_on",
                "note": 52,
                "velocity": 75,
                "time": 0
            },
            {
                "type": "note_off",
                "note": 45,
                "velocity": 0,
                "time": 128
            },
            {
                "type": "note_off",
                "note": 52,
                "velocity": 0,
                "time": 0
            },
            {
                "type": "note_on",
                "note": 45,
                "velocity": 72,
                "time": 26
            },
            {
                "type": "note_on",
                "note": 52,
                "velocity": 72,
                "time": 0
            },
            {
                "type": "note_off",
                "note": 45,
                "velocity": 0,
                "time": 102
            },
            {
                "type": "note_off",
                "note": 52,
                "velocity": 0,
                "time": 0
            },
            {
                "type": "note_on",
                "note": 45,
                "velocity": 83,
                "time": 0
            },
            {
                "type": "note_on",
                "note": 54,
                "velocity": 83,
                "time": 0
            },
            {
                "type": "note_off",
                "note": 45,
                "velocity": 0,
                "time": 128
            },
            {
                "type": "note_off",
                "note": 54,
                "velocity": 0,
                "time": 0
            },
            {
                "type": "note_on",
                "note": 45,
                "velocity": 72,
                "time": 26
            },
            {
                "type": "note_on",
                "note": 54,
                "velocity": 72,
                "time": 0
            },
            {
                "type": "note_off",
                "note": 45,
                "velocity": 0,
                "time": 102
            },
            {
                "type": "note_off",
                "note": 54,
                "velocity": 0,
                "time": 0
            },
            {
                "type": "note_on",
                "note": 45,
                "velocity": 77,
                "time": 0
            },
            {
                "type": "note_on",
                "note": 52,
                "velocity": 77,
                "time": 0
            },
            {
                "type": "note_off",
                "note": 45,
                "velocity": 0,
                "time": 128
            },
            {
                "type": "note_off",
                "note": 52,
                "velocity": 0,
                "time": 0
            },
            {
                "type": "note_on",
                "note": 45,
                "velocity": 68,
                "time": 26
            },
            {
                "type": "note_on",
                "note": 52,
                "velocity": 68,
                "time": 0
            },
            {
                "type": "note_on",
                "note": 64,
                "velocity": 70,
                "time": 102
            },
            {
                "type": "note_on",
                "note": 72,
                "velocity": 70,
                "time": 0
            },
            {
                "type": "note_off",
                "note": 45,
                "velocity": 0,
                "time": 0
            },
            {
                "type": "note_off",
                "note": 52,
                "velocity": 0,
                "time": 0
            },
            {
                "type": "note_on",
                "note": 45,
                "velocity": 85,
                "time": 0
            },
            {
                "type": "note_on",
                "note": 54,
                "velocity": 85,
                "time": 0
            },
            {
                "type": "note_off",
                "note": 45,
                "velocity": 0,
                "time": 128
            },
            {
                "type": "note_off",
                "note": 54,
                "velocity": 0,
                "time": 0
            },
            {
                "type": "note_on",
                "note": 45,
                "velocity": 78,
                "time": 26
            },
            {
                "type": "note_on",
                "note": 54,
                "velocity": 78,
                "time": 0
            },
            {
                "type": "note_off",
                "note": 64,
                "velocity": 0,
                "time": 102
            },
            {
                "type": "note_off",
                "note": 72,
                "velocity": 0,
                "time": 0
            },
            {
                "type": "note_on",
                "note": 64,
                "velocity": 74,
                "time": 0
            },
            {
                "type": "note_on",
                "note": 69,
                "velocity": 74,
                "time": 0
            },
            {
                "type": "note_off",
                "note": 45,
                "velocity": 0,
                "time": 0
            },
            {
                "type": "note_off",
                "note": 54,
                "velocity": 0,
                "time": 0
            },
            {
                "type": "note_on",
                "note": 45,
                "velocity": 77,
                "time": 0
            },
            {
                "type": "note_on",
                "note": 52,
                "velocity": 77,
                "time": 0
            },
            {
                "type": "note_off",
                "note": 45,
                "velocity": 0,
                "time": 128
            },
            {
                "type": "note_off",
                "note": 52,
                "velocity": 0,
                "time": 0
            },
            {
                "type": "note_on",
                "note": 45,
                "velocity": 69,
                "time": 26
            },
            {
                "type": "note_on",
                "note": 52,
                "velocity": 69,
                "time": 0
            },
            {
                "type": "note_off",
                "note": 45,
                "velocity": 0,
                "time": 102
            },
            {
                "type": "note_off",
                "note": 52,
                "velocity": 0,
                "time": 0
            },
            {
                "type": "note_on",
                "note": 45,
                "velocity": 79,
                "time": 0
            },
            {
                "type": "note_on",
                "note": 54,
                "velocity": 79,
                "time": 0
            },
            {
                "type": "note_off",
                "note": 45,
                "velocity": 0,
                "time": 128
            },
            {
                "type": "note_off",
                "note": 54,
                "velocity": 0,
                "time": 0
            },
            {
                "type": "note_on",
                "note": 45,
                "velocity": 75,
                "time": 26
            },
            {
                "type": "note_on",
                "note": 54,
                "velocity": 75,
                "time": 0
            },
            {
                "type": "note_off",
                "note": 45,
                "velocity": 0,
                "time": 102
            },
            {
                "type": "note_off",
                "note": 54,
                "velocity": 0,
                "time": 0
            },
            {
                "type": "note_on",
                "note": 45,
                "velocity": 77,
                "time": 0
            },
            {
                "type": "note_on",
                "note": 52,
                "velocity": 77,
                "time": 0
            },
            {
                "type": "note_off",
                "note": 45,
                "velocity": 0,
                "time": 128
            },
            {
                "type": "note_off",
                "note": 52,
                "velocity": 0,
                "time": 0
            },
            {
                "type": "note_on",
                "note": 45,
                "velocity": 72,
                "time": 26
            },
            {
                "type": "note_on",
                "note": 52,
                "velocity": 72,
                "time": 0
            },
            {
                "type": "note_off",
                "note": 64,
                "velocity": 0,
                "time": 102
            },
            {
                "type": "note_off",
                "note": 69,
                "velocity": 0,
                "time": 0
            },
            {
                "type": "note_on",
                "note": 64,
                "velocity": 89,
                "time": 0
            },
            {
                "type": "note_on",
                "note": 72,
                "velocity": 89,
                "time": 0
            },
            {
                "type": "note_off",
                "note": 45,
                "velocity": 0,
                "time": 0
            },
            {
                "type": "note_off",
                "note": 52,
                "velocity": 0,
                "time": 0
            },
            {
                "type": "note_on",
                "note": 45,
                "velocity": 86,
                "time": 0
            },
            {
                "type": "note_on",
                "note": 54,
                "velocity": 86,
                "time": 0
            },
            {
                "type": "note_off",
                "note": 45,
                "velocity": 0,
                "time": 128
            },
            {
                "type": "note_off",
                "note": 54,
                "velocity": 0,
                "time": 0
            },
            {
                "type": "note_on",
                "note": 45,
                "velocity": 70,
                "time": 26
            },
            {
                "type": "note_on",
                "note": 54,
                "velocity": 70,
                "time": 0
            },
            {
                "type": "note_off",
                "note": 64,
                "velocity": 0,
                "time": 102
            },
            {
                "type": "note_off",
                "note": 72,
                "velocity": 0,
                "time": 0
            },
            {
                "type": "note_on",
                "note": 64,
                "velocity": 67,
                "time": 0
            },
            {
                "type": "note_on",
                "note": 69,
                "velocity": 67,
                "time": 0
            },
            {
                "type": "note_off",
                "note": 45,
                "velocity": 0,
                "time": 0
            },
            {
                "type": "note_off",
                "note": 54,
                "velocity": 0,
                "time": 0
            },
            {
                "type": "note_on",
                "note": 45,
                "velocity": 76,
                "time": 0
            },
            {
                "type": "note_on",
                "note": 52,
                "velocity": 76,
                "time": 0
            },
            {
                "type": "note_off",
                "note": 45,
                "velocity": 0,
                "time": 128
            },
            {
                "type": "note_off",
                "note": 52,
                "velocity": 0,
                "time": 0
            },
            {
                "type": "note_on",
                "note": 45,
                "velocity": 73,
                "time": 26
            },
            {
                "type": "note_on",
                "note": 52,
                "velocity": 73,
                "time": 0
            },
            {
                "type": "note_off",
                "note": 64,
                "velocity": 0,
                "time": 102
            },
            {
                "type": "note_off",
                "note": 69,
                "velocity": 0,
                "time": 0
            },
            {
                "type": "note_on",
                "note": 66,
                "velocity": 71,
                "time": 0
            },
            {
                "type": "note_off",
                "note": 45,
                "velocity": 0,
                "time": 0
            },
            {
                "type": "note_off",
                "note": 52,
                "velocity": 0,
                "time": 0
            },
            {
                "type": "note_on",
                "note": 45,
                "velocity": 90,
                "time": 0
            },
            {
                "type": "note_on",
                "note": 54,
                "velocity": 90,
                "time": 0
            },
            {
                "type": "note_off",
                "note": 66,
                "velocity": 0,
                "time": 128
            },
            {
                "type": "note_off",
                "note": 45,
                "velocity": 0,
                "time": 0
            },
            {
                "type": "note_off",
                "note": 54,
                "velocity": 0,
                "time": 0
            },
            {
                "type": "note_on",
                "note": 45,
                "velocity": 77,
                "time": 26
            },
            {
                "type": "note_on",
                "note": 54,
                "velocity": 77,
                "time": 0
            },
            {
                "type": "note_off",
                "note": 45,
                "velocity": 0,
                "time": 102
            },
            {
                "type": "note_off",
                "note": 54,
                "velocity": 0,
                "time": 0
            },
            {
                "type": "note_on",
                "note": 45,
                "velocity": 80,
                "time": 0
            },
            {
                "type": "note_on",
                "note": 52,
                "velocity": 80,
                "time": 0
            },
            {
                "type": "note_off",
                "note": 45,
                "velocity": 0,
                "time": 128
            },
            {
                "type": "note_off",
                "note": 52,
                "velocity": 0,
                "time": 0
            },
            {
                "type": "note_on",
                "note": 45,
                "velocity": 73,
                "time": 26
            },
            {
                "type": "note_on",
                "note": 52,
                "velocity": 73,
                "time": 0
            },
            {
                "type": "note_on",
                "note": 78,
                "velocity": 78,
                "time": 102
            },
            {
                "type": "note_off",
                "note": 45,
                "velocity": 0,
                "time": 0
            },
            {
                "type": "note_off",
                "note": 52,
                "velocity": 0,
                "time": 0
            },
            {
                "type": "note_on",
                "note": 45,
                "velocity": 82,
                "time": 0
            },
            {
                "type": "note_on",
                "note": 54,
                "velocity": 82,
                "time": 0
            },
            {
                "type": "note_off",
                "note": 45,
                "velocity": 0,
                "time": 128
            },
            {
                "type": "note_off",
                "note": 54,
                "velocity": 0,
                "time": 0
            },
            {
                "type": "note_on",
                "note": 45,
                "velocity": 73,
                "time": 26
            },
            {
                "type": "note_on",
                "note": 54,
                "velocity": 73,
                "time": 0
            },
            {
                "type": "note_off",
                "note": 78,
                "velocity": 0,
                "time": 102
            },
            {
                "type": "note_on",
                "note": 69,
                "velocity": 73,
                "time": 0
            },
            {
                "type": "note_on",
                "note": 73,
                "velocity": 73,
                "time": 0
            },
            {
                "type": "note_on",
                "note": 76,
                "velocity": 73,
                "time": 0
            },
            {
                "type": "note_off",
                "note": 45,
                "velocity": 0,
                "time": 0
            },
            {
                "type": "note_off",
                "note": 54,
                "velocity": 0,
                "time": 0
            },
            {
                "type": "note_on",
                "note": 45,
                "velocity": 81,
                "time": 0
            },
            {
                "type": "note_on",
                "note": 52,
                "velocity": 81,
                "time": 0
            },
            {
                "type": "note_off",
                "note": 45,
                "velocity": 0,
                "time": 128
            },
            {
                "type": "note_off",
                "note": 52,
                "velocity": 0,
                "time": 0
            },
            {
                "type": "note_on",
                "note": 45,
                "velocity": 70,
                "time": 26
            },
            {
                "type": "note_on",
                "note": 52,
                "velocity": 70,
                "time": 0
            },
            {
                "type": "note_off",
                "note": 45,
                "velocity": 0,
                "time": 102
            },
            {
                "type": "note_off",
                "note": 52,
                "velocity": 0,
                "time": 0
            },
            {
                "type": "note_on",
                "note": 45,
                "velocity": 82,
                "time": 0
            },
            {
                "type": "note_on",
                "note": 54,
                "velocity": 82,
                "time": 0
            },
            {
                "type": "note_off",
                "note": 45,
                "velocity": 0,
                "time": 128
            },
            {
                "type": "note_off",
                "note": 54,
                "velocity": 0,
                "time": 0
            },
            {
                "type": "note_on",
                "note": 45,
                "velocity": 75,
                "time": 26
            },
            {
                "type": "note_on",
                "note": 54,
                "velocity": 75,
                "time": 0
            },
            {
                "type": "note_off",
                "note": 45,
                "velocity": 0,
                "time": 102
            },
            {
                "type": "note_off",
                "note": 54,
                "velocity": 0,
                "time": 0
            },
            {
                "type": "note_on",
                "note": 45,
                "velocity": 81,
                "time": 0
            },
            {
                "type": "note_on",
                "note": 52,
                "velocity": 81,
                "time": 0
            },
            {
                "type": "note_off",
                "note": 69,
                "velocity": 0,
                "time": 128
            },
            {
                "type": "note_off",
                "note": 73,
                "velocity": 0,
                "time": 0
            },
            {
                "type": "note_off",
                "note": 76,
                "velocity": 0,
                "time": 0
            },
            {
                "type": "note_off",
                "note": 45,
                "velocity": 0,
                "time": 0
            },
            {
                "type": "note_off",
                "note": 52,
                "velocity": 0,
                "time": 0
            },
            {
                "type": "note_on",
                "note": 64,
                "velocity": 54,
                "time": 26
            },
            {
                "type": "note_on",
                "note": 45,
                "velocity": 72,
                "time": 0
            },
            {
                "type": "note_on",
                "note": 52,
                "velocity": 72,
                "time": 0
            },
            {
                "type": "note_off",
                "note": 64,
                "velocity": 0,
                "time": 102
            },
            {
                "type": "note_on",
                "note": 66,
                "velocity": 84,
                "time": 0
            },
            {
                "type": "note_off",
                "note": 45,
                "velocity": 0,
                "time": 0
            },
            {
                "type": "note_off",
                "note": 52,
                "velocity": 0,
                "time": 0
            },
            {
                "type": "note_on",
                "note": 45,
                "velocity": 84,
                "time": 0
            },
            {
                "type": "note_on",
                "note": 54,
                "velocity": 84,
                "time": 0
            },
            {
                "type": "note_off",
                "note": 66,
                "velocity": 0,
                "time": 128
            },
            {
                "type": "note_off",
                "note": 45,
                "velocity": 0,
                "time": 0
            },
            {
                "type": "note_off",
                "note": 54,
                "velocity": 0,
                "time": 0
            },
            {
                "type": "note_on",
                "note": 67,
                "velocity": 79,
                "time": 26
            },
            {
                "type": "note_on",
                "note": 45,
                "velocity": 78,
                "time": 0
            },
            {
                "type": "note_on",
                "note": 54,
                "velocity": 78,
                "time": 0
            },
            {
                "type": "note_off",
                "note": 67,
                "velocity": 0,
                "time": 102
            },
            {
                "type": "note_off",
                "note": 45,
                "velocity": 0,
                "time": 0
            },
            {
                "type": "note_off",
                "note": 54,
                "velocity": 0,
                "time": 0
            },
            {
                "type": "note_on",
                "note": 45,
                "velocity": 76,
                "time": 0
            },
            {
                "type": "note_on",
                "note": 52,
                "velocity": 76,
                "time": 0
            },
            {
                "type": "note_off",
                "note": 45,
                "velocity": 0,
                "time": 128
            },
            {
                "type": "note_off",
                "note": 52,
                "velocity": 0,
                "time": 0
            },
            {
                "type": "note_on",
                "note": 45,
                "velocity": 73,
                "time": 26
            },
            {
                "type": "note_on",
                "note": 52,
                "velocity": 73,
                "time": 0
            },
            {
                "type": "note_on",
                "note": 76,
                "velocity": 75,
                "time": 102
            },
            {
                "type": "note_off",
                "note": 45,
                "velocity": 0,
                "time": 0
            },
            {
                "type": "note_off",
                "note": 52,
                "velocity": 0,
                "time": 0
            },
            {
                "type": "note_on",
                "note": 45,
                "velocity": 82,
                "time": 0
            },
            {
                "type": "note_on",
                "note": 54,
                "velocity": 82,
                "time": 0
            },
            {
                "type": "note_off",
                "note": 45,
                "velocity": 0,
                "time": 128
            },
            {
                "type": "note_off",
                "note": 54,
                "velocity": 0,
                "time": 0
            },
            {
                "type": "note_on",
                "note": 45,
                "velocity": 75,
                "time": 26
            },
            {
                "type": "note_on",
                "note": 54,
                "velocity": 75,
                "time": 0
            },
            {
                "type": "note_off",
                "note": 76,
                "velocity": 0,
                "time": 102
            },
            {
                "type": "note_on",
                "note": 78,
                "velocity": 82,
                "time": 0
            },
            {
                "type": "note_off",
                "note": 45,
                "velocity": 0,
                "time": 0
            },
            {
                "type": "note_off",
                "note": 54,
                "velocity": 0,
                "time": 0
            },
            {
                "type": "note_on",
                "note": 45,
                "velocity": 76,
                "time": 0
            },
            {
                "type": "note_on",
                "note": 52,
                "velocity": 76,
                "time": 0
            },
            {
                "type": "note_off",
                "note": 78,
                "velocity": 0,
                "time": 128
            },
            {
                "type": "note_off",
                "note": 45,
                "velocity": 0,
                "time": 0
            },
            {
                "type": "note_off",
                "note": 52,
                "velocity": 0,
                "time": 0
            },
            {
                "type": "note_on",
                "note": 76,
                "velocity": 62,
                "time": 26
            },
            {
                "type": "note_on",
                "note": 45,
                "velocity": 74,
                "time": 0
            },
            {
                "type": "note_on",
                "note": 52,
                "velocity": 74,
                "time": 0
            },
            {
                "type": "note_off",
                "note": 76,
                "velocity": 0,
                "time": 102
            },
            {
                "type": "note_on",
                "note": 72,
                "velocity": 67,
                "time": 0
            },
            {
                "type": "note_off",
                "note": 45,
                "velocity": 0,
                "time": 0
            },
            {
                "type": "note_off",
                "note": 52,
                "velocity": 0,
                "time": 0
            },
            {
                "type": "note_on",
                "note": 45,
                "velocity": 83,
                "time": 0
            },
            {
                "type": "note_on",
                "note": 54,
                "velocity": 83,
                "time": 0
            },
            {
                "type": "note_off",
                "note": 72,
                "velocity": 0,
                "time": 128
            },
            {
                "type": "note_off",
                "note": 45,
                "velocity": 0,
                "time": 0
            },
            {
                "type": "note_off",
                "note": 54,
                "velocity": 0,
                "time": 0
            },
            {
                "type": "note_on",
                "note": 69,
                "velocity": 58,
                "time": 26
            },
            {
                "type": "note_on",
                "note": 45,
                "velocity": 71,
                "time": 0
            },
            {
                "type": "note_on",
                "note": 54,
                "velocity": 71,
                "time": 0
            },
            {
                "type": "note_off",
                "note": 45,
                "velocity": 0,
                "time": 102
            },
            {
                "type": "note_off",
                "note": 54,
                "velocity": 0,
                "time": 0
            },
            {
                "type": "note_on",
                "note": 50,
                "velocity": 84,
                "time": 0
            },
            {
                "type": "note_on",
                "note": 57,
                "velocity": 84,
                "time": 0
            },
            {
                "type": "note_off",
                "note": 50,
                "velocity": 0,
                "time": 128
            },
            {
                "type": "note_off",
                "note": 57,
                "velocity": 0,
                "time": 0
            },
            {
                "type": "note_on",
                "note": 50,
                "velocity": 72,
                "time": 26
            },
            {
                "type": "note_on",
                "note": 57,
                "velocity": 72,
                "time": 0
            },
            {
                "type": "note_off",
                "note": 69,
                "velocity": 0,
                "time": 102
            },
            {
                "type": "note_on",
                "note": 66,
                "velocity": 76,
                "time": 0
            },
            {
                "type": "note_off",
                "note": 50,
                "velocity": 0,
                "time": 0
            },
            {
                "type": "note_off",
                "note": 57,
                "velocity": 0,
                "time": 0
            },
            {
                "type": "note_on",
                "note": 50,
                "velocity": 79,
                "time": 0
            },
            {
                "type": "note_on",
                "note": 59,
                "velocity": 79,
                "time": 0
            },
            {
                "type": "note_off",
                "note": 66,
                "velocity": 0,
                "time": 128
            },
            {
                "type": "note_off",
                "note": 50,
                "velocity": 0,
                "time": 0
            },
            {
                "type": "note_off",
                "note": 59,
                "velocity": 0,
                "time": 0
            },
            {
                "type": "note_on",
                "note": 71,
                "velocity": 84,
                "time": 26
            },
            {
                "type": "note_on",
                "note": 50,
                "velocity": 68,
                "time": 0
            },
            {
                "type": "note_on",
                "note": 59,
                "velocity": 68,
                "time": 0
            },
            {
                "type": "note_off",
                "note": 71,
                "velocity": 0,
                "time": 102
            },
            {
                "type": "note_on",
                "note": 69,
                "velocity": 74,
                "time": 0
            },
            {
                "type": "note_off",
                "note": 50,
                "velocity": 0,
                "time": 0
            },
            {
                "type": "note_off",
                "note": 59,
                "velocity": 0,
                "time": 0
            },
            {
                "type": "note_on",
                "note": 50,
                "velocity": 79,
                "time": 0
            },
            {
                "type": "note_on",
                "note": 57,
                "velocity": 79,
                "time": 0
            },
            {
                "type": "note_off",
                "note": 50,
                "velocity": 0,
                "time": 128
            },
            {
                "type": "note_off",
                "note": 57,
                "velocity": 0,
                "time": 0
            },
            {
                "type": "note_on",
                "note": 50,
                "velocity": 72,
                "time": 26
            },
            {
                "type": "note_on",
                "note": 57,
                "velocity": 72,
                "time": 0
            },
            {
                "type": "note_off",
                "note": 69,
                "velocity": 0,
                "time": 102
            },
            {
                "type": "note_on",
                "note": 66,
                "velocity": 76,
                "time": 0
            },
            {
                "type": "note_off",
                "note": 50,
                "velocity": 0,
                "time": 0
            },
            {
                "type": "note_off",
                "note": 57,
                "velocity": 0,
                "time": 0
            },
            {
                "type": "note_on",
                "note": 50,
                "velocity": 82,
                "time": 0
            },
            {
                "type": "note_on",
                "note": 59,
                "velocity": 82,
                "time": 0
            },
            {
                "type": "note_off",
                "note": 50,
                "velocity": 0,
                "time": 128
            },
            {
                "type": "note_off",
                "note": 59,
                "velocity": 0,
                "time": 0
            },
            {
                "type": "note_on",
                "note": 50,
                "velocity": 74,
                "time": 26
            },
            {
                "type": "note_on",
                "note": 59,
                "velocity": 74,
                "time": 0
            },
            {
                "type": "note_off",
                "note": 66,
                "velocity": 0,
                "time": 102
            },
            {
                "type": "note_off",
                "note": 50,
                "velocity": 0,
                "time": 0
            },
            {
                "type": "note_off",
                "note": 59,
                "velocity": 0,
                "time": 0
            },
            {
                "type": "note_on",
                "note": 50,
                "velocity": 76,
                "time": 0
            },
            {
                "type": "note_on",
                "note": 57,
                "velocity": 76,
                "time": 0
            },
            {
                "type": "note_off",
                "note": 50,
                "velocity": 0,
                "time": 128
            },
            {
                "type": "note_off",
                "note": 57,
                "velocity": 0,
                "time": 0
            },
            {
                "type": "note_on",
                "note": 72,
                "velocity": 63,
                "time": 26
            },
            {
                "type": "note_on",
                "note": 50,
                "velocity": 75,
                "time": 0
            },
            {
                "type": "note_on",
                "note": 57,
                "velocity": 75,
                "time": 0
            },
            {
                "type": "note_off",
                "note": 72,
                "velocity": 0,
                "time": 102
            },
            {
                "type": "note_on",
                "note": 72,
                "velocity": 82,
                "time": 0
            },
            {
                "type": "note_off",
                "note": 50,
                "velocity": 0,
                "time": 0
            },
            {
                "type": "note_off",
                "note": 57,
                "velocity": 0,
                "time": 0
            },
            {
                "type": "note_on",
                "note": 50,
                "velocity": 86,
                "time": 0
            },
            {
                "type": "note_on",
                "note": 59,
                "velocity": 86,
                "time": 0
            },
            {
                "type": "note_off",
                "note": 72,
                "velocity": 0,
                "time": 128
            },
            {
                "type": "note_off",
                "note": 50,
                "velocity": 0,
                "time": 0
            },
            {
                "type": "note_off",
                "note": 59,
                "velocity": 0,
                "time": 0
            },
            {
                "type": "note_on",
                "note": 71,
                "velocity": 68,
                "time": 26
            },
            {
                "type": "note_on",
                "note": 50,
                "velocity": 75,
                "time": 0
            },
            {
                "type": "note_on",
                "note": 59,
                "velocity": 75,
                "time": 0
            },
            {
                "type": "note_off",
                "note": 71,
                "velocity": 0,
                "time": 102
            },
            {
                "type": "note_on",
                "note": 69,
                "velocity": 76,
                "time": 0
            },
            {
                "type": "note_off",
                "note": 50,
                "velocity": 0,
                "time": 0
            },
            {
                "type": "note_off",
                "note": 59,
                "velocity": 0,
                "time": 0
            },
            {
                "type": "note_on",
                "note": 50,
                "velocity": 76,
                "time": 0
            },
            {
                "type": "note_on",
                "note": 57,
                "velocity": 76,
                "time": 0
            },
            {
                "type": "note_off",
                "note": 50,
                "velocity": 0,
                "time": 128
            },
            {
                "type": "note_off",
                "note": 57,
                "velocity": 0,
                "time": 0
            },
            {
                "type": "note_on",
                "note": 50,
                "velocity": 71,
                "time": 26
            },
            {
                "type": "note_on",
                "note": 57,
                "velocity": 71,
                "time": 0
            },
            {
                "type": "note_off",
                "note": 69,
                "velocity": 0,
                "time": 102
            },
            {
                "type": "note_on",
                "note": 66,
                "velocity": 74,
                "time": 0
            },
            {
                "type": "note_off",
                "note": 50,
                "velocity": 0,
                "time": 0
            },
            {
                "type": "note_off",
                "note": 57,
                "velocity": 0,
                "time": 0
            },
            {
                "type": "note_on",
                "note": 50,
                "velocity": 84,
                "time": 0
            },
            {
                "type": "note_on",
                "note": 59,
                "velocity": 84,
                "time": 0
            },
            {
                "type": "note_off",
                "note": 66,
                "velocity": 0,
                "time": 128
            },
            {
                "type": "note_off",
                "note": 50,
                "velocity": 0,
                "time": 0
            },
            {
                "type": "note_off",
                "note": 59,
                "velocity": 0,
                "time": 0
            },
            {
                "type": "note_on",
                "note": 64,
                "velocity": 64,
                "time": 26
            },
            {
                "type": "note_on",
                "note": 50,
                "velocity": 69,
                "time": 0
            },
            {
                "type": "note_on",
                "note": 59,
                "velocity": 69,
                "time": 0
            },
            {
                "type": "note_off",
                "note": 50,
                "velocity": 0,
                "time": 102
            },
            {
                "type": "note_off",
                "note": 59,
                "velocity": 0,
                "time": 0
            },
            {
                "type": "note_on",
                "note": 45,
                "velocity": 74,
                "time": 0
            },
            {
                "type": "note_on",
                "note": 52,
                "velocity": 74,
                "time": 0
            },
            {
                "type": "note_off",
                "note": 45,
                "velocity": 0,
                "time": 128
            },
            {
                "type": "note_off",
                "note": 52,
                "velocity": 0,
                "time": 0
            },
            {
                "type": "note_on",
                "note": 45,
                "velocity": 71,
                "time": 26
            },
            {
                "type": "note_on",
                "note": 52,
                "velocity": 71,
                "time": 0
            },
            {
                "type": "note_off",
                "note": 45,
                "velocity": 0,
                "time": 102
            },
            {
                "type": "note_off",
                "note": 52,
                "velocity": 0,
                "time": 0
            },
            {
                "type": "note_on",
                "note": 45,
                "velocity": 84,
                "time": 0
            },
            {
                "type": "note_on",
                "note": 54,
                "velocity": 84,
                "time": 0
            },
            {
                "type": "note_off",
                "note": 45,
                "velocity": 0,
                "time": 128
            },
            {
                "type": "note_off",
                "note": 54,
                "velocity": 0,
                "time": 0
            },
            {
                "type": "note_on",
                "note": 45,
                "velocity": 74,
                "time": 26
            },
            {
                "type": "note_on",
                "note": 54,
                "velocity": 74,
                "time": 0
            },
            {
                "type": "note_off",
                "note": 45,
                "velocity": 0,
                "time": 102
            },
            {
                "type": "note_off",
                "note": 54,
                "velocity": 0,
                "time": 0
            },
            {
                "type": "note_on",
                "note": 45,
                "velocity": 77,
                "time": 0
            },
            {
                "type": "note_on",
                "note": 52,
                "velocity": 77,
                "time": 0
            },
            {
                "type": "note_off",
                "note": 45,
                "velocity": 0,
                "time": 128
            },
            {
                "type": "note_off",
                "note": 52,
                "velocity": 0,
                "time": 0
            },
            {
                "type": "note_on",
                "note": 45,
                "velocity": 73,
                "time": 26
            },
            {
                "type": "note_on",
                "note": 52,
                "velocity": 73,
                "time": 0
            },
            {
                "type": "note_off",
                "note": 64,
                "velocity": 0,
                "time": 102
            },
            {
                "type": "note_on",
                "note": 61,
                "velocity": 72,
                "time": 0
            },
            {
                "type": "note_off",
                "note": 45,
                "velocity": 0,
                "time": 0
            },
            {
                "type": "note_off",
                "note": 52,
                "velocity": 0,
                "time": 0
            },
            {
                "type": "note_on",
                "note": 45,
                "velocity": 83,
                "time": 0
            },
            {
                "type": "note_on",
                "note": 54,
                "velocity": 83,
                "time": 0
            },
            {
                "type": "note_off",
                "note": 61,
                "velocity": 0,
                "time": 128
            },
            {
                "type": "note_off",
                "note": 45,
                "velocity": 0,
                "time": 0
            },
            {
                "type": "note_off",
                "note": 54,
                "velocity": 0,
                "time": 0
            },
            {
                "type": "note_on",
                "note": 64,
                "velocity": 77,
                "time": 26
            },
            {
                "type": "note_on",
                "note": 45,
                "velocity": 70,
                "time": 0
            },
            {
                "type": "note_on",
                "note": 54,
                "velocity": 70,
                "time": 0
            },
            {
                "type": "note_off",
                "note": 45,
                "velocity": 0,
                "time": 102
            },
            {
                "type": "note_off",
                "note": 54,
                "velocity": 0,
                "time": 0
            },
            {
                "type": "note_on",
                "note": 45,
                "velocity": 74,
                "time": 0
            },
            {
                "type": "note_on",
                "note": 52,
                "velocity": 74,
                "time": 0
            },
            {
                "type": "note_off",
                "note": 45,
                "velocity": 0,
                "time": 128
            },
            {
                "type": "note_off",
                "note": 52,
                "velocity": 0,
                "time": 0
            },
            {
                "type": "note_on",
                "note": 45,
                "velocity": 71,
                "time": 26
            },
            {
                "type": "note_on",
                "note": 52,
                "velocity": 71,
                "time": 0
            },
            {
                "type": "note_off",
                "note": 45,
                "velocity": 0,
                "time": 102
            },
            {
                "type": "note_off",
                "note": 52,
                "velocity": 0,
                "time": 0
            },
            {
                "type": "note_on",
                "note": 45,
                "velocity": 84,
                "time": 0
            },
            {
                "type": "note_on",
                "note": 54,
                "velocity": 84,
                "time": 0
            },
            {
                "type": "note_off",
                "note": 45,
                "velocity": 0,
                "time": 128
            },
            {
                "type": "note_off",
                "note": 54,
                "velocity": 0,
                "time": 0
            },
            {
                "type": "note_on",
                "note": 45,
                "velocity": 71,
                "time": 26
            },
            {
                "type": "note_on",
                "note": 54,
                "velocity": 71,
                "time": 0
            },
            {
                "type": "note_off",
                "note": 64,
                "velocity": 0,
                "time": 102
            },
            {
                "type": "note_off",
                "note": 45,
                "velocity": 0,
                "time": 0
            },
            {
                "type": "note_off",
                "note": 54,
                "velocity": 0,
                "time": 0
            },
            {
                "type": "note_on",
                "note": 45,
                "velocity": 75,
                "time": 0
            },
            {
                "type": "note_on",
                "note": 52,
                "velocity": 75,
                "time": 0
            },
            {
                "type": "note_off",
                "note": 45,
                "velocity": 0,
                "time": 128
            },
            {
                "type": "note_off",
                "note": 52,
                "velocity": 0,
                "time": 0
            },
            {
                "type": "note_on",
                "note": 74,
                "velocity": 62,
                "time": 26
            },
            {
                "type": "note_on",
                "note": 45,
                "velocity": 73,
                "time": 0
            },
            {
                "type": "note_on",
                "note": 52,
                "velocity": 73,
                "time": 0
            },
            {
                "type": "note_off",
                "note": 74,
                "velocity": 0,
                "time": 102
            },
            {
                "type": "note_on",
                "note": 74,
                "velocity": 82,
                "time": 0
            },
            {
                "type": "note_off",
                "note": 45,
                "velocity": 0,
                "time": 0
            },
            {
                "type": "note_off",
                "note": 52,
                "velocity": 0,
                "time": 0
            },
            {
                "type": "note_on",
                "note": 45,
                "velocity": 82,
                "time": 0
            },
            {
                "type": "note_on",
                "note": 54,
                "velocity": 82,
                "time": 0
            },
            {
                "type": "note_off",
                "note": 74,
                "velocity": 0,
                "time": 128
            },
            {
                "type": "note_off",
                "note": 45,
                "velocity": 0,
                "time": 0
            },
            {
                "type": "note_off",
                "note": 54,
                "velocity": 0,
                "time": 0
            },
            {
                "type": "note_on",
                "note": 73,
                "velocity": 69,
                "time": 26
            },
            {
                "type": "note_on",
                "note": 45,
                "velocity": 70,
                "time": 0
            },
            {
                "type": "note_on",
                "note": 54,
                "velocity": 70,
                "time": 0
            },
            {
                "type": "note_off",
                "note": 73,
                "velocity": 0,
                "time": 102
            },
            {
                "type": "note_on",
                "note": 74,
                "velocity": 82,
                "time": 0
            },
            {
                "type": "note_on",
                "note": 68,
                "velocity": 85,
                "time": 0
            },
            {
                "type": "note_on",
                "note": 71,
                "velocity": 85,
                "time": 0
            },
            {
                "type": "note_off",
                "note": 45,
                "velocity": 0,
                "time": 0
            },
            {
                "type": "note_off",
                "note": 54,
                "velocity": 0,
                "time": 0
            },
            {
                "type": "note_on",
                "note": 52,
                "velocity": 81,
                "time": 0
            },
            {
                "type": "note_on",
                "note": 59,
                "velocity": 81,
                "time": 0
            },
            {
                "type": "note_off",
                "note": 74,
                "velocity": 0,
                "time": 128
            },
            {
                "type": "note_off",
                "note": 52,
                "velocity": 0,
                "time": 0
            },
            {
                "type": "note_off",
                "note": 59,
                "velocity": 0,
                "time": 0
            },
            {
                "type": "note_on",
                "note": 73,
                "velocity": 65,
                "time": 26
            },
            {
                "type": "note_on",
                "note": 52,
                "velocity": 70,
                "time": 0
            },
            {
                "type": "note_on",
                "note": 59,
                "velocity": 70,
                "time": 0
            },
            {
                "type": "note_off",
                "note": 73,
                "velocity": 0,
                "time": 102
            },
            {
                "type": "note_on",
                "note": 74,
                "velocity": 85,
                "time": 0
            },
            {
                "type": "note_off",
                "note": 52,
                "velocity": 0,
                "time": 0
            },
            {
                "type": "note_off",
                "note": 59,
                "velocity": 0,
                "time": 0
            },
            {
                "type": "note_on",
                "note": 52,
                "velocity": 90,
                "time": 0
            },
            {
                "type": "note_on",
                "note": 61,
                "velocity": 90,
                "time": 0
            },
            {
                "type": "note_off",
                "note": 74,
                "velocity": 0,
                "time": 128
            },
            {
                "type": "note_off",
                "note": 52,
                "velocity": 0,
                "time": 0
            },
            {
                "type": "note_off",
                "note": 61,
                "velocity": 0,
                "time": 0
            },
            {
                "type": "note_on",
                "note": 73,
                "velocity": 70,
                "time": 26
            },
            {
                "type": "note_on",
                "note": 52,
                "velocity": 71,
                "time": 0
            },
            {
                "type": "note_on",
                "note": 61,
                "velocity": 71,
                "time": 0
            },
            {
                "type": "note_off",
                "note": 73,
                "velocity": 0,
                "time": 102
            },
            {
                "type": "note_on",
                "note": 74,
                "velocity": 83,
                "time": 0
            },
            {
                "type": "note_off",
                "note": 52,
                "velocity": 0,
                "time": 0
            },
            {
                "type": "note_off",
                "note": 61,
                "velocity": 0,
                "time": 0
            },
            {
                "type": "note_on",
                "note": 52,
                "velocity": 78,
                "time": 0
            },
            {
                "type": "note_on",
                "note": 59,
                "velocity": 78,
                "time": 0
            },
            {
                "type": "note_off",
                "note": 74,
                "velocity": 0,
                "time": 128
            },
            {
                "type": "note_off",
                "note": 52,
                "velocity": 0,
                "time": 0
            },
            {
                "type": "note_off",
                "note": 59,
                "velocity": 0,
                "time": 0
            },
            {
                "type": "note_on",
                "note": 76,
                "velocity": 80,
                "time": 26
            },
            {
                "type": "note_on",
                "note": 52,
                "velocity": 74,
                "time": 0
            },
            {
                "type": "note_on",
                "note": 59,
                "velocity": 74,
                "time": 0
            },
            {
                "type": "note_off",
                "note": 52,
                "velocity": 0,
                "time": 102
            },
            {
                "type": "note_off",
                "note": 59,
                "velocity": 0,
                "time": 0
            },
            {
                "type": "note_on",
                "note": 52,
                "velocity": 88,
                "time": 0
            },
            {
                "type": "note_on",
                "note": 61,
                "velocity": 88,
                "time": 0
            },
            {
                "type": "note_off",
                "note": 52,
                "velocity": 0,
                "time": 128
            },
            {
                "type": "note_off",
                "note": 61,
                "velocity": 0,
                "time": 0
            },
            {
                "type": "note_on",
                "note": 52,
                "velocity": 73,
                "time": 26
            },
            {
                "type": "note_on",
                "note": 61,
                "velocity": 73,
                "time": 0
            },
            {
                "type": "note_off",
                "note": 68,
                "velocity": 0,
                "time": 102
            },
            {
                "type": "note_off",
                "note": 71,
                "velocity": 0,
                "time": 0
            },
            {
                "type": "note_off",
                "note": 76,
                "velocity": 0,
                "time": 0
            },
            {
                "type": "note_on",
                "note": 66,
                "velocity": 78,
                "time": 0
            },
            {
                "type": "note_on",
                "note": 69,
                "velocity": 78,
                "time": 0
            },
            {
                "type": "note_off",
                "note": 52,
                "velocity": 0,
                "time": 0
            },
            {
                "type": "note_off",
                "note": 61,
                "velocity": 0,
                "time": 0
            },
            {
                "type": "note_on",
                "note": 50,
                "velocity": 75,
                "time": 0
            },
            {
                "type": "note_on",
                "note": 57,
                "velocity": 75,
                "time": 0
            },
            {
                "type": "note_off",
                "note": 50,
                "velocity": 0,
                "time": 128
            },
            {
                "type": "note_off",
                "note": 57,
                "velocity": 0,
                "time": 0
            },
            {
                "type": "note_on",
                "note": 72,
                "velocity": 66,
                "time": 26
            },
            {
                "type": "note_on",
                "note": 50,
                "velocity": 71,
                "time": 0
            },
            {
                "type": "note_on",
                "note": 57,
                "velocity": 71,
                "time": 0
            },
            {
                "type": "note_off",
                "note": 72,
                "velocity": 0,
                "time": 102
            },
            {
                "type": "note_on",
                "note": 72,
                "velocity": 74,
                "time": 0
            },
            {
                "type": "note_off",
                "note": 50,
                "velocity": 0,
                "time": 0
            },
            {
                "type": "note_off",
                "note": 57,
                "velocity": 0,
                "time": 0
            },
            {
                "type": "note_on",
                "note": 50,
                "velocity": 82,
                "time": 0
            },
            {
                "type": "note_on",
                "note": 59,
                "velocity": 82,
                "time": 0
            },
            {
                "type": "note_off",
                "note": 72,
                "velocity": 0,
                "time": 128
            },
            {
                "type": "note_off",
                "note": 50,
                "velocity": 0,
                "time": 0
            },
            {
                "type": "note_off",
                "note": 59,
                "velocity": 0,
                "time": 0
            },
            {
                "type": "note_on",
                "note": 71,
                "velocity": 70,
                "time": 26
            },
            {
                "type": "note_on",
                "note": 50,
                "velocity": 73,
                "time": 0
            },
            {
                "type": "note_on",
                "note": 59,
                "velocity": 73,
                "time": 0
            },
            {
                "type": "note_off",
                "note": 71,
                "velocity": 0,
                "time": 102
            },
            {
                "type": "note_on",
                "note": 69,
                "velocity": 77,
                "time": 0
            },
            {
                "type": "note_off",
                "note": 50,
                "velocity": 0,
                "time": 0
            },
            {
                "type": "note_off",
                "note": 59,
                "velocity": 0,
                "time": 0
            },
            {
                "type": "note_on",
                "note": 50,
                "velocity": 77,
                "time": 0
            },
            {
                "type": "note_on",
                "note": 57,
                "velocity": 77,
                "time": 0
            },
            {
                "type": "note_off",
                "note": 50,
                "velocity": 0,
                "time": 128
            },
            {
                "type": "note_off",
                "note": 57,
                "velocity": 0,
                "time": 0
            },
            {
                "type": "note_on",
                "note": 50,
                "velocity": 72,
                "time": 26
            },
            {
                "type": "note_on",
                "note": 57,
                "velocity": 72,
                "time": 0
            },
            {
                "type": "note_off",
                "note": 69,
                "velocity": 0,
                "time": 102
            },
            {
                "type": "note_on",
                "note": 66,
                "velocity": 74,
                "time": 0
            },
            {
                "type": "note_off",
                "note": 50,
                "velocity": 0,
                "time": 0
            },
            {
                "type": "note_off",
                "note": 57,
                "velocity": 0,
                "time": 0
            },
            {
                "type": "note_on",
                "note": 50,
                "velocity": 79,
                "time": 0
            },
            {
                "type": "note_on",
                "note": 59,
                "velocity": 79,
                "time": 0
            },
            {
                "type": "note_off",
                "note": 66,
                "velocity": 0,
                "time": 128
            },
            {
                "type": "note_off",
                "note": 50,
                "velocity": 0,
                "time": 0
            },
            {
                "type": "note_off",
                "note": 59,
                "velocity": 0,
                "time": 0
            },
            {
                "type": "note_on",
                "note": 69,
                "velocity": 75,
                "time": 26
            },
            {
                "type": "note_on",
                "note": 50,
                "velocity": 71,
                "time": 0
            },
            {
                "type": "note_on",
                "note": 59,
                "velocity": 71,
                "time": 0
            },
            {
                "type": "note_off",
                "note": 66,
                "velocity": 0,
                "time": 102
            },
            {
                "type": "note_off",
                "note": 69,
                "velocity": 0,
                "time": 0
            },
            {
                "type": "note_off",
                "note": 50,
                "velocity": 0,
                "time": 0
            },
            {
                "type": "note_off",
                "note": 59,
                "velocity": 0,
                "time": 0
            },
            {
                "type": "note_on",
                "note": 45,
                "velocity": 72,
                "time": 0
            },
            {
                "type": "note_on",
                "note": 52,
                "velocity": 72,
                "time": 0
            },
            {
                "type": "note_off",
                "note": 45,
                "velocity": 0,
                "time": 128
            },
            {
                "type": "note_off",
                "note": 52,
                "velocity": 0,
                "time": 0
            },
            {
                "type": "note_on",
                "note": 45,
                "velocity": 70,
                "time": 26
            },
            {
                "type": "note_on",
                "note": 52,
                "velocity": 70,
                "time": 0
            },
            {
                "type": "note_off",
                "note": 45,
                "velocity": 0,
                "time": 102
            },
            {
                "type": "note_off",
                "note": 52,
                "velocity": 0,
                "time": 0
            },
            {
                "type": "note_on",
                "note": 45,
                "velocity": 84,
                "time": 0
            },
            {
                "type": "note_on",
                "note": 54,
                "velocity": 84,
                "time": 0
            },
            {
                "type": "note_off",
                "note": 45,
                "velocity": 0,
                "time": 128
            },
            {
                "type": "note_off",
                "note": 54,
                "velocity": 0,
                "time": 0
            },
            {
                "type": "note_on",
                "note": 45,
                "velocity": 75,
                "time": 26
            },
            {
                "type": "note_on",
                "note": 54,
                "velocity": 75,
                "time": 0
            },
            {
                "type": "note_off",
                "note": 45,
                "velocity": 0,
                "time": 102
            },
            {
                "type": "note_off",
                "note": 54,
                "velocity": 0,
                "time": 0
            },
            {
                "type": "note_on",
                "note": 45,
                "velocity": 85,
                "time": 0
            },
            {
                "type": "note_on",
                "note": 52,
                "velocity": 85,
                "time": 0
            },
            {
                "type": "note_off",
                "note": 45,
                "velocity": 0,
                "time": 128
            },
            {
                "type": "note_off",
                "note": 52,
                "velocity": 0,
                "time": 0
            },
            {
                "type": "note_on",
                "note": 45,
                "velocity": 74,
                "time": 26
            },
            {
                "type": "note_on",
                "note": 52,
                "velocity": 74,
                "time": 0
            },
            {
                "type": "note_off",
                "note": 45,
                "velocity": 0,
                "time": 102
            },
            {
                "type": "note_off",
                "note": 52,
                "velocity": 0,
                "time": 0
            },
            {
                "type": "note_on",
                "note": 45,
                "velocity": 82,
                "time": 0
            },
            {
                "type": "note_on",
                "note": 54,
                "velocity": 82,
                "time": 0
            },
            {
                "type": "note_off",
                "note": 45,
                "velocity": 0,
                "time": 128
            },
            {
                "type": "note_off",
                "note": 54,
                "velocity": 0,
                "time": 0
            },
            {
                "type": "note_on",
                "note": 45,
                "velocity": 74,
                "time": 26
            },
            {
                "type": "note_on",
                "note": 54,
                "velocity": 74,
                "time": 0
            },
            {
                "type": "note_off",
                "note": 69,
                "velocity": 0,
                "time": 102
            },
            {
                "type": "note_off",
                "note": 45,
                "velocity": 0,
                "time": 0
            },
            {
                "type": "note_off",
                "note": 54,
                "velocity": 0,
                "time": 0
            },
            {
                "type": "note_on",
                "note": 45,
                "velocity": 78,
                "time": 0
            },
            {
                "type": "note_on",
                "note": 52,
                "velocity": 78,
                "time": 0
            },
            {
                "type": "note_off",
                "note": 45,
                "velocity": 0,
                "time": 128
            },
            {
                "type": "note_off",
                "note": 52,
                "velocity": 0,
                "time": 0
            },
            {
                "type": "note_on",
                "note": 40,
                "velocity": 73,
                "time": 26
            },
            {
                "type": "note_on",
                "note": 52,
                "velocity": 73,
                "time": 0
            },
            {
                "type": "note_off",
                "note": 40,
                "velocity": 0,
                "time": 102
            },
            {
                "type": "note_off",
                "note": 52,
                "velocity": 0,
                "time": 0
            },
            {
                "type": "note_on",
                "note": 40,
                "velocity": 83,
                "time": 0
            },
            {
                "type": "note_on",
                "note": 52,
                "velocity": 83,
                "time": 0
            },
            {
                "type": "note_off",
                "note": 40,
                "velocity": 0,
                "time": 128
            },
            {
                "type": "note_off",
                "note": 52,
                "velocity": 0,
                "time": 0
            },
            {
                "type": "note_on",
                "note": 40,
                "velocity": 72,
                "time": 26
            },
            {
                "type": "note_on",
                "note": 52,
                "velocity": 72,
                "time": 0
            },
            {
                "type": "note_off",
                "note": 40,
                "velocity": 0,
                "time": 102
            },
            {
                "type": "note_off",
                "note": 52,
                "velocity": 0,
                "time": 0
            },
            {
                "type": "note_on",
                "note": 40,
                "velocity": 79,
                "time": 0
            },
            {
                "type": "note_on",
                "note": 52,
                "velocity": 79,
                "time": 0
            },
            {
                "type": "note_off",
                "note": 40,
                "velocity": 0,
                "time": 128
            },
            {
                "type": "note_off",
                "note": 52,
                "velocity": 0,
                "time": 0
            },
            {
                "type": "note_on",
                "note": 40,
                "velocity": 73,
                "time": 26
            },
            {
                "type": "note_on",
                "note": 52,
                "velocity": 73,
                "time": 0
            },
            {
                "type": "note_on",
                "note": 78,
                "velocity": 74,
                "time": 102
            },
            {
                "type": "note_off",
                "note": 40,
                "velocity": 0,
                "time": 0
            },
            {
                "type": "note_off",
                "note": 52,
                "velocity": 0,
                "time": 0
            },
            {
                "type": "note_on",
                "note": 40,
                "velocity": 84,
                "time": 0
            },
            {
                "type": "note_on",
                "note": 52,
                "velocity": 84,
                "time": 0
            },
            {
                "type": "note_off",
                "note": 40,
                "velocity": 0,
                "time": 128
            },
            {
                "type": "note_off",
                "note": 52,
                "velocity": 0,
                "time": 0
            },
            {
                "type": "note_on",
                "note": 40,
                "velocity": 73,
                "time": 26
            },
            {
                "type": "note_on",
                "note": 52,
                "velocity": 73,
                "time": 0
            },
            {
                "type": "note_off",
                "note": 78,
                "velocity": 0,
                "time": 102
            },
            {
                "type": "note_on",
                "note": 69,
                "velocity": 75,
                "time": 0
            },
            {
                "type": "note_on",
                "note": 73,
                "velocity": 75,
                "time": 0
            },
            {
                "type": "note_on",
                "note": 76,
                "velocity": 75,
                "time": 0
            },
            {
                "type": "note_off",
                "note": 40,
                "velocity": 0,
                "time": 0
            },
            {
                "type": "note_off",
                "note": 52,
                "velocity": 0,
                "time": 0
            },
            {
                "type": "note_on",
                "note": 45,
                "velocity": 80,
                "time": 0
            },
            {
                "type": "note_on",
                "note": 52,
                "velocity": 80,
                "time": 0
            },
            {
                "type": "note_off",
                "note": 45,
                "velocity": 0,
                "time": 128
            },
            {
                "type": "note_off",
                "note": 52,
                "velocity": 0,
                "time": 0
            },
            {
                "type": "note_on",
                "note": 45,
                "velocity": 72,
                "time": 26
            },
            {
                "type": "note_on",
                "note": 52,
                "velocity": 72,
                "time": 0
            },
            {
                "type": "note_off",
                "note": 45,
                "velocity": 0,
                "time": 102
            },
            {
                "type": "note_off",
                "note": 52,
                "velocity": 0,
                "time": 0
            },
            {
                "type": "note_on",
                "note": 45,
                "velocity": 84,
                "time": 0
            },
            {
                "type": "note_on",
                "note": 54,
                "velocity": 84,
                "time": 0
            },
            {
                "type": "note_off",
                "note": 45,
                "velocity": 0,
                "time": 128
            },
            {
                "type": "note_off",
                "note": 54,
                "velocity": 0,
                "time": 0
            },
            {
                "type": "note_on",
                "note": 45,
                "velocity": 74,
                "time": 26
            },
            {
                "type": "note_on",
                "note": 54,
                "velocity": 74,
                "time": 0
            },
            {
                "type": "note_off",
                "note": 45,
                "velocity": 0,
                "time": 102
            },
            {
                "type": "note_off",
                "note": 54,
                "velocity": 0,
                "time": 0
            },
            {
                "type": "note_on",
                "note": 45,
                "velocity": 81,
                "time": 0
            },
            {
                "type": "note_on",
                "note": 52,
                "velocity": 81,
                "time": 0
            },
            {
                "type": "note_off",
                "note": 69,
                "velocity": 0,
                "time": 128
            },
            {
                "type": "note_off",
                "note": 73,
                "velocity": 0,
                "time": 0
            },
            {
                "type": "note_off",
                "note": 76,
                "velocity": 0,
                "time": 0
            },
            {
                "type": "note_off",
                "note": 45,
                "velocity": 0,
                "time": 0
            },
            {
                "type": "note_off",
                "note": 52,
                "velocity": 0,
                "time": 0
            },
            {
                "type": "note_on",
                "note": 69,
                "velocity": 54,
                "time": 26
            },
            {
                "type": "note_on",
                "note": 45,
                "velocity": 75,
                "time": 0
            },
            {
                "type": "note_on",
                "note": 52,
                "velocity": 75,
                "time": 0
            },
            {
                "type": "note_off",
                "note": 69,
                "velocity": 0,
                "time": 102
            },
            {
                "type": "note_on",
                "note": 66,
                "velocity": 82,
                "time": 0
            },
            {
                "type": "note_on",
                "note": 69,
                "velocity": 82,
                "time": 0
            },
            {
                "type": "note_on",
                "note": 72,
                "velocity": 82,
                "time": 0
            },
            {
                "type": "note_off",
                "note": 45,
                "velocity": 0,
                "time": 0
            },
            {
                "type": "note_off",
                "note": 52,
                "velocity": 0,
                "time": 0
            },
            {
                "type": "note_on",
                "note": 45,
                "velocity": 84,
                "time": 0
            },
            {
                "type": "note_on",
                "note": 54,
                "velocity": 84,
                "time": 0
            },
            {
                "type": "note_off",
                "note": 45,
                "velocity": 0,
                "time": 128
            },
            {
                "type": "note_off",
                "note": 54,
                "velocity": 0,
                "time": 0
            },
            {
                "type": "note_on",
                "note": 45,
                "velocity": 67,
                "time": 26
            },
            {
                "type": "note_on",
                "note": 54,
                "velocity": 67,
                "time": 0
            },
            {
                "type": "note_off",
                "note": 66,
                "velocity": 0,
                "time": 102
            },
            {
                "type": "note_off",
                "note": 69,
                "velocity": 0,
                "time": 0
            },
            {
                "type": "note_off",
                "note": 72,
                "velocity": 0,
                "time": 0
            },
            {
                "type": "note_on",
                "note": 69,
                "velocity": 71,
                "time": 0
            },
            {
                "type": "note_off",
                "note": 45,
                "velocity": 0,
                "time": 0
            },
            {
                "type": "note_off",
                "note": 54,
                "velocity": 0,
                "time": 0
            },
            {
                "type": "note_on",
                "note": 45,
                "velocity": 77,
                "time": 0
            },
            {
                "type": "note_on",
                "note": 52,
                "velocity": 77,
                "time": 0
            },
            {
                "type": "note_off",
                "note": 45,
                "velocity": 0,
                "time": 128
            },
            {
                "type": "note_off",
                "note": 52,
                "velocity": 0,
                "time": 0
            },
            {
                "type": "note_on",
                "note": 45,
                "velocity": 76,
                "time": 26
            },
            {
                "type": "note_on",
                "note": 52,
                "velocity": 76,
                "time": 0
            },
            {
                "type": "note_off",
                "note": 69,
                "velocity": 0,
                "time": 102
            },
            {
                "type": "note_on",
                "note": 66,
                "velocity": 74,
                "time": 0
            },
            {
                "type": "note_off",
                "note": 45,
                "velocity": 0,
                "time": 0
            },
            {
                "type": "note_off",
                "note": 52,
                "velocity": 0,
                "time": 0
            },
            {
                "type": "note_on",
                "note": 45,
                "velocity": 77,
                "time": 0
            },
            {
                "type": "note_on",
                "note": 54,
                "velocity": 77,
                "time": 0
            },
            {
                "type": "note_off",
                "note": 45,
                "velocity": 0,
                "time": 128
            },
            {
                "type": "note_off",
                "note": 54,
                "velocity": 0,
                "time": 0
            },
            {
                "type": "note_on",
                "note": 45,
                "velocity": 72,
                "time": 26
            },
            {
                "type": "note_on",
                "note": 54,
                "velocity": 72,
                "time": 0
            },
            {
                "type": "note_off",
                "note": 66,
                "velocity": 0,
                "time": 102
            },
            {
                "type": "note_off",
                "note": 45,
                "velocity": 0,
                "time": 0
            },
            {
                "type": "note_off",
                "note": 54,
                "velocity": 0,
                "time": 0
            },
            {
                "type": "note_on",
                "note": 45,
                "velocity": 79,
                "time": 0
            },
            {
                "type": "note_on",
                "note": 52,
                "velocity": 79,
                "time": 0
            },
            {
                "type": "note_off",
                "note": 45,
                "velocity": 0,
                "time": 128
            },
            {
                "type": "note_off",
                "note": 52,
                "velocity": 0,
                "time": 0
            },
            {
                "type": "note_on",
                "note": 45,
                "velocity": 71,
                "time": 26
            },
            {
                "type": "note_on",
                "note": 52,
                "velocity": 71,
                "time": 0
            },
            {
                "type": "note_on",
                "note": 69,
                "velocity": 70,
                "time": 102
            },
            {
                "type": "note_on",
                "note": 74,
                "velocity": 70,
                "time": 0
            },
            {
                "type": "note_on",
                "note": 78,
                "velocity": 70,
                "time": 0
            },
            {
                "type": "note_off",
                "note": 45,
                "velocity": 0,
                "time": 0
            },
            {
                "type": "note_off",
                "note": 52,
                "velocity": 0,
                "time": 0
            },
            {
                "type": "note_on",
                "note": 45,
                "velocity": 83,
                "time": 0
            },
            {
                "type": "note_on",
                "note": 54,
                "velocity": 83,
                "time": 0
            },
            {
                "type": "note_off",
                "note": 45,
                "velocity": 0,
                "time": 128
            },
            {
                "type": "note_off",
                "note": 54,
                "velocity": 0,
                "time": 0
            },
            {
                "type": "note_on",
                "note": 45,
                "velocity": 76,
                "time": 26
            },
            {
                "type": "note_on",
                "note": 54,
                "velocity": 76,
                "time": 0
            },
            {
                "type": "note_off",
                "note": 69,
                "velocity": 0,
                "time": 102
            },
            {
                "type": "note_off",
                "note": 74,
                "velocity": 0,
                "time": 0
            },
            {
                "type": "note_off",
                "note": 78,
                "velocity": 0,
                "time": 0
            },
            {
                "type": "note_on",
                "note": 69,
                "velocity": 78,
                "time": 0
            },
            {
                "type": "note_on",
                "note": 73,
                "velocity": 78,
                "time": 0
            },
            {
                "type": "note_on",
                "note": 76,
                "velocity": 78,
                "time": 0
            },
            {
                "type": "note_off",
                "note": 45,
                "velocity": 0,
                "time": 0
            },
            {
                "type": "note_off",
                "note": 54,
                "velocity": 0,
                "time": 0
            },
            {
                "type": "note_on",
                "note": 45,
                "velocity": 77,
                "time": 0
            },
            {
                "type": "note_on",
                "note": 52,
                "velocity": 77,
                "time": 0
            },
            {
                "type": "note_off",
                "note": 45,
                "velocity": 0,
                "time": 128
            },
            {
                "type": "note_off",
                "note": 52,
                "velocity": 0,
                "time": 0
            },
            {
                "type": "note_on",
                "note": 45,
                "velocity": 74,
                "time": 26
            },
            {
                "type": "note_on",
                "note": 52,
                "velocity": 74,
                "time": 0
            },
            {
                "type": "note_off",
                "note": 45,
                "velocity": 0,
                "time": 102
            },
            {
                "type": "note_off",
                "note": 52,
                "velocity": 0,
                "time": 0
            },
            {
                "type": "note_on",
                "note": 45,
                "velocity": 82,
                "time": 0
            },
            {
                "type": "note_on",
                "note": 54,
                "velocity": 82,
                "time": 0
            },
            {
                "type": "note_off",
                "note": 69,
                "velocity": 0,
                "time": 128
            },
            {
                "type": "note_off",
                "note": 73,
                "velocity": 0,
                "time": 0
            },
            {
                "type": "note_off",
                "note": 76,
                "velocity": 0,
                "time": 0
            },
            {
                "type": "note_off",
                "note": 45,
                "velocity": 0,
                "time": 0
            },
            {
                "type": "note_off",
                "note": 54,
                "velocity": 0,
                "time": 0
            },
            {
                "type": "note_on",
                "note": 64,
                "velocity": 55,
                "time": 26
            },
            {
                "type": "note_on",
                "note": 45,
                "velocity": 71,
                "time": 0
            },
            {
                "type": "note_on",
                "note": 54,
                "velocity": 71,
                "time": 0
            },
            {
                "type": "note_off",
                "note": 64,
                "velocity": 0,
                "time": 102
            },
            {
                "type": "note_on",
                "note": 66,
                "velocity": 81,
                "time": 0
            },
            {
                "type": "note_off",
                "note": 45,
                "velocity": 0,
                "time": 0
            },
            {
                "type": "note_off",
                "note": 54,
                "velocity": 0,
                "time": 0
            },
            {
                "type": "note_on",
                "note": 45,
                "velocity": 76,
                "time": 0
            },
            {
                "type": "note_on",
                "note": 52,
                "velocity": 76,
                "time": 0
            },
            {
                "type": "note_off",
                "note": 66,
                "velocity": 0,
                "time": 128
            },
            {
                "type": "note_off",
                "note": 45,
                "velocity": 0,
                "time": 0
            },
            {
                "type": "note_off",
                "note": 52,
                "velocity": 0,
                "time": 0
            },
            {
                "type": "note_on",
                "note": 64,
                "velocity": 69,
                "time": 26
            },
            {
                "type": "note_on",
                "note": 45,
                "velocity": 71,
                "time": 0
            },
            {
                "type": "note_on",
                "note": 52,
                "velocity": 71,
                "time": 0
            },
            {
                "type": "note_off",
                "note": 64,
                "velocity": 0,
                "time": 102
            },
            {
                "type": "note_on",
                "note": 66,
                "velocity": 82,
                "time": 0
            },
            {
                "type": "note_off",
                "note": 45,
                "velocity": 0,
                "time": 0
            },
            {
                "type": "note_off",
                "note": 52,
                "velocity": 0,
                "time": 0
            },
            {
                "type": "note_on",
                "note": 45,
                "velocity": 85,
                "time": 0
            },
            {
                "type": "note_on",
                "note": 54,
                "velocity": 85,
                "time": 0
            },
            {
                "type": "note_off",
                "note": 66,
                "velocity": 0,
                "time": 128
            },
            {
                "type": "note_off",
                "note": 45,
                "velocity": 0,
                "time": 0
            },
            {
                "type": "note_off",
                "note": 54,
                "velocity": 0,
                "time": 0
            },
            {
                "type": "note_on",
                "note": 67,
                "velocity": 78,
                "time": 26
            },
            {
                "type": "note_on",
                "note": 45,
                "velocity": 70,
                "time": 0
            },
            {
                "type": "note_on",
                "note": 54,
                "velocity": 70,
                "time": 0
            },
            {
                "type": "note_off",
                "note": 45,
                "velocity": 0,
                "time": 102
            },
            {
                "type": "note_off",
                "note": 54,
                "velocity": 0,
                "time": 0
            },
            {
                "type": "note_on",
                "note": 45,
                "velocity": 79,
                "time": 0
            },
            {
                "type": "note_on",
                "note": 52,
                "velocity": 79,
                "time": 0
            },
            {
                "type": "note_off",
                "note": 45,
                "velocity": 0,
                "time": 128
            },
            {
                "type": "note_off",
                "note": 52,
                "velocity": 0,
                "time": 0
            },
            {
                "type": "note_on",
                "note": 45,
                "velocity": 71,
                "time": 26
            },
            {
                "type": "note_on",
                "note": 52,
                "velocity": 71,
                "time": 0
            },
            {
                "type": "note_off",
                "note": 45,
                "velocity": 0,
                "time": 102
            },
            {
                "type": "note_off",
                "note": 52,
                "velocity": 0,
                "time": 0
            },
            {
                "type": "note_on",
                "note": 45,
                "velocity": 86,
                "time": 0
            },
            {
                "type": "note_on",
                "note": 54,
                "velocity": 86,
                "time": 0
            },
            {
                "type": "note_off",
                "note": 45,
                "velocity": 0,
                "time": 128
            },
            {
                "type": "note_off",
                "note": 54,
                "velocity": 0,
                "time": 0
            },
            {
                "type": "note_on",
                "note": 45,
                "velocity": 74,
                "time": 26
            },
            {
                "type": "note_on",
                "note": 54,
                "velocity": 74,
                "time": 0
            },
            {
                "type": "note_off",
                "note": 45,
                "velocity": 0,
                "time": 102
            },
            {
                "type": "note_off",
                "note": 54,
                "velocity": 0,
                "time": 0
            },
            {
                "type": "note_on",
                "note": 45,
                "velocity": 72,
                "time": 0
            },
            {
                "type": "note_on",
                "note": 52,
                "velocity": 72,
                "time": 0
            },
            {
                "type": "note_off",
                "note": 45,
                "velocity": 0,
                "time": 128
            },
            {
                "type": "note_off",
                "note": 52,
                "velocity": 0,
                "time": 0
            },
            {
                "type": "note_on",
                "note": 45,
                "velocity": 73,
                "time": 26
            },
            {
                "type": "note_on",
                "note": 52,
                "velocity": 73,
                "time": 0
            },
            {
                "type": "note_off",
                "note": 67,
                "velocity": 0,
                "time": 102
            },
            {
                "type": "note_on",
                "note": 69,
                "velocity": 97,
                "time": 0
            },
            {
                "type": "note_on",
                "note": 74,
                "velocity": 97,
                "time": 0
            },
            {
                "type": "note_on",
                "note": 78,
                "velocity": 97,
                "time": 0
            },
            {
                "type": "note_off",
                "note": 45,
                "velocity": 0,
                "time": 0
            },
            {
                "type": "note_off",
                "note": 52,
                "velocity": 0,
                "time": 0
            },
            {
                "type": "note_on",
                "note": 45,
                "velocity": 81,
                "time": 0
            },
            {
                "type": "note_on",
                "note": 54,
                "velocity": 81,
                "time": 0
            },
            {
                "type": "note_off",
                "note": 45,
                "velocity": 0,
                "time": 128
            },
            {
                "type": "note_off",
                "note": 54,
                "velocity": 0,
                "time": 0
            },
            {
                "type": "note_on",
                "note": 45,
                "velocity": 71,
                "time": 26
            },
            {
                "type": "note_on",
                "note": 54,
                "velocity": 71,
                "time": 0
            },
            {
                "type": "note_off",
                "note": 69,
                "velocity": 0,
                "time": 102
            },
            {
                "type": "note_off",
                "note": 74,
                "velocity": 0,
                "time": 0
            },
            {
                "type": "note_off",
                "note": 78,
                "velocity": 0,
                "time": 0
            },
            {
                "type": "note_on",
                "note": 66,
                "velocity": 80,
                "time": 0
            },
            {
                "type": "note_on",
                "note": 69,
                "velocity": 80,
                "time": 0
            },
            {
                "type": "note_on",
                "note": 72,
                "velocity": 80,
                "time": 0
            },
            {
                "type": "note_on",
                "note": 76,
                "velocity": 80,
                "time": 0
            },
            {
                "type": "note_off",
                "note": 45,
                "velocity": 0,
                "time": 0
            },
            {
                "type": "note_off",
                "note": 54,
                "velocity": 0,
                "time": 0
            },
            {
                "type": "note_on",
                "note": 50,
                "velocity": 86,
                "time": 0
            },
            {
                "type": "note_on",
                "note": 57,
                "velocity": 86,
                "time": 0
            },
            {
                "type": "note_off",
                "note": 50,
                "velocity": 0,
                "time": 128
            },
            {
                "type": "note_off",
                "note": 57,
                "velocity": 0,
                "time": 0
            },
            {
                "type": "note_on",
                "note": 50,
                "velocity": 70,
                "time": 26
            },
            {
                "type": "note_on",
                "note": 57,
                "velocity": 70,
                "time": 0
            },
            {
                "type": "note_off",
                "note": 66,
                "velocity": 0,
                "time": 102
            },
            {
                "type": "note_off",
                "note": 69,
                "velocity": 0,
                "time": 0
            },
            {
                "type": "note_off",
                "note": 72,
                "velocity": 0,
                "time": 0
            },
            {
                "type": "note_off",
                "note": 76,
                "velocity": 0,
                "time": 0
            },
            {
                "type": "note_on",
                "note": 71,
                "velocity": 70,
                "time": 0
            },
            {
                "type": "note_off",
                "note": 50,
                "velocity": 0,
                "time": 0
            },
            {
                "type": "note_off",
                "note": 57,
                "velocity": 0,
                "time": 0
            },
            {
                "type": "note_on",
                "note": 50,
                "velocity": 83,
                "time": 0
            },
            {
                "type": "note_on",
                "note": 59,
                "velocity": 83,
                "time": 0
            },
            {
                "type": "note_off",
                "note": 50,
                "velocity": 0,
                "time": 128
            },
            {
                "type": "note_off",
                "note": 59,
                "velocity": 0,
                "time": 0
            },
            {
                "type": "note_on",
                "note": 50,
                "velocity": 72,
                "time": 26
            },
            {
                "type": "note_on",
                "note": 59,
                "velocity": 72,
                "time": 0
            },
            {
                "type": "note_off",
                "note": 71,
                "velocity": 0,
                "time": 102
            },
            {
                "type": "note_on",
                "note": 69,
                "velocity": 75,
                "time": 0
            },
            {
                "type": "note_off",
                "note": 50,
                "velocity": 0,
                "time": 0
            },
            {
                "type": "note_off",
                "note": 59,
                "velocity": 0,
                "time": 0
            },
            {
                "type": "note_on",
                "note": 50,
                "velocity": 82,
                "time": 0
            },
            {
                "type": "note_on",
                "note": 57,
                "velocity": 82,
                "time": 0
            },
            {
                "type": "note_off",
                "note": 50,
                "velocity": 0,
                "time": 128
            },
            {
                "type": "note_off",
                "note": 57,
                "velocity": 0,
                "time": 0
            },
            {
                "type": "note_on",
                "note": 50,
                "velocity": 69,
                "time": 26
            },
            {
                "type": "note_on",
                "note": 57,
                "velocity": 69,
                "time": 0
            },
            {
                "type": "note_off",
                "note": 69,
                "velocity": 0,
                "time": 102
            },
            {
                "type": "note_on",
                "note": 66,
                "velocity": 73,
                "time": 0
            },
            {
                "type": "note_off",
                "note": 50,
                "velocity": 0,
                "time": 0
            },
            {
                "type": "note_off",
                "note": 57,
                "velocity": 0,
                "time": 0
            },
            {
                "type": "note_on",
                "note": 50,
                "velocity": 83,
                "time": 0
            },
            {
                "type": "note_on",
                "note": 59,
                "velocity": 83,
                "time": 0
            },
            {
                "type": "note_off",
                "note": 50,
                "velocity": 0,
                "time": 128
            },
            {
                "type": "note_off",
                "note": 59,
                "velocity": 0,
                "time": 0
            },
            {
                "type": "note_on",
                "note": 50,
                "velocity": 73,
                "time": 26
            },
            {
                "type": "note_on",
                "note": 59,
                "velocity": 73,
                "time": 0
            },
            {
                "type": "note_off",
                "note": 66,
                "velocity": 0,
                "time": 102
            },
            {
                "type": "note_off",
                "note": 50,
                "velocity": 0,
                "time": 0
            },
            {
                "type": "note_off",
                "note": 59,
                "velocity": 0,
                "time": 0
            },
            {
                "type": "note_on",
                "note": 50,
                "velocity": 80,
                "time": 0
            },
            {
                "type": "note_on",
                "note": 57,
                "velocity": 80,
                "time": 0
            },
            {
                "type": "note_off",
                "note": 50,
                "velocity": 0,
                "time": 128
            },
            {
                "type": "note_off",
                "note": 57,
                "velocity": 0,
                "time": 0
            },
            {
                "type": "note_on",
                "note": 72,
                "velocity": 63,
                "time": 26
            },
            {
                "type": "note_on",
                "note": 50,
                "velocity": 70,
                "time": 0
            },
            {
                "type": "note_on",
                "note": 57,
                "velocity": 70,
                "time": 0
            },
            {
                "type": "note_off",
                "note": 72,
                "velocity": 0,
                "time": 102
            },
            {
                "type": "note_on",
                "note": 72,
                "velocity": 83,
                "time": 0
            },
            {
                "type": "note_off",
                "note": 50,
                "velocity": 0,
                "time": 0
            },
            {
                "type": "note_off",
                "note": 57,
                "velocity": 0,
                "time": 0
            },
            {
                "type": "note_on",
                "note": 50,
                "velocity": 80,
                "time": 0
            },
            {
                "type": "note_on",
                "note": 59,
                "velocity": 80,
                "time": 0
            },
            {
                "type": "note_off",
                "note": 72,
                "velocity": 0,
                "time": 128
            },
            {
                "type": "note_off",
                "note": 50,
                "velocity": 0,
                "time": 0
            },
            {
                "type": "note_off",
                "note": 59,
                "velocity": 0,
                "time": 0
            },
            {
                "type": "note_on",
                "note": 71,
                "velocity": 70,
                "time": 26
            },
            {
                "type": "note_on",
                "note": 50,
                "velocity": 71,
                "time": 0
            },
            {
                "type": "note_on",
                "note": 59,
                "velocity": 71,
                "time": 0
            },
            {
                "type": "note_off",
                "note": 71,
                "velocity": 0,
                "time": 102
            },
            {
                "type": "note_on",
                "note": 69,
                "velocity": 74,
                "time": 0
            },
            {
                "type": "note_off",
                "note": 50,
                "velocity": 0,
                "time": 0
            },
            {
                "type": "note_off",
                "note": 59,
                "velocity": 0,
                "time": 0
            },
            {
                "type": "note_on",
                "note": 50,
                "velocity": 79,
                "time": 0
            },
            {
                "type": "note_on",
                "note": 57,
                "velocity": 79,
                "time": 0
            },
            {
                "type": "note_off",
                "note": 50,
                "velocity": 0,
                "time": 128
            },
            {
                "type": "note_off",
                "note": 57,
                "velocity": 0,
                "time": 0
            },
            {
                "type": "note_on",
                "note": 50,
                "velocity": 71,
                "time": 26
            },
            {
                "type": "note_on",
                "note": 57,
                "velocity": 71,
                "time": 0
            },
            {
                "type": "note_off",
                "note": 69,
                "velocity": 0,
                "time": 102
            },
            {
                "type": "note_on",
                "note": 66,
                "velocity": 73,
                "time": 0
            },
            {
                "type": "note_off",
                "note": 50,
                "velocity": 0,
                "time": 0
            },
            {
                "type": "note_off",
                "note": 57,
                "velocity": 0,
                "time": 0
            },
            {
                "type": "note_on",
                "note": 50,
                "velocity": 82,
                "time": 0
            },
            {
                "type": "note_on",
                "note": 59,
                "velocity": 82,
                "time": 0
            },
            {
                "type": "note_off",
                "note": 66,
                "velocity": 0,
                "time": 128
            },
            {
                "type": "note_off",
                "note": 50,
                "velocity": 0,
                "time": 0
            },
            {
                "type": "note_off",
                "note": 59,
                "velocity": 0,
                "time": 0
            },
            {
                "type": "note_on",
                "note": 64,
                "velocity": 65,
                "time": 26
            },
            {
                "type": "note_on",
                "note": 50,
                "velocity": 69,
                "time": 0
            },
            {
                "type": "note_on",
                "note": 59,
                "velocity": 69,
                "time": 0
            },
            {
                "type": "note_off",
                "note": 50,
                "velocity": 0,
                "time": 102
            },
            {
                "type": "note_off",
                "note": 59,
                "velocity": 0,
                "time": 0
            },
            {
                "type": "note_on",
                "note": 45,
                "velocity": 72,
                "time": 0
            },
            {
                "type": "note_on",
                "note": 52,
                "velocity": 72,
                "time": 0
            },
            {
                "type": "note_off",
                "note": 45,
                "velocity": 0,
                "time": 128
            },
            {
                "type": "note_off",
                "note": 52,
                "velocity": 0,
                "time": 0
            },
            {
                "type": "note_on",
                "note": 45,
                "velocity": 65,
                "time": 26
            },
            {
                "type": "note_on",
                "note": 52,
                "velocity": 65,
                "time": 0
            },
            {
                "type": "note_off",
                "note": 45,
                "velocity": 0,
                "time": 102
            },
            {
                "type": "note_off",
                "note": 52,
                "velocity": 0,
                "time": 0
            },
            {
                "type": "note_on",
                "note": 45,
                "velocity": 82,
                "time": 0
            },
            {
                "type": "note_on",
                "note": 54,
                "velocity": 82,
                "time": 0
            },
            {
                "type": "note_off",
                "note": 45,
                "velocity": 0,
                "time": 128
            },
            {
                "type": "note_off",
                "note": 54,
                "velocity": 0,
                "time": 0
            },
            {
                "type": "note_on",
                "note": 45,
                "velocity": 75,
                "time": 26
            },
            {
                "type": "note_on",
                "note": 54,
                "velocity": 75,
                "time": 0
            },
            {
                "type": "note_off",
                "note": 45,
                "velocity": 0,
                "time": 102
            },
            {
                "type": "note_off",
                "note": 54,
                "velocity": 0,
                "time": 0
            },
            {
                "type": "note_on",
                "note": 45,
                "velocity": 75,
                "time": 0
            },
            {
                "type": "note_on",
                "note": 52,
                "velocity": 75,
                "time": 0
            },
            {
                "type": "note_off",
                "note": 45,
                "velocity": 0,
                "time": 128
            },
            {
                "type": "note_off",
                "note": 52,
                "velocity": 0,
                "time": 0
            },
            {
                "type": "note_on",
                "note": 45,
                "velocity": 74,
                "time": 26
            },
            {
                "type": "note_on",
                "note": 52,
                "velocity": 74,
                "time": 0
            },
            {
                "type": "note_off",
                "note": 64,
                "velocity": 0,
                "time": 102
            },
            {
                "type": "note_on",
                "note": 66,
                "velocity": 81,
                "time": 0
            },
            {
                "type": "note_off",
                "note": 45,
                "velocity": 0,
                "time": 0
            },
            {
                "type": "note_off",
                "note": 52,
                "velocity": 0,
                "time": 0
            },
            {
                "type": "note_on",
                "note": 45,
                "velocity": 82,
                "time": 0
            },
            {
                "type": "note_on",
                "note": 54,
                "velocity": 82,
                "time": 0
            },
            {
                "type": "note_off",
                "note": 66,
                "velocity": 0,
                "time": 128
            },
            {
                "type": "note_off",
                "note": 45,
                "velocity": 0,
                "time": 0
            },
            {
                "type": "note_off",
                "note": 54,
                "velocity": 0,
                "time": 0
            },
            {
                "type": "note_on",
                "note": 64,
                "velocity": 65,
                "time": 26
            },
            {
                "type": "note_on",
                "note": 45,
                "velocity": 73,
                "time": 0
            },
            {
                "type": "note_on",
                "note": 54,
                "velocity": 73,
                "time": 0
            },
            {
                "type": "note_off",
                "note": 45,
                "velocity": 0,
                "time": 102
            },
            {
                "type": "note_off",
                "note": 54,
                "velocity": 0,
                "time": 0
            },
            {
                "type": "note_on",
                "note": 45,
                "velocity": 78,
                "time": 0
            },
            {
                "type": "note_on",
                "note": 52,
                "velocity": 78,
                "time": 0
            },
            {
                "type": "note_off",
                "note": 45,
                "velocity": 0,
                "time": 128
            },
            {
                "type": "note_off",
                "note": 52,
                "velocity": 0,
                "time": 0
            },
            {
                "type": "note_on",
                "note": 45,
                "velocity": 74,
                "time": 26
            },
            {
                "type": "note_on",
                "note": 52,
                "velocity": 74,
                "time": 0
            },
            {
                "type": "note_off",
                "note": 64,
                "velocity": 0,
                "time": 102
            },
            {
                "type": "note_off",
                "note": 45,
                "velocity": 0,
                "time": 0
            },
            {
                "type": "note_off",
                "note": 52,
                "velocity": 0,
                "time": 0
            },
            {
                "type": "note_on",
                "note": 45,
                "velocity": 84,
                "time": 0
            },
            {
                "type": "note_on",
                "note": 54,
                "velocity": 84,
                "time": 0
            },
            {
                "type": "note_off",
                "note": 45,
                "velocity": 0,
                "time": 128
            },
            {
                "type": "note_off",
                "note": 54,
                "velocity": 0,
                "time": 0
            },
            {
                "type": "note_on",
                "note": 45,
                "velocity": 69,
                "time": 26
            },
            {
                "type": "note_on",
                "note": 54,
                "velocity": 69,
                "time": 0
            },
            {
                "type": "note_off",
                "note": 45,
                "velocity": 0,
                "time": 102
            },
            {
                "type": "note_off",
                "note": 54,
                "velocity": 0,
                "time": 0
            },
            {
                "type": "note_on",
                "note": 45,
                "velocity": 80,
                "time": 0
            },
            {
                "type": "note_on",
                "note": 52,
                "velocity": 80,
                "time": 0
            },
            {
                "type": "note_off",
                "note": 45,
                "velocity": 0,
                "time": 128
            },
            {
                "type": "note_off",
                "note": 52,
                "velocity": 0,
                "time": 0
            },
            {
                "type": "note_on",
                "note": 74,
                "velocity": 66,
                "time": 26
            },
            {
                "type": "note_on",
                "note": 45,
                "velocity": 69,
                "time": 0
            },
            {
                "type": "note_on",
                "note": 52,
                "velocity": 69,
                "time": 0
            },
            {
                "type": "note_off",
                "note": 74,
                "velocity": 0,
                "time": 102
            },
            {
                "type": "note_on",
                "note": 74,
                "velocity": 83,
                "time": 0
            },
            {
                "type": "note_off",
                "note": 45,
                "velocity": 0,
                "time": 0
            },
            {
                "type": "note_off",
                "note": 52,
                "velocity": 0,
                "time": 0
            },
            {
                "type": "note_on",
                "note": 45,
                "velocity": 85,
                "time": 0
            },
            {
                "type": "note_on",
                "note": 54,
                "velocity": 85,
                "time": 0
            },
            {
                "type": "note_off",
                "note": 74,
                "velocity": 0,
                "time": 128
            },
            {
                "type": "note_off",
                "note": 45,
                "velocity": 0,
                "time": 0
            },
            {
                "type": "note_off",
                "note": 54,
                "velocity": 0,
                "time": 0
            },
            {
                "type": "note_on",
                "note": 73,
                "velocity": 71,
                "time": 26
            },
            {
                "type": "note_on",
                "note": 45,
                "velocity": 75,
                "time": 0
            },
            {
                "type": "note_on",
                "note": 54,
                "velocity": 75,
                "time": 0
            },
            {
                "type": "note_off",
                "note": 73,
                "velocity": 0,
                "time": 102
            },
            {
                "type": "note_on",
                "note": 68,
                "velocity": 87,
                "time": 0
            },
            {
                "type": "note_on",
                "note": 71,
                "velocity": 87,
                "time": 0
            },
            {
                "type": "note_on",
                "note": 74,
                "velocity": 87,
                "time": 0
            },
            {
                "type": "note_off",
                "note": 45,
                "velocity": 0,
                "time": 0
            },
            {
                "type": "note_off",
                "note": 54,
                "velocity": 0,
                "time": 0
            },
            {
                "type": "note_on",
                "note": 52,
                "velocity": 81,
                "time": 0
            },
            {
                "type": "note_on",
                "note": 59,
                "velocity": 81,
                "time": 0
            },
            {
                "type": "note_off",
                "note": 68,
                "velocity": 0,
                "time": 128
            },
            {
                "type": "note_off",
                "note": 71,
                "velocity": 0,
                "time": 0
            },
            {
                "type": "note_off",
                "note": 74,
                "velocity": 0,
                "time": 0
            },
            {
                "type": "note_off",
                "note": 52,
                "velocity": 0,
                "time": 0
            },
            {
                "type": "note_off",
                "note": 59,
                "velocity": 0,
                "time": 0
            },
            {
                "type": "note_on",
                "note": 73,
                "velocity": 69,
                "time": 26
            },
            {
                "type": "note_on",
                "note": 52,
                "velocity": 74,
                "time": 0
            },
            {
                "type": "note_on",
                "note": 59,
                "velocity": 74,
                "time": 0
            },
            {
                "type": "note_off",
                "note": 73,
                "velocity": 0,
                "time": 102
            },
            {
                "type": "note_on",
                "note": 74,
                "velocity": 84,
                "time": 0
            },
            {
                "type": "note_off",
                "note": 52,
                "velocity": 0,
                "time": 0
            },
            {
                "type": "note_off",
                "note": 59,
                "velocity": 0,
                "time": 0
            },
            {
                "type": "note_on",
                "note": 52,
                "velocity": 85,
                "time": 0
            },
            {
                "type": "note_on",
                "note": 61,
                "velocity": 85,
                "time": 0
            },
            {
                "type": "note_off",
                "note": 74,
                "velocity": 0,
                "time": 128
            },
            {
                "type": "note_off",
                "note": 52,
                "velocity": 0,
                "time": 0
            },
            {
                "type": "note_off",
                "note": 61,
                "velocity": 0,
                "time": 0
            },
            {
                "type": "note_on",
                "note": 73,
                "velocity": 67,
                "time": 26
            },
            {
                "type": "note_on",
                "note": 52,
                "velocity": 71,
                "time": 0
            },
            {
                "type": "note_on",
                "note": 61,
                "velocity": 71,
                "time": 0
            },
            {
                "type": "note_off",
                "note": 73,
                "velocity": 0,
                "time": 102
            },
            {
                "type": "note_on",
                "note": 74,
                "velocity": 84,
                "time": 0
            },
            {
                "type": "note_off",
                "note": 52,
                "velocity": 0,
                "time": 0
            },
            {
                "type": "note_off",
                "note": 61,
                "velocity": 0,
                "time": 0
            },
            {
                "type": "note_on",
                "note": 52,
                "velocity": 71,
                "time": 0
            },
            {
                "type": "note_on",
                "note": 59,
                "velocity": 71,
                "time": 0
            },
            {
                "type": "note_off",
                "note": 74,
                "velocity": 0,
                "time": 128
            },
            {
                "type": "note_off",
                "note": 52,
                "velocity": 0,
                "time": 0
            },
            {
                "type": "note_off",
                "note": 59,
                "velocity": 0,
                "time": 0
            },
            {
                "type": "note_on",
                "note": 76,
                "velocity": 76,
                "time": 26
            },
            {
                "type": "note_on",
                "note": 52,
                "velocity": 72,
                "time": 0
            },
            {
                "type": "note_on",
                "note": 59,
                "velocity": 72,
                "time": 0
            },
            {
                "type": "note_off",
                "note": 52,
                "velocity": 0,
                "time": 102
            },
            {
                "type": "note_off",
                "note": 59,
                "velocity": 0,
                "time": 0
            },
            {
                "type": "note_on",
                "note": 52,
                "velocity": 87,
                "time": 0
            },
            {
                "type": "note_on",
                "note": 61,
                "velocity": 87,
                "time": 0
            },
            {
                "type": "note_off",
                "note": 52,
                "velocity": 0,
                "time": 128
            },
            {
                "type": "note_off",
                "note": 61,
                "velocity": 0,
                "time": 0
            },
            {
                "type": "note_on",
                "note": 52,
                "velocity": 72,
                "time": 26
            },
            {
                "type": "note_on",
                "note": 61,
                "velocity": 72,
                "time": 0
            },
            {
                "type": "note_off",
                "note": 76,
                "velocity": 0,
                "time": 102
            },
            {
                "type": "note_on",
                "note": 66,
                "velocity": 71,
                "time": 0
            },
            {
                "type": "note_on",
                "note": 69,
                "velocity": 71,
                "time": 0
            },
            {
                "type": "note_off",
                "note": 52,
                "velocity": 0,
                "time": 0
            },
            {
                "type": "note_off",
                "note": 61,
                "velocity": 0,
                "time": 0
            },
            {
                "type": "note_on",
                "note": 50,
                "velocity": 77,
                "time": 0
            },
            {
                "type": "note_on",
                "note": 57,
                "velocity": 77,
                "time": 0
            },
            {
                "type": "note_off",
                "note": 50,
                "velocity": 0,
                "time": 128
            },
            {
                "type": "note_off",
                "note": 57,
                "velocity": 0,
                "time": 0
            },
            {
                "type": "note_on",
                "note": 72,
                "velocity": 67,
                "time": 26
            },
            {
                "type": "note_on",
                "note": 50,
                "velocity": 74,
                "time": 0
            },
            {
                "type": "note_on",
                "note": 57,
                "velocity": 74,
                "time": 0
            },
            {
                "type": "note_off",
                "note": 72,
                "velocity": 0,
                "time": 102
            },
            {
                "type": "note_on",
                "note": 72,
                "velocity": 84,
                "time": 0
            },
            {
                "type": "note_off",
                "note": 50,
                "velocity": 0,
                "time": 0
            },
            {
                "type": "note_off",
                "note": 57,
                "velocity": 0,
                "time": 0
            },
            {
                "type": "note_on",
                "note": 50,
                "velocity": 78,
                "time": 0
            },
            {
                "type": "note_on",
                "note": 59,
                "velocity": 78,
                "time": 0
            },
            {
                "type": "note_off",
                "note": 72,
                "velocity": 0,
                "time": 128
            },
            {
                "type": "note_off",
                "note": 50,
                "velocity": 0,
                "time": 0
            },
            {
                "type": "note_off",
                "note": 59,
                "velocity": 0,
                "time": 0
            },
            {
                "type": "note_on",
                "note": 71,
                "velocity": 72,
                "time": 26
            },
            {
                "type": "note_on",
                "note": 50,
                "velocity": 71,
                "time": 0
            },
            {
                "type": "note_on",
                "note": 59,
                "velocity": 71,
                "time": 0
            },
            {
                "type": "note_off",
                "note": 71,
                "velocity": 0,
                "time": 102
            },
            {
                "type": "note_on",
                "note": 69,
                "velocity": 78,
                "time": 0
            },
            {
                "type": "note_off",
                "note": 50,
                "velocity": 0,
                "time": 0
            },
            {
                "type": "note_off",
                "note": 59,
                "velocity": 0,
                "time": 0
            },
            {
                "type": "note_on",
                "note": 50,
                "velocity": 73,
                "time": 0
            },
            {
                "type": "note_on",
                "note": 57,
                "velocity": 73,
                "time": 0
            },
            {
                "type": "note_off",
                "note": 50,
                "velocity": 0,
                "time": 128
            },
            {
                "type": "note_off",
                "note": 57,
                "velocity": 0,
                "time": 0
            },
            {
                "type": "note_on",
                "note": 50,
                "velocity": 72,
                "time": 26
            },
            {
                "type": "note_on",
                "note": 57,
                "velocity": 72,
                "time": 0
            },
            {
                "type": "note_off",
                "note": 69,
                "velocity": 0,
                "time": 102
            },
            {
                "type": "note_on",
                "note": 66,
                "velocity": 75,
                "time": 0
            },
            {
                "type": "note_off",
                "note": 50,
                "velocity": 0,
                "time": 0
            },
            {
                "type": "note_off",
                "note": 57,
                "velocity": 0,
                "time": 0
            },
            {
                "type": "note_on",
                "note": 50,
                "velocity": 80,
                "time": 0
            },
            {
                "type": "note_on",
                "note": 59,
                "velocity": 80,
                "time": 0
            },
            {
                "type": "note_off",
                "note": 66,
                "velocity": 0,
                "time": 128
            },
            {
                "type": "note_off",
                "note": 50,
                "velocity": 0,
                "time": 0
            },
            {
                "type": "note_off",
                "note": 59,
                "velocity": 0,
                "time": 0
            },
            {
                "type": "note_on",
                "note": 69,
                "velocity": 77,
                "time": 26
            },
            {
                "type": "note_on",
                "note": 50,
                "velocity": 75,
                "time": 0
            },
            {
                "type": "note_on",
                "note": 59,
                "velocity": 75,
                "time": 0
            },
            {
                "type": "note_off",
                "note": 66,
                "velocity": 0,
                "time": 102
            },
            {
                "type": "note_off",
                "note": 69,
                "velocity": 0,
                "time": 0
            },
            {
                "type": "note_off",
                "note": 50,
                "velocity": 0,
                "time": 0
            },
            {
                "type": "note_off",
                "note": 59,
                "velocity": 0,
                "time": 0
            },
            {
                "type": "note_on",
                "note": 45,
                "velocity": 72,
                "time": 0
            },
            {
                "type": "note_on",
                "note": 52,
                "velocity": 72,
                "time": 0
            },
            {
                "type": "note_off",
                "note": 45,
                "velocity": 0,
                "time": 128
            },
            {
                "type": "note_off",
                "note": 52,
                "velocity": 0,
                "time": 0
            },
            {
                "type": "note_on",
                "note": 45,
                "velocity": 69,
                "time": 26
            },
            {
                "type": "note_on",
                "note": 52,
                "velocity": 69,
                "time": 0
            },
            {
                "type": "note_off",
                "note": 45,
                "velocity": 0,
                "time": 102
            },
            {
                "type": "note_off",
                "note": 52,
                "velocity": 0,
                "time": 0
            },
            {
                "type": "note_on",
                "note": 45,
                "velocity": 82,
                "time": 0
            },
            {
                "type": "note_on",
                "note": 54,
                "velocity": 82,
                "time": 0
            },
            {
                "type": "note_off",
                "note": 45,
                "velocity": 0,
                "time": 128
            },
            {
                "type": "note_off",
                "note": 54,
                "velocity": 0,
                "time": 0
            },
            {
                "type": "note_on",
                "note": 45,
                "velocity": 71,
                "time": 26
            },
            {
                "type": "note_on",
                "note": 54,
                "velocity": 71,
                "time": 0
            },
            {
                "type": "note_off",
                "note": 45,
                "velocity": 0,
                "time": 102
            },
            {
                "type": "note_off",
                "note": 54,
                "velocity": 0,
                "time": 0
            },
            {
                "type": "note_on",
                "note": 45,
                "velocity": 79,
                "time": 0
            },
            {
                "type": "note_on",
                "note": 52,
                "velocity": 79,
                "time": 0
            },
            {
                "type": "note_off",
                "note": 45,
                "velocity": 0,
                "time": 128
            },
            {
                "type": "note_off",
                "note": 52,
                "velocity": 0,
                "time": 0
            },
            {
                "type": "note_on",
                "note": 45,
                "velocity": 69,
                "time": 26
            },
            {
                "type": "note_on",
                "note": 52,
                "velocity": 69,
                "time": 0
            },
            {
                "type": "note_off",
                "note": 45,
                "velocity": 0,
                "time": 102
            },
            {
                "type": "note_off",
                "note": 52,
                "velocity": 0,
                "time": 0
            },
            {
                "type": "note_on",
                "note": 45,
                "velocity": 84,
                "time": 0
            },
            {
                "type": "note_on",
                "note": 54,
                "velocity": 84,
                "time": 0
            },
            {
                "type": "note_off",
                "note": 45,
                "velocity": 0,
                "time": 128
            },
            {
                "type": "note_off",
                "note": 54,
                "velocity": 0,
                "time": 0
            },
            {
                "type": "note_on",
                "note": 45,
                "velocity": 73,
                "time": 26
            },
            {
                "type": "note_on",
                "note": 54,
                "velocity": 73,
                "time": 0
            },
            {
                "type": "note_off",
                "note": 69,
                "velocity": 0,
                "time": 102
            },
            {
                "type": "note_off",
                "note": 45,
                "velocity": 0,
                "time": 0
            },
            {
                "type": "note_off",
                "note": 54,
                "velocity": 0,
                "time": 0
            },
            {
                "type": "note_on",
                "note": 45,
                "velocity": 76,
                "time": 0
            },
            {
                "type": "note_on",
                "note": 52,
                "velocity": 76,
                "time": 0
            },
            {
                "type": "note_off",
                "note": 45,
                "velocity": 0,
                "time": 128
            },
            {
                "type": "note_off",
                "note": 52,
                "velocity": 0,
                "time": 0
            },
            {
                "type": "note_on",
                "note": 45,
                "velocity": 73,
                "time": 26
            },
            {
                "type": "note_on",
                "note": 52,
                "velocity": 73,
                "time": 0
            },
            {
                "type": "note_off",
                "note": 45,
                "velocity": 0,
                "time": 102
            },
            {
                "type": "note_off",
                "note": 52,
                "velocity": 0,
                "time": 0
            },
            {
                "type": "note_on",
                "note": 45,
                "velocity": 84,
                "time": 0
            },
            {
                "type": "note_on",
                "note": 54,
                "velocity": 84,
                "time": 0
            },
            {
                "type": "note_off",
                "note": 45,
                "velocity": 0,
                "time": 128
            },
            {
                "type": "note_off",
                "note": 54,
                "velocity": 0,
                "time": 0
            },
            {
                "type": "note_on",
                "note": 45,
                "velocity": 73,
                "time": 26
            },
            {
                "type": "note_on",
                "note": 54,
                "velocity": 73,
                "time": 0
            },
            {
                "type": "note_off",
                "note": 45,
                "velocity": 0,
                "time": 102
            },
            {
                "type": "note_off",
                "note": 54,
                "velocity": 0,
                "time": 0
            },
            {
                "type": "note_on",
                "note": 45,
                "velocity": 76,
                "time": 0
            },
            {
                "type": "note_on",
                "note": 52,
                "velocity": 76,
                "time": 0
            },
            {
                "type": "note_off",
                "note": 45,
                "velocity": 0,
                "time": 128
            },
            {
                "type": "note_off",
                "note": 52,
                "velocity": 0,
                "time": 0
            },
            {
                "type": "note_on",
                "note": 45,
                "velocity": 68,
                "time": 26
            },
            {
                "type": "note_on",
                "note": 52,
                "velocity": 68,
                "time": 0
            },
            {
                "type": "note_on",
                "note": 64,
                "velocity": 73,
                "time": 102
            },
            {
                "type": "note_on",
                "note": 72,
                "velocity": 73,
                "time": 0
            },
            {
                "type": "note_off",
                "note": 45,
                "velocity": 0,
                "time": 0
            },
            {
                "type": "note_off",
                "note": 52,
                "velocity": 0,
                "time": 0
            },
            {
                "type": "note_on",
                "note": 45,
                "velocity": 80,
                "time": 0
            },
            {
                "type": "note_on",
                "note": 54,
                "velocity": 80,
                "time": 0
            },
            {
                "type": "note_off",
                "note": 45,
                "velocity": 0,
                "time": 128
            },
            {
                "type": "note_off",
                "note": 54,
                "velocity": 0,
                "time": 0
            },
            {
                "type": "note_on",
                "note": 45,
                "velocity": 71,
                "time": 26
            },
            {
                "type": "note_on",
                "note": 54,
                "velocity": 71,
                "time": 0
            },
            {
                "type": "note_off",
                "note": 64,
                "velocity": 0,
                "time": 102
            },
            {
                "type": "note_off",
                "note": 72,
                "velocity": 0,
                "time": 0
            },
            {
                "type": "note_on",
                "note": 64,
                "velocity": 75,
                "time": 0
            },
            {
                "type": "note_on",
                "note": 69,
                "velocity": 75,
                "time": 0
            },
            {
                "type": "note_off",
                "note": 45,
                "velocity": 0,
                "time": 0
            },
            {
                "type": "note_off",
                "note": 54,
                "velocity": 0,
                "time": 0
            },
            {
                "type": "note_on",
                "note": 45,
                "velocity": 75,
                "time": 0
            },
            {
                "type": "note_on",
                "note": 52,
                "velocity": 75,
                "time": 0
            },
            {
                "type": "note_off",
                "note": 45,
                "velocity": 0,
                "time": 128
            },
            {
                "type": "note_off",
                "note": 52,
                "velocity": 0,
                "time": 0
            },
            {
                "type": "note_on",
                "note": 45,
                "velocity": 72,
                "time": 26
            },
            {
                "type": "note_on",
                "note": 52,
                "velocity": 72,
                "time": 0
            },
            {
                "type": "note_off",
                "note": 45,
                "velocity": 0,
                "time": 102
            },
            {
                "type": "note_off",
                "note": 52,
                "velocity": 0,
                "time": 0
            },
            {
                "type": "note_on",
                "note": 45,
                "velocity": 83,
                "time": 0
            },
            {
                "type": "note_on",
                "note": 54,
                "velocity": 83,
                "time": 0
            },
            {
                "type": "note_off",
                "note": 45,
                "velocity": 0,
                "time": 128
            },
            {
                "type": "note_off",
                "note": 54,
                "velocity": 0,
                "time": 0
            },
            {
                "type": "note_on",
                "note": 45,
                "velocity": 73,
                "time": 26
            },
            {
                "type": "note_on",
                "note": 54,
                "velocity": 73,
                "time": 0
            },
            {
                "type": "note_off",
                "note": 45,
                "velocity": 0,
                "time": 102
            },
            {
                "type": "note_off",
                "note": 54,
                "velocity": 0,
                "time": 0
            },
            {
                "type": "note_on",
                "note": 45,
                "velocity": 73,
                "time": 0
            },
            {
                "type": "note_on",
                "note": 52,
                "velocity": 73,
                "time": 0
            },
            {
                "type": "note_off",
                "note": 45,
                "velocity": 0,
                "time": 128
            },
            {
                "type": "note_off",
                "note": 52,
                "velocity": 0,
                "time": 0
            },
            {
                "type": "note_on",
                "note": 45,
                "velocity": 69,
                "time": 26
            },
            {
                "type": "note_on",
                "note": 52,
                "velocity": 69,
                "time": 0
            },
            {
                "type": "note_off",
                "note": 64,
                "velocity": 0,
                "time": 102
            },
            {
                "type": "note_off",
                "note": 69,
                "velocity": 0,
                "time": 0
            },
            {
                "type": "note_on",
                "note": 64,
                "velocity": 86,
                "time": 0
            },
            {
                "type": "note_on",
                "note": 72,
                "velocity": 86,
                "time": 0
            },
            {
                "type": "note_off",
                "note": 45,
                "velocity": 0,
                "time": 0
            },
            {
                "type": "note_off",
                "note": 52,
                "velocity": 0,
                "time": 0
            },
            {
                "type": "note_on",
                "note": 45,
                "velocity": 84,
                "time": 0
            },
            {
                "type": "note_on",
                "note": 54,
                "velocity": 84,
                "time": 0
            },
            {
                "type": "note_off",
                "note": 45,
                "velocity": 0,
                "time": 128
            },
            {
                "type": "note_off",
                "note": 54,
                "velocity": 0,
                "time": 0
            },
            {
                "type": "note_on",
                "note": 45,
                "velocity": 72,
                "time": 26
            },
            {
                "type": "note_on",
                "note": 54,
                "velocity": 72,
                "time": 0
            },
            {
                "type": "note_off",
                "note": 64,
                "velocity": 0,
                "time": 102
            },
            {
                "type": "note_off",
                "note": 72,
                "velocity": 0,
                "time": 0
            },
            {
                "type": "note_on",
                "note": 64,
                "velocity": 76,
                "time": 0
            },
            {
                "type": "note_on",
                "note": 69,
                "velocity": 76,
                "time": 0
            },
            {
                "type": "note_off",
                "note": 45,
                "velocity": 0,
                "time": 0
            },
            {
                "type": "note_off",
                "note": 54,
                "velocity": 0,
                "time": 0
            },
            {
                "type": "note_on",
                "note": 45,
                "velocity": 76,
                "time": 0
            },
            {
                "type": "note_on",
                "note": 52,
                "velocity": 76,
                "time": 0
            },
            {
                "type": "note_off",
                "note": 45,
                "velocity": 0,
                "time": 128
            },
            {
                "type": "note_off",
                "note": 52,
                "velocity": 0,
                "time": 0
            },
            {
                "type": "note_on",
                "note": 45,
                "velocity": 74,
                "time": 26
            },
            {
                "type": "note_on",
                "note": 52,
                "velocity": 74,
                "time": 0
            },
            {
                "type": "note_off",
                "note": 64,
                "velocity": 0,
                "time": 102
            },
            {
                "type": "note_off",
                "note": 69,
                "velocity": 0,
                "time": 0
            },
            {
                "type": "note_on",
                "note": 66,
                "velocity": 75,
                "time": 0
            },
            {
                "type": "note_off",
                "note": 45,
                "velocity": 0,
                "time": 0
            },
            {
                "type": "note_off",
                "note": 52,
                "velocity": 0,
                "time": 0
            },
            {
                "type": "note_on",
                "note": 45,
                "velocity": 84,
                "time": 0
            },
            {
                "type": "note_on",
                "note": 54,
                "velocity": 84,
                "time": 0
            },
            {
                "type": "note_off",
                "note": 66,
                "velocity": 0,
                "time": 128
            },
            {
                "type": "note_off",
                "note": 45,
                "velocity": 0,
                "time": 0
            },
            {
                "type": "note_off",
                "note": 54,
                "velocity": 0,
                "time": 0
            },
            {
                "type": "note_on",
                "note": 45,
                "velocity": 72,
                "time": 26
            },
            {
                "type": "note_on",
                "note": 54,
                "velocity": 72,
                "time": 0
            },
            {
                "type": "note_off",
                "note": 45,
                "velocity": 0,
                "time": 102
            },
            {
                "type": "note_off",
                "note": 54,
                "velocity": 0,
                "time": 0
            },
            {
                "type": "note_on",
                "note": 45,
                "velocity": 80,
                "time": 0
            },
            {
                "type": "note_on",
                "note": 52,
                "velocity": 80,
                "time": 0
            },
            {
                "type": "note_off",
                "note": 45,
                "velocity": 0,
                "time": 128
            },
            {
                "type": "note_off",
                "note": 52,
                "velocity": 0,
                "time": 0
            },
            {
                "type": "note_on",
                "note": 45,
                "velocity": 74,
                "time": 26
            },
            {
                "type": "note_on",
                "note": 52,
                "velocity": 74,
                "time": 0
            },
            {
                "type": "note_on",
                "note": 78,
                "velocity": 68,
                "time": 102
            },
            {
                "type": "note_off",
                "note": 45,
                "velocity": 0,
                "time": 0
            },
            {
                "type": "note_off",
                "note": 52,
                "velocity": 0,
                "time": 0
            },
            {
                "type": "note_on",
                "note": 45,
                "velocity": 84,
                "time": 0
            },
            {
                "type": "note_on",
                "note": 54,
                "velocity": 84,
                "time": 0
            },
            {
                "type": "note_off",
                "note": 45,
                "velocity": 0,
                "time": 128
            },
            {
                "type": "note_off",
                "note": 54,
                "velocity": 0,
                "time": 0
            },
            {
                "type": "note_on",
                "note": 45,
                "velocity": 74,
                "time": 26
            },
            {
                "type": "note_on",
                "note": 54,
                "velocity": 74,
                "time": 0
            },
            {
                "type": "note_off",
                "note": 78,
                "velocity": 0,
                "time": 102
            },
            {
                "type": "note_on",
                "note": 69,
                "velocity": 77,
                "time": 0
            },
            {
                "type": "note_on",
                "note": 73,
                "velocity": 77,
                "time": 0
            },
            {
                "type": "note_on",
                "note": 76,
                "velocity": 77,
                "time": 0
            },
            {
                "type": "note_off",
                "note": 45,
                "velocity": 0,
                "time": 0
            },
            {
                "type": "note_off",
                "note": 54,
                "velocity": 0,
                "time": 0
            },
            {
                "type": "note_on",
                "note": 45,
                "velocity": 79,
                "time": 0
            },
            {
                "type": "note_on",
                "note": 52,
                "velocity": 79,
                "time": 0
            },
            {
                "type": "note_off",
                "note": 45,
                "velocity": 0,
                "time": 128
            },
            {
                "type": "note_off",
                "note": 52,
                "velocity": 0,
                "time": 0
            },
            {
                "type": "note_on",
                "note": 45,
                "velocity": 70,
                "time": 26
            },
            {
                "type": "note_on",
                "note": 52,
                "velocity": 70,
                "time": 0
            },
            {
                "type": "note_off",
                "note": 45,
                "velocity": 0,
                "time": 102
            },
            {
                "type": "note_off",
                "note": 52,
                "velocity": 0,
                "time": 0
            },
            {
                "type": "note_on",
                "note": 45,
                "velocity": 80,
                "time": 0
            },
            {
                "type": "note_on",
                "note": 54,
                "velocity": 80,
                "time": 0
            },
            {
                "type": "note_off",
                "note": 45,
                "velocity": 0,
                "time": 128
            },
            {
                "type": "note_off",
                "note": 54,
                "velocity": 0,
                "time": 0
            },
            {
                "type": "note_on",
                "note": 45,
                "velocity": 74,
                "time": 26
            },
            {
                "type": "note_on",
                "note": 54,
                "velocity": 74,
                "time": 0
            },
            {
                "type": "note_off",
                "note": 45,
                "velocity": 0,
                "time": 102
            },
            {
                "type": "note_off",
                "note": 54,
                "velocity": 0,
                "time": 0
            },
            {
                "type": "note_on",
                "note": 45,
                "velocity": 74,
                "time": 0
            },
            {
                "type": "note_on",
                "note": 52,
                "velocity": 74,
                "time": 0
            },
            {
                "type": "note_off",
                "note": 69,
                "velocity": 0,
                "time": 128
            },
            {
                "type": "note_off",
                "note": 73,
                "velocity": 0,
                "time": 0
            },
            {
                "type": "note_off",
                "note": 76,
                "velocity": 0,
                "time": 0
            },
            {
                "type": "note_off",
                "note": 45,
                "velocity": 0,
                "time": 0
            },
            {
                "type": "note_off",
                "note": 52,
                "velocity": 0,
                "time": 0
            },
            {
                "type": "note_on",
                "note": 64,
                "velocity": 53,
                "time": 26
            },
            {
                "type": "note_on",
                "note": 45,
                "velocity": 71,
                "time": 0
            },
            {
                "type": "note_on",
                "note": 52,
                "velocity": 71,
                "time": 0
            },
            {
                "type": "note_off",
                "note": 64,
                "velocity": 0,
                "time": 102
            },
            {
                "type": "note_on",
                "note": 66,
                "velocity": 82,
                "time": 0
            },
            {
                "type": "note_off",
                "note": 45,
                "velocity": 0,
                "time": 0
            },
            {
                "type": "note_off",
                "note": 52,
                "velocity": 0,
                "time": 0
            },
            {
                "type": "note_on",
                "note": 45,
                "velocity": 85,
                "time": 0
            },
            {
                "type": "note_on",
                "note": 54,
                "velocity": 85,
                "time": 0
            },
            {
                "type": "note_off",
                "note": 66,
                "velocity": 0,
                "time": 128
            },
            {
                "type": "note_off",
                "note": 45,
                "velocity": 0,
                "time": 0
            },
            {
                "type": "note_off",
                "note": 54,
                "velocity": 0,
                "time": 0
            },
            {
                "type": "note_on",
                "note": 67,
                "velocity": 76,
                "time": 26
            },
            {
                "type": "note_on",
                "note": 45,
                "velocity": 72,
                "time": 0
            },
            {
                "type": "note_on",
                "note": 54,
                "velocity": 72,
                "time": 0
            },
            {
                "type": "note_off",
                "note": 67,
                "velocity": 0,
                "time": 102
            },
            {
                "type": "note_off",
                "note": 45,
                "velocity": 0,
                "time": 0
            },
            {
                "type": "note_off",
                "note": 54,
                "velocity": 0,
                "time": 0
            },
            {
                "type": "note_on",
                "note": 45,
                "velocity": 74,
                "time": 0
            },
            {
                "type": "note_on",
                "note": 52,
                "velocity": 74,
                "time": 0
            },
            {
                "type": "note_off",
                "note": 45,
                "velocity": 0,
                "time": 128
            },
            {
                "type": "note_off",
                "note": 52,
                "velocity": 0,
                "time": 0
            },
            {
                "type": "note_on",
                "note": 45,
                "velocity": 70,
                "time": 26
            },
            {
                "type": "note_on",
                "note": 52,
                "velocity": 70,
                "time": 0
            },
            {
                "type": "note_on",
                "note": 76,
                "velocity": 72,
                "time": 102
            },
            {
                "type": "note_off",
                "note": 45,
                "velocity": 0,
                "time": 0
            },
            {
                "type": "note_off",
                "note": 52,
                "velocity": 0,
                "time": 0
            },
            {
                "type": "note_on",
                "note": 45,
                "velocity": 85,
                "time": 0
            },
            {
                "type": "note_on",
                "note": 54,
                "velocity": 85,
                "time": 0
            },
            {
                "type": "note_off",
                "note": 45,
                "velocity": 0,
                "time": 128
            },
            {
                "type": "note_off",
                "note": 54,
                "velocity": 0,
                "time": 0
            },
            {
                "type": "note_on",
                "note": 45,
                "velocity": 74,
                "time": 26
            },
            {
                "type": "note_on",
                "note": 54,
                "velocity": 74,
                "time": 0
            },
            {
                "type": "note_off",
                "note": 76,
                "velocity": 0,
                "time": 102
            },
            {
                "type": "note_on",
                "note": 78,
                "velocity": 83,
                "time": 0
            },
            {
                "type": "note_off",
                "note": 45,
                "velocity": 0,
                "time": 0
            },
            {
                "type": "note_off",
                "note": 54,
                "velocity": 0,
                "time": 0
            },
            {
                "type": "note_on",
                "note": 45,
                "velocity": 78,
                "time": 0
            },
            {
                "type": "note_on",
                "note": 52,
                "velocity": 78,
                "time": 0
            },
            {
                "type": "note_off",
                "note": 78,
                "velocity": 0,
                "time": 128
            },
            {
                "type": "note_off",
                "note": 45,
                "velocity": 0,
                "time": 0
            },
            {
                "type": "note_off",
                "note": 52,
                "velocity": 0,
                "time": 0
            },
            {
                "type": "note_on",
                "note": 76,
                "velocity": 66,
                "time": 26
            },
            {
                "type": "note_on",
                "note": 45,
                "velocity": 70,
                "time": 0
            },
            {
                "type": "note_on",
                "note": 52,
                "velocity": 70,
                "time": 0
            },
            {
                "type": "note_off",
                "note": 76,
                "velocity": 0,
                "time": 102
            },
            {
                "type": "note_on",
                "note": 72,
                "velocity": 69,
                "time": 0
            },
            {
                "type": "note_off",
                "note": 45,
                "velocity": 0,
                "time": 0
            },
            {
                "type": "note_off",
                "note": 52,
                "velocity": 0,
                "time": 0
            },
            {
                "type": "note_on",
                "note": 45,
                "velocity": 81,
                "time": 0
            },
            {
                "type": "note_on",
                "note": 54,
                "velocity": 81,
                "time": 0
            },
            {
                "type": "note_off",
                "note": 72,
                "velocity": 0,
                "time": 128
            },
            {
                "type": "note_off",
                "note": 45,
                "velocity": 0,
                "time": 0
            },
            {
                "type": "note_off",
                "note": 54,
                "velocity": 0,
                "time": 0
            },
            {
                "type": "note_on",
                "note": 69,
                "velocity": 66,
                "time": 26
            },
            {
                "type": "note_on",
                "note": 45,
                "velocity": 68,
                "time": 0
            },
            {
                "type": "note_on",
                "note": 54,
                "velocity": 68,
                "time": 0
            },
            {
                "type": "note_off",
                "note": 45,
                "velocity": 0,
                "time": 102
            },
            {
                "type": "note_off",
                "note": 54,
                "velocity": 0,
                "time": 0
            },
            {
                "type": "note_on",
                "note": 50,
                "velocity": 89,
                "time": 0
            },
            {
                "type": "note_on",
                "note": 57,
                "velocity": 89,
                "time": 0
            },
            {
                "type": "note_off",
                "note": 50,
                "velocity": 0,
                "time": 128
            },
            {
                "type": "note_off",
                "note": 57,
                "velocity": 0,
                "time": 0
            },
            {
                "type": "note_on",
                "note": 50,
                "velocity": 71,
                "time": 26
            },
            {
                "type": "note_on",
                "note": 57,
                "velocity": 71,
                "time": 0
            },
            {
                "type": "note_off",
                "note": 69,
                "velocity": 0,
                "time": 102
            },
            {
                "type": "note_on",
                "note": 66,
                "velocity": 74,
                "time": 0
            },
            {
                "type": "note_off",
                "note": 50,
                "velocity": 0,
                "time": 0
            },
            {
                "type": "note_off",
                "note": 57,
                "velocity": 0,
                "time": 0
            },
            {
                "type": "note_on",
                "note": 50,
                "velocity": 80,
                "time": 0
            },
            {
                "type": "note_on",
                "note": 59,
                "velocity": 80,
                "time": 0
            },
            {
                "type": "note_off",
                "note": 66,
                "velocity": 0,
                "time": 128
            },
            {
                "type": "note_off",
                "note": 50,
                "velocity": 0,
                "time": 0
            },
            {
                "type": "note_off",
                "note": 59,
                "velocity": 0,
                "time": 0
            },
            {
                "type": "note_on",
                "note": 71,
                "velocity": 80,
                "time": 26
            },
            {
                "type": "note_on",
                "note": 50,
                "velocity": 71,
                "time": 0
            },
            {
                "type": "note_on",
                "note": 59,
                "velocity": 71,
                "time": 0
            },
            {
                "type": "note_off",
                "note": 71,
                "velocity": 0,
                "time": 102
            },
            {
                "type": "note_on",
                "note": 69,
                "velocity": 77,
                "time": 0
            },
            {
                "type": "note_off",
                "note": 50,
                "velocity": 0,
                "time": 0
            },
            {
                "type": "note_off",
                "note": 59,
                "velocity": 0,
                "time": 0
            },
            {
                "type": "note_on",
                "note": 50,
                "velocity": 76,
                "time": 0
            },
            {
                "type": "note_on",
                "note": 57,
                "velocity": 76,
                "time": 0
            },
            {
                "type": "note_off",
                "note": 50,
                "velocity": 0,
                "time": 128
            },
            {
                "type": "note_off",
                "note": 57,
                "velocity": 0,
                "time": 0
            },
            {
                "type": "note_on",
                "note": 50,
                "velocity": 70,
                "time": 26
            },
            {
                "type": "note_on",
                "note": 57,
                "velocity": 70,
                "time": 0
            },
            {
                "type": "note_off",
                "note": 69,
                "velocity": 0,
                "time": 102
            },
            {
                "type": "note_on",
                "note": 66,
                "velocity": 76,
                "time": 0
            },
            {
                "type": "note_off",
                "note": 50,
                "velocity": 0,
                "time": 0
            },
            {
                "type": "note_off",
                "note": 57,
                "velocity": 0,
                "time": 0
            },
            {
                "type": "note_on",
                "note": 50,
                "velocity": 79,
                "time": 0
            },
            {
                "type": "note_on",
                "note": 59,
                "velocity": 79,
                "time": 0
            },
            {
                "type": "note_off",
                "note": 50,
                "velocity": 0,
                "time": 128
            },
            {
                "type": "note_off",
                "note": 59,
                "velocity": 0,
                "time": 0
            },
            {
                "type": "note_on",
                "note": 50,
                "velocity": 75,
                "time": 26
            },
            {
                "type": "note_on",
                "note": 59,
                "velocity": 75,
                "time": 0
            },
            {
                "type": "note_off",
                "note": 66,
                "velocity": 0,
                "time": 102
            },
            {
                "type": "note_off",
                "note": 50,
                "velocity": 0,
                "time": 0
            },
            {
                "type": "note_off",
                "note": 59,
                "velocity": 0,
                "time": 0
            },
            {
                "type": "note_on",
                "note": 50,
                "velocity": 84,
                "time": 0
            },
            {
                "type": "note_on",
                "note": 57,
                "velocity": 84,
                "time": 0
            },
            {
                "type": "note_off",
                "note": 50,
                "velocity": 0,
                "time": 128
            },
            {
                "type": "note_off",
                "note": 57,
                "velocity": 0,
                "time": 0
            },
            {
                "type": "note_on",
                "note": 72,
                "velocity": 61,
                "time": 26
            },
            {
                "type": "note_on",
                "note": 50,
                "velocity": 70,
                "time": 0
            },
            {
                "type": "note_on",
                "note": 57,
                "velocity": 70,
                "time": 0
            },
            {
                "type": "note_off",
                "note": 72,
                "velocity": 0,
                "time": 102
            },
            {
                "type": "note_on",
                "note": 72,
                "velocity": 77,
                "time": 0
            },
            {
                "type": "note_off",
                "note": 50,
                "velocity": 0,
                "time": 0
            },
            {
                "type": "note_off",
                "note": 57,
                "velocity": 0,
                "time": 0
            },
            {
                "type": "note_on",
                "note": 50,
                "velocity": 83,
                "time": 0
            },
            {
                "type": "note_on",
                "note": 59,
                "velocity": 83,
                "time": 0
            },
            {
                "type": "note_off",
                "note": 72,
                "velocity": 0,
                "time": 128
            },
            {
                "type": "note_off",
                "note": 50,
                "velocity": 0,
                "time": 0
            },
            {
                "type": "note_off",
                "note": 59,
                "velocity": 0,
                "time": 0
            },
            {
                "type": "note_on",
                "note": 71,
                "velocity": 75,
                "time": 26
            },
            {
                "type": "note_on",
                "note": 50,
                "velocity": 71,
                "time": 0
            },
            {
                "type": "note_on",
                "note": 59,
                "velocity": 71,
                "time": 0
            },
            {
                "type": "note_off",
                "note": 71,
                "velocity": 0,
                "time": 102
            },
            {
                "type": "note_on",
                "note": 69,
                "velocity": 74,
                "time": 0
            },
            {
                "type": "note_off",
                "note": 50,
                "velocity": 0,
                "time": 0
            },
            {
                "type": "note_off",
                "note": 59,
                "velocity": 0,
                "time": 0
            },
            {
                "type": "note_on",
                "note": 50,
                "velocity": 73,
                "time": 0
            },
            {
                "type": "note_on",
                "note": 57,
                "velocity": 73,
                "time": 0
            },
            {
                "type": "note_off",
                "note": 50,
                "velocity": 0,
                "time": 128
            },
            {
                "type": "note_off",
                "note": 57,
                "velocity": 0,
                "time": 0
            },
            {
                "type": "note_on",
                "note": 50,
                "velocity": 73,
                "time": 26
            },
            {
                "type": "note_on",
                "note": 57,
                "velocity": 73,
                "time": 0
            },
            {
                "type": "note_off",
                "note": 69,
                "velocity": 0,
                "time": 102
            },
            {
                "type": "note_on",
                "note": 66,
                "velocity": 71,
                "time": 0
            },
            {
                "type": "note_off",
                "note": 50,
                "velocity": 0,
                "time": 0
            },
            {
                "type": "note_off",
                "note": 57,
                "velocity": 0,
                "time": 0
            },
            {
                "type": "note_on",
                "note": 50,
                "velocity": 82,
                "time": 0
            },
            {
                "type": "note_on",
                "note": 59,
                "velocity": 82,
                "time": 0
            },
            {
                "type": "note_off",
                "note": 66,
                "velocity": 0,
                "time": 128
            },
            {
                "type": "note_off",
                "note": 50,
                "velocity": 0,
                "time": 0
            },
            {
                "type": "note_off",
                "note": 59,
                "velocity": 0,
                "time": 0
            },
            {
                "type": "note_on",
                "note": 64,
                "velocity": 64,
                "time": 26
            },
            {
                "type": "note_on",
                "note": 50,
                "velocity": 73,
                "time": 0
            },
            {
                "type": "note_on",
                "note": 59,
                "velocity": 73,
                "time": 0
            },
            {
                "type": "note_off",
                "note": 50,
                "velocity": 0,
                "time": 102
            },
            {
                "type": "note_off",
                "note": 59,
                "velocity": 0,
                "time": 0
            },
            {
                "type": "note_on",
                "note": 45,
                "velocity": 70,
                "time": 0
            },
            {
                "type": "note_on",
                "note": 52,
                "velocity": 70,
                "time": 0
            },
            {
                "type": "note_off",
                "note": 45,
                "velocity": 0,
                "time": 128
            },
            {
                "type": "note_off",
                "note": 52,
                "velocity": 0,
                "time": 0
            },
            {
                "type": "note_on",
                "note": 45,
                "velocity": 75,
                "time": 26
            },
            {
                "type": "note_on",
                "note": 52,
                "velocity": 75,
                "time": 0
            },
            {
                "type": "note_off",
                "note": 45,
                "velocity": 0,
                "time": 102
            },
            {
                "type": "note_off",
                "note": 52,
                "velocity": 0,
                "time": 0
            },
            {
                "type": "note_on",
                "note": 45,
                "velocity": 82,
                "time": 0
            },
            {
                "type": "note_on",
                "note": 54,
                "velocity": 82,
                "time": 0
            },
            {
                "type": "note_off",
                "note": 45,
                "velocity": 0,
                "time": 128
            },
            {
                "type": "note_off",
                "note": 54,
                "velocity": 0,
                "time": 0
            },
            {
                "type": "note_on",
                "note": 45,
                "velocity": 77,
                "time": 26
            },
            {
                "type": "note_on",
                "note": 54,
                "velocity": 77,
                "time": 0
            },
            {
                "type": "note_off",
                "note": 45,
                "velocity": 0,
                "time": 102
            },
            {
                "type": "note_off",
                "note": 54,
                "velocity": 0,
                "time": 0
            },
            {
                "type": "note_on",
                "note": 45,
                "velocity": 81,
                "time": 0
            },
            {
                "type": "note_on",
                "note": 52,
                "velocity": 81,
                "time": 0
            },
            {
                "type": "note_off",
                "note": 45,
                "velocity": 0,
                "time": 128
            },
            {
                "type": "note_off",
                "note": 52,
                "velocity": 0,
                "time": 0
            },
            {
                "type": "note_on",
                "note": 45,
                "velocity": 70,
                "time": 26
            },
            {
                "type": "note_on",
                "note": 52,
                "velocity": 70,
                "time": 0
            },
            {
                "type": "note_off",
                "note": 64,
                "velocity": 0,
                "time": 102
            },
            {
                "type": "note_on",
                "note": 61,
                "velocity": 73,
                "time": 0
            },
            {
                "type": "note_off",
                "note": 45,
                "velocity": 0,
                "time": 0
            },
            {
                "type": "note_off",
                "note": 52,
                "velocity": 0,
                "time": 0
            },
            {
                "type": "note_on",
                "note": 45,
                "velocity": 81,
                "time": 0
            },
            {
                "type": "note_on",
                "note": 54,
                "velocity": 81,
                "time": 0
            },
            {
                "type": "note_off",
                "note": 61,
                "velocity": 0,
                "time": 128
            },
            {
                "type": "note_off",
                "note": 45,
                "velocity": 0,
                "time": 0
            },
            {
                "type": "note_off",
                "note": 54,
                "velocity": 0,
                "time": 0
            },
            {
                "type": "note_on",
                "note": 64,
                "velocity": 79,
                "time": 26
            },
            {
                "type": "note_on",
                "note": 45,
                "velocity": 79,
                "time": 0
            },
            {
                "type": "note_on",
                "note": 54,
                "velocity": 79,
                "time": 0
            },
            {
                "type": "note_off",
                "note": 45,
                "velocity": 0,
                "time": 102
            },
            {
                "type": "note_off",
                "note": 54,
                "velocity": 0,
                "time": 0
            },
            {
                "type": "note_on",
                "note": 45,
                "velocity": 78,
                "time": 0
            },
            {
                "type": "note_on",
                "note": 52,
                "velocity": 78,
                "time": 0
            },
            {
                "type": "note_off",
                "note": 45,
                "velocity": 0,
                "time": 128
            },
            {
                "type": "note_off",
                "note": 52,
                "velocity": 0,
                "time": 0
            },
            {
                "type": "note_on",
                "note": 45,
                "velocity": 72,
                "time": 26
            },
            {
                "type": "note_on",
                "note": 52,
                "velocity": 72,
                "time": 0
            },
            {
                "type": "note_off",
                "note": 45,
                "velocity": 0,
                "time": 102
            },
            {
                "type": "note_off",
                "note": 52,
                "velocity": 0,
                "time": 0
            },
            {
                "type": "note_on",
                "note": 45,
                "velocity": 86,
                "time": 0
            },
            {
                "type": "note_on",
                "note": 54,
                "velocity": 86,
                "time": 0
            },
            {
                "type": "note_off",
                "note": 45,
                "velocity": 0,
                "time": 128
            },
            {
                "type": "note_off",
                "note": 54,
                "velocity": 0,
                "time": 0
            },
            {
                "type": "note_on",
                "note": 45,
                "velocity": 70,
                "time": 26
            },
            {
                "type": "note_on",
                "note": 54,
                "velocity": 70,
                "time": 0
            },
            {
                "type": "note_off",
                "note": 64,
                "velocity": 0,
                "time": 102
            },
            {
                "type": "note_off",
                "note": 45,
                "velocity": 0,
                "time": 0
            },
            {
                "type": "note_off",
                "note": 54,
                "velocity": 0,
                "time": 0
            },
            {
                "type": "note_on",
                "note": 45,
                "velocity": 79,
                "time": 0
            },
            {
                "type": "note_on",
                "note": 52,
                "velocity": 79,
                "time": 0
            },
            {
                "type": "note_off",
                "note": 45,
                "velocity": 0,
                "time": 128
            },
            {
                "type": "note_off",
                "note": 52,
                "velocity": 0,
                "time": 0
            },
            {
                "type": "note_on",
                "note": 74,
                "velocity": 66,
                "time": 26
            },
            {
                "type": "note_on",
                "note": 45,
                "velocity": 77,
                "time": 0
            },
            {
                "type": "note_on",
                "note": 52,
                "velocity": 77,
                "time": 0
            },
            {
                "type": "note_off",
                "note": 74,
                "velocity": 0,
                "time": 102
            },
            {
                "type": "note_on",
                "note": 74,
                "velocity": 79,
                "time": 0
            },
            {
                "type": "note_off",
                "note": 45,
                "velocity": 0,
                "time": 0
            },
            {
                "type": "note_off",
                "note": 52,
                "velocity": 0,
                "time": 0
            },
            {
                "type": "note_on",
                "note": 45,
                "velocity": 87,
                "time": 0
            },
            {
                "type": "note_on",
                "note": 54,
                "velocity": 87,
                "time": 0
            },
            {
                "type": "note_off",
                "note": 74,
                "velocity": 0,
                "time": 128
            },
            {
                "type": "note_off",
                "note": 45,
                "velocity": 0,
                "time": 0
            },
            {
                "type": "note_off",
                "note": 54,
                "velocity": 0,
                "time": 0
            },
            {
                "type": "note_on",
                "note": 73,
                "velocity": 70,
                "time": 26
            },
            {
                "type": "note_on",
                "note": 45,
                "velocity": 69,
                "time": 0
            },
            {
                "type": "note_on",
                "note": 54,
                "velocity": 69,
                "time": 0
            },
            {
                "type": "note_off",
                "note": 73,
                "velocity": 0,
                "time": 102
            },
            {
                "type": "note_on",
                "note": 74,
                "velocity": 81,
                "time": 0
            },
            {
                "type": "note_on",
                "note": 68,
                "velocity": 85,
                "time": 0
            },
            {
                "type": "note_on",
                "note": 71,
                "velocity": 85,
                "time": 0
            },
            {
                "type": "note_off",
                "note": 45,
                "velocity": 0,
                "time": 0
            },
            {
                "type": "note_off",
                "note": 54,
                "velocity": 0,
                "time": 0
            },
            {
                "type": "note_on",
                "note": 52,
                "velocity": 84,
                "time": 0
            },
            {
                "type": "note_on",
                "note": 59,
                "velocity": 84,
                "time": 0
            },
            {
                "type": "note_off",
                "note": 74,
                "velocity": 0,
                "time": 128
            },
            {
                "type": "note_off",
                "note": 52,
                "velocity": 0,
                "time": 0
            },
            {
                "type": "note_off",
                "note": 59,
                "velocity": 0,
                "time": 0
            },
            {
                "type": "note_on",
                "note": 73,
                "velocity": 65,
                "time": 26
            },
            {
                "type": "note_on",
                "note": 52,
                "velocity": 70,
                "time": 0
            },
            {
                "type": "note_on",
                "note": 59,
                "velocity": 70,
                "time": 0
            },
            {
                "type": "note_off",
                "note": 73,
                "velocity": 0,
                "time": 102
            },
            {
                "type": "note_on",
                "note": 74,
                "velocity": 85,
                "time": 0
            },
            {
                "type": "note_off",
                "note": 52,
                "velocity": 0,
                "time": 0
            },
            {
                "type": "note_off",
                "note": 59,
                "velocity": 0,
                "time": 0
            },
            {
                "type": "note_on",
                "note": 52,
                "velocity": 83,
                "time": 0
            },
            {
                "type": "note_on",
                "note": 61,
                "velocity": 83,
                "time": 0
            },
            {
                "type": "note_off",
                "note": 74,
                "velocity": 0,
                "time": 128
            },
            {
                "type": "note_off",
                "note": 52,
                "velocity": 0,
                "time": 0
            },
            {
                "type": "note_off",
                "note": 61,
                "velocity": 0,
                "time": 0
            },
            {
                "type": "note_on",
                "note": 73,
                "velocity": 74,
                "time": 26
            },
            {
                "type": "note_on",
                "note": 52,
                "velocity": 74,
                "time": 0
            },
            {
                "type": "note_on",
                "note": 61,
                "velocity": 74,
                "time": 0
            },
            {
                "type": "note_off",
                "note": 73,
                "velocity": 0,
                "time": 102
            },
            {
                "type": "note_on",
                "note": 74,
                "velocity": 84,
                "time": 0
            },
            {
                "type": "note_off",
                "note": 52,
                "velocity": 0,
                "time": 0
            },
            {
                "type": "note_off",
                "note": 61,
                "velocity": 0,
                "time": 0
            },
            {
                "type": "note_on",
                "note": 52,
                "velocity": 75,
                "time": 0
            },
            {
                "type": "note_on",
                "note": 59,
                "velocity": 75,
                "time": 0
            },
            {
                "type": "note_off",
                "note": 74,
                "velocity": 0,
                "time": 128
            },
            {
                "type": "note_off",
                "note": 52,
                "velocity": 0,
                "time": 0
            },
            {
                "type": "note_off",
                "note": 59,
                "velocity": 0,
                "time": 0
            },
            {
                "type": "note_on",
                "note": 76,
                "velocity": 76,
                "time": 26
            },
            {
                "type": "note_on",
                "note": 52,
                "velocity": 73,
                "time": 0
            },
            {
                "type": "note_on",
                "note": 59,
                "velocity": 73,
                "time": 0
            },
            {
                "type": "note_off",
                "note": 52,
                "velocity": 0,
                "time": 102
            },
            {
                "type": "note_off",
                "note": 59,
                "velocity": 0,
                "time": 0
            },
            {
                "type": "note_on",
                "note": 52,
                "velocity": 85,
                "time": 0
            },
            {
                "type": "note_on",
                "note": 61,
                "velocity": 85,
                "time": 0
            },
            {
                "type": "note_off",
                "note": 52,
                "velocity": 0,
                "time": 128
            },
            {
                "type": "note_off",
                "note": 61,
                "velocity": 0,
                "time": 0
            },
            {
                "type": "note_on",
                "note": 52,
                "velocity": 73,
                "time": 26
            },
            {
                "type": "note_on",
                "note": 61,
                "velocity": 73,
                "time": 0
            },
            {
                "type": "note_off",
                "note": 68,
                "velocity": 0,
                "time": 102
            },
            {
                "type": "note_off",
                "note": 71,
                "velocity": 0,
                "time": 0
            },
            {
                "type": "note_off",
                "note": 76,
                "velocity": 0,
                "time": 0
            },
            {
                "type": "note_on",
                "note": 66,
                "velocity": 76,
                "time": 0
            },
            {
                "type": "note_on",
                "note": 69,
                "velocity": 76,
                "time": 0
            },
            {
                "type": "note_off",
                "note": 52,
                "velocity": 0,
                "time": 0
            },
            {
                "type": "note_off",
                "note": 61,
                "velocity": 0,
                "time": 0
            },
            {
                "type": "note_on",
                "note": 50,
                "velocity": 75,
                "time": 0
            },
            {
                "type": "note_on",
                "note": 57,
                "velocity": 75,
                "time": 0
            },
            {
                "type": "note_off",
                "note": 50,
                "velocity": 0,
                "time": 128
            },
            {
                "type": "note_off",
                "note": 57,
                "velocity": 0,
                "time": 0
            },
            {
                "type": "note_on",
                "note": 72,
                "velocity": 68,
                "time": 26
            },
            {
                "type": "note_on",
                "note": 50,
                "velocity": 68,
                "time": 0
            },
            {
                "type": "note_on",
                "note": 57,
                "velocity": 68,
                "time": 0
            },
            {
                "type": "note_off",
                "note": 72,
                "velocity": 0,
                "time": 102
            },
            {
                "type": "note_on",
                "note": 72,
                "velocity": 77,
                "time": 0
            },
            {
                "type": "note_off",
                "note": 50,
                "velocity": 0,
                "time": 0
            },
            {
                "type": "note_off",
                "note": 57,
                "velocity": 0,
                "time": 0
            },
            {
                "type": "note_on",
                "note": 50,
                "velocity": 84,
                "time": 0
            },
            {
                "type": "note_on",
                "note": 59,
                "velocity": 84,
                "time": 0
            },
            {
                "type": "note_off",
                "note": 72,
                "velocity": 0,
                "time": 128
            },
            {
                "type": "note_off",
                "note": 50,
                "velocity": 0,
                "time": 0
            },
            {
                "type": "note_off",
                "note": 59,
                "velocity": 0,
                "time": 0
            },
            {
                "type": "note_on",
                "note": 71,
                "velocity": 72,
                "time": 26
            },
            {
                "type": "note_on",
                "note": 50,
                "velocity": 70,
                "time": 0
            },
            {
                "type": "note_on",
                "note": 59,
                "velocity": 70,
                "time": 0
            },
            {
                "type": "note_off",
                "note": 71,
                "velocity": 0,
                "time": 102
            },
            {
                "type": "note_on",
                "note": 69,
                "velocity": 74,
                "time": 0
            },
            {
                "type": "note_off",
                "note": 50,
                "velocity": 0,
                "time": 0
            },
            {
                "type": "note_off",
                "note": 59,
                "velocity": 0,
                "time": 0
            },
            {
                "type": "note_on",
                "note": 50,
                "velocity": 80,
                "time": 0
            },
            {
                "type": "note_on",
                "note": 57,
                "velocity": 80,
                "time": 0
            },
            {
                "type": "note_off",
                "note": 50,
                "velocity": 0,
                "time": 128
            },
            {
                "type": "note_off",
                "note": 57,
                "velocity": 0,
                "time": 0
            },
            {
                "type": "note_on",
                "note": 50,
                "velocity": 75,
                "time": 26
            },
            {
                "type": "note_on",
                "note": 57,
                "velocity": 75,
                "time": 0
            },
            {
                "type": "note_off",
                "note": 69,
                "velocity": 0,
                "time": 102
            },
            {
                "type": "note_on",
                "note": 66,
                "velocity": 69,
                "time": 0
            },
            {
                "type": "note_off",
                "note": 50,
                "velocity": 0,
                "time": 0
            },
            {
                "type": "note_off",
                "note": 57,
                "velocity": 0,
                "time": 0
            },
            {
                "type": "note_on",
                "note": 50,
                "velocity": 84,
                "time": 0
            },
            {
                "type": "note_on",
                "note": 59,
                "velocity": 84,
                "time": 0
            },
            {
                "type": "note_off",
                "note": 66,
                "velocity": 0,
                "time": 128
            },
            {
                "type": "note_off",
                "note": 50,
                "velocity": 0,
                "time": 0
            },
            {
                "type": "note_off",
                "note": 59,
                "velocity": 0,
                "time": 0
            },
            {
                "type": "note_on",
                "note": 69,
                "velocity": 79,
                "time": 26
            },
            {
                "type": "note_on",
                "note": 50,
                "velocity": 69,
                "time": 0
            },
            {
                "type": "note_on",
                "note": 59,
                "velocity": 69,
                "time": 0
            },
            {
                "type": "note_off",
                "note": 66,
                "velocity": 0,
                "time": 102
            },
            {
                "type": "note_off",
                "note": 69,
                "velocity": 0,
                "time": 0
            },
            {
                "type": "note_off",
                "note": 50,
                "velocity": 0,
                "time": 0
            },
            {
                "type": "note_off",
                "note": 59,
                "velocity": 0,
                "time": 0
            },
            {
                "type": "note_on",
                "note": 45,
                "velocity": 78,
                "time": 0
            },
            {
                "type": "note_on",
                "note": 52,
                "velocity": 78,
                "time": 0
            },
            {
                "type": "note_off",
                "note": 45,
                "velocity": 0,
                "time": 128
            },
            {
                "type": "note_off",
                "note": 52,
                "velocity": 0,
                "time": 0
            },
            {
                "type": "note_on",
                "note": 45,
                "velocity": 72,
                "time": 26
            },
            {
                "type": "note_on",
                "note": 52,
                "velocity": 72,
                "time": 0
            },
            {
                "type": "note_off",
                "note": 45,
                "velocity": 0,
                "time": 102
            },
            {
                "type": "note_off",
                "note": 52,
                "velocity": 0,
                "time": 0
            },
            {
                "type": "note_on",
                "note": 45,
                "velocity": 85,
                "time": 0
            },
            {
                "type": "note_on",
                "note": 54,
                "velocity": 85,
                "time": 0
            },
            {
                "type": "note_off",
                "note": 45,
                "velocity": 0,
                "time": 128
            },
            {
                "type": "note_off",
                "note": 54,
                "velocity": 0,
                "time": 0
            },
            {
                "type": "note_on",
                "note": 45,
                "velocity": 74,
                "time": 26
            },
            {
                "type": "note_on",
                "note": 54,
                "velocity": 74,
                "time": 0
            },
            {
                "type": "note_off",
                "note": 45,
                "velocity": 0,
                "time": 102
            },
            {
                "type": "note_off",
                "note": 54,
                "velocity": 0,
                "time": 0
            },
            {
                "type": "note_on",
                "note": 45,
                "velocity": 74,
                "time": 0
            },
            {
                "type": "note_on",
                "note": 52,
                "velocity": 74,
                "time": 0
            },
            {
                "type": "note_off",
                "note": 45,
                "velocity": 0,
                "time": 128
            },
            {
                "type": "note_off",
                "note": 52,
                "velocity": 0,
                "time": 0
            },
            {
                "type": "note_on",
                "note": 45,
                "velocity": 70,
                "time": 26
            },
            {
                "type": "note_on",
                "note": 52,
                "velocity": 70,
                "time": 0
            },
            {
                "type": "note_off",
                "note": 45,
                "velocity": 0,
                "time": 102
            },
            {
                "type": "note_off",
                "note": 52,
                "velocity": 0,
                "time": 0
            },
            {
                "type": "note_on",
                "note": 45,
                "velocity": 81,
                "time": 0
            },
            {
                "type": "note_on",
                "note": 54,
                "velocity": 81,
                "time": 0
            },
            {
                "type": "note_off",
                "note": 45,
                "velocity": 0,
                "time": 128
            },
            {
                "type": "note_off",
                "note": 54,
                "velocity": 0,
                "time": 0
            },
            {
                "type": "note_on",
                "note": 45,
                "velocity": 75,
                "time": 26
            },
            {
                "type": "note_on",
                "note": 54,
                "velocity": 75,
                "time": 0
            },
            {
                "type": "note_off",
                "note": 69,
                "velocity": 0,
                "time": 102
            },
            {
                "type": "note_on",
                "note": 64,
                "velocity": 85,
                "time": 0
            },
            {
                "type": "note_on",
                "note": 68,
                "velocity": 85,
                "time": 0
            },
            {
                "type": "note_on",
                "note": 72,
                "velocity": 85,
                "time": 0
            },
            {
                "type": "note_on",
                "note": 74,
                "velocity": 85,
                "time": 0
            },
            {
                "type": "note_off",
                "note": 45,
                "velocity": 0,
                "time": 0
            },
            {
                "type": "note_off",
                "note": 54,
                "velocity": 0,
                "time": 0
            },
            {
                "type": "note_on",
                "note": 40,
                "velocity": 73,
                "time": 0
            },
            {
                "type": "note_on",
                "note": 47,
                "velocity": 73,
                "time": 0
            },
            {
                "type": "note_off",
                "note": 40,
                "velocity": 0,
                "time": 25
            },
            {
                "type": "note_off",
                "note": 47,
                "velocity": 0,
                "time": 0
            },
            {
                "type": "note_on",
                "note": 40,
                "velocity": 73,
                "time": 7
            },
            {
                "type": "note_on",
                "note": 47,
                "velocity": 73,
                "time": 0
            },
            {
                "type": "note_off",
                "note": 40,
                "velocity": 0,
                "time": 25
            },
            {
                "type": "note_off",
                "note": 47,
                "velocity": 0,
                "time": 0
            },
            {
                "type": "note_on",
                "note": 40,
                "velocity": 73,
                "time": 7
            },
            {
                "type": "note_on",
                "note": 47,
                "velocity": 73,
                "time": 0
            },
            {
                "type": "note_off",
                "note": 40,
                "velocity": 0,
                "time": 25
            },
            {
                "type": "note_off",
                "note": 47,
                "velocity": 0,
                "time": 0
            },
            {
                "type": "note_on",
                "note": 40,
                "velocity": 73,
                "time": 7
            },
            {
                "type": "note_on",
                "note": 47,
                "velocity": 73,
                "time": 0
            },
            {
                "type": "note_off",
                "note": 40,
                "velocity": 0,
                "time": 25
            },
            {
                "type": "note_off",
                "note": 47,
                "velocity": 0,
                "time": 0
            },
            {
                "type": "note_on",
                "note": 40,
                "velocity": 73,
                "time": 7
            },
            {
                "type": "note_on",
                "note": 47,
                "velocity": 73,
                "time": 0
            },
            {
                "type": "note_off",
                "note": 40,
                "velocity": 0,
                "time": 25
            },
            {
                "type": "note_off",
                "note": 47,
                "velocity": 0,
                "time": 0
            },
            {
                "type": "note_on",
                "note": 40,
                "velocity": 73,
                "time": 7
            },
            {
                "type": "note_on",
                "note": 47,
                "velocity": 73,
                "time": 0
            },
            {
                "type": "note_off",
                "note": 40,
                "velocity": 0,
                "time": 25
            },
            {
                "type": "note_off",
                "note": 47,
                "velocity": 0,
                "time": 0
            },
            {
                "type": "note_on",
                "note": 40,
                "velocity": 73,
                "time": 7
            },
            {
                "type": "note_on",
                "note": 47,
                "velocity": 73,
                "time": 0
            },
            {
                "type": "note_off",
                "note": 40,
                "velocity": 0,
                "time": 25
            },
            {
                "type": "note_off",
                "note": 47,
                "velocity": 0,
                "time": 0
            },
            {
                "type": "note_on",
                "note": 40,
                "velocity": 73,
                "time": 7
            },
            {
                "type": "note_on",
                "note": 47,
                "velocity": 73,
                "time": 0
            },
            {
                "type": "note_off",
                "note": 40,
                "velocity": 0,
                "time": 25
            },
            {
                "type": "note_off",
                "note": 47,
                "velocity": 0,
                "time": 0
            },
            {
                "type": "note_on",
                "note": 40,
                "velocity": 73,
                "time": 7
            },
            {
                "type": "note_on",
                "note": 47,
                "velocity": 73,
                "time": 0
            },
            {
                "type": "note_off",
                "note": 40,
                "velocity": 0,
                "time": 25
            },
            {
                "type": "note_off",
                "note": 47,
                "velocity": 0,
                "time": 0
            },
            {
                "type": "note_on",
                "note": 40,
                "velocity": 73,
                "time": 7
            },
            {
                "type": "note_on",
                "note": 47,
                "velocity": 73,
                "time": 0
            },
            {
                "type": "note_off",
                "note": 40,
                "velocity": 0,
                "time": 25
            },
            {
                "type": "note_off",
                "note": 47,
                "velocity": 0,
                "time": 0
            },
            {
                "type": "note_on",
                "note": 40,
                "velocity": 73,
                "time": 7
            },
            {
                "type": "note_on",
                "note": 47,
                "velocity": 73,
                "time": 0
            },
            {
                "type": "note_off",
                "note": 40,
                "velocity": 0,
                "time": 25
            },
            {
                "type": "note_off",
                "note": 47,
                "velocity": 0,
                "time": 0
            },
            {
                "type": "note_on",
                "note": 40,
                "velocity": 73,
                "time": 7
            },
            {
                "type": "note_on",
                "note": 47,
                "velocity": 73,
                "time": 0
            },
            {
                "type": "note_off",
                "note": 40,
                "velocity": 0,
                "time": 25
            },
            {
                "type": "note_off",
                "note": 47,
                "velocity": 0,
                "time": 0
            },
            {
                "type": "note_on",
                "note": 40,
                "velocity": 73,
                "time": 7
            },
            {
                "type": "note_on",
                "note": 47,
                "velocity": 73,
                "time": 0
            },
            {
                "type": "note_off",
                "note": 40,
                "velocity": 0,
                "time": 25
            },
            {
                "type": "note_off",
                "note": 47,
                "velocity": 0,
                "time": 0
            },
            {
                "type": "note_on",
                "note": 40,
                "velocity": 73,
                "time": 7
            },
            {
                "type": "note_on",
                "note": 47,
                "velocity": 73,
                "time": 0
            },
            {
                "type": "note_off",
                "note": 40,
                "velocity": 0,
                "time": 25
            },
            {
                "type": "note_off",
                "note": 47,
                "velocity": 0,
                "time": 0
            },
            {
                "type": "note_on",
                "note": 40,
                "velocity": 73,
                "time": 7
            },
            {
                "type": "note_on",
                "note": 47,
                "velocity": 73,
                "time": 0
            },
            {
                "type": "note_off",
                "note": 40,
                "velocity": 0,
                "time": 25
            },
            {
                "type": "note_off",
                "note": 47,
                "velocity": 0,
                "time": 0
            },
            {
                "type": "note_on",
                "note": 40,
                "velocity": 73,
                "time": 7
            },
            {
                "type": "note_on",
                "note": 47,
                "velocity": 73,
                "time": 0
            },
            {
                "type": "note_off",
                "note": 40,
                "velocity": 0,
                "time": 25
            },
            {
                "type": "note_off",
                "note": 47,
                "velocity": 0,
                "time": 0
            },
            {
                "type": "note_on",
                "note": 40,
                "velocity": 73,
                "time": 7
            },
            {
                "type": "note_on",
                "note": 47,
                "velocity": 73,
                "time": 0
            },
            {
                "type": "note_off",
                "note": 40,
                "velocity": 0,
                "time": 25
            },
            {
                "type": "note_off",
                "note": 47,
                "velocity": 0,
                "time": 0
            },
            {
                "type": "note_on",
                "note": 40,
                "velocity": 73,
                "time": 7
            },
            {
                "type": "note_on",
                "note": 47,
                "velocity": 73,
                "time": 0
            },
            {
                "type": "note_off",
                "note": 40,
                "velocity": 0,
                "time": 25
            },
            {
                "type": "note_off",
                "note": 47,
                "velocity": 0,
                "time": 0
            },
            {
                "type": "note_on",
                "note": 40,
                "velocity": 73,
                "time": 7
            },
            {
                "type": "note_on",
                "note": 47,
                "velocity": 73,
                "time": 0
            },
            {
                "type": "note_off",
                "note": 40,
                "velocity": 0,
                "time": 25
            },
            {
                "type": "note_off",
                "note": 47,
                "velocity": 0,
                "time": 0
            },
            {
                "type": "note_on",
                "note": 40,
                "velocity": 73,
                "time": 7
            },
            {
                "type": "note_on",
                "note": 47,
                "velocity": 73,
                "time": 0
            },
            {
                "type": "note_off",
                "note": 40,
                "velocity": 0,
                "time": 25
            },
            {
                "type": "note_off",
                "note": 47,
                "velocity": 0,
                "time": 0
            },
            {
                "type": "note_on",
                "note": 40,
                "velocity": 73,
                "time": 7
            },
            {
                "type": "note_on",
                "note": 47,
                "velocity": 73,
                "time": 0
            },
            {
                "type": "note_off",
                "note": 40,
                "velocity": 0,
                "time": 25
            },
            {
                "type": "note_off",
                "note": 47,
                "velocity": 0,
                "time": 0
            },
            {
                "type": "note_on",
                "note": 40,
                "velocity": 73,
                "time": 7
            },
            {
                "type": "note_on",
                "note": 47,
                "velocity": 73,
                "time": 0
            },
            {
                "type": "note_off",
                "note": 40,
                "velocity": 0,
                "time": 25
            },
            {
                "type": "note_off",
                "note": 47,
                "velocity": 0,
                "time": 0
            },
            {
                "type": "note_on",
                "note": 40,
                "velocity": 73,
                "time": 7
            },
            {
                "type": "note_on",
                "note": 47,
                "velocity": 73,
                "time": 0
            },
            {
                "type": "note_off",
                "note": 40,
                "velocity": 0,
                "time": 25
            },
            {
                "type": "note_off",
                "note": 47,
                "velocity": 0,
                "time": 0
            },
            {
                "type": "note_on",
                "note": 40,
                "velocity": 73,
                "time": 7
            },
            {
                "type": "note_on",
                "note": 47,
                "velocity": 73,
                "time": 0
            },
            {
                "type": "note_off",
                "note": 40,
                "velocity": 0,
                "time": 25
            },
            {
                "type": "note_off",
                "note": 47,
                "velocity": 0,
                "time": 0
            },
            {
                "type": "note_off",
                "note": 64,
                "velocity": 0,
                "time": 7
            },
            {
                "type": "note_off",
                "note": 68,
                "velocity": 0,
                "time": 0
            },
            {
                "type": "note_off",
                "note": 72,
                "velocity": 0,
                "time": 0
            },
            {
                "type": "note_off",
                "note": 74,
                "velocity": 0,
                "time": 0
            },
            {
                "type": "note_on",
                "note": 64,
                "velocity": 79,
                "time": 0
            },
            {
                "type": "note_on",
                "note": 67,
                "velocity": 79,
                "time": 0
            },
            {
                "type": "note_on",
                "note": 71,
                "velocity": 79,
                "time": 0
            },
            {
                "type": "note_on",
                "note": 73,
                "velocity": 79,
                "time": 0
            },
            {
                "type": "note_on",
                "note": 45,
                "velocity": 87,
                "time": 0
            },
            {
                "type": "note_on",
                "note": 52,
                "velocity": 87,
                "time": 0
            },
            {
                "type": "note_off",
                "note": 45,
                "velocity": 0,
                "time": 25
            },
            {
                "type": "note_off",
                "note": 52,
                "velocity": 0,
                "time": 0
            },
            {
                "type": "note_on",
                "note": 45,
                "velocity": 87,
                "time": 7
            },
            {
                "type": "note_on",
                "note": 52,
                "velocity": 87,
                "time": 0
            },
            {
                "type": "note_off",
                "note": 45,
                "velocity": 0,
                "time": 25
            },
            {
                "type": "note_off",
                "note": 52,
                "velocity": 0,
                "time": 0
            },
            {
                "type": "note_on",
                "note": 45,
                "velocity": 87,
                "time": 7
            },
            {
                "type": "note_on",
                "note": 52,
                "velocity": 87,
                "time": 0
            },
            {
                "type": "note_off",
                "note": 45,
                "velocity": 0,
                "time": 25
            },
            {
                "type": "note_off",
                "note": 52,
                "velocity": 0,
                "time": 0
            },
            {
                "type": "note_on",
                "note": 45,
                "velocity": 87,
                "time": 7
            },
            {
                "type": "note_on",
                "note": 52,
                "velocity": 87,
                "time": 0
            },
            {
                "type": "note_off",
                "note": 45,
                "velocity": 0,
                "time": 25
            },
            {
                "type": "note_off",
                "note": 52,
                "velocity": 0,
                "time": 0
            },
            {
                "type": "note_on",
                "note": 45,
                "velocity": 87,
                "time": 7
            },
            {
                "type": "note_on",
                "note": 52,
                "velocity": 87,
                "time": 0
            },
            {
                "type": "note_off",
                "note": 45,
                "velocity": 0,
                "time": 25
            },
            {
                "type": "note_off",
                "note": 52,
                "velocity": 0,
                "time": 0
            },
            {
                "type": "note_on",
                "note": 45,
                "velocity": 87,
                "time": 7
            },
            {
                "type": "note_on",
                "note": 52,
                "velocity": 87,
                "time": 0
            },
            {
                "type": "note_off",
                "note": 45,
                "velocity": 0,
                "time": 25
            },
            {
                "type": "note_off",
                "note": 52,
                "velocity": 0,
                "time": 0
            },
            {
                "type": "note_on",
                "note": 45,
                "velocity": 87,
                "time": 7
            },
            {
                "type": "note_on",
                "note": 52,
                "velocity": 87,
                "time": 0
            },
            {
                "type": "note_off",
                "note": 45,
                "velocity": 0,
                "time": 25
            },
            {
                "type": "note_off",
                "note": 52,
                "velocity": 0,
                "time": 0
            },
            {
                "type": "note_on",
                "note": 45,
                "velocity": 87,
                "time": 7
            },
            {
                "type": "note_on",
                "note": 52,
                "velocity": 87,
                "time": 0
            },
            {
                "type": "note_off",
                "note": 45,
                "velocity": 0,
                "time": 25
            },
            {
                "type": "note_off",
                "note": 52,
                "velocity": 0,
                "time": 0
            },
            {
                "type": "note_on",
                "note": 45,
                "velocity": 87,
                "time": 7
            },
            {
                "type": "note_on",
                "note": 52,
                "velocity": 87,
                "time": 0
            },
            {
                "type": "note_off",
                "note": 45,
                "velocity": 0,
                "time": 25
            },
            {
                "type": "note_off",
                "note": 52,
                "velocity": 0,
                "time": 0
            },
            {
                "type": "note_on",
                "note": 45,
                "velocity": 87,
                "time": 7
            },
            {
                "type": "note_on",
                "note": 52,
                "velocity": 87,
                "time": 0
            },
            {
                "type": "note_off",
                "note": 45,
                "velocity": 0,
                "time": 25
            },
            {
                "type": "note_off",
                "note": 52,
                "velocity": 0,
                "time": 0
            },
            {
                "type": "note_on",
                "note": 45,
                "velocity": 87,
                "time": 7
            },
            {
                "type": "note_on",
                "note": 52,
                "velocity": 87,
                "time": 0
            },
            {
                "type": "note_off",
                "note": 45,
                "velocity": 0,
                "time": 25
            },
            {
                "type": "note_off",
                "note": 52,
                "velocity": 0,
                "time": 0
            },
            {
                "type": "note_on",
                "note": 45,
                "velocity": 87,
                "time": 7
            },
            {
                "type": "note_on",
                "note": 52,
                "velocity": 87,
                "time": 0
            },
            {
                "type": "note_off",
                "note": 45,
                "velocity": 0,
                "time": 25
            },
            {
                "type": "note_off",
                "note": 52,
                "velocity": 0,
                "time": 0
            },
            {
                "type": "note_on",
                "note": 45,
                "velocity": 87,
                "time": 7
            },
            {
                "type": "note_on",
                "note": 52,
                "velocity": 87,
                "time": 0
            },
            {
                "type": "note_off",
                "note": 45,
                "velocity": 0,
                "time": 25
            },
            {
                "type": "note_off",
                "note": 52,
                "velocity": 0,
                "time": 0
            },
            {
                "type": "note_on",
                "note": 45,
                "velocity": 87,
                "time": 7
            },
            {
                "type": "note_on",
                "note": 52,
                "velocity": 87,
                "time": 0
            },
            {
                "type": "note_off",
                "note": 45,
                "velocity": 0,
                "time": 25
            },
            {
                "type": "note_off",
                "note": 52,
                "velocity": 0,
                "time": 0
            },
            {
                "type": "note_on",
                "note": 45,
                "velocity": 87,
                "time": 7
            },
            {
                "type": "note_on",
                "note": 52,
                "velocity": 87,
                "time": 0
            },
            {
                "type": "note_off",
                "note": 45,
                "velocity": 0,
                "time": 25
            },
            {
                "type": "note_off",
                "note": 52,
                "velocity": 0,
                "time": 0
            },
            {
                "type": "note_on",
                "note": 45,
                "velocity": 87,
                "time": 7
            },
            {
                "type": "note_on",
                "note": 52,
                "velocity": 87,
                "time": 0
            },
            {
                "type": "note_off",
                "note": 45,
                "velocity": 0,
                "time": 25
            },
            {
                "type": "note_off",
                "note": 52,
                "velocity": 0,
                "time": 0
            },
            {
                "type": "note_on",
                "note": 45,
                "velocity": 87,
                "time": 7
            },
            {
                "type": "note_on",
                "note": 52,
                "velocity": 87,
                "time": 0
            },
            {
                "type": "note_off",
                "note": 45,
                "velocity": 0,
                "time": 25
            },
            {
                "type": "note_off",
                "note": 52,
                "velocity": 0,
                "time": 0
            },
            {
                "type": "note_on",
                "note": 45,
                "velocity": 87,
                "time": 7
            },
            {
                "type": "note_on",
                "note": 52,
                "velocity": 87,
                "time": 0
            },
            {
                "type": "note_off",
                "note": 45,
                "velocity": 0,
                "time": 25
            },
            {
                "type": "note_off",
                "note": 52,
                "velocity": 0,
                "time": 0
            },
            {
                "type": "note_on",
                "note": 45,
                "velocity": 87,
                "time": 7
            },
            {
                "type": "note_on",
                "note": 52,
                "velocity": 87,
                "time": 0
            },
            {
                "type": "note_off",
                "note": 45,
                "velocity": 0,
                "time": 25
            },
            {
                "type": "note_off",
                "note": 52,
                "velocity": 0,
                "time": 0
            },
            {
                "type": "note_on",
                "note": 45,
                "velocity": 87,
                "time": 7
            },
            {
                "type": "note_on",
                "note": 52,
                "velocity": 87,
                "time": 0
            },
            {
                "type": "note_off",
                "note": 45,
                "velocity": 0,
                "time": 25
            },
            {
                "type": "note_off",
                "note": 52,
                "velocity": 0,
                "time": 0
            },
            {
                "type": "note_on",
                "note": 45,
                "velocity": 87,
                "time": 7
            },
            {
                "type": "note_on",
                "note": 52,
                "velocity": 87,
                "time": 0
            },
            {
                "type": "note_off",
                "note": 45,
                "velocity": 0,
                "time": 25
            },
            {
                "type": "note_off",
                "note": 52,
                "velocity": 0,
                "time": 0
            },
            {
                "type": "note_on",
                "note": 45,
                "velocity": 87,
                "time": 7
            },
            {
                "type": "note_on",
                "note": 52,
                "velocity": 87,
                "time": 0
            },
            {
                "type": "note_off",
                "note": 45,
                "velocity": 0,
                "time": 25
            },
            {
                "type": "note_off",
                "note": 52,
                "velocity": 0,
                "time": 0
            },
            {
                "type": "note_on",
                "note": 45,
                "velocity": 87,
                "time": 7
            },
            {
                "type": "note_on",
                "note": 52,
                "velocity": 87,
                "time": 0
            },
            {
                "type": "note_off",
                "note": 45,
                "velocity": 0,
                "time": 25
            },
            {
                "type": "note_off",
                "note": 52,
                "velocity": 0,
                "time": 0
            },
            {
                "type": "note_on",
                "note": 45,
                "velocity": 87,
                "time": 7
            },
            {
                "type": "note_on",
                "note": 52,
                "velocity": 87,
                "time": 0
            },
            {
                "type": "note_off",
                "note": 45,
                "velocity": 0,
                "time": 25
            },
            {
                "type": "note_off",
                "note": 52,
                "velocity": 0,
                "time": 0
            },
            {
                "type": "note_off",
                "note": 64,
                "velocity": 0,
                "time": 7
            },
            {
                "type": "note_off",
                "note": 67,
                "velocity": 0,
                "time": 0
            },
            {
                "type": "note_off",
                "note": 71,
                "velocity": 0,
                "time": 0
            },
            {
                "type": "note_off",
                "note": 73,
                "velocity": 0,
                "time": 0
            }
        ]
    }
]