[
    {
        "track": 0,
        "notes": []
    },
    {
        "track": 1,
        "notes": [
            {
                "type": "note_on",
                "note": 65,
                "velocity": 70,
                "time": 0
            },
            {
                "type": "note_on",
                "note": 65,
                "velocity": 0,
                "time": 240
            },
            {
                "type": "note_on",
                "note": 65,
                "velocity": 66,
                "time": 120
            },
            {
                "type": "note_on",
                "note": 65,
                "velocity": 0,
                "time": 120
            },
            {
                "type": "note_on",
                "note": 67,
                "velocity": 70,
                "time": 0
            },
            {
                "type": "note_on",
                "note": 67,
                "velocity": 0,
                "time": 480
            },
            {
                "type": "note_on",
                "note": 69,
                "velocity": 70,
                "time": 0
            },
            {
                "type": "note_on",
                "note": 69,
                "velocity": 0,
                "time": 480
            },
            {
                "type": "note_on",
                "note": 70,
                "velocity": 71,
                "time": 0
            },
            {
                "type": "note_on",
                "note": 70,
                "velocity": 0,
                "time": 240
            },
            {
                "type": "note_on",
                "note": 72,
                "velocity": 66,
                "time": 120
            },
            {
                "type": "note_on",
                "note": 72,
                "velocity": 0,
                "time": 120
            },
            {
                "type": "note_on",
                "note": 74,
                "velocity": 70,
                "time": 0
            },
            {
                "type": "note_on",
                "note": 74,
                "velocity": 0,
                "time": 480
            },
            {
                "type": "note_on",
                "note": 75,
                "velocity": 75,
                "time": 0
            },
            {
                "type": "note_on",
                "note": 75,
                "velocity": 0,
                "time": 240
            },
            {
                "type": "note_on",
                "note": 77,
                "velocity": 79,
                "time": 0
            },
            {
                "type": "note_on",
                "note": 77,
                "velocity": 0,
                "time": 240
            },
            {
                "type": "note_on",
                "note": 79,
                "velocity": 83,
                "time": 0
            },
            {
                "type": "note_on",
                "note": 79,
                "velocity": 0,
                "time": 120
            },
            {
                "type": "note_on",
                "note": 81,
                "velocity": 75,
                "time": 240
            },
            {
                "type": "note_on",
                "note": 81,
                "velocity": 0,
                "time": 120
            },
            {
                "type": "note_on",
                "note": 82,
                "velocity": 76,
                "time": 0
            },
            {
                "type": "note_on",
                "note": 82,
                "velocity": 0,
                "time": 60
            },
            {
                "type": "note_on",
                "note": 84,
                "velocity": 67,
                "time": 0
            },
            {
                "type": "note_on",
                "note": 84,
                "velocity": 0,
                "time": 60
            },
            {
                "type": "note_on",
                "note": 82,
                "velocity": 73,
                "time": 0
            },
            {
                "type": "note_on",
                "note": 82,
                "velocity": 0,
                "time": 60
            },
            {
                "type": "note_on",
                "note": 84,
                "velocity": 66,
                "time": 0
            },
            {
                "type": "note_on",
                "note": 84,
                "velocity": 0,
                "time": 60
            },
            {
                "type": "note_on",
                "note": 82,
                "velocity": 70,
                "time": 0
            },
            {
                "type": "note_on",
                "note": 82,
                "velocity": 0,
                "time": 60
            },
            {
                "type": "note_on",
                "note": 84,
                "velocity": 64,
                "time": 0
            },
            {
                "type": "note_on",
                "note": 84,
                "velocity": 0,
                "time": 60
            },
            {
                "type": "note_on",
                "note": 82,
                "velocity": 70,
                "time": 0
            },
            {
                "type": "note_on",
                "note": 82,
                "velocity": 0,
                "time": 60
            },
            {
                "type": "note_on",
                "note": 84,
                "velocity": 64,
                "time": 0
            },
            {
                "type": "note_on",
                "note": 84,
                "velocity": 0,
                "time": 60
            },
            {
                "type": "note_on",
                "note": 81,
                "velocity": 70,
                "time": 0
            },
            {
                "type": "note_on",
                "note": 81,
                "velocity": 0,
                "time": 240
            },
            {
                "type": "note_on",
                "note": 79,
                "velocity": 56,
                "time": 0
            },
            {
                "type": "note_on",
                "note": 79,
                "velocity": 0,
                "time": 180
            },
            {
                "type": "note_on",
                "note": 77,
                "velocity": 46,
                "time": 0
            },
            {
                "type": "note_on",
                "note": 77,
                "velocity": 0,
                "time": 60
            },
            {
                "type": "note_on",
                "note": 82,
                "velocity": 53,
                "time": 0
            },
            {
                "type": "note_on",
                "note": 82,
                "velocity": 0,
                "time": 120
            },
            {
                "type": "note_on",
                "note": 82,
                "velocity": 49,
                "time": 240
            },
            {
                "type": "note_on",
                "note": 82,
                "velocity": 0,
                "time": 120
            },
            {
                "type": "note_on",
                "note": 74,
                "velocity": 44,
                "time": 0
            },
            {
                "type": "note_on",
                "note": 74,
                "velocity": 0,
                "time": 900
            },
            {
                "type": "note_on",
                "note": 75,
                "velocity": 45,
                "time": 0
            },
            {
                "type": "note_on",
                "note": 75,
                "velocity": 0,
                "time": 60
            },
            {
                "type": "note_on",
                "note": 79,
                "velocity": 51,
                "time": 0
            },
            {
                "type": "note_on",
                "note": 79,
                "velocity": 0,
                "time": 120
            },
            {
                "type": "note_on",
                "note": 79,
                "velocity": 46,
                "time": 240
            },
            {
                "type": "note_on",
                "note": 79,
                "velocity": 0,
                "time": 120
            },
            {
                "type": "note_on",
                "note": 69,
                "velocity": 44,
                "time": 0
            },
            {
                "type": "note_on",
                "note": 69,
                "velocity": 0,
                "time": 900
            },
            {
                "type": "note_on",
                "note": 70,
                "velocity": 45,
                "time": 0
            },
            {
                "type": "note_on",
                "note": 70,
                "velocity": 0,
                "time": 60
            },
            {
                "type": "note_on",
                "note": 74,
                "velocity": 49,
                "time": 0
            },
            {
                "type": "note_on",
                "note": 74,
                "velocity": 0,
                "time": 120
            },
            {
                "type": "note_on",
                "note": 74,
                "velocity": 47,
                "time": 240
            },
            {
                "type": "note_on",
                "note": 74,
                "velocity": 0,
                "time": 120
            },
            {
                "type": "note_on",
                "note": 64,
                "velocity": 44,
                "time": 0
            },
            {
                "type": "note_on",
                "note": 64,
                "velocity": 0,
                "time": 960
            },
            {
                "type": "note_on",
                "note": 65,
                "velocity": 55,
                "time": 0
            },
            {
                "type": "note_on",
                "note": 65,
                "velocity": 0,
                "time": 120
            },
            {
                "type": "note_on",
                "note": 69,
                "velocity": 58,
                "time": 240
            },
            {
                "type": "note_on",
                "note": 69,
                "velocity": 0,
                "time": 120
            },
            {
                "type": "note_on",
                "note": 72,
                "velocity": 59,
                "time": 0
            },
            {
                "type": "note_on",
                "note": 72,
                "velocity": 0,
                "time": 240
            },
            {
                "type": "note_on",
                "note": 75,
                "velocity": 60,
                "time": 0
            },
            {
                "type": "note_on",
                "note": 75,
                "velocity": 0,
                "time": 240
            },
            {
                "type": "note_on",
                "note": 79,
                "velocity": 67,
                "time": 0
            },
            {
                "type": "note_on",
                "note": 79,
                "velocity": 0,
                "time": 360
            },
            {
                "type": "note_on",
                "note": 77,
                "velocity": 63,
                "time": 0
            },
            {
                "type": "note_on",
                "note": 77,
                "velocity": 0,
                "time": 58
            },
            {
                "type": "note_on",
                "note": 77,
                "velocity": 55,
                "time": 2
            },
            {
                "type": "note_on",
                "note": 77,
                "velocity": 0,
                "time": 60
            },
            {
                "type": "note_on",
                "note": 86,
                "velocity": 75,
                "time": 0
            },
            {
                "type": "note_on",
                "note": 86,
                "velocity": 0,
                "time": 120
            },
            {
                "type": "note_on",
                "note": 84,
                "velocity": 64,
                "time": 240
            },
            {
                "type": "note_on",
                "note": 84,
                "velocity": 0,
                "time": 120
            },
            {
                "type": "note_on",
                "note": 82,
                "velocity": 55,
                "time": 0
            },
            {
                "type": "note_on",
                "note": 82,
                "velocity": 0,
                "time": 60
            },
            {
                "type": "note_on",
                "note": 84,
                "velocity": 54,
                "time": 0
            },
            {
                "type": "note_on",
                "note": 84,
                "velocity": 0,
                "time": 60
            },
            {
                "type": "note_on",
                "note": 82,
                "velocity": 60,
                "time": 0
            },
            {
                "type": "note_on",
                "note": 82,
                "velocity": 0,
                "time": 120
            },
            {
                "type": "note_on",
                "note": 79,
                "velocity": 58,
                "time": 0
            },
            {
                "type": "note_on",
                "note": 79,
                "velocity": 0,
                "time": 240
            },
            {
                "type": "note_on",
                "note": 77,
                "velocity": 55,
                "time": 0
            },
            {
                "type": "note_on",
                "note": 79,
                "velocity": 45,
                "time": 420
            },
            {
                "type": "note_on",
                "note": 79,
                "velocity": 0,
                "time": 60
            },
            {
                "type": "note_on",
                "note": 77,
                "velocity": 0,
                "time": 0
            },
            {
                "type": "note_on",
                "note": 82,
                "velocity": 51,
                "time": 0
            },
            {
                "type": "note_on",
                "note": 82,
                "velocity": 0,
                "time": 120
            },
            {
                "type": "note_on",
                "note": 82,
                "velocity": 46,
                "time": 240
            },
            {
                "type": "note_on",
                "note": 82,
                "velocity": 0,
                "time": 120
            },
            {
                "type": "note_on",
                "note": 69,
                "velocity": 44,
                "time": 0
            },
            {
                "type": "note_on",
                "note": 69,
                "velocity": 0,
                "time": 840
            },
            {
                "type": "note_on",
                "note": 70,
                "velocity": 42,
                "time": 0
            },
            {
                "type": "note_on",
                "note": 70,
                "velocity": 0,
                "time": 60
            },
            {
                "type": "note_on",
                "note": 74,
                "velocity": 41,
                "time": 0
            },
            {
                "type": "note_on",
                "note": 74,
                "velocity": 0,
                "time": 60
            },
            {
                "type": "note_on",
                "note": 77,
                "velocity": 49,
                "time": 0
            },
            {
                "type": "note_on",
                "note": 77,
                "velocity": 0,
                "time": 120
            },
            {
                "type": "note_on",
                "note": 77,
                "velocity": 47,
                "time": 240
            },
            {
                "type": "note_on",
                "note": 77,
                "velocity": 0,
                "time": 120
            },
            {
                "type": "note_on",
                "note": 64,
                "velocity": 44,
                "time": 0
            },
            {
                "type": "note_on",
                "note": 64,
                "velocity": 0,
                "time": 960
            },
            {
                "type": "note_on",
                "note": 65,
                "velocity": 55,
                "time": 0
            },
            {
                "type": "note_on",
                "note": 65,
                "velocity": 0,
                "time": 120
            },
            {
                "type": "note_on",
                "note": 69,
                "velocity": 58,
                "time": 240
            },
            {
                "type": "note_on",
                "note": 69,
                "velocity": 0,
                "time": 120
            },
            {
                "type": "note_on",
                "note": 72,
                "velocity": 59,
                "time": 0
            },
            {
                "type": "note_on",
                "note": 72,
                "velocity": 0,
                "time": 240
            },
            {
                "type": "note_on",
                "note": 75,
                "velocity": 60,
                "time": 0
            },
            {
                "type": "note_on",
                "note": 75,
                "velocity": 0,
                "time": 240
            },
            {
                "type": "note_on",
                "note": 74,
                "velocity": 56,
                "time": 0
            },
            {
                "type": "note_on",
                "note": 74,
                "velocity": 0,
                "time": 60
            },
            {
                "type": "note_on",
                "note": 75,
                "velocity": 56,
                "time": 0
            },
            {
                "type": "note_on",
                "note": 75,
                "velocity": 0,
                "time": 60
            },
            {
                "type": "note_on",
                "note": 74,
                "velocity": 61,
                "time": 0
            },
            {
                "type": "note_on",
                "note": 74,
                "velocity": 0,
                "time": 120
            },
            {
                "type": "note_on",
                "note": 72,
                "velocity": 56,
                "time": 0
            },
            {
                "type": "note_on",
                "note": 72,
                "velocity": 0,
                "time": 240
            },
            {
                "type": "note_on",
                "note": 74,
                "velocity": 64,
                "time": 0
            },
            {
                "type": "note_on",
                "note": 74,
                "velocity": 0,
                "time": 120
            },
            {
                "type": "note_on",
                "note": 65,
                "velocity": 57,
                "time": 240
            },
            {
                "type": "note_on",
                "note": 65,
                "velocity": 0,
                "time": 120
            },
            {
                "type": "note_on",
                "note": 70,
                "velocity": 59,
                "time": 0
            },
            {
                "type": "note_on",
                "note": 70,
                "velocity": 0,
                "time": 480
            },
            {
                "type": "note_on",
                "note": 69,
                "velocity": 64,
                "time": 0
            },
            {
                "type": "note_on",
                "note": 69,
                "velocity": 0,
                "time": 240
            },
            {
                "type": "note_on",
                "note": 67,
                "velocity": 61,
                "time": 0
            },
            {
                "type": "note_on",
                "note": 67,
                "velocity": 0,
                "time": 240
            },
            {
                "type": "note_on",
                "note": 65,
                "velocity": 70,
                "time": 0
            },
            {
                "type": "note_on",
                "note": 65,
                "velocity": 0,
                "time": 240
            },
            {
                "type": "note_on",
                "note": 65,
                "velocity": 66,
                "time": 120
            },
            {
                "type": "note_on",
                "note": 65,
                "velocity": 0,
                "time": 120
            },
            {
                "type": "note_on",
                "note": 67,
                "velocity": 70,
                "time": 0
            },
            {
                "type": "note_on",
                "note": 67,
                "velocity": 0,
                "time": 480
            },
            {
                "type": "note_on",
                "note": 69,
                "velocity": 70,
                "time": 0
            },
            {
                "type": "note_on",
                "note": 69,
                "velocity": 0,
                "time": 480
            },
            {
                "type": "note_on",
                "note": 70,
                "velocity": 71,
                "time": 0
            },
            {
                "type": "note_on",
                "note": 70,
                "velocity": 0,
                "time": 240
            },
            {
                "type": "note_on",
                "note": 72,
                "velocity": 66,
                "time": 120
            },
            {
                "type": "note_on",
                "note": 72,
                "velocity": 0,
                "time": 120
            },
            {
                "type": "note_on",
                "note": 74,
                "velocity": 70,
                "time": 0
            },
            {
                "type": "note_on",
                "note": 74,
                "velocity": 0,
                "time": 480
            },
            {
                "type": "note_on",
                "note": 75,
                "velocity": 75,
                "time": 0
            },
            {
                "type": "note_on",
                "note": 75,
                "velocity": 0,
                "time": 240
            },
            {
                "type": "note_on",
                "note": 77,
                "velocity": 79,
                "time": 0
            },
            {
                "type": "note_on",
                "note": 77,
                "velocity": 0,
                "time": 240
            },
            {
                "type": "note_on",
                "note": 79,
                "velocity": 83,
                "time": 0
            },
            {
                "type": "note_on",
                "note": 79,
                "velocity": 0,
                "time": 120
            },
            {
                "type": "note_on",
                "note": 81,
                "velocity": 75,
                "time": 240
            },
            {
                "type": "note_on",
                "note": 81,
                "velocity": 0,
                "time": 120
            },
            {
                "type": "note_on",
                "note": 82,
                "velocity": 76,
                "time": 0
            },
            {
                "type": "note_on",
                "note": 82,
                "velocity": 0,
                "time": 60
            },
            {
                "type": "note_on",
                "note": 84,
                "velocity": 67,
                "time": 0
            },
            {
                "type": "note_on",
                "note": 84,
                "velocity": 0,
                "time": 60
            },
            {
                "type": "note_on",
                "note": 82,
                "velocity": 73,
                "time": 0
            },
            {
                "type": "note_on",
                "note": 82,
                "velocity": 0,
                "time": 60
            },
            {
                "type": "note_on",
                "note": 84,
                "velocity": 66,
                "time": 0
            },
            {
                "type": "note_on",
                "note": 84,
                "velocity": 0,
                "time": 60
            },
            {
                "type": "note_on",
                "note": 82,
                "velocity": 70,
                "time": 0
            },
            {
                "type": "note_on",
                "note": 82,
                "velocity": 0,
                "time": 60
            },
            {
                "type": "note_on",
                "note": 84,
                "velocity": 64,
                "time": 0
            },
            {
                "type": "note_on",
                "note": 84,
                "velocity": 0,
                "time": 60
            },
            {
                "type": "note_on",
                "note": 82,
                "velocity": 70,
                "time": 0
            },
            {
                "type": "note_on",
                "note": 82,
                "velocity": 0,
                "time": 60
            },
            {
                "type": "note_on",
                "note": 84,
                "velocity": 64,
                "time": 0
            },
            {
                "type": "note_on",
                "note": 84,
                "velocity": 0,
                "time": 60
            },
            {
                "type": "note_on",
                "note": 81,
                "velocity": 70,
                "time": 0
            },
            {
                "type": "note_on",
                "note": 81,
                "velocity": 0,
                "time": 240
            },
            {
                "type": "note_on",
                "note": 79,
                "velocity": 56,
                "time": 0
            },
            {
                "type": "note_on",
                "note": 79,
                "velocity": 0,
                "time": 180
            },
            {
                "type": "note_on",
                "note": 77,
                "velocity": 46,
                "time": 0
            },
            {
                "type": "note_on",
                "note": 77,
                "velocity": 0,
                "time": 60
            },
            {
                "type": "note_on",
                "note": 82,
                "velocity": 53,
                "time": 0
            },
            {
                "type": "note_on",
                "note": 82,
                "velocity": 0,
                "time": 120
            },
            {
                "type": "note_on",
                "note": 82,
                "velocity": 49,
                "time": 240
            },
            {
                "type": "note_on",
                "note": 82,
                "velocity": 0,
                "time": 120
            },
            {
                "type": "note_on",
                "note": 74,
                "velocity": 44,
                "time": 0
            },
            {
                "type": "note_on",
                "note": 74,
                "velocity": 0,
                "time": 900
            },
            {
                "type": "note_on",
                "note": 75,
                "velocity": 45,
                "time": 0
            },
            {
                "type": "note_on",
                "note": 75,
                "velocity": 0,
                "time": 60
            },
            {
                "type": "note_on",
                "note": 79,
                "velocity": 51,
                "time": 0
            },
            {
                "type": "note_on",
                "note": 79,
                "velocity": 0,
                "time": 120
            },
            {
                "type": "note_on",
                "note": 79,
                "velocity": 46,
                "time": 240
            },
            {
                "type": "note_on",
                "note": 79,
                "velocity": 0,
                "time": 120
            },
            {
                "type": "note_on",
                "note": 69,
                "velocity": 44,
                "time": 0
            },
            {
                "type": "note_on",
                "note": 69,
                "velocity": 0,
                "time": 900
            },
            {
                "type": "note_on",
                "note": 70,
                "velocity": 45,
                "time": 0
            },
            {
                "type": "note_on",
                "note": 70,
                "velocity": 0,
                "time": 60
            },
            {
                "type": "note_on",
                "note": 74,
                "velocity": 49,
                "time": 0
            },
            {
                "type": "note_on",
                "note": 74,
                "velocity": 0,
                "time": 120
            },
            {
                "type": "note_on",
                "note": 74,
                "velocity": 47,
                "time": 240
            },
            {
                "type": "note_on",
                "note": 74,
                "velocity": 0,
                "time": 120
            },
            {
                "type": "note_on",
                "note": 64,
                "velocity": 44,
                "time": 0
            },
            {
                "type": "note_on",
                "note": 64,
                "velocity": 0,
                "time": 960
            },
            {
                "type": "note_on",
                "note": 65,
                "velocity": 55,
                "time": 0
            },
            {
                "type": "note_on",
                "note": 65,
                "velocity": 0,
                "time": 120
            },
            {
                "type": "note_on",
                "note": 69,
                "velocity": 58,
                "time": 240
            },
            {
                "type": "note_on",
                "note": 69,
                "velocity": 0,
                "time": 120
            },
            {
                "type": "note_on",
                "note": 72,
                "velocity": 59,
                "time": 0
            },
            {
                "type": "note_on",
                "note": 72,
                "velocity": 0,
                "time": 240
            },
            {
                "type": "note_on",
                "note": 75,
                "velocity": 60,
                "time": 0
            },
            {
                "type": "note_on",
                "note": 75,
                "velocity": 0,
                "time": 240
            },
            {
                "type": "note_on",
                "note": 79,
                "velocity": 67,
                "time": 0
            },
            {
                "type": "note_on",
                "note": 79,
                "velocity": 0,
                "time": 360
            },
            {
                "type": "note_on",
                "note": 77,
                "velocity": 63,
                "time": 0
            },
            {
                "type": "note_on",
                "note": 77,
                "velocity": 0,
                "time": 57
            },
            {
                "type": "note_on",
                "note": 77,
                "velocity": 49,
                "time": 3
            },
            {
                "type": "note_on",
                "note": 77,
                "velocity": 0,
                "time": 60
            },
            {
                "type": "note_on",
                "note": 86,
                "velocity": 67,
                "time": 0
            },
            {
                "type": "note_on",
                "note": 86,
                "velocity": 0,
                "time": 120
            },
            {
                "type": "note_on",
                "note": 84,
                "velocity": 61,
                "time": 240
            },
            {
                "type": "note_on",
                "note": 84,
                "velocity": 0,
                "time": 120
            },
            {
                "type": "note_on",
                "note": 82,
                "velocity": 50,
                "time": 0
            },
            {
                "type": "note_on",
                "note": 82,
                "velocity": 0,
                "time": 60
            },
            {
                "type": "note_on",
                "note": 84,
                "velocity": 49,
                "time": 0
            },
            {
                "type": "note_on",
                "note": 84,
                "velocity": 0,
                "time": 60
            },
            {
                "type": "note_on",
                "note": 82,
                "velocity": 57,
                "time": 0
            },
            {
                "type": "note_on",
                "note": 82,
                "velocity": 0,
                "time": 120
            },
            {
                "type": "note_on",
                "note": 79,
                "velocity": 52,
                "time": 0
            },
            {
                "type": "note_on",
                "note": 79,
                "velocity": 0,
                "time": 240
            },
            {
                "type": "note_on",
                "note": 77,
                "velocity": 49,
                "time": 0
            },
            {
                "type": "note_on",
                "note": 79,
                "velocity": 45,
                "time": 420
            },
            {
                "type": "note_on",
                "note": 79,
                "velocity": 0,
                "time": 60
            },
            {
                "type": "note_on",
                "note": 77,
                "velocity": 0,
                "time": 0
            },
            {
                "type": "note_on",
                "note": 82,
                "velocity": 51,
                "time": 0
            },
            {
                "type": "note_on",
                "note": 82,
                "velocity": 0,
                "time": 120
            },
            {
                "type": "note_on",
                "note": 82,
                "velocity": 46,
                "time": 240
            },
            {
                "type": "note_on",
                "note": 82,
                "velocity": 0,
                "time": 120
            },
            {
                "type": "note_on",
                "note": 69,
                "velocity": 44,
                "time": 0
            },
            {
                "type": "note_on",
                "note": 69,
                "velocity": 0,
                "time": 840
            },
            {
                "type": "note_on",
                "note": 70,
                "velocity": 42,
                "time": 0
            },
            {
                "type": "note_on",
                "note": 70,
                "velocity": 0,
                "time": 60
            },
            {
                "type": "note_on",
                "note": 74,
                "velocity": 41,
                "time": 0
            },
            {
                "type": "note_on",
                "note": 74,
                "velocity": 0,
                "time": 60
            },
            {
                "type": "note_on",
                "note": 77,
                "velocity": 49,
                "time": 0
            },
            {
                "type": "note_on",
                "note": 77,
                "velocity": 0,
                "time": 120
            },
            {
                "type": "note_on",
                "note": 77,
                "velocity": 47,
                "time": 240
            },
            {
                "type": "note_on",
                "note": 77,
                "velocity": 0,
                "time": 120
            },
            {
                "type": "note_on",
                "note": 64,
                "velocity": 44,
                "time": 0
            },
            {
                "type": "note_on",
                "note": 64,
                "velocity": 0,
                "time": 960
            },
            {
                "type": "note_on",
                "note": 65,
                "velocity": 55,
                "time": 0
            },
            {
                "type": "note_on",
                "note": 65,
                "velocity": 0,
                "time": 120
            },
            {
                "type": "note_on",
                "note": 69,
                "velocity": 58,
                "time": 240
            },
            {
                "type": "note_on",
                "note": 69,
                "velocity": 0,
                "time": 120
            },
            {
                "type": "note_on",
                "note": 72,
                "velocity": 59,
                "time": 0
            },
            {
                "type": "note_on",
                "note": 72,
                "velocity": 0,
                "time": 240
            },
            {
                "type": "note_on",
                "note": 75,
                "velocity": 60,
                "time": 0
            },
            {
                "type": "note_on",
                "note": 75,
                "velocity": 0,
                "time": 240
            },
            {
                "type": "note_on",
                "note": 74,
                "velocity": 56,
                "time": 0
            },
            {
                "type": "note_on",
                "note": 74,
                "velocity": 0,
                "time": 60
            },
            {
                "type": "note_on",
                "note": 75,
                "velocity": 56,
                "time": 0
            },
            {
                "type": "note_on",
                "note": 75,
                "velocity": 0,
                "time": 60
            },
            {
                "type": "note_on",
                "note": 74,
                "velocity": 61,
                "time": 0
            },
            {
                "type": "note_on",
                "note": 74,
                "velocity": 0,
                "time": 120
            },
            {
                "type": "note_on",
                "note": 72,
                "velocity": 56,
                "time": 0
            },
            {
                "type": "note_on",
                "note": 72,
                "velocity": 0,
                "time": 240
            },
            {
                "type": "note_on",
                "note": 74,
                "velocity": 64,
                "time": 0
            },
            {
                "type": "note_on",
                "note": 74,
                "velocity": 0,
                "time": 120
            },
            {
                "type": "note_on",
                "note": 65,
                "velocity": 57,
                "time": 240
            },
            {
                "type": "note_on",
                "note": 65,
                "velocity": 0,
                "time": 120
            },
            {
                "type": "note_on",
                "note": 70,
                "velocity": 59,
                "time": 0
            },
            {
                "type": "note_on",
                "note": 70,
                "velocity": 0,
                "time": 480
            },
            {
                "type": "note_on",
                "note": 69,
                "velocity": 44,
                "time": 0
            },
            {
                "type": "note_on",
                "note": 69,
                "velocity": 0,
                "time": 240
            },
            {
                "type": "note_on",
                "note": 70,
                "velocity": 44,
                "time": 0
            },
            {
                "type": "note_on",
                "note": 70,
                "velocity": 0,
                "time": 240
            },
            {
                "type": "note_on",
                "note": 72,
                "velocity": 46,
                "time": 0
            },
            {
                "type": "note_on",
                "note": 72,
                "velocity": 0,
                "time": 360
            },
            {
                "type": "note_on",
                "note": 74,
                "velocity": 42,
                "time": 0
            },
            {
                "type": "note_on",
                "note": 74,
                "velocity": 0,
                "time": 120
            },
            {
                "type": "note_on",
                "note": 72,
                "velocity": 46,
                "time": 0
            },
            {
                "type": "note_on",
                "note": 72,
                "velocity": 0,
                "time": 480
            },
            {
                "type": "note_on",
                "note": 76,
                "velocity": 49,
                "time": 0
            },
            {
                "type": "note_on",
                "note": 76,
                "velocity": 0,
                "time": 240
            },
            {
                "type": "note_on",
                "note": 77,
                "velocity": 51,
                "time": 0
            },
            {
                "type": "note_on",
                "note": 77,
                "velocity": 0,
                "time": 240
            },
            {
                "type": "note_on",
                "note": 79,
                "velocity": 55,
                "time": 0
            },
            {
                "type": "note_on",
                "note": 79,
                "velocity": 0,
                "time": 360
            },
            {
                "type": "note_on",
                "note": 81,
                "velocity": 52,
                "time": 0
            },
            {
                "type": "note_on",
                "note": 81,
                "velocity": 0,
                "time": 120
            },
            {
                "type": "note_on",
                "note": 79,
                "velocity": 56,
                "time": 0
            },
            {
                "type": "note_on",
                "note": 79,
                "velocity": 0,
                "time": 480
            },
            {
                "type": "note_on",
                "note": 77,
                "velocity": 52,
                "time": 0
            },
            {
                "type": "note_on",
                "note": 77,
                "velocity": 0,
                "time": 240
            },
            {
                "type": "note_on",
                "note": 74,
                "velocity": 49,
                "time": 0
            },
            {
                "type": "note_on",
                "note": 74,
                "velocity": 0,
                "time": 240
            },
            {
                "type": "note_on",
                "note": 72,
                "velocity": 56,
                "time": 0
            },
            {
                "type": "note_on",
                "note": 72,
                "velocity": 0,
                "time": 240
            },
            {
                "type": "note_on",
                "note": 74,
                "velocity": 51,
                "time": 0
            },
            {
                "type": "note_on",
                "note": 74,
                "velocity": 0,
                "time": 240
            },
            {
                "type": "note_on",
                "note": 72,
                "velocity": 56,
                "time": 0
            },
            {
                "type": "note_on",
                "note": 72,
                "velocity": 0,
                "time": 480
            },
            {
                "type": "note_on",
                "note": 76,
                "velocity": 50,
                "time": 0
            },
            {
                "type": "note_on",
                "note": 76,
                "velocity": 0,
                "time": 240
            },
            {
                "type": "note_on",
                "note": 77,
                "velocity": 55,
                "time": 120
            },
            {
                "type": "note_on",
                "note": 77,
                "velocity": 0,
                "time": 120
            },
            {
                "type": "note_on",
                "note": 79,
                "velocity": 59,
                "time": 0
            },
            {
                "type": "note_on",
                "note": 79,
                "velocity": 0,
                "time": 160
            },
            {
                "type": "note_on",
                "note": 81,
                "velocity": 56,
                "time": 0
            },
            {
                "type": "note_on",
                "note": 81,
                "velocity": 0,
                "time": 160
            },
            {
                "type": "note_on",
                "note": 79,
                "velocity": 56,
                "time": 0
            },
            {
                "type": "note_on",
                "note": 79,
                "velocity": 0,
                "time": 160
            },
            {
                "type": "note_on",
                "note": 77,
                "velocity": 53,
                "time": 0
            },
            {
                "type": "note_on",
                "note": 77,
                "velocity": 0,
                "time": 720
            },
            {
                "type": "note_on",
                "note": 74,
                "velocity": 50,
                "time": 0
            },
            {
                "type": "note_on",
                "note": 74,
                "velocity": 0,
                "time": 240
            },
            {
                "type": "note_on",
                "note": 72,
                "velocity": 51,
                "time": 0
            },
            {
                "type": "note_on",
                "note": 72,
                "velocity": 0,
                "time": 240
            },
            {
                "type": "note_on",
                "note": 74,
                "velocity": 49,
                "time": 0
            },
            {
                "type": "note_on",
                "note": 74,
                "velocity": 0,
                "time": 240
            },
            {
                "type": "note_on",
                "note": 72,
                "velocity": 51,
                "time": 0
            },
            {
                "type": "note_on",
                "note": 72,
                "velocity": 0,
                "time": 480
            },
            {
                "type": "note_on",
                "note": 76,
                "velocity": 49,
                "time": 0
            },
            {
                "type": "note_on",
                "note": 76,
                "velocity": 0,
                "time": 240
            },
            {
                "type": "note_on",
                "note": 77,
                "velocity": 51,
                "time": 0
            },
            {
                "type": "note_on",
                "note": 77,
                "velocity": 0,
                "time": 240
            },
            {
                "type": "note_on",
                "note": 79,
                "velocity": 55,
                "time": 0
            },
            {
                "type": "note_on",
                "note": 79,
                "velocity": 0,
                "time": 240
            },
            {
                "type": "note_on",
                "note": 81,
                "velocity": 52,
                "time": 0
            },
            {
                "type": "note_on",
                "note": 81,
                "velocity": 0,
                "time": 240
            },
            {
                "type": "note_on",
                "note": 79,
                "velocity": 50,
                "time": 0
            },
            {
                "type": "note_on",
                "note": 79,
                "velocity": 0,
                "time": 60
            },
            {
                "type": "note_on",
                "note": 81,
                "velocity": 47,
                "time": 0
            },
            {
                "type": "note_on",
                "note": 81,
                "velocity": 0,
                "time": 60
            },
            {
                "type": "note_on",
                "note": 79,
                "velocity": 52,
                "time": 0
            },
            {
                "type": "note_on",
                "note": 79,
                "velocity": 0,
                "time": 60
            },
            {
                "type": "note_on",
                "note": 81,
                "velocity": 49,
                "time": 0
            },
            {
                "type": "note_on",
                "note": 81,
                "velocity": 0,
                "time": 60
            },
            {
                "type": "note_on",
                "note": 79,
                "velocity": 56,
                "time": 0
            },
            {
                "type": "note_on",
                "note": 79,
                "velocity": 0,
                "time": 60
            },
            {
                "type": "note_on",
                "note": 81,
                "velocity": 49,
                "time": 0
            },
            {
                "type": "note_on",
                "note": 81,
                "velocity": 0,
                "time": 60
            },
            {
                "type": "note_on",
                "note": 79,
                "velocity": 51,
                "time": 0
            },
            {
                "type": "note_on",
                "note": 79,
                "velocity": 0,
                "time": 60
            },
            {
                "type": "note_on",
                "note": 81,
                "velocity": 49,
                "time": 0
            },
            {
                "type": "note_on",
                "note": 81,
                "velocity": 0,
                "time": 60
            },
            {
                "type": "note_on",
                "note": 77,
                "velocity": 52,
                "time": 0
            },
            {
                "type": "note_on",
                "note": 77,
                "velocity": 0,
                "time": 240
            },
            {
                "type": "note_on",
                "note": 74,
                "velocity": 49,
                "time": 0
            },
            {
                "type": "note_on",
                "note": 74,
                "velocity": 0,
                "time": 240
            },
            {
                "type": "note_on",
                "note": 72,
                "velocity": 56,
                "time": 0
            },
            {
                "type": "note_on",
                "note": 72,
                "velocity": 0,
                "time": 240
            },
            {
                "type": "note_on",
                "note": 74,
                "velocity": 51,
                "time": 0
            },
            {
                "type": "note_on",
                "note": 74,
                "velocity": 0,
                "time": 240
            },
            {
                "type": "note_on",
                "note": 72,
                "velocity": 56,
                "time": 0
            },
            {
                "type": "note_on",
                "note": 72,
                "velocity": 0,
                "time": 480
            },
            {
                "type": "note_on",
                "note": 76,
                "velocity": 55,
                "time": 0
            },
            {
                "type": "note_on",
                "note": 76,
                "velocity": 0,
                "time": 240
            },
            {
                "type": "note_on",
                "note": 77,
                "velocity": 59,
                "time": 0
            },
            {
                "type": "note_on",
                "note": 77,
                "velocity": 0,
                "time": 240
            },
            {
                "type": "note_on",
                "note": 79,
                "velocity": 64,
                "time": 0
            },
            {
                "type": "note_on",
                "note": 79,
                "velocity": 0,
                "time": 160
            },
            {
                "type": "note_on",
                "note": 81,
                "velocity": 61,
                "time": 0
            },
            {
                "type": "note_on",
                "note": 81,
                "velocity": 0,
                "time": 160
            },
            {
                "type": "note_on",
                "note": 79,
                "velocity": 61,
                "time": 0
            },
            {
                "type": "note_on",
                "note": 79,
                "velocity": 0,
                "time": 160
            },
            {
                "type": "note_on",
                "note": 77,
                "velocity": 66,
                "time": 0
            },
            {
                "type": "note_on",
                "note": 77,
                "velocity": 0,
                "time": 360
            },
            {
                "type": "note_on",
                "note": 67,
                "velocity": 62,
                "time": 0
            },
            {
                "type": "note_on",
                "note": 67,
                "velocity": 0,
                "time": 120
            },
            {
                "type": "note_on",
                "note": 77,
                "velocity": 68,
                "time": 0
            },
            {
                "type": "note_on",
                "note": 77,
                "velocity": 0,
                "time": 160
            },
            {
                "type": "note_on",
                "note": 66,
                "velocity": 62,
                "time": 0
            },
            {
                "type": "note_on",
                "note": 66,
                "velocity": 0,
                "time": 160
            },
            {
                "type": "note_on",
                "note": 77,
                "velocity": 69,
                "time": 0
            },
            {
                "type": "note_on",
                "note": 77,
                "velocity": 0,
                "time": 97
            },
            {
                "type": "note_on",
                "note": 77,
                "velocity": 66,
                "time": 3
            },
            {
                "type": "note_on",
                "note": 77,
                "velocity": 0,
                "time": 60
            },
            {
                "type": "note_on",
                "note": 65,
                "velocity": 70,
                "time": 0
            },
            {
                "type": "note_on",
                "note": 65,
                "velocity": 0,
                "time": 240
            },
            {
                "type": "note_on",
                "note": 65,
                "velocity": 66,
                "time": 120
            },
            {
                "type": "note_on",
                "note": 65,
                "velocity": 0,
                "time": 120
            },
            {
                "type": "note_on",
                "note": 67,
                "velocity": 70,
                "time": 0
            },
            {
                "type": "note_on",
                "note": 67,
                "velocity": 0,
                "time": 480
            },
            {
                "type": "note_on",
                "note": 69,
                "velocity": 70,
                "time": 0
            },
            {
                "type": "note_on",
                "note": 69,
                "velocity": 0,
                "time": 480
            },
            {
                "type": "note_on",
                "note": 70,
                "velocity": 71,
                "time": 0
            },
            {
                "type": "note_on",
                "note": 70,
                "velocity": 0,
                "time": 240
            },
            {
                "type": "note_on",
                "note": 72,
                "velocity": 66,
                "time": 120
            },
            {
                "type": "note_on",
                "note": 72,
                "velocity": 0,
                "time": 120
            },
            {
                "type": "note_on",
                "note": 74,
                "velocity": 70,
                "time": 0
            },
            {
                "type": "note_on",
                "note": 74,
                "velocity": 0,
                "time": 480
            },
            {
                "type": "note_on",
                "note": 75,
                "velocity": 75,
                "time": 0
            },
            {
                "type": "note_on",
                "note": 75,
                "velocity": 0,
                "time": 240
            },
            {
                "type": "note_on",
                "note": 77,
                "velocity": 79,
                "time": 0
            },
            {
                "type": "note_on",
                "note": 77,
                "velocity": 0,
                "time": 240
            },
            {
                "type": "note_on",
                "note": 79,
                "velocity": 83,
                "time": 0
            },
            {
                "type": "note_on",
                "note": 79,
                "velocity": 0,
                "time": 120
            },
            {
                "type": "note_on",
                "note": 81,
                "velocity": 75,
                "time": 240
            },
            {
                "type": "note_on",
                "note": 81,
                "velocity": 0,
                "time": 120
            },
            {
                "type": "note_on",
                "note": 82,
                "velocity": 76,
                "time": 0
            },
            {
                "type": "note_on",
                "note": 82,
                "velocity": 0,
                "time": 60
            },
            {
                "type": "note_on",
                "note": 84,
                "velocity": 67,
                "time": 0
            },
            {
                "type": "note_on",
                "note": 84,
                "velocity": 0,
                "time": 60
            },
            {
                "type": "note_on",
                "note": 82,
                "velocity": 73,
                "time": 0
            },
            {
                "type": "note_on",
                "note": 82,
                "velocity": 0,
                "time": 60
            },
            {
                "type": "note_on",
                "note": 84,
                "velocity": 66,
                "time": 0
            },
            {
                "type": "note_on",
                "note": 84,
                "velocity": 0,
                "time": 60
            },
            {
                "type": "note_on",
                "note": 82,
                "velocity": 70,
                "time": 0
            },
            {
                "type": "note_on",
                "note": 82,
                "velocity": 0,
                "time": 60
            },
            {
                "type": "note_on",
                "note": 84,
                "velocity": 64,
                "time": 0
            },
            {
                "type": "note_on",
                "note": 84,
                "velocity": 0,
                "time": 60
            },
            {
                "type": "note_on",
                "note": 82,
                "velocity": 70,
                "time": 0
            },
            {
                "type": "note_on",
                "note": 82,
                "velocity": 0,
                "time": 60
            },
            {
                "type": "note_on",
                "note": 84,
                "velocity": 64,
                "time": 0
            },
            {
                "type": "note_on",
                "note": 84,
                "velocity": 0,
                "time": 60
            },
            {
                "type": "note_on",
                "note": 81,
                "velocity": 70,
                "time": 0
            },
            {
                "type": "note_on",
                "note": 81,
                "velocity": 0,
                "time": 240
            },
            {
                "type": "note_on",
                "note": 79,
                "velocity": 56,
                "time": 0
            },
            {
                "type": "note_on",
                "note": 79,
                "velocity": 0,
                "time": 180
            },
            {
                "type": "note_on",
                "note": 77,
                "velocity": 51,
                "time": 0
            },
            {
                "type": "note_on",
                "note": 77,
                "velocity": 0,
                "time": 60
            },
            {
                "type": "note_on",
                "note": 82,
                "velocity": 60,
                "time": 0
            },
            {
                "type": "note_on",
                "note": 82,
                "velocity": 0,
                "time": 120
            },
            {
                "type": "note_on",
                "note": 82,
                "velocity": 55,
                "time": 240
            },
            {
                "type": "note_on",
                "note": 82,
                "velocity": 0,
                "time": 120
            },
            {
                "type": "note_on",
                "note": 74,
                "velocity": 49,
                "time": 0
            },
            {
                "type": "note_on",
                "note": 74,
                "velocity": 0,
                "time": 900
            },
            {
                "type": "note_on",
                "note": 75,
                "velocity": 50,
                "time": 0
            },
            {
                "type": "note_on",
                "note": 75,
                "velocity": 0,
                "time": 60
            },
            {
                "type": "note_on",
                "note": 79,
                "velocity": 58,
                "time": 0
            },
            {
                "type": "note_on",
                "note": 79,
                "velocity": 0,
                "time": 120
            },
            {
                "type": "note_on",
                "note": 79,
                "velocity": 51,
                "time": 240
            },
            {
                "type": "note_on",
                "note": 79,
                "velocity": 0,
                "time": 120
            },
            {
                "type": "note_on",
                "note": 69,
                "velocity": 49,
                "time": 0
            },
            {
                "type": "note_on",
                "note": 69,
                "velocity": 0,
                "time": 900
            },
            {
                "type": "note_on",
                "note": 70,
                "velocity": 50,
                "time": 0
            },
            {
                "type": "note_on",
                "note": 70,
                "velocity": 0,
                "time": 60
            },
            {
                "type": "note_on",
                "note": 74,
                "velocity": 56,
                "time": 0
            },
            {
                "type": "note_on",
                "note": 74,
                "velocity": 0,
                "time": 120
            },
            {
                "type": "note_on",
                "note": 74,
                "velocity": 52,
                "time": 240
            },
            {
                "type": "note_on",
                "note": 74,
                "velocity": 0,
                "time": 120
            },
            {
                "type": "note_on",
                "note": 64,
                "velocity": 49,
                "time": 0
            },
            {
                "type": "note_on",
                "note": 64,
                "velocity": 0,
                "time": 960
            },
            {
                "type": "note_on",
                "note": 65,
                "velocity": 55,
                "time": 0
            },
            {
                "type": "note_on",
                "note": 65,
                "velocity": 0,
                "time": 120
            },
            {
                "type": "note_on",
                "note": 69,
                "velocity": 58,
                "time": 240
            },
            {
                "type": "note_on",
                "note": 69,
                "velocity": 0,
                "time": 120
            },
            {
                "type": "note_on",
                "note": 72,
                "velocity": 59,
                "time": 0
            },
            {
                "type": "note_on",
                "note": 72,
                "velocity": 0,
                "time": 240
            },
            {
                "type": "note_on",
                "note": 75,
                "velocity": 60,
                "time": 0
            },
            {
                "type": "note_on",
                "note": 75,
                "velocity": 0,
                "time": 240
            },
            {
                "type": "note_on",
                "note": 79,
                "velocity": 67,
                "time": 0
            },
            {
                "type": "note_on",
                "note": 79,
                "velocity": 0,
                "time": 360
            },
            {
                "type": "note_on",
                "note": 77,
                "velocity": 63,
                "time": 0
            },
            {
                "type": "note_on",
                "note": 77,
                "velocity": 0,
                "time": 57
            },
            {
                "type": "note_on",
                "note": 77,
                "velocity": 55,
                "time": 3
            },
            {
                "type": "note_on",
                "note": 77,
                "velocity": 0,
                "time": 60
            },
            {
                "type": "note_on",
                "note": 86,
                "velocity": 75,
                "time": 0
            },
            {
                "type": "note_on",
                "note": 86,
                "velocity": 0,
                "time": 120
            },
            {
                "type": "note_on",
                "note": 84,
                "velocity": 68,
                "time": 240
            },
            {
                "type": "note_on",
                "note": 84,
                "velocity": 0,
                "time": 120
            },
            {
                "type": "note_on",
                "note": 82,
                "velocity": 56,
                "time": 0
            },
            {
                "type": "note_on",
                "note": 82,
                "velocity": 0,
                "time": 60
            },
            {
                "type": "note_on",
                "note": 84,
                "velocity": 55,
                "time": 0
            },
            {
                "type": "note_on",
                "note": 84,
                "velocity": 0,
                "time": 60
            },
            {
                "type": "note_on",
                "note": 82,
                "velocity": 64,
                "time": 0
            },
            {
                "type": "note_on",
                "note": 82,
                "velocity": 0,
                "time": 120
            },
            {
                "type": "note_on",
                "note": 79,
                "velocity": 58,
                "time": 0
            },
            {
                "type": "note_on",
                "note": 79,
                "velocity": 0,
                "time": 240
            },
            {
                "type": "note_on",
                "note": 77,
                "velocity": 55,
                "time": 0
            },
            {
                "type": "note_on",
                "note": 79,
                "velocity": 45,
                "time": 420
            },
            {
                "type": "note_on",
                "note": 79,
                "velocity": 0,
                "time": 60
            },
            {
                "type": "note_on",
                "note": 77,
                "velocity": 0,
                "time": 0
            },
            {
                "type": "note_on",
                "note": 82,
                "velocity": 51,
                "time": 0
            },
            {
                "type": "note_on",
                "note": 82,
                "velocity": 0,
                "time": 120
            },
            {
                "type": "note_on",
                "note": 82,
                "velocity": 46,
                "time": 240
            },
            {
                "type": "note_on",
                "note": 82,
                "velocity": 0,
                "time": 120
            },
            {
                "type": "note_on",
                "note": 69,
                "velocity": 44,
                "time": 0
            },
            {
                "type": "note_on",
                "note": 69,
                "velocity": 0,
                "time": 840
            },
            {
                "type": "note_on",
                "note": 70,
                "velocity": 42,
                "time": 0
            },
            {
                "type": "note_on",
                "note": 70,
                "velocity": 0,
                "time": 60
            },
            {
                "type": "note_on",
                "note": 74,
                "velocity": 41,
                "time": 0
            },
            {
                "type": "note_on",
                "note": 74,
                "velocity": 0,
                "time": 60
            },
            {
                "type": "note_on",
                "note": 77,
                "velocity": 49,
                "time": 0
            },
            {
                "type": "note_on",
                "note": 77,
                "velocity": 0,
                "time": 120
            },
            {
                "type": "note_on",
                "note": 77,
                "velocity": 47,
                "time": 240
            },
            {
                "type": "note_on",
                "note": 77,
                "velocity": 0,
                "time": 120
            },
            {
                "type": "note_on",
                "note": 64,
                "velocity": 44,
                "time": 0
            },
            {
                "type": "note_on",
                "note": 64,
                "velocity": 0,
                "time": 960
            },
            {
                "type": "note_on",
                "note": 65,
                "velocity": 55,
                "time": 0
            },
            {
                "type": "note_on",
                "note": 65,
                "velocity": 0,
                "time": 120
            },
            {
                "type": "note_on",
                "note": 69,
                "velocity": 58,
                "time": 240
            },
            {
                "type": "note_on",
                "note": 69,
                "velocity": 0,
                "time": 120
            },
            {
                "type": "note_on",
                "note": 72,
                "velocity": 59,
                "time": 0
            },
            {
                "type": "note_on",
                "note": 72,
                "velocity": 0,
                "time": 240
            },
            {
                "type": "note_on",
                "note": 75,
                "velocity": 60,
                "time": 0
            },
            {
                "type": "note_on",
                "note": 75,
                "velocity": 0,
                "time": 240
            },
            {
                "type": "note_on",
                "note": 74,
                "velocity": 56,
                "time": 0
            },
            {
                "type": "note_on",
                "note": 74,
                "velocity": 0,
                "time": 60
            },
            {
                "type": "note_on",
                "note": 75,
                "velocity": 56,
                "time": 0
            },
            {
                "type": "note_on",
                "note": 75,
                "velocity": 0,
                "time": 60
            },
            {
                "type": "note_on",
                "note": 74,
                "velocity": 61,
                "time": 0
            },
            {
                "type": "note_on",
                "note": 74,
                "velocity": 0,
                "time": 120
            },
            {
                "type": "note_on",
                "note": 72,
                "velocity": 56,
                "time": 0
            },
            {
                "type": "note_on",
                "note": 72,
                "velocity": 0,
                "time": 240
            },
            {
                "type": "note_on",
                "note": 74,
                "velocity": 64,
                "time": 0
            },
            {
                "type": "note_on",
                "note": 74,
                "velocity": 0,
                "time": 120
            },
            {
                "type": "note_on",
                "note": 65,
                "velocity": 57,
                "time": 240
            },
            {
                "type": "note_on",
                "note": 65,
                "velocity": 0,
                "time": 120
            },
            {
                "type": "note_on",
                "note": 70,
                "velocity": 59,
                "time": 0
            },
            {
                "type": "note_on",
                "note": 70,
                "velocity": 0,
                "time": 480
            },
            {
                "type": "note_on",
                "note": 69,
                "velocity": 44,
                "time": 0
            },
            {
                "type": "note_on",
                "note": 69,
                "velocity": 0,
                "time": 240
            },
            {
                "type": "note_on",
                "note": 70,
                "velocity": 44,
                "time": 0
            },
            {
                "type": "note_on",
                "note": 70,
                "velocity": 0,
                "time": 240
            },
            {
                "type": "note_on",
                "note": 72,
                "velocity": 46,
                "time": 0
            },
            {
                "type": "note_on",
                "note": 72,
                "velocity": 0,
                "time": 360
            },
            {
                "type": "note_on",
                "note": 74,
                "velocity": 42,
                "time": 0
            },
            {
                "type": "note_on",
                "note": 74,
                "velocity": 0,
                "time": 120
            },
            {
                "type": "note_on",
                "note": 72,
                "velocity": 46,
                "time": 0
            },
            {
                "type": "note_on",
                "note": 72,
                "velocity": 0,
                "time": 480
            },
            {
                "type": "note_on",
                "note": 76,
                "velocity": 49,
                "time": 0
            },
            {
                "type": "note_on",
                "note": 76,
                "velocity": 0,
                "time": 240
            },
            {
                "type": "note_on",
                "note": 77,
                "velocity": 51,
                "time": 0
            },
            {
                "type": "note_on",
                "note": 77,
                "velocity": 0,
                "time": 240
            },
            {
                "type": "note_on",
                "note": 79,
                "velocity": 55,
                "time": 0
            },
            {
                "type": "note_on",
                "note": 79,
                "velocity": 0,
                "time": 360
            },
            {
                "type": "note_on",
                "note": 81,
                "velocity": 52,
                "time": 0
            },
            {
                "type": "note_on",
                "note": 81,
                "velocity": 0,
                "time": 120
            },
            {
                "type": "note_on",
                "note": 79,
                "velocity": 56,
                "time": 0
            },
            {
                "type": "note_on",
                "note": 79,
                "velocity": 0,
                "time": 480
            },
            {
                "type": "note_on",
                "note": 77,
                "velocity": 52,
                "time": 0
            },
            {
                "type": "note_on",
                "note": 77,
                "velocity": 0,
                "time": 240
            },
            {
                "type": "note_on",
                "note": 74,
                "velocity": 49,
                "time": 0
            },
            {
                "type": "note_on",
                "note": 74,
                "velocity": 0,
                "time": 240
            },
            {
                "type": "note_on",
                "note": 72,
                "velocity": 56,
                "time": 0
            },
            {
                "type": "note_on",
                "note": 72,
                "velocity": 0,
                "time": 240
            },
            {
                "type": "note_on",
                "note": 74,
                "velocity": 51,
                "time": 0
            },
            {
                "type": "note_on",
                "note": 74,
                "velocity": 0,
                "time": 240
            },
            {
                "type": "note_on",
                "note": 72,
                "velocity": 56,
                "time": 0
            },
            {
                "type": "note_on",
                "note": 72,
                "velocity": 0,
                "time": 480
            },
            {
                "type": "note_on",
                "note": 76,
                "velocity": 50,
                "time": 0
            },
            {
                "type": "note_on",
                "note": 76,
                "velocity": 0,
                "time": 240
            },
            {
                "type": "note_on",
                "note": 77,
                "velocity": 55,
                "time": 120
            },
            {
                "type": "note_on",
                "note": 77,
                "velocity": 0,
                "time": 120
            },
            {
                "type": "note_on",
                "note": 79,
                "velocity": 59,
                "time": 0
            },
            {
                "type": "note_on",
                "note": 79,
                "velocity": 0,
                "time": 160
            },
            {
                "type": "note_on",
                "note": 81,
                "velocity": 56,
                "time": 0
            },
            {
                "type": "note_on",
                "note": 81,
                "velocity": 0,
                "time": 160
            },
            {
                "type": "note_on",
                "note": 79,
                "velocity": 56,
                "time": 0
            },
            {
                "type": "note_on",
                "note": 79,
                "velocity": 0,
                "time": 160
            },
            {
                "type": "note_on",
                "note": 77,
                "velocity": 53,
                "time": 0
            },
            {
                "type": "note_on",
                "note": 77,
                "velocity": 0,
                "time": 720
            },
            {
                "type": "note_on",
                "note": 74,
                "velocity": 50,
                "time": 0
            },
            {
                "type": "note_on",
                "note": 74,
                "velocity": 0,
                "time": 240
            },
            {
                "type": "note_on",
                "note": 72,
                "velocity": 51,
                "time": 0
            },
            {
                "type": "note_on",
                "note": 72,
                "velocity": 0,
                "time": 240
            },
            {
                "type": "note_on",
                "note": 74,
                "velocity": 49,
                "time": 0
            },
            {
                "type": "note_on",
                "note": 74,
                "velocity": 0,
                "time": 240
            },
            {
                "type": "note_on",
                "note": 72,
                "velocity": 51,
                "time": 0
            },
            {
                "type": "note_on",
                "note": 72,
                "velocity": 0,
                "time": 480
            },
            {
                "type": "note_on",
                "note": 76,
                "velocity": 49,
                "time": 0
            },
            {
                "type": "note_on",
                "note": 76,
                "velocity": 0,
                "time": 240
            },
            {
                "type": "note_on",
                "note": 77,
                "velocity": 51,
                "time": 0
            },
            {
                "type": "note_on",
                "note": 77,
                "velocity": 0,
                "time": 240
            },
            {
                "type": "note_on",
                "note": 79,
                "velocity": 55,
                "time": 0
            },
            {
                "type": "note_on",
                "note": 79,
                "velocity": 0,
                "time": 240
            },
            {
                "type": "note_on",
                "note": 81,
                "velocity": 52,
                "time": 0
            },
            {
                "type": "note_on",
                "note": 81,
                "velocity": 0,
                "time": 240
            },
            {
                "type": "note_on",
                "note": 79,
                "velocity": 50,
                "time": 0
            },
            {
                "type": "note_on",
                "note": 79,
                "velocity": 0,
                "time": 60
            },
            {
                "type": "note_on",
                "note": 81,
                "velocity": 47,
                "time": 0
            },
            {
                "type": "note_on",
                "note": 81,
                "velocity": 0,
                "time": 60
            },
            {
                "type": "note_on",
                "note": 79,
                "velocity": 52,
                "time": 0
            },
            {
                "type": "note_on",
                "note": 79,
                "velocity": 0,
                "time": 60
            },
            {
                "type": "note_on",
                "note": 81,
                "velocity": 49,
                "time": 0
            },
            {
                "type": "note_on",
                "note": 81,
                "velocity": 0,
                "time": 60
            },
            {
                "type": "note_on",
                "note": 79,
                "velocity": 56,
                "time": 0
            },
            {
                "type": "note_on",
                "note": 79,
                "velocity": 0,
                "time": 60
            },
            {
                "type": "note_on",
                "note": 81,
                "velocity": 49,
                "time": 0
            },
            {
                "type": "note_on",
                "note": 81,
                "velocity": 0,
                "time": 60
            },
            {
                "type": "note_on",
                "note": 79,
                "velocity": 51,
                "time": 0
            },
            {
                "type": "note_on",
                "note": 79,
                "velocity": 0,
                "time": 60
            },
            {
                "type": "note_on",
                "note": 81,
                "velocity": 49,
                "time": 0
            },
            {
                "type": "note_on",
                "note": 81,
                "velocity": 0,
                "time": 60
            },
            {
                "type": "note_on",
                "note": 77,
                "velocity": 52,
                "time": 0
            },
            {
                "type": "note_on",
                "note": 77,
                "velocity": 0,
                "time": 240
            },
            {
                "type": "note_on",
                "note": 74,
                "velocity": 49,
                "time": 0
            },
            {
                "type": "note_on",
                "note": 74,
                "velocity": 0,
                "time": 240
            },
            {
                "type": "note_on",
                "note": 72,
                "velocity": 56,
                "time": 0
            },
            {
                "type": "note_on",
                "note": 72,
                "velocity": 0,
                "time": 240
            },
            {
                "type": "note_on",
                "note": 74,
                "velocity": 51,
                "time": 0
            },
            {
                "type": "note_on",
                "note": 74,
                "velocity": 0,
                "time": 240
            },
            {
                "type": "note_on",
                "note": 72,
                "velocity": 56,
                "time": 0
            },
            {
                "type": "note_on",
                "note": 72,
                "velocity": 0,
                "time": 480
            },
            {
                "type": "note_on",
                "note": 76,
                "velocity": 55,
                "time": 0
            },
            {
                "type": "note_on",
                "note": 76,
                "velocity": 0,
                "time": 240
            },
            {
                "type": "note_on",
                "note": 77,
                "velocity": 59,
                "time": 0
            },
            {
                "type": "note_on",
                "note": 77,
                "velocity": 0,
                "time": 240
            },
            {
                "type": "note_on",
                "note": 79,
                "velocity": 64,
                "time": 0
            },
            {
                "type": "note_on",
                "note": 79,
                "velocity": 0,
                "time": 160
            },
            {
                "type": "note_on",
                "note": 81,
                "velocity": 61,
                "time": 0
            },
            {
                "type": "note_on",
                "note": 81,
                "velocity": 0,
                "time": 160
            },
            {
                "type": "note_on",
                "note": 79,
                "velocity": 61,
                "time": 0
            },
            {
                "type": "note_on",
                "note": 79,
                "velocity": 0,
                "time": 160
            },
            {
                "type": "note_on",
                "note": 77,
                "velocity": 66,
                "time": 0
            },
            {
                "type": "note_on",
                "note": 77,
                "velocity": 0,
                "time": 360
            },
            {
                "type": "note_on",
                "note": 67,
                "velocity": 62,
                "time": 0
            },
            {
                "type": "note_on",
                "note": 67,
                "velocity": 0,
                "time": 120
            },
            {
                "type": "note_on",
                "note": 77,
                "velocity": 68,
                "time": 0
            },
            {
                "type": "note_on",
                "note": 77,
                "velocity": 0,
                "time": 160
            },
            {
                "type": "note_on",
                "note": 66,
                "velocity": 62,
                "time": 0
            },
            {
                "type": "note_on",
                "note": 66,
                "velocity": 0,
                "time": 160
            },
            {
                "type": "note_on",
                "note": 77,
                "velocity": 69,
                "time": 0
            },
            {
                "type": "note_on",
                "note": 77,
                "velocity": 0,
                "time": 96
            },
            {
                "type": "note_on",
                "note": 77,
                "velocity": 66,
                "time": 4
            },
            {
                "type": "note_on",
                "note": 77,
                "velocity": 0,
                "time": 60
            },
            {
                "type": "note_on",
                "note": 65,
                "velocity": 70,
                "time": 0
            },
            {
                "type": "note_on",
                "note": 65,
                "velocity": 0,
                "time": 240
            },
            {
                "type": "note_on",
                "note": 65,
                "velocity": 66,
                "time": 120
            },
            {
                "type": "note_on",
                "note": 65,
                "velocity": 0,
                "time": 120
            },
            {
                "type": "note_on",
                "note": 67,
                "velocity": 70,
                "time": 0
            },
            {
                "type": "note_on",
                "note": 67,
                "velocity": 0,
                "time": 480
            },
            {
                "type": "note_on",
                "note": 69,
                "velocity": 70,
                "time": 0
            },
            {
                "type": "note_on",
                "note": 69,
                "velocity": 0,
                "time": 480
            },
            {
                "type": "note_on",
                "note": 70,
                "velocity": 71,
                "time": 0
            },
            {
                "type": "note_on",
                "note": 70,
                "velocity": 0,
                "time": 240
            },
            {
                "type": "note_on",
                "note": 72,
                "velocity": 66,
                "time": 120
            },
            {
                "type": "note_on",
                "note": 72,
                "velocity": 0,
                "time": 120
            },
            {
                "type": "note_on",
                "note": 74,
                "velocity": 70,
                "time": 0
            },
            {
                "type": "note_on",
                "note": 74,
                "velocity": 0,
                "time": 480
            },
            {
                "type": "note_on",
                "note": 75,
                "velocity": 75,
                "time": 0
            },
            {
                "type": "note_on",
                "note": 75,
                "velocity": 0,
                "time": 240
            },
            {
                "type": "note_on",
                "note": 77,
                "velocity": 79,
                "time": 0
            },
            {
                "type": "note_on",
                "note": 77,
                "velocity": 0,
                "time": 240
            },
            {
                "type": "note_on",
                "note": 79,
                "velocity": 83,
                "time": 0
            },
            {
                "type": "note_on",
                "note": 79,
                "velocity": 0,
                "time": 120
            },
            {
                "type": "note_on",
                "note": 81,
                "velocity": 75,
                "time": 240
            },
            {
                "type": "note_on",
                "note": 81,
                "velocity": 0,
                "time": 120
            },
            {
                "type": "note_on",
                "note": 82,
                "velocity": 76,
                "time": 0
            },
            {
                "type": "note_on",
                "note": 82,
                "velocity": 0,
                "time": 60
            },
            {
                "type": "note_on",
                "note": 84,
                "velocity": 67,
                "time": 0
            },
            {
                "type": "note_on",
                "note": 84,
                "velocity": 0,
                "time": 60
            },
            {
                "type": "note_on",
                "note": 82,
                "velocity": 73,
                "time": 0
            },
            {
                "type": "note_on",
                "note": 82,
                "velocity": 0,
                "time": 60
            },
            {
                "type": "note_on",
                "note": 84,
                "velocity": 66,
                "time": 0
            },
            {
                "type": "note_on",
                "note": 84,
                "velocity": 0,
                "time": 60
            },
            {
                "type": "note_on",
                "note": 82,
                "velocity": 70,
                "time": 0
            },
            {
                "type": "note_on",
                "note": 82,
                "velocity": 0,
                "time": 60
            },
            {
                "type": "note_on",
                "note": 84,
                "velocity": 64,
                "time": 0
            },
            {
                "type": "note_on",
                "note": 84,
                "velocity": 0,
                "time": 60
            },
            {
                "type": "note_on",
                "note": 82,
                "velocity": 70,
                "time": 0
            },
            {
                "type": "note_on",
                "note": 82,
                "velocity": 0,
                "time": 60
            },
            {
                "type": "note_on",
                "note": 84,
                "velocity": 64,
                "time": 0
            },
            {
                "type": "note_on",
                "note": 84,
                "velocity": 0,
                "time": 60
            },
            {
                "type": "note_on",
                "note": 81,
                "velocity": 70,
                "time": 0
            },
            {
                "type": "note_on",
                "note": 81,
                "velocity": 0,
                "time": 240
            },
            {
                "type": "note_on",
                "note": 79,
                "velocity": 56,
                "time": 0
            },
            {
                "type": "note_on",
                "note": 79,
                "velocity": 0,
                "time": 180
            },
            {
                "type": "note_on",
                "note": 77,
                "velocity": 51,
                "time": 0
            },
            {
                "type": "note_on",
                "note": 77,
                "velocity": 0,
                "time": 60
            },
            {
                "type": "note_on",
                "note": 82,
                "velocity": 60,
                "time": 0
            },
            {
                "type": "note_on",
                "note": 82,
                "velocity": 0,
                "time": 120
            },
            {
                "type": "note_on",
                "note": 82,
                "velocity": 55,
                "time": 240
            },
            {
                "type": "note_on",
                "note": 82,
                "velocity": 0,
                "time": 120
            },
            {
                "type": "note_on",
                "note": 74,
                "velocity": 49,
                "time": 0
            },
            {
                "type": "note_on",
                "note": 74,
                "velocity": 0,
                "time": 900
            },
            {
                "type": "note_on",
                "note": 75,
                "velocity": 50,
                "time": 0
            },
            {
                "type": "note_on",
                "note": 75,
                "velocity": 0,
                "time": 60
            },
            {
                "type": "note_on",
                "note": 79,
                "velocity": 58,
                "time": 0
            },
            {
                "type": "note_on",
                "note": 79,
                "velocity": 0,
                "time": 120
            },
            {
                "type": "note_on",
                "note": 79,
                "velocity": 51,
                "time": 240
            },
            {
                "type": "note_on",
                "note": 79,
                "velocity": 0,
                "time": 120
            },
            {
                "type": "note_on",
                "note": 69,
                "velocity": 49,
                "time": 0
            },
            {
                "type": "note_on",
                "note": 69,
                "velocity": 0,
                "time": 900
            },
            {
                "type": "note_on",
                "note": 70,
                "velocity": 50,
                "time": 0
            },
            {
                "type": "note_on",
                "note": 70,
                "velocity": 0,
                "time": 60
            },
            {
                "type": "note_on",
                "note": 74,
                "velocity": 56,
                "time": 0
            },
            {
                "type": "note_on",
                "note": 74,
                "velocity": 0,
                "time": 120
            },
            {
                "type": "note_on",
                "note": 74,
                "velocity": 52,
                "time": 240
            },
            {
                "type": "note_on",
                "note": 74,
                "velocity": 0,
                "time": 120
            },
            {
                "type": "note_on",
                "note": 64,
                "velocity": 49,
                "time": 0
            },
            {
                "type": "note_on",
                "note": 64,
                "velocity": 0,
                "time": 960
            },
            {
                "type": "note_on",
                "note": 65,
                "velocity": 55,
                "time": 0
            },
            {
                "type": "note_on",
                "note": 65,
                "velocity": 0,
                "time": 120
            },
            {
                "type": "note_on",
                "note": 69,
                "velocity": 58,
                "time": 240
            },
            {
                "type": "note_on",
                "note": 69,
                "velocity": 0,
                "time": 120
            },
            {
                "type": "note_on",
                "note": 72,
                "velocity": 59,
                "time": 0
            },
            {
                "type": "note_on",
                "note": 72,
                "velocity": 0,
                "time": 240
            },
            {
                "type": "note_on",
                "note": 75,
                "velocity": 60,
                "time": 0
            },
            {
                "type": "note_on",
                "note": 75,
                "velocity": 0,
                "time": 240
            },
            {
                "type": "note_on",
                "note": 79,
                "velocity": 67,
                "time": 0
            },
            {
                "type": "note_on",
                "note": 79,
                "velocity": 0,
                "time": 360
            },
            {
                "type": "note_on",
                "note": 77,
                "velocity": 63,
                "time": 0
            },
            {
                "type": "note_on",
                "note": 77,
                "velocity": 0,
                "time": 57
            },
            {
                "type": "note_on",
                "note": 77,
                "velocity": 49,
                "time": 3
            },
            {
                "type": "note_on",
                "note": 77,
                "velocity": 0,
                "time": 60
            },
            {
                "type": "note_on",
                "note": 86,
                "velocity": 67,
                "time": 0
            },
            {
                "type": "note_on",
                "note": 86,
                "velocity": 0,
                "time": 120
            },
            {
                "type": "note_on",
                "note": 84,
                "velocity": 61,
                "time": 240
            },
            {
                "type": "note_on",
                "note": 84,
                "velocity": 0,
                "time": 120
            },
            {
                "type": "note_on",
                "note": 82,
                "velocity": 50,
                "time": 0
            },
            {
                "type": "note_on",
                "note": 82,
                "velocity": 0,
                "time": 60
            },
            {
                "type": "note_on",
                "note": 84,
                "velocity": 49,
                "time": 0
            },
            {
                "type": "note_on",
                "note": 84,
                "velocity": 0,
                "time": 60
            },
            {
                "type": "note_on",
                "note": 82,
                "velocity": 57,
                "time": 0
            },
            {
                "type": "note_on",
                "note": 82,
                "velocity": 0,
                "time": 120
            },
            {
                "type": "note_on",
                "note": 79,
                "velocity": 52,
                "time": 0
            },
            {
                "type": "note_on",
                "note": 79,
                "velocity": 0,
                "time": 240
            },
            {
                "type": "note_on",
                "note": 77,
                "velocity": 49,
                "time": 0
            },
            {
                "type": "note_on",
                "note": 79,
                "velocity": 45,
                "time": 420
            },
            {
                "type": "note_on",
                "note": 79,
                "velocity": 0,
                "time": 60
            },
            {
                "type": "note_on",
                "note": 77,
                "velocity": 0,
                "time": 0
            },
            {
                "type": "note_on",
                "note": 82,
                "velocity": 51,
                "time": 0
            },
            {
                "type": "note_on",
                "note": 82,
                "velocity": 0,
                "time": 120
            },
            {
                "type": "note_on",
                "note": 82,
                "velocity": 46,
                "time": 240
            },
            {
                "type": "note_on",
                "note": 82,
                "velocity": 0,
                "time": 120
            },
            {
                "type": "note_on",
                "note": 69,
                "velocity": 44,
                "time": 0
            },
            {
                "type": "note_on",
                "note": 69,
                "velocity": 0,
                "time": 840
            },
            {
                "type": "note_on",
                "note": 70,
                "velocity": 42,
                "time": 0
            },
            {
                "type": "note_on",
                "note": 70,
                "velocity": 0,
                "time": 60
            },
            {
                "type": "note_on",
                "note": 74,
                "velocity": 41,
                "time": 0
            },
            {
                "type": "note_on",
                "note": 74,
                "velocity": 0,
                "time": 60
            },
            {
                "type": "note_on",
                "note": 77,
                "velocity": 49,
                "time": 0
            },
            {
                "type": "note_on",
                "note": 77,
                "velocity": 0,
                "time": 120
            },
            {
                "type": "note_on",
                "note": 77,
                "velocity": 47,
                "time": 240
            },
            {
                "type": "note_on",
                "note": 77,
                "velocity": 0,
                "time": 120
            },
            {
                "type": "note_on",
                "note": 64,
                "velocity": 44,
                "time": 0
            },
            {
                "type": "note_on",
                "note": 64,
                "velocity": 0,
                "time": 960
            },
            {
                "type": "note_on",
                "note": 65,
                "velocity": 55,
                "time": 0
            },
            {
                "type": "note_on",
                "note": 65,
                "velocity": 0,
                "time": 120
            },
            {
                "type": "note_on",
                "note": 69,
                "velocity": 58,
                "time": 240
            },
            {
                "type": "note_on",
                "note": 69,
                "velocity": 0,
                "time": 120
            },
            {
                "type": "note_on",
                "note": 72,
                "velocity": 59,
                "time": 0
            },
            {
                "type": "note_on",
                "note": 72,
                "velocity": 0,
                "time": 240
            },
            {
                "type": "note_on",
                "note": 75,
                "velocity": 60,
                "time": 0
            },
            {
                "type": "note_on",
                "note": 75,
                "velocity": 0,
                "time": 240
            },
            {
                "type": "note_on",
                "note": 74,
                "velocity": 56,
                "time": 0
            },
            {
                "type": "note_on",
                "note": 74,
                "velocity": 0,
                "time": 60
            },
            {
                "type": "note_on",
                "note": 75,
                "velocity": 56,
                "time": 0
            },
            {
                "type": "note_on",
                "note": 75,
                "velocity": 0,
                "time": 60
            },
            {
                "type": "note_on",
                "note": 74,
                "velocity": 61,
                "time": 0
            },
            {
                "type": "note_on",
                "note": 74,
                "velocity": 0,
                "time": 120
            },
            {
                "type": "note_on",
                "note": 72,
                "velocity": 56,
                "time": 0
            },
            {
                "type": "note_on",
                "note": 72,
                "velocity": 0,
                "time": 240
            },
            {
                "type": "note_on",
                "note": 74,
                "velocity": 64,
                "time": 0
            },
            {
                "type": "note_on",
                "note": 74,
                "velocity": 0,
                "time": 120
            },
            {
                "type": "note_on",
                "note": 65,
                "velocity": 57,
                "time": 240
            },
            {
                "type": "note_on",
                "note": 65,
                "velocity": 0,
                "time": 120
            },
            {
                "type": "note_on",
                "note": 70,
                "velocity": 59,
                "time": 0
            },
            {
                "type": "note_on",
                "note": 70,
                "velocity": 0,
                "time": 480
            },
            {
                "type": "note_on",
                "note": 77,
                "velocity": 46,
                "time": 480
            },
            {
                "type": "note_on",
                "note": 77,
                "velocity": 0,
                "time": 120
            },
            {
                "type": "note_on",
                "note": 77,
                "velocity": 37,
                "time": 240
            },
            {
                "type": "note_on",
                "note": 77,
                "velocity": 0,
                "time": 120
            },
            {
                "type": "note_on",
                "note": 76,
                "velocity": 41,
                "time": 0
            },
            {
                "type": "note_on",
                "note": 76,
                "velocity": 0,
                "time": 480
            },
            {
                "type": "note_on",
                "note": 73,
                "velocity": 37,
                "time": 0
            },
            {
                "type": "note_on",
                "note": 73,
                "velocity": 0,
                "time": 240
            },
            {
                "type": "note_on",
                "note": 72,
                "velocity": 37,
                "time": 0
            },
            {
                "type": "note_on",
                "note": 72,
                "velocity": 0,
                "time": 240
            },
            {
                "type": "note_on",
                "note": 70,
                "velocity": 42,
                "time": 0
            },
            {
                "type": "note_on",
                "note": 70,
                "velocity": 0,
                "time": 240
            },
            {
                "type": "note_on",
                "note": 73,
                "velocity": 37,
                "time": 120
            },
            {
                "type": "note_on",
                "note": 73,
                "velocity": 0,
                "time": 120
            },
            {
                "type": "note_on",
                "note": 72,
                "velocity": 37,
                "time": 0
            },
            {
                "type": "note_on",
                "note": 72,
                "velocity": 0,
                "time": 60
            },
            {
                "type": "note_on",
                "note": 73,
                "velocity": 37,
                "time": 0
            },
            {
                "type": "note_on",
                "note": 73,
                "velocity": 0,
                "time": 60
            },
            {
                "type": "note_on",
                "note": 72,
                "velocity": 40,
                "time": 0
            },
            {
                "type": "note_on",
                "note": 72,
                "velocity": 0,
                "time": 360
            },
            {
                "type": "note_on",
                "note": 70,
                "velocity": 37,
                "time": 0
            },
            {
                "type": "note_on",
                "note": 70,
                "velocity": 0,
                "time": 240
            },
            {
                "type": "note_on",
                "note": 64,
                "velocity": 41,
                "time": 120
            },
            {
                "type": "note_on",
                "note": 64,
                "velocity": 0,
                "time": 120
            },
            {
                "type": "note_on",
                "note": 77,
                "velocity": 46,
                "time": 0
            },
            {
                "type": "note_on",
                "note": 77,
                "velocity": 0,
                "time": 120
            },
            {
                "type": "note_on",
                "note": 77,
                "velocity": 37,
                "time": 240
            },
            {
                "type": "note_on",
                "note": 77,
                "velocity": 0,
                "time": 120
            },
            {
                "type": "note_on",
                "note": 76,
                "velocity": 41,
                "time": 0
            },
            {
                "type": "note_on",
                "note": 76,
                "velocity": 0,
                "time": 480
            },
            {
                "type": "note_on",
                "note": 73,
                "velocity": 37,
                "time": 0
            },
            {
                "type": "note_on",
                "note": 73,
                "velocity": 0,
                "time": 240
            },
            {
                "type": "note_on",
                "note": 72,
                "velocity": 37,
                "time": 0
            },
            {
                "type": "note_on",
                "note": 72,
                "velocity": 0,
                "time": 240
            },
            {
                "type": "note_on",
                "note": 70,
                "velocity": 45,
                "time": 0
            },
            {
                "type": "note_on",
                "note": 70,
                "velocity": 0,
                "time": 160
            },
            {
                "type": "note_on",
                "note": 72,
                "velocity": 40,
                "time": 0
            },
            {
                "type": "note_on",
                "note": 72,
                "velocity": 0,
                "time": 160
            },
            {
                "type": "note_on",
                "note": 70,
                "velocity": 39,
                "time": 0
            },
            {
                "type": "note_on",
                "note": 70,
                "velocity": 0,
                "time": 160
            },
            {
                "type": "note_on",
                "note": 64,
                "velocity": 42,
                "time": 0
            },
            {
                "type": "note_on",
                "note": 64,
                "velocity": 0,
                "time": 960
            },
            {
                "type": "note_on",
                "note": 77,
                "velocity": 46,
                "time": 0
            },
            {
                "type": "note_on",
                "note": 77,
                "velocity": 0,
                "time": 120
            },
            {
                "type": "note_on",
                "note": 77,
                "velocity": 37,
                "time": 240
            },
            {
                "type": "note_on",
                "note": 77,
                "velocity": 0,
                "time": 120
            },
            {
                "type": "note_on",
                "note": 76,
                "velocity": 41,
                "time": 0
            },
            {
                "type": "note_on",
                "note": 76,
                "velocity": 0,
                "time": 480
            },
            {
                "type": "note_on",
                "note": 73,
                "velocity": 37,
                "time": 0
            },
            {
                "type": "note_on",
                "note": 73,
                "velocity": 0,
                "time": 240
            },
            {
                "type": "note_on",
                "note": 72,
                "velocity": 37,
                "time": 0
            },
            {
                "type": "note_on",
                "note": 72,
                "velocity": 0,
                "time": 240
            },
            {
                "type": "note_on",
                "note": 70,
                "velocity": 42,
                "time": 0
            },
            {
                "type": "note_on",
                "note": 70,
                "velocity": 0,
                "time": 240
            },
            {
                "type": "note_on",
                "note": 73,
                "velocity": 37,
                "time": 120
            },
            {
                "type": "note_on",
                "note": 73,
                "velocity": 0,
                "time": 120
            },
            {
                "type": "note_on",
                "note": 72,
                "velocity": 37,
                "time": 0
            },
            {
                "type": "note_on",
                "note": 72,
                "velocity": 0,
                "time": 60
            },
            {
                "type": "note_on",
                "note": 73,
                "velocity": 33,
                "time": 0
            },
            {
                "type": "note_on",
                "note": 73,
                "velocity": 0,
                "time": 60
            },
            {
                "type": "note_on",
                "note": 72,
                "velocity": 37,
                "time": 0
            },
            {
                "type": "note_on",
                "note": 72,
                "velocity": 0,
                "time": 60
            },
            {
                "type": "note_on",
                "note": 73,
                "velocity": 35,
                "time": 0
            },
            {
                "type": "note_on",
                "note": 73,
                "velocity": 0,
                "time": 60
            },
            {
                "type": "note_on",
                "note": 72,
                "velocity": 37,
                "time": 0
            },
            {
                "type": "note_on",
                "note": 72,
                "velocity": 0,
                "time": 60
            },
            {
                "type": "note_on",
                "note": 73,
                "velocity": 34,
                "time": 0
            },
            {
                "type": "note_on",
                "note": 73,
                "velocity": 0,
                "time": 60
            },
            {
                "type": "note_on",
                "note": 72,
                "velocity": 37,
                "time": 0
            },
            {
                "type": "note_on",
                "note": 72,
                "velocity": 0,
                "time": 60
            },
            {
                "type": "note_on",
                "note": 73,
                "velocity": 37,
                "time": 0
            },
            {
                "type": "note_on",
                "note": 73,
                "velocity": 0,
                "time": 60
            },
            {
                "type": "note_on",
                "note": 70,
                "velocity": 37,
                "time": 0
            },
            {
                "type": "note_on",
                "note": 70,
                "velocity": 0,
                "time": 240
            },
            {
                "type": "note_on",
                "note": 64,
                "velocity": 41,
                "time": 120
            },
            {
                "type": "note_on",
                "note": 64,
                "velocity": 0,
                "time": 120
            },
            {
                "type": "note_on",
                "note": 77,
                "velocity": 46,
                "time": 0
            },
            {
                "type": "note_on",
                "note": 77,
                "velocity": 0,
                "time": 120
            },
            {
                "type": "note_on",
                "note": 77,
                "velocity": 37,
                "time": 240
            },
            {
                "type": "note_on",
                "note": 77,
                "velocity": 0,
                "time": 120
            },
            {
                "type": "note_on",
                "note": 76,
                "velocity": 41,
                "time": 0
            },
            {
                "type": "note_on",
                "note": 76,
                "velocity": 0,
                "time": 480
            },
            {
                "type": "note_on",
                "note": 73,
                "velocity": 37,
                "time": 0
            },
            {
                "type": "note_on",
                "note": 73,
                "velocity": 0,
                "time": 360
            },
            {
                "type": "note_on",
                "note": 72,
                "velocity": 37,
                "time": 0
            },
            {
                "type": "note_on",
                "note": 72,
                "velocity": 0,
                "time": 120
            },
            {
                "type": "note_on",
                "note": 70,
                "velocity": 45,
                "time": 0
            },
            {
                "type": "note_on",
                "note": 70,
                "velocity": 0,
                "time": 160
            },
            {
                "type": "note_on",
                "note": 72,
                "velocity": 40,
                "time": 0
            },
            {
                "type": "note_on",
                "note": 72,
                "velocity": 0,
                "time": 160
            },
            {
                "type": "note_on",
                "note": 70,
                "velocity": 39,
                "time": 0
            },
            {
                "type": "note_on",
                "note": 70,
                "velocity": 0,
                "time": 160
            },
            {
                "type": "note_on",
                "note": 69,
                "velocity": 42,
                "time": 0
            },
            {
                "type": "note_on",
                "note": 69,
                "velocity": 0,
                "time": 720
            },
            {
                "type": "note_on",
                "note": 67,
                "velocity": 53,
                "time": 0
            },
            {
                "type": "note_on",
                "note": 67,
                "velocity": 0,
                "time": 240
            },
            {
                "type": "note_on",
                "note": 65,
                "velocity": 70,
                "time": 0
            },
            {
                "type": "note_on",
                "note": 65,
                "velocity": 0,
                "time": 240
            },
            {
                "type": "note_on",
                "note": 65,
                "velocity": 66,
                "time": 120
            },
            {
                "type": "note_on",
                "note": 65,
                "velocity": 0,
                "time": 120
            },
            {
                "type": "note_on",
                "note": 67,
                "velocity": 70,
                "time": 0
            },
            {
                "type": "note_on",
                "note": 67,
                "velocity": 0,
                "time": 480
            },
            {
                "type": "note_on",
                "note": 69,
                "velocity": 70,
                "time": 0
            },
            {
                "type": "note_on",
                "note": 69,
                "velocity": 0,
                "time": 480
            },
            {
                "type": "note_on",
                "note": 70,
                "velocity": 71,
                "time": 0
            },
            {
                "type": "note_on",
                "note": 70,
                "velocity": 0,
                "time": 240
            },
            {
                "type": "note_on",
                "note": 72,
                "velocity": 66,
                "time": 120
            },
            {
                "type": "note_on",
                "note": 72,
                "velocity": 0,
                "time": 120
            },
            {
                "type": "note_on",
                "note": 74,
                "velocity": 70,
                "time": 0
            },
            {
                "type": "note_on",
                "note": 74,
                "velocity": 0,
                "time": 480
            },
            {
                "type": "note_on",
                "note": 75,
                "velocity": 75,
                "time": 0
            },
            {
                "type": "note_on",
                "note": 75,
                "velocity": 0,
                "time": 240
            },
            {
                "type": "note_on",
                "note": 77,
                "velocity": 79,
                "time": 0
            },
            {
                "type": "note_on",
                "note": 77,
                "velocity": 0,
                "time": 240
            },
            {
                "type": "note_on",
                "note": 79,
                "velocity": 83,
                "time": 0
            },
            {
                "type": "note_on",
                "note": 79,
                "velocity": 0,
                "time": 120
            },
            {
                "type": "note_on",
                "note": 81,
                "velocity": 75,
                "time": 240
            },
            {
                "type": "note_on",
                "note": 81,
                "velocity": 0,
                "time": 120
            },
            {
                "type": "note_on",
                "note": 82,
                "velocity": 76,
                "time": 0
            },
            {
                "type": "note_on",
                "note": 82,
                "velocity": 0,
                "time": 60
            },
            {
                "type": "note_on",
                "note": 84,
                "velocity": 67,
                "time": 0
            },
            {
                "type": "note_on",
                "note": 84,
                "velocity": 0,
                "time": 60
            },
            {
                "type": "note_on",
                "note": 82,
                "velocity": 73,
                "time": 0
            },
            {
                "type": "note_on",
                "note": 82,
                "velocity": 0,
                "time": 60
            },
            {
                "type": "note_on",
                "note": 84,
                "velocity": 66,
                "time": 0
            },
            {
                "type": "note_on",
                "note": 84,
                "velocity": 0,
                "time": 60
            },
            {
                "type": "note_on",
                "note": 82,
                "velocity": 70,
                "time": 0
            },
            {
                "type": "note_on",
                "note": 82,
                "velocity": 0,
                "time": 60
            },
            {
                "type": "note_on",
                "note": 84,
                "velocity": 64,
                "time": 0
            },
            {
                "type": "note_on",
                "note": 84,
                "velocity": 0,
                "time": 60
            },
            {
                "type": "note_on",
                "note": 82,
                "velocity": 70,
                "time": 0
            },
            {
                "type": "note_on",
                "note": 82,
                "velocity": 0,
                "time": 60
            },
            {
                "type": "note_on",
                "note": 84,
                "velocity": 64,
                "time": 0
            },
            {
                "type": "note_on",
                "note": 84,
                "velocity": 0,
                "time": 60
            },
            {
                "type": "note_on",
                "note": 81,
                "velocity": 70,
                "time": 0
            },
            {
                "type": "note_on",
                "note": 81,
                "velocity": 0,
                "time": 240
            },
            {
                "type": "note_on",
                "note": 79,
                "velocity": 56,
                "time": 0
            },
            {
                "type": "note_on",
                "note": 79,
                "velocity": 0,
                "time": 180
            },
            {
                "type": "note_on",
                "note": 77,
                "velocity": 51,
                "time": 0
            },
            {
                "type": "note_on",
                "note": 77,
                "velocity": 0,
                "time": 60
            },
            {
                "type": "note_on",
                "note": 82,
                "velocity": 60,
                "time": 0
            },
            {
                "type": "note_on",
                "note": 82,
                "velocity": 0,
                "time": 120
            },
            {
                "type": "note_on",
                "note": 82,
                "velocity": 55,
                "time": 240
            },
            {
                "type": "note_on",
                "note": 82,
                "velocity": 0,
                "time": 120
            },
            {
                "type": "note_on",
                "note": 74,
                "velocity": 49,
                "time": 0
            },
            {
                "type": "note_on",
                "note": 74,
                "velocity": 0,
                "time": 900
            },
            {
                "type": "note_on",
                "note": 75,
                "velocity": 50,
                "time": 0
            },
            {
                "type": "note_on",
                "note": 75,
                "velocity": 0,
                "time": 60
            },
            {
                "type": "note_on",
                "note": 79,
                "velocity": 58,
                "time": 0
            },
            {
                "type": "note_on",
                "note": 79,
                "velocity": 0,
                "time": 120
            },
            {
                "type": "note_on",
                "note": 79,
                "velocity": 51,
                "time": 240
            },
            {
                "type": "note_on",
                "note": 79,
                "velocity": 0,
                "time": 120
            },
            {
                "type": "note_on",
                "note": 69,
                "velocity": 49,
                "time": 0
            },
            {
                "type": "note_on",
                "note": 69,
                "velocity": 0,
                "time": 900
            },
            {
                "type": "note_on",
                "note": 70,
                "velocity": 50,
                "time": 0
            },
            {
                "type": "note_on",
                "note": 70,
                "velocity": 0,
                "time": 60
            },
            {
                "type": "note_on",
                "note": 74,
                "velocity": 56,
                "time": 0
            },
            {
                "type": "note_on",
                "note": 74,
                "velocity": 0,
                "time": 120
            },
            {
                "type": "note_on",
                "note": 74,
                "velocity": 52,
                "time": 240
            },
            {
                "type": "note_on",
                "note": 74,
                "velocity": 0,
                "time": 120
            },
            {
                "type": "note_on",
                "note": 64,
                "velocity": 49,
                "time": 0
            },
            {
                "type": "note_on",
                "note": 64,
                "velocity": 0,
                "time": 960
            },
            {
                "type": "note_on",
                "note": 65,
                "velocity": 55,
                "time": 0
            },
            {
                "type": "note_on",
                "note": 65,
                "velocity": 0,
                "time": 120
            },
            {
                "type": "note_on",
                "note": 69,
                "velocity": 58,
                "time": 240
            },
            {
                "type": "note_on",
                "note": 69,
                "velocity": 0,
                "time": 120
            },
            {
                "type": "note_on",
                "note": 72,
                "velocity": 59,
                "time": 0
            },
            {
                "type": "note_on",
                "note": 72,
                "velocity": 0,
                "time": 240
            },
            {
                "type": "note_on",
                "note": 75,
                "velocity": 60,
                "time": 0
            },
            {
                "type": "note_on",
                "note": 75,
                "velocity": 0,
                "time": 240
            },
            {
                "type": "note_on",
                "note": 79,
                "velocity": 67,
                "time": 0
            },
            {
                "type": "note_on",
                "note": 79,
                "velocity": 0,
                "time": 360
            },
            {
                "type": "note_on",
                "note": 77,
                "velocity": 63,
                "time": 0
            },
            {
                "type": "note_on",
                "note": 77,
                "velocity": 0,
                "time": 58
            },
            {
                "type": "note_on",
                "note": 77,
                "velocity": 55,
                "time": 2
            },
            {
                "type": "note_on",
                "note": 77,
                "velocity": 0,
                "time": 60
            },
            {
                "type": "note_on",
                "note": 86,
                "velocity": 75,
                "time": 0
            },
            {
                "type": "note_on",
                "note": 86,
                "velocity": 0,
                "time": 120
            },
            {
                "type": "note_on",
                "note": 84,
                "velocity": 68,
                "time": 240
            },
            {
                "type": "note_on",
                "note": 84,
                "velocity": 0,
                "time": 120
            },
            {
                "type": "note_on",
                "note": 82,
                "velocity": 56,
                "time": 0
            },
            {
                "type": "note_on",
                "note": 82,
                "velocity": 0,
                "time": 60
            },
            {
                "type": "note_on",
                "note": 84,
                "velocity": 55,
                "time": 0
            },
            {
                "type": "note_on",
                "note": 84,
                "velocity": 0,
                "time": 60
            },
            {
                "type": "note_on",
                "note": 82,
                "velocity": 64,
                "time": 0
            },
            {
                "type": "note_on",
                "note": 82,
                "velocity": 0,
                "time": 120
            },
            {
                "type": "note_on",
                "note": 79,
                "velocity": 58,
                "time": 0
            },
            {
                "type": "note_on",
                "note": 79,
                "velocity": 0,
                "time": 240
            },
            {
                "type": "note_on",
                "note": 77,
                "velocity": 55,
                "time": 0
            },
            {
                "type": "note_on",
                "note": 79,
                "velocity": 45,
                "time": 420
            },
            {
                "type": "note_on",
                "note": 79,
                "velocity": 0,
                "time": 60
            },
            {
                "type": "note_on",
                "note": 77,
                "velocity": 0,
                "time": 0
            },
            {
                "type": "note_on",
                "note": 82,
                "velocity": 51,
                "time": 0
            },
            {
                "type": "note_on",
                "note": 82,
                "velocity": 0,
                "time": 120
            },
            {
                "type": "note_on",
                "note": 82,
                "velocity": 46,
                "time": 240
            },
            {
                "type": "note_on",
                "note": 82,
                "velocity": 0,
                "time": 120
            },
            {
                "type": "note_on",
                "note": 69,
                "velocity": 44,
                "time": 0
            },
            {
                "type": "note_on",
                "note": 69,
                "velocity": 0,
                "time": 840
            },
            {
                "type": "note_on",
                "note": 70,
                "velocity": 42,
                "time": 0
            },
            {
                "type": "note_on",
                "note": 70,
                "velocity": 0,
                "time": 60
            },
            {
                "type": "note_on",
                "note": 74,
                "velocity": 41,
                "time": 0
            },
            {
                "type": "note_on",
                "note": 74,
                "velocity": 0,
                "time": 60
            },
            {
                "type": "note_on",
                "note": 77,
                "velocity": 49,
                "time": 0
            },
            {
                "type": "note_on",
                "note": 77,
                "velocity": 0,
                "time": 120
            },
            {
                "type": "note_on",
                "note": 77,
                "velocity": 47,
                "time": 240
            },
            {
                "type": "note_on",
                "note": 77,
                "velocity": 0,
                "time": 120
            },
            {
                "type": "note_on",
                "note": 64,
                "velocity": 44,
                "time": 0
            },
            {
                "type": "note_on",
                "note": 64,
                "velocity": 0,
                "time": 960
            },
            {
                "type": "note_on",
                "note": 65,
                "velocity": 55,
                "time": 0
            },
            {
                "type": "note_on",
                "note": 65,
                "velocity": 0,
                "time": 120
            },
            {
                "type": "note_on",
                "note": 69,
                "velocity": 58,
                "time": 240
            },
            {
                "type": "note_on",
                "note": 69,
                "velocity": 0,
                "time": 120
            },
            {
                "type": "note_on",
                "note": 72,
                "velocity": 59,
                "time": 0
            },
            {
                "type": "note_on",
                "note": 72,
                "velocity": 0,
                "time": 240
            },
            {
                "type": "note_on",
                "note": 75,
                "velocity": 60,
                "time": 0
            },
            {
                "type": "note_on",
                "note": 75,
                "velocity": 0,
                "time": 240
            },
            {
                "type": "note_on",
                "note": 74,
                "velocity": 56,
                "time": 0
            },
            {
                "type": "note_on",
                "note": 74,
                "velocity": 0,
                "time": 60
            },
            {
                "type": "note_on",
                "note": 75,
                "velocity": 56,
                "time": 0
            },
            {
                "type": "note_on",
                "note": 75,
                "velocity": 0,
                "time": 60
            },
            {
                "type": "note_on",
                "note": 74,
                "velocity": 61,
                "time": 0
            },
            {
                "type": "note_on",
                "note": 74,
                "velocity": 0,
                "time": 240
            },
            {
                "type": "note_on",
                "note": 72,
                "velocity": 56,
                "time": 0
            },
            {
                "type": "note_on",
                "note": 72,
                "velocity": 0,
                "time": 120
            },
            {
                "type": "note_on",
                "note": 74,
                "velocity": 64,
                "time": 0
            },
            {
                "type": "note_on",
                "note": 74,
                "velocity": 0,
                "time": 120
            },
            {
                "type": "note_on",
                "note": 65,
                "velocity": 57,
                "time": 240
            },
            {
                "type": "note_on",
                "note": 65,
                "velocity": 0,
                "time": 120
            },
            {
                "type": "note_on",
                "note": 70,
                "velocity": 59,
                "time": 0
            },
            {
                "type": "note_on",
                "note": 70,
                "velocity": 0,
                "time": 480
            },
            {
                "type": "note_on",
                "note": 77,
                "velocity": 46,
                "time": 480
            },
            {
                "type": "note_on",
                "note": 77,
                "velocity": 0,
                "time": 120
            },
            {
                "type": "note_on",
                "note": 77,
                "velocity": 37,
                "time": 240
            },
            {
                "type": "note_on",
                "note": 77,
                "velocity": 0,
                "time": 120
            },
            {
                "type": "note_on",
                "note": 76,
                "velocity": 41,
                "time": 0
            },
            {
                "type": "note_on",
                "note": 76,
                "velocity": 0,
                "time": 480
            },
            {
                "type": "note_on",
                "note": 73,
                "velocity": 37,
                "time": 0
            },
            {
                "type": "note_on",
                "note": 73,
                "velocity": 0,
                "time": 240
            },
            {
                "type": "note_on",
                "note": 72,
                "velocity": 37,
                "time": 0
            },
            {
                "type": "note_on",
                "note": 72,
                "velocity": 0,
                "time": 240
            },
            {
                "type": "note_on",
                "note": 70,
                "velocity": 42,
                "time": 0
            },
            {
                "type": "note_on",
                "note": 70,
                "velocity": 0,
                "time": 240
            },
            {
                "type": "note_on",
                "note": 73,
                "velocity": 37,
                "time": 120
            },
            {
                "type": "note_on",
                "note": 73,
                "velocity": 0,
                "time": 120
            },
            {
                "type": "note_on",
                "note": 72,
                "velocity": 37,
                "time": 0
            },
            {
                "type": "note_on",
                "note": 72,
                "velocity": 0,
                "time": 60
            },
            {
                "type": "note_on",
                "note": 73,
                "velocity": 37,
                "time": 0
            },
            {
                "type": "note_on",
                "note": 73,
                "velocity": 0,
                "time": 60
            },
            {
                "type": "note_on",
                "note": 72,
                "velocity": 40,
                "time": 0
            },
            {
                "type": "note_on",
                "note": 72,
                "velocity": 0,
                "time": 360
            },
            {
                "type": "note_on",
                "note": 70,
                "velocity": 37,
                "time": 0
            },
            {
                "type": "note_on",
                "note": 70,
                "velocity": 0,
                "time": 240
            },
            {
                "type": "note_on",
                "note": 64,
                "velocity": 41,
                "time": 120
            },
            {
                "type": "note_on",
                "note": 64,
                "velocity": 0,
                "time": 120
            },
            {
                "type": "note_on",
                "note": 77,
                "velocity": 46,
                "time": 0
            },
            {
                "type": "note_on",
                "note": 77,
                "velocity": 0,
                "time": 120
            },
            {
                "type": "note_on",
                "note": 77,
                "velocity": 37,
                "time": 240
            },
            {
                "type": "note_on",
                "note": 77,
                "velocity": 0,
                "time": 120
            },
            {
                "type": "note_on",
                "note": 76,
                "velocity": 41,
                "time": 0
            },
            {
                "type": "note_on",
                "note": 76,
                "velocity": 0,
                "time": 480
            },
            {
                "type": "note_on",
                "note": 73,
                "velocity": 37,
                "time": 0
            },
            {
                "type": "note_on",
                "note": 73,
                "velocity": 0,
                "time": 240
            },
            {
                "type": "note_on",
                "note": 72,
                "velocity": 37,
                "time": 0
            },
            {
                "type": "note_on",
                "note": 72,
                "velocity": 0,
                "time": 240
            },
            {
                "type": "note_on",
                "note": 70,
                "velocity": 45,
                "time": 0
            },
            {
                "type": "note_on",
                "note": 70,
                "velocity": 0,
                "time": 160
            },
            {
                "type": "note_on",
                "note": 72,
                "velocity": 40,
                "time": 0
            },
            {
                "type": "note_on",
                "note": 72,
                "velocity": 0,
                "time": 160
            },
            {
                "type": "note_on",
                "note": 70,
                "velocity": 39,
                "time": 0
            },
            {
                "type": "note_on",
                "note": 70,
                "velocity": 0,
                "time": 160
            },
            {
                "type": "note_on",
                "note": 64,
                "velocity": 42,
                "time": 0
            },
            {
                "type": "note_on",
                "note": 64,
                "velocity": 0,
                "time": 960
            },
            {
                "type": "note_on",
                "note": 77,
                "velocity": 46,
                "time": 0
            },
            {
                "type": "note_on",
                "note": 77,
                "velocity": 0,
                "time": 120
            },
            {
                "type": "note_on",
                "note": 77,
                "velocity": 37,
                "time": 240
            },
            {
                "type": "note_on",
                "note": 77,
                "velocity": 0,
                "time": 120
            },
            {
                "type": "note_on",
                "note": 76,
                "velocity": 41,
                "time": 0
            },
            {
                "type": "note_on",
                "note": 76,
                "velocity": 0,
                "time": 480
            },
            {
                "type": "note_on",
                "note": 73,
                "velocity": 37,
                "time": 0
            },
            {
                "type": "note_on",
                "note": 73,
                "velocity": 0,
                "time": 240
            },
            {
                "type": "note_on",
                "note": 72,
                "velocity": 37,
                "time": 0
            },
            {
                "type": "note_on",
                "note": 72,
                "velocity": 0,
                "time": 240
            },
            {
                "type": "note_on",
                "note": 70,
                "velocity": 42,
                "time": 0
            },
            {
                "type": "note_on",
                "note": 70,
                "velocity": 0,
                "time": 240
            },
            {
                "type": "note_on",
                "note": 73,
                "velocity": 37,
                "time": 120
            },
            {
                "type": "note_on",
                "note": 73,
                "velocity": 0,
                "time": 120
            },
            {
                "type": "note_on",
                "note": 72,
                "velocity": 37,
                "time": 0
            },
            {
                "type": "note_on",
                "note": 72,
                "velocity": 0,
                "time": 60
            },
            {
                "type": "note_on",
                "note": 73,
                "velocity": 33,
                "time": 0
            },
            {
                "type": "note_on",
                "note": 73,
                "velocity": 0,
                "time": 60
            },
            {
                "type": "note_on",
                "note": 72,
                "velocity": 37,
                "time": 0
            },
            {
                "type": "note_on",
                "note": 72,
                "velocity": 0,
                "time": 60
            },
            {
                "type": "note_on",
                "note": 73,
                "velocity": 35,
                "time": 0
            },
            {
                "type": "note_on",
                "note": 73,
                "velocity": 0,
                "time": 60
            },
            {
                "type": "note_on",
                "note": 72,
                "velocity": 37,
                "time": 0
            },
            {
                "type": "note_on",
                "note": 72,
                "velocity": 0,
                "time": 60
            },
            {
                "type": "note_on",
                "note": 73,
                "velocity": 34,
                "time": 0
            },
            {
                "type": "note_on",
                "note": 73,
                "velocity": 0,
                "time": 60
            },
            {
                "type": "note_on",
                "note": 72,
                "velocity": 37,
                "time": 0
            },
            {
                "type": "note_on",
                "note": 72,
                "velocity": 0,
                "time": 60
            },
            {
                "type": "note_on",
                "note": 73,
                "velocity": 37,
                "time": 0
            },
            {
                "type": "note_on",
                "note": 73,
                "velocity": 0,
                "time": 60
            },
            {
                "type": "note_on",
                "note": 70,
                "velocity": 37,
                "time": 0
            },
            {
                "type": "note_on",
                "note": 70,
                "velocity": 0,
                "time": 240
            },
            {
                "type": "note_on",
                "note": 64,
                "velocity": 41,
                "time": 120
            },
            {
                "type": "note_on",
                "note": 64,
                "velocity": 0,
                "time": 120
            },
            {
                "type": "note_on",
                "note": 77,
                "velocity": 46,
                "time": 0
            },
            {
                "type": "note_on",
                "note": 77,
                "velocity": 0,
                "time": 120
            },
            {
                "type": "note_on",
                "note": 77,
                "velocity": 37,
                "time": 240
            },
            {
                "type": "note_on",
                "note": 77,
                "velocity": 0,
                "time": 120
            },
            {
                "type": "note_on",
                "note": 76,
                "velocity": 41,
                "time": 0
            },
            {
                "type": "note_on",
                "note": 76,
                "velocity": 0,
                "time": 480
            },
            {
                "type": "note_on",
                "note": 73,
                "velocity": 37,
                "time": 0
            },
            {
                "type": "note_on",
                "note": 73,
                "velocity": 0,
                "time": 360
            },
            {
                "type": "note_on",
                "note": 72,
                "velocity": 37,
                "time": 0
            },
            {
                "type": "note_on",
                "note": 72,
                "velocity": 0,
                "time": 120
            },
            {
                "type": "note_on",
                "note": 70,
                "velocity": 45,
                "time": 0
            },
            {
                "type": "note_on",
                "note": 70,
                "velocity": 0,
                "time": 160
            },
            {
                "type": "note_on",
                "note": 72,
                "velocity": 40,
                "time": 0
            },
            {
                "type": "note_on",
                "note": 72,
                "velocity": 0,
                "time": 160
            },
            {
                "type": "note_on",
                "note": 70,
                "velocity": 39,
                "time": 0
            },
            {
                "type": "note_on",
                "note": 70,
                "velocity": 0,
                "time": 160
            },
            {
                "type": "note_on",
                "note": 69,
                "velocity": 42,
                "time": 0
            },
            {
                "type": "note_on",
                "note": 69,
                "velocity": 0,
                "time": 720
            },
            {
                "type": "note_on",
                "note": 67,
                "velocity": 53,
                "time": 0
            },
            {
                "type": "note_on",
                "note": 67,
                "velocity": 0,
                "time": 240
            },
            {
                "type": "note_on",
                "note": 65,
                "velocity": 70,
                "time": 0
            },
            {
                "type": "note_on",
                "note": 65,
                "velocity": 0,
                "time": 240
            },
            {
                "type": "note_on",
                "note": 65,
                "velocity": 66,
                "time": 120
            },
            {
                "type": "note_on",
                "note": 65,
                "velocity": 0,
                "time": 120
            },
            {
                "type": "note_on",
                "note": 67,
                "velocity": 70,
                "time": 0
            },
            {
                "type": "note_on",
                "note": 67,
                "velocity": 0,
                "time": 480
            },
            {
                "type": "note_on",
                "note": 69,
                "velocity": 70,
                "time": 0
            },
            {
                "type": "note_on",
                "note": 69,
                "velocity": 0,
                "time": 480
            },
            {
                "type": "note_on",
                "note": 70,
                "velocity": 71,
                "time": 0
            },
            {
                "type": "note_on",
                "note": 70,
                "velocity": 0,
                "time": 240
            },
            {
                "type": "note_on",
                "note": 72,
                "velocity": 66,
                "time": 120
            },
            {
                "type": "note_on",
                "note": 72,
                "velocity": 0,
                "time": 120
            },
            {
                "type": "note_on",
                "note": 74,
                "velocity": 70,
                "time": 0
            },
            {
                "type": "note_on",
                "note": 74,
                "velocity": 0,
                "time": 480
            },
            {
                "type": "note_on",
                "note": 75,
                "velocity": 75,
                "time": 0
            },
            {
                "type": "note_on",
                "note": 75,
                "velocity": 0,
                "time": 240
            },
            {
                "type": "note_on",
                "note": 77,
                "velocity": 79,
                "time": 0
            },
            {
                "type": "note_on",
                "note": 77,
                "velocity": 0,
                "time": 240
            },
            {
                "type": "note_on",
                "note": 79,
                "velocity": 83,
                "time": 0
            },
            {
                "type": "note_on",
                "note": 79,
                "velocity": 0,
                "time": 120
            },
            {
                "type": "note_on",
                "note": 81,
                "velocity": 75,
                "time": 240
            },
            {
                "type": "note_on",
                "note": 81,
                "velocity": 0,
                "time": 120
            },
            {
                "type": "note_on",
                "note": 82,
                "velocity": 76,
                "time": 0
            },
            {
                "type": "note_on",
                "note": 82,
                "velocity": 0,
                "time": 60
            },
            {
                "type": "note_on",
                "note": 84,
                "velocity": 67,
                "time": 0
            },
            {
                "type": "note_on",
                "note": 84,
                "velocity": 0,
                "time": 60
            },
            {
                "type": "note_on",
                "note": 82,
                "velocity": 73,
                "time": 0
            },
            {
                "type": "note_on",
                "note": 82,
                "velocity": 0,
                "time": 60
            },
            {
                "type": "note_on",
                "note": 84,
                "velocity": 66,
                "time": 0
            },
            {
                "type": "note_on",
                "note": 84,
                "velocity": 0,
                "time": 60
            },
            {
                "type": "note_on",
                "note": 82,
                "velocity": 70,
                "time": 0
            },
            {
                "type": "note_on",
                "note": 82,
                "velocity": 0,
                "time": 60
            },
            {
                "type": "note_on",
                "note": 84,
                "velocity": 64,
                "time": 0
            },
            {
                "type": "note_on",
                "note": 84,
                "velocity": 0,
                "time": 60
            },
            {
                "type": "note_on",
                "note": 82,
                "velocity": 70,
                "time": 0
            },
            {
                "type": "note_on",
                "note": 82,
                "velocity": 0,
                "time": 60
            },
            {
                "type": "note_on",
                "note": 84,
                "velocity": 64,
                "time": 0
            },
            {
                "type": "note_on",
                "note": 84,
                "velocity": 0,
                "time": 60
            },
            {
                "type": "note_on",
                "note": 81,
                "velocity": 70,
                "time": 0
            },
            {
                "type": "note_on",
                "note": 81,
                "velocity": 0,
                "time": 240
            },
            {
                "type": "note_on",
                "note": 79,
                "velocity": 56,
                "time": 0
            },
            {
                "type": "note_on",
                "note": 79,
                "velocity": 0,
                "time": 180
            },
            {
                "type": "note_on",
                "note": 77,
                "velocity": 51,
                "time": 0
            },
            {
                "type": "note_on",
                "note": 77,
                "velocity": 0,
                "time": 60
            },
            {
                "type": "note_on",
                "note": 82,
                "velocity": 60,
                "time": 0
            },
            {
                "type": "note_on",
                "note": 82,
                "velocity": 0,
                "time": 120
            },
            {
                "type": "note_on",
                "note": 82,
                "velocity": 55,
                "time": 240
            },
            {
                "type": "note_on",
                "note": 82,
                "velocity": 0,
                "time": 120
            },
            {
                "type": "note_on",
                "note": 74,
                "velocity": 49,
                "time": 0
            },
            {
                "type": "note_on",
                "note": 74,
                "velocity": 0,
                "time": 900
            },
            {
                "type": "note_on",
                "note": 75,
                "velocity": 50,
                "time": 0
            },
            {
                "type": "note_on",
                "note": 75,
                "velocity": 0,
                "time": 60
            },
            {
                "type": "note_on",
                "note": 79,
                "velocity": 58,
                "time": 0
            },
            {
                "type": "note_on",
                "note": 79,
                "velocity": 0,
                "time": 120
            },
            {
                "type": "note_on",
                "note": 79,
                "velocity": 51,
                "time": 240
            },
            {
                "type": "note_on",
                "note": 79,
                "velocity": 0,
                "time": 120
            },
            {
                "type": "note_on",
                "note": 69,
                "velocity": 49,
                "time": 0
            },
            {
                "type": "note_on",
                "note": 69,
                "velocity": 0,
                "time": 900
            },
            {
                "type": "note_on",
                "note": 70,
                "velocity": 50,
                "time": 0
            },
            {
                "type": "note_on",
                "note": 70,
                "velocity": 0,
                "time": 60
            },
            {
                "type": "note_on",
                "note": 74,
                "velocity": 56,
                "time": 0
            },
            {
                "type": "note_on",
                "note": 74,
                "velocity": 0,
                "time": 120
            },
            {
                "type": "note_on",
                "note": 74,
                "velocity": 52,
                "time": 240
            },
            {
                "type": "note_on",
                "note": 74,
                "velocity": 0,
                "time": 120
            },
            {
                "type": "note_on",
                "note": 64,
                "velocity": 49,
                "time": 0
            },
            {
                "type": "note_on",
                "note": 64,
                "velocity": 0,
                "time": 960
            },
            {
                "type": "note_on",
                "note": 65,
                "velocity": 55,
                "time": 0
            },
            {
                "type": "note_on",
                "note": 65,
                "velocity": 0,
                "time": 120
            },
            {
                "type": "note_on",
                "note": 69,
                "velocity": 58,
                "time": 240
            },
            {
                "type": "note_on",
                "note": 69,
                "velocity": 0,
                "time": 120
            },
            {
                "type": "note_on",
                "note": 72,
                "velocity": 59,
                "time": 0
            },
            {
                "type": "note_on",
                "note": 72,
                "velocity": 0,
                "time": 240
            },
            {
                "type": "note_on",
                "note": 75,
                "velocity": 60,
                "time": 0
            },
            {
                "type": "note_on",
                "note": 75,
                "velocity": 0,
                "time": 240
            },
            {
                "type": "note_on",
                "note": 79,
                "velocity": 67,
                "time": 0
            },
            {
                "type": "note_on",
                "note": 79,
                "velocity": 0,
                "time": 360
            },
            {
                "type": "note_on",
                "note": 77,
                "velocity": 63,
                "time": 0
            },
            {
                "type": "note_on",
                "note": 77,
                "velocity": 0,
                "time": 60
            },
            {
                "type": "note_on",
                "note": 77,
                "velocity": 49,
                "time": 0
            },
            {
                "type": "note_on",
                "note": 77,
                "velocity": 0,
                "time": 60
            },
            {
                "type": "note_on",
                "note": 86,
                "velocity": 67,
                "time": 0
            },
            {
                "type": "note_on",
                "note": 86,
                "velocity": 0,
                "time": 120
            },
            {
                "type": "note_on",
                "note": 84,
                "velocity": 61,
                "time": 240
            },
            {
                "type": "note_on",
                "note": 84,
                "velocity": 0,
                "time": 120
            },
            {
                "type": "note_on",
                "note": 82,
                "velocity": 50,
                "time": 0
            },
            {
                "type": "note_on",
                "note": 82,
                "velocity": 0,
                "time": 60
            },
            {
                "type": "note_on",
                "note": 84,
                "velocity": 49,
                "time": 0
            },
            {
                "type": "note_on",
                "note": 84,
                "velocity": 0,
                "time": 60
            },
            {
                "type": "note_on",
                "note": 82,
                "velocity": 57,
                "time": 0
            },
            {
                "type": "note_on",
                "note": 82,
                "velocity": 0,
                "time": 120
            },
            {
                "type": "note_on",
                "note": 79,
                "velocity": 52,
                "time": 0
            },
            {
                "type": "note_on",
                "note": 79,
                "velocity": 0,
                "time": 240
            },
            {
                "type": "note_on",
                "note": 77,
                "velocity": 49,
                "time": 0
            },
            {
                "type": "note_on",
                "note": 79,
                "velocity": 45,
                "time": 420
            },
            {
                "type": "note_on",
                "note": 79,
                "velocity": 0,
                "time": 60
            },
            {
                "type": "note_on",
                "note": 77,
                "velocity": 0,
                "time": 0
            },
            {
                "type": "note_on",
                "note": 82,
                "velocity": 51,
                "time": 0
            },
            {
                "type": "note_on",
                "note": 82,
                "velocity": 0,
                "time": 120
            },
            {
                "type": "note_on",
                "note": 82,
                "velocity": 46,
                "time": 240
            },
            {
                "type": "note_on",
                "note": 82,
                "velocity": 0,
                "time": 120
            },
            {
                "type": "note_on",
                "note": 69,
                "velocity": 44,
                "time": 0
            },
            {
                "type": "note_on",
                "note": 69,
                "velocity": 0,
                "time": 840
            },
            {
                "type": "note_on",
                "note": 70,
                "velocity": 42,
                "time": 0
            },
            {
                "type": "note_on",
                "note": 70,
                "velocity": 0,
                "time": 60
            },
            {
                "type": "note_on",
                "note": 74,
                "velocity": 41,
                "time": 0
            },
            {
                "type": "note_on",
                "note": 74,
                "velocity": 0,
                "time": 60
            },
            {
                "type": "note_on",
                "note": 77,
                "velocity": 49,
                "time": 0
            },
            {
                "type": "note_on",
                "note": 77,
                "velocity": 0,
                "time": 120
            },
            {
                "type": "note_on",
                "note": 77,
                "velocity": 47,
                "time": 240
            },
            {
                "type": "note_on",
                "note": 77,
                "velocity": 0,
                "time": 120
            },
            {
                "type": "note_on",
                "note": 64,
                "velocity": 44,
                "time": 0
            },
            {
                "type": "note_on",
                "note": 64,
                "velocity": 0,
                "time": 960
            },
            {
                "type": "note_on",
                "note": 65,
                "velocity": 55,
                "time": 0
            },
            {
                "type": "note_on",
                "note": 65,
                "velocity": 0,
                "time": 120
            },
            {
                "type": "note_on",
                "note": 69,
                "velocity": 60,
                "time": 240
            },
            {
                "type": "note_on",
                "note": 69,
                "velocity": 0,
                "time": 120
            },
            {
                "type": "note_on",
                "note": 72,
                "velocity": 62,
                "time": 0
            },
            {
                "type": "note_on",
                "note": 72,
                "velocity": 0,
                "time": 240
            },
            {
                "type": "note_on",
                "note": 75,
                "velocity": 66,
                "time": 0
            },
            {
                "type": "note_on",
                "note": 75,
                "velocity": 0,
                "time": 240
            },
            {
                "type": "note_on",
                "note": 74,
                "velocity": 63,
                "time": 0
            },
            {
                "type": "note_on",
                "note": 74,
                "velocity": 0,
                "time": 60
            },
            {
                "type": "note_on",
                "note": 75,
                "velocity": 63,
                "time": 0
            },
            {
                "type": "note_on",
                "note": 75,
                "velocity": 0,
                "time": 60
            },
            {
                "type": "note_on",
                "note": 74,
                "velocity": 70,
                "time": 0
            },
            {
                "type": "note_on",
                "note": 74,
                "velocity": 0,
                "time": 240
            },
            {
                "type": "note_on",
                "note": 72,
                "velocity": 64,
                "time": 0
            },
            {
                "type": "note_on",
                "note": 72,
                "velocity": 0,
                "time": 120
            },
            {
                "type": "note_on",
                "note": 74,
                "velocity": 76,
                "time": 0
            },
            {
                "type": "note_on",
                "note": 74,
                "velocity": 0,
                "time": 240
            },
            {
                "type": "note_on",
                "note": 65,
                "velocity": 68,
                "time": 0
            },
            {
                "type": "note_on",
                "note": 65,
                "velocity": 0,
                "time": 240
            },
            {
                "type": "note_on",
                "note": 70,
                "velocity": 68,
                "time": 0
            },
            {
                "type": "note_on",
                "note": 82,
                "velocity": 70,
                "time": 0
            },
            {
                "type": "note_on",
                "note": 82,
                "velocity": 0,
                "time": 960
            },
            {
                "type": "note_on",
                "note": 70,
                "velocity": 0,
                "time": 0
            }
        ]
    },
    {
        "track": 2,
        "notes": [
            {
                "type": "note_on",
                "note": 41,
                "velocity": 70,
                "time": 0
            },
            {
                "type": "note_on",
                "note": 41,
                "velocity": 0,
                "time": 198
            },
            {
                "type": "note_on",
                "note": 63,
                "velocity": 59,
                "time": 240
            },
            {
                "type": "note_on",
                "note": 60,
                "velocity": 50,
                "time": 0
            },
            {
                "type": "note_on",
                "note": 53,
                "velocity": 50,
                "time": 0
            },
            {
                "type": "note_on",
                "note": 53,
                "velocity": 0,
                "time": 480
            },
            {
                "type": "note_on",
                "note": 60,
                "velocity": 0,
                "time": 0
            },
            {
                "type": "note_on",
                "note": 63,
                "velocity": 0,
                "time": 0
            },
            {
                "type": "note_on",
                "note": 63,
                "velocity": 60,
                "time": 0
            },
            {
                "type": "note_on",
                "note": 60,
                "velocity": 51,
                "time": 0
            },
            {
                "type": "note_on",
                "note": 53,
                "velocity": 51,
                "time": 0
            },
            {
                "type": "note_on",
                "note": 53,
                "velocity": 0,
                "time": 473
            },
            {
                "type": "note_on",
                "note": 60,
                "velocity": 0,
                "time": 0
            },
            {
                "type": "note_on",
                "note": 63,
                "velocity": 0,
                "time": 0
            },
            {
                "type": "note_on",
                "note": 46,
                "velocity": 70,
                "time": 0
            },
            {
                "type": "note_on",
                "note": 46,
                "velocity": 0,
                "time": 99
            },
            {
                "type": "note_on",
                "note": 62,
                "velocity": 52,
                "time": 240
            },
            {
                "type": "note_on",
                "note": 58,
                "velocity": 52,
                "time": 0
            },
            {
                "type": "note_on",
                "note": 53,
                "velocity": 52,
                "time": 0
            },
            {
                "type": "note_on",
                "note": 53,
                "velocity": 0,
                "time": 480
            },
            {
                "type": "note_on",
                "note": 58,
                "velocity": 0,
                "time": 0
            },
            {
                "type": "note_on",
                "note": 62,
                "velocity": 0,
                "time": 0
            },
            {
                "type": "note_on",
                "note": 46,
                "velocity": 62,
                "time": 0
            },
            {
                "type": "note_on",
                "note": 46,
                "velocity": 0,
                "time": 226
            },
            {
                "type": "note_on",
                "note": 39,
                "velocity": 68,
                "time": 240
            },
            {
                "type": "note_on",
                "note": 51,
                "velocity": 80,
                "time": 0
            },
            {
                "type": "note_on",
                "note": 51,
                "velocity": 0,
                "time": 312
            },
            {
                "type": "note_on",
                "note": 39,
                "velocity": 0,
                "time": 0
            },
            {
                "type": "note_on",
                "note": 55,
                "velocity": 59,
                "time": 0
            },
            {
                "type": "note_on",
                "note": 58,
                "velocity": 59,
                "time": 30
            },
            {
                "type": "note_on",
                "note": 63,
                "velocity": 59,
                "time": 30
            },
            {
                "type": "note_on",
                "note": 67,
                "velocity": 70,
                "time": 30
            },
            {
                "type": "note_on",
                "note": 67,
                "velocity": 0,
                "time": 480
            },
            {
                "type": "note_on",
                "note": 55,
                "velocity": 0,
                "time": 0
            },
            {
                "type": "note_on",
                "note": 58,
                "velocity": 0,
                "time": 0
            },
            {
                "type": "note_on",
                "note": 63,
                "velocity": 0,
                "time": 0
            },
            {
                "type": "note_on",
                "note": 46,
                "velocity": 43,
                "time": 471
            },
            {
                "type": "note_on",
                "note": 46,
                "velocity": 0,
                "time": 222
            },
            {
                "type": "note_on",
                "note": 62,
                "velocity": 28,
                "time": 240
            },
            {
                "type": "note_on",
                "note": 58,
                "velocity": 23,
                "time": 0
            },
            {
                "type": "note_on",
                "note": 53,
                "velocity": 23,
                "time": 0
            },
            {
                "type": "note_on",
                "note": 53,
                "velocity": 0,
                "time": 480
            },
            {
                "type": "note_on",
                "note": 58,
                "velocity": 0,
                "time": 0
            },
            {
                "type": "note_on",
                "note": 62,
                "velocity": 0,
                "time": 0
            },
            {
                "type": "note_on",
                "note": 62,
                "velocity": 26,
                "time": 0
            },
            {
                "type": "note_on",
                "note": 58,
                "velocity": 22,
                "time": 0
            },
            {
                "type": "note_on",
                "note": 53,
                "velocity": 22,
                "time": 0
            },
            {
                "type": "note_on",
                "note": 53,
                "velocity": 0,
                "time": 473
            },
            {
                "type": "note_on",
                "note": 58,
                "velocity": 0,
                "time": 0
            },
            {
                "type": "note_on",
                "note": 62,
                "velocity": 0,
                "time": 0
            },
            {
                "type": "note_on",
                "note": 41,
                "velocity": 40,
                "time": 0
            },
            {
                "type": "note_on",
                "note": 41,
                "velocity": 0,
                "time": 194
            },
            {
                "type": "note_on",
                "note": 63,
                "velocity": 27,
                "time": 240
            },
            {
                "type": "note_on",
                "note": 60,
                "velocity": 22,
                "time": 0
            },
            {
                "type": "note_on",
                "note": 53,
                "velocity": 22,
                "time": 0
            },
            {
                "type": "note_on",
                "note": 53,
                "velocity": 0,
                "time": 480
            },
            {
                "type": "note_on",
                "note": 60,
                "velocity": 0,
                "time": 0
            },
            {
                "type": "note_on",
                "note": 63,
                "velocity": 0,
                "time": 0
            },
            {
                "type": "note_on",
                "note": 63,
                "velocity": 25,
                "time": 0
            },
            {
                "type": "note_on",
                "note": 60,
                "velocity": 21,
                "time": 0
            },
            {
                "type": "note_on",
                "note": 53,
                "velocity": 21,
                "time": 0
            },
            {
                "type": "note_on",
                "note": 53,
                "velocity": 0,
                "time": 472
            },
            {
                "type": "note_on",
                "note": 60,
                "velocity": 0,
                "time": 0
            },
            {
                "type": "note_on",
                "note": 63,
                "velocity": 0,
                "time": 0
            },
            {
                "type": "note_on",
                "note": 46,
                "velocity": 43,
                "time": 0
            },
            {
                "type": "note_on",
                "note": 46,
                "velocity": 0,
                "time": 155
            },
            {
                "type": "note_on",
                "note": 62,
                "velocity": 28,
                "time": 240
            },
            {
                "type": "note_on",
                "note": 58,
                "velocity": 23,
                "time": 0
            },
            {
                "type": "note_on",
                "note": 53,
                "velocity": 23,
                "time": 0
            },
            {
                "type": "note_on",
                "note": 53,
                "velocity": 0,
                "time": 480
            },
            {
                "type": "note_on",
                "note": 58,
                "velocity": 0,
                "time": 0
            },
            {
                "type": "note_on",
                "note": 62,
                "velocity": 0,
                "time": 0
            },
            {
                "type": "note_on",
                "note": 62,
                "velocity": 26,
                "time": 0
            },
            {
                "type": "note_on",
                "note": 58,
                "velocity": 22,
                "time": 0
            },
            {
                "type": "note_on",
                "note": 53,
                "velocity": 22,
                "time": 0
            },
            {
                "type": "note_on",
                "note": 53,
                "velocity": 0,
                "time": 470
            },
            {
                "type": "note_on",
                "note": 58,
                "velocity": 0,
                "time": 0
            },
            {
                "type": "note_on",
                "note": 62,
                "velocity": 0,
                "time": 0
            },
            {
                "type": "note_on",
                "note": 41,
                "velocity": 57,
                "time": 0
            },
            {
                "type": "note_on",
                "note": 41,
                "velocity": 0,
                "time": 166
            },
            {
                "type": "note_on",
                "note": 53,
                "velocity": 39,
                "time": 240
            },
            {
                "type": "note_on",
                "note": 63,
                "velocity": 47,
                "time": 0
            },
            {
                "type": "note_on",
                "note": 63,
                "velocity": 0,
                "time": 480
            },
            {
                "type": "note_on",
                "note": 53,
                "velocity": 0,
                "time": 0
            },
            {
                "type": "note_on",
                "note": 53,
                "velocity": 39,
                "time": 0
            },
            {
                "type": "note_on",
                "note": 57,
                "velocity": 39,
                "time": 0
            },
            {
                "type": "note_on",
                "note": 63,
                "velocity": 46,
                "time": 0
            },
            {
                "type": "note_on",
                "note": 63,
                "velocity": 0,
                "time": 468
            },
            {
                "type": "note_on",
                "note": 57,
                "velocity": 0,
                "time": 0
            },
            {
                "type": "note_on",
                "note": 53,
                "velocity": 0,
                "time": 0
            },
            {
                "type": "note_on",
                "note": 46,
                "velocity": 57,
                "time": 0
            },
            {
                "type": "note_on",
                "note": 46,
                "velocity": 0,
                "time": 176
            },
            {
                "type": "note_on",
                "note": 53,
                "velocity": 39,
                "time": 240
            },
            {
                "type": "note_on",
                "note": 58,
                "velocity": 39,
                "time": 0
            },
            {
                "type": "note_on",
                "note": 62,
                "velocity": 47,
                "time": 0
            },
            {
                "type": "note_on",
                "note": 62,
                "velocity": 0,
                "time": 480
            },
            {
                "type": "note_on",
                "note": 58,
                "velocity": 0,
                "time": 0
            },
            {
                "type": "note_on",
                "note": 53,
                "velocity": 0,
                "time": 0
            },
            {
                "type": "note_on",
                "note": 53,
                "velocity": 39,
                "time": 0
            },
            {
                "type": "note_on",
                "note": 58,
                "velocity": 39,
                "time": 0
            },
            {
                "type": "note_on",
                "note": 62,
                "velocity": 46,
                "time": 0
            },
            {
                "type": "note_on",
                "note": 62,
                "velocity": 0,
                "time": 468
            },
            {
                "type": "note_on",
                "note": 58,
                "velocity": 0,
                "time": 0
            },
            {
                "type": "note_on",
                "note": 53,
                "velocity": 0,
                "time": 0
            },
            {
                "type": "note_on",
                "note": 46,
                "velocity": 36,
                "time": 0
            },
            {
                "type": "note_on",
                "note": 46,
                "velocity": 0,
                "time": 194
            },
            {
                "type": "note_on",
                "note": 63,
                "velocity": 27,
                "time": 240
            },
            {
                "type": "note_on",
                "note": 60,
                "velocity": 22,
                "time": 0
            },
            {
                "type": "note_on",
                "note": 53,
                "velocity": 22,
                "time": 0
            },
            {
                "type": "note_on",
                "note": 53,
                "velocity": 0,
                "time": 480
            },
            {
                "type": "note_on",
                "note": 60,
                "velocity": 0,
                "time": 0
            },
            {
                "type": "note_on",
                "note": 63,
                "velocity": 0,
                "time": 0
            },
            {
                "type": "note_on",
                "note": 63,
                "velocity": 25,
                "time": 0
            },
            {
                "type": "note_on",
                "note": 60,
                "velocity": 21,
                "time": 0
            },
            {
                "type": "note_on",
                "note": 53,
                "velocity": 21,
                "time": 0
            },
            {
                "type": "note_on",
                "note": 53,
                "velocity": 0,
                "time": 476
            },
            {
                "type": "note_on",
                "note": 60,
                "velocity": 0,
                "time": 0
            },
            {
                "type": "note_on",
                "note": 63,
                "velocity": 0,
                "time": 0
            },
            {
                "type": "note_on",
                "note": 46,
                "velocity": 38,
                "time": 0
            },
            {
                "type": "note_on",
                "note": 46,
                "velocity": 0,
                "time": 155
            },
            {
                "type": "note_on",
                "note": 62,
                "velocity": 28,
                "time": 240
            },
            {
                "type": "note_on",
                "note": 58,
                "velocity": 23,
                "time": 0
            },
            {
                "type": "note_on",
                "note": 53,
                "velocity": 23,
                "time": 0
            },
            {
                "type": "note_on",
                "note": 53,
                "velocity": 0,
                "time": 480
            },
            {
                "type": "note_on",
                "note": 58,
                "velocity": 0,
                "time": 0
            },
            {
                "type": "note_on",
                "note": 62,
                "velocity": 0,
                "time": 0
            },
            {
                "type": "note_on",
                "note": 62,
                "velocity": 26,
                "time": 0
            },
            {
                "type": "note_on",
                "note": 58,
                "velocity": 22,
                "time": 0
            },
            {
                "type": "note_on",
                "note": 53,
                "velocity": 22,
                "time": 0
            },
            {
                "type": "note_on",
                "note": 53,
                "velocity": 0,
                "time": 480
            },
            {
                "type": "note_on",
                "note": 58,
                "velocity": 0,
                "time": 0
            },
            {
                "type": "note_on",
                "note": 62,
                "velocity": 0,
                "time": 0
            },
            {
                "type": "note_on",
                "note": 41,
                "velocity": 57,
                "time": 0
            },
            {
                "type": "note_on",
                "note": 41,
                "velocity": 0,
                "time": 166
            },
            {
                "type": "note_on",
                "note": 53,
                "velocity": 39,
                "time": 240
            },
            {
                "type": "note_on",
                "note": 63,
                "velocity": 47,
                "time": 0
            },
            {
                "type": "note_on",
                "note": 63,
                "velocity": 0,
                "time": 480
            },
            {
                "type": "note_on",
                "note": 53,
                "velocity": 0,
                "time": 0
            },
            {
                "type": "note_on",
                "note": 53,
                "velocity": 39,
                "time": 0
            },
            {
                "type": "note_on",
                "note": 57,
                "velocity": 39,
                "time": 0
            },
            {
                "type": "note_on",
                "note": 63,
                "velocity": 46,
                "time": 0
            },
            {
                "type": "note_on",
                "note": 63,
                "velocity": 0,
                "time": 427
            },
            {
                "type": "note_on",
                "note": 57,
                "velocity": 0,
                "time": 0
            },
            {
                "type": "note_on",
                "note": 53,
                "velocity": 0,
                "time": 0
            },
            {
                "type": "note_on",
                "note": 46,
                "velocity": 57,
                "time": 0
            },
            {
                "type": "note_on",
                "note": 46,
                "velocity": 0,
                "time": 99
            },
            {
                "type": "note_on",
                "note": 53,
                "velocity": 39,
                "time": 240
            },
            {
                "type": "note_on",
                "note": 58,
                "velocity": 39,
                "time": 0
            },
            {
                "type": "note_on",
                "note": 62,
                "velocity": 47,
                "time": 0
            },
            {
                "type": "note_on",
                "note": 62,
                "velocity": 0,
                "time": 480
            },
            {
                "type": "note_on",
                "note": 58,
                "velocity": 0,
                "time": 0
            },
            {
                "type": "note_on",
                "note": 53,
                "velocity": 0,
                "time": 0
            },
            {
                "type": "note_on",
                "note": 41,
                "velocity": 70,
                "time": 472
            },
            {
                "type": "note_on",
                "note": 41,
                "velocity": 0,
                "time": 120
            },
            {
                "type": "note_on",
                "note": 63,
                "velocity": 59,
                "time": 240
            },
            {
                "type": "note_on",
                "note": 60,
                "velocity": 50,
                "time": 0
            },
            {
                "type": "note_on",
                "note": 53,
                "velocity": 50,
                "time": 0
            },
            {
                "type": "note_on",
                "note": 53,
                "velocity": 0,
                "time": 480
            },
            {
                "type": "note_on",
                "note": 60,
                "velocity": 0,
                "time": 0
            },
            {
                "type": "note_on",
                "note": 63,
                "velocity": 0,
                "time": 0
            },
            {
                "type": "note_on",
                "note": 63,
                "velocity": 60,
                "time": 0
            },
            {
                "type": "note_on",
                "note": 60,
                "velocity": 51,
                "time": 0
            },
            {
                "type": "note_on",
                "note": 53,
                "velocity": 51,
                "time": 0
            },
            {
                "type": "note_on",
                "note": 53,
                "velocity": 0,
                "time": 473
            },
            {
                "type": "note_on",
                "note": 60,
                "velocity": 0,
                "time": 0
            },
            {
                "type": "note_on",
                "note": 63,
                "velocity": 0,
                "time": 0
            },
            {
                "type": "note_on",
                "note": 46,
                "velocity": 70,
                "time": 0
            },
            {
                "type": "note_on",
                "note": 46,
                "velocity": 0,
                "time": 99
            },
            {
                "type": "note_on",
                "note": 62,
                "velocity": 52,
                "time": 240
            },
            {
                "type": "note_on",
                "note": 58,
                "velocity": 52,
                "time": 0
            },
            {
                "type": "note_on",
                "note": 53,
                "velocity": 52,
                "time": 0
            },
            {
                "type": "note_on",
                "note": 53,
                "velocity": 0,
                "time": 480
            },
            {
                "type": "note_on",
                "note": 58,
                "velocity": 0,
                "time": 0
            },
            {
                "type": "note_on",
                "note": 62,
                "velocity": 0,
                "time": 0
            },
            {
                "type": "note_on",
                "note": 46,
                "velocity": 62,
                "time": 0
            },
            {
                "type": "note_on",
                "note": 46,
                "velocity": 0,
                "time": 222
            },
            {
                "type": "note_on",
                "note": 39,
                "velocity": 68,
                "time": 240
            },
            {
                "type": "note_on",
                "note": 51,
                "velocity": 80,
                "time": 0
            },
            {
                "type": "note_on",
                "note": 51,
                "velocity": 0,
                "time": 312
            },
            {
                "type": "note_on",
                "note": 39,
                "velocity": 0,
                "time": 0
            },
            {
                "type": "note_on",
                "note": 55,
                "velocity": 59,
                "time": 0
            },
            {
                "type": "note_on",
                "note": 58,
                "velocity": 59,
                "time": 30
            },
            {
                "type": "note_on",
                "note": 63,
                "velocity": 59,
                "time": 30
            },
            {
                "type": "note_on",
                "note": 67,
                "velocity": 70,
                "time": 30
            },
            {
                "type": "note_on",
                "note": 67,
                "velocity": 0,
                "time": 480
            },
            {
                "type": "note_on",
                "note": 55,
                "velocity": 0,
                "time": 0
            },
            {
                "type": "note_on",
                "note": 58,
                "velocity": 0,
                "time": 0
            },
            {
                "type": "note_on",
                "note": 63,
                "velocity": 0,
                "time": 0
            },
            {
                "type": "note_on",
                "note": 46,
                "velocity": 43,
                "time": 468
            },
            {
                "type": "note_on",
                "note": 46,
                "velocity": 0,
                "time": 173
            },
            {
                "type": "note_on",
                "note": 62,
                "velocity": 28,
                "time": 240
            },
            {
                "type": "note_on",
                "note": 58,
                "velocity": 23,
                "time": 0
            },
            {
                "type": "note_on",
                "note": 53,
                "velocity": 23,
                "time": 0
            },
            {
                "type": "note_on",
                "note": 53,
                "velocity": 0,
                "time": 480
            },
            {
                "type": "note_on",
                "note": 58,
                "velocity": 0,
                "time": 0
            },
            {
                "type": "note_on",
                "note": 62,
                "velocity": 0,
                "time": 0
            },
            {
                "type": "note_on",
                "note": 62,
                "velocity": 26,
                "time": 0
            },
            {
                "type": "note_on",
                "note": 58,
                "velocity": 22,
                "time": 0
            },
            {
                "type": "note_on",
                "note": 53,
                "velocity": 22,
                "time": 0
            },
            {
                "type": "note_on",
                "note": 53,
                "velocity": 0,
                "time": 470
            },
            {
                "type": "note_on",
                "note": 58,
                "velocity": 0,
                "time": 0
            },
            {
                "type": "note_on",
                "note": 62,
                "velocity": 0,
                "time": 0
            },
            {
                "type": "note_on",
                "note": 41,
                "velocity": 40,
                "time": 0
            },
            {
                "type": "note_on",
                "note": 41,
                "velocity": 0,
                "time": 194
            },
            {
                "type": "note_on",
                "note": 63,
                "velocity": 27,
                "time": 240
            },
            {
                "type": "note_on",
                "note": 60,
                "velocity": 22,
                "time": 0
            },
            {
                "type": "note_on",
                "note": 53,
                "velocity": 22,
                "time": 0
            },
            {
                "type": "note_on",
                "note": 53,
                "velocity": 0,
                "time": 480
            },
            {
                "type": "note_on",
                "note": 60,
                "velocity": 0,
                "time": 0
            },
            {
                "type": "note_on",
                "note": 63,
                "velocity": 0,
                "time": 0
            },
            {
                "type": "note_on",
                "note": 63,
                "velocity": 25,
                "time": 0
            },
            {
                "type": "note_on",
                "note": 60,
                "velocity": 21,
                "time": 0
            },
            {
                "type": "note_on",
                "note": 53,
                "velocity": 21,
                "time": 0
            },
            {
                "type": "note_on",
                "note": 53,
                "velocity": 0,
                "time": 469
            },
            {
                "type": "note_on",
                "note": 60,
                "velocity": 0,
                "time": 0
            },
            {
                "type": "note_on",
                "note": 63,
                "velocity": 0,
                "time": 0
            },
            {
                "type": "note_on",
                "note": 46,
                "velocity": 43,
                "time": 0
            },
            {
                "type": "note_on",
                "note": 46,
                "velocity": 0,
                "time": 155
            },
            {
                "type": "note_on",
                "note": 62,
                "velocity": 28,
                "time": 240
            },
            {
                "type": "note_on",
                "note": 58,
                "velocity": 23,
                "time": 0
            },
            {
                "type": "note_on",
                "note": 53,
                "velocity": 23,
                "time": 0
            },
            {
                "type": "note_on",
                "note": 53,
                "velocity": 0,
                "time": 480
            },
            {
                "type": "note_on",
                "note": 58,
                "velocity": 0,
                "time": 0
            },
            {
                "type": "note_on",
                "note": 62,
                "velocity": 0,
                "time": 0
            },
            {
                "type": "note_on",
                "note": 62,
                "velocity": 26,
                "time": 0
            },
            {
                "type": "note_on",
                "note": 58,
                "velocity": 22,
                "time": 0
            },
            {
                "type": "note_on",
                "note": 53,
                "velocity": 22,
                "time": 0
            },
            {
                "type": "note_on",
                "note": 53,
                "velocity": 0,
                "time": 480
            },
            {
                "type": "note_on",
                "note": 58,
                "velocity": 0,
                "time": 0
            },
            {
                "type": "note_on",
                "note": 62,
                "velocity": 0,
                "time": 0
            },
            {
                "type": "note_on",
                "note": 41,
                "velocity": 57,
                "time": 0
            },
            {
                "type": "note_on",
                "note": 41,
                "velocity": 0,
                "time": 166
            },
            {
                "type": "note_on",
                "note": 53,
                "velocity": 39,
                "time": 240
            },
            {
                "type": "note_on",
                "note": 63,
                "velocity": 47,
                "time": 0
            },
            {
                "type": "note_on",
                "note": 63,
                "velocity": 0,
                "time": 480
            },
            {
                "type": "note_on",
                "note": 53,
                "velocity": 0,
                "time": 0
            },
            {
                "type": "note_on",
                "note": 53,
                "velocity": 39,
                "time": 0
            },
            {
                "type": "note_on",
                "note": 57,
                "velocity": 39,
                "time": 0
            },
            {
                "type": "note_on",
                "note": 63,
                "velocity": 46,
                "time": 0
            },
            {
                "type": "note_on",
                "note": 63,
                "velocity": 0,
                "time": 468
            },
            {
                "type": "note_on",
                "note": 57,
                "velocity": 0,
                "time": 0
            },
            {
                "type": "note_on",
                "note": 53,
                "velocity": 0,
                "time": 0
            },
            {
                "type": "note_on",
                "note": 46,
                "velocity": 51,
                "time": 0
            },
            {
                "type": "note_on",
                "note": 46,
                "velocity": 0,
                "time": 176
            },
            {
                "type": "note_on",
                "note": 53,
                "velocity": 31,
                "time": 240
            },
            {
                "type": "note_on",
                "note": 58,
                "velocity": 31,
                "time": 0
            },
            {
                "type": "note_on",
                "note": 62,
                "velocity": 37,
                "time": 0
            },
            {
                "type": "note_on",
                "note": 62,
                "velocity": 0,
                "time": 480
            },
            {
                "type": "note_on",
                "note": 58,
                "velocity": 0,
                "time": 0
            },
            {
                "type": "note_on",
                "note": 53,
                "velocity": 0,
                "time": 0
            },
            {
                "type": "note_on",
                "note": 53,
                "velocity": 31,
                "time": 0
            },
            {
                "type": "note_on",
                "note": 58,
                "velocity": 31,
                "time": 0
            },
            {
                "type": "note_on",
                "note": 62,
                "velocity": 36,
                "time": 0
            },
            {
                "type": "note_on",
                "note": 62,
                "velocity": 0,
                "time": 470
            },
            {
                "type": "note_on",
                "note": 58,
                "velocity": 0,
                "time": 0
            },
            {
                "type": "note_on",
                "note": 53,
                "velocity": 0,
                "time": 0
            },
            {
                "type": "note_on",
                "note": 46,
                "velocity": 40,
                "time": 0
            },
            {
                "type": "note_on",
                "note": 46,
                "velocity": 0,
                "time": 194
            },
            {
                "type": "note_on",
                "note": 63,
                "velocity": 27,
                "time": 240
            },
            {
                "type": "note_on",
                "note": 60,
                "velocity": 22,
                "time": 0
            },
            {
                "type": "note_on",
                "note": 53,
                "velocity": 22,
                "time": 0
            },
            {
                "type": "note_on",
                "note": 53,
                "velocity": 0,
                "time": 480
            },
            {
                "type": "note_on",
                "note": 60,
                "velocity": 0,
                "time": 0
            },
            {
                "type": "note_on",
                "note": 63,
                "velocity": 0,
                "time": 0
            },
            {
                "type": "note_on",
                "note": 63,
                "velocity": 25,
                "time": 0
            },
            {
                "type": "note_on",
                "note": 60,
                "velocity": 21,
                "time": 0
            },
            {
                "type": "note_on",
                "note": 53,
                "velocity": 21,
                "time": 0
            },
            {
                "type": "note_on",
                "note": 53,
                "velocity": 0,
                "time": 468
            },
            {
                "type": "note_on",
                "note": 60,
                "velocity": 0,
                "time": 0
            },
            {
                "type": "note_on",
                "note": 63,
                "velocity": 0,
                "time": 0
            },
            {
                "type": "note_on",
                "note": 46,
                "velocity": 43,
                "time": 0
            },
            {
                "type": "note_on",
                "note": 46,
                "velocity": 0,
                "time": 155
            },
            {
                "type": "note_on",
                "note": 62,
                "velocity": 28,
                "time": 240
            },
            {
                "type": "note_on",
                "note": 58,
                "velocity": 23,
                "time": 0
            },
            {
                "type": "note_on",
                "note": 53,
                "velocity": 23,
                "time": 0
            },
            {
                "type": "note_on",
                "note": 53,
                "velocity": 0,
                "time": 480
            },
            {
                "type": "note_on",
                "note": 58,
                "velocity": 0,
                "time": 0
            },
            {
                "type": "note_on",
                "note": 62,
                "velocity": 0,
                "time": 0
            },
            {
                "type": "note_on",
                "note": 62,
                "velocity": 26,
                "time": 0
            },
            {
                "type": "note_on",
                "note": 58,
                "velocity": 22,
                "time": 0
            },
            {
                "type": "note_on",
                "note": 53,
                "velocity": 22,
                "time": 0
            },
            {
                "type": "note_on",
                "note": 53,
                "velocity": 0,
                "time": 480
            },
            {
                "type": "note_on",
                "note": 58,
                "velocity": 0,
                "time": 0
            },
            {
                "type": "note_on",
                "note": 62,
                "velocity": 0,
                "time": 0
            },
            {
                "type": "note_on",
                "note": 41,
                "velocity": 57,
                "time": 0
            },
            {
                "type": "note_on",
                "note": 41,
                "velocity": 0,
                "time": 166
            },
            {
                "type": "note_on",
                "note": 53,
                "velocity": 39,
                "time": 240
            },
            {
                "type": "note_on",
                "note": 63,
                "velocity": 47,
                "time": 0
            },
            {
                "type": "note_on",
                "note": 63,
                "velocity": 0,
                "time": 480
            },
            {
                "type": "note_on",
                "note": 53,
                "velocity": 0,
                "time": 0
            },
            {
                "type": "note_on",
                "note": 53,
                "velocity": 39,
                "time": 0
            },
            {
                "type": "note_on",
                "note": 57,
                "velocity": 39,
                "time": 0
            },
            {
                "type": "note_on",
                "note": 63,
                "velocity": 46,
                "time": 0
            },
            {
                "type": "note_on",
                "note": 63,
                "velocity": 0,
                "time": 416
            },
            {
                "type": "note_on",
                "note": 57,
                "velocity": 0,
                "time": 0
            },
            {
                "type": "note_on",
                "note": 53,
                "velocity": 0,
                "time": 0
            },
            {
                "type": "note_on",
                "note": 46,
                "velocity": 57,
                "time": 0
            },
            {
                "type": "note_on",
                "note": 46,
                "velocity": 0,
                "time": 127
            },
            {
                "type": "note_on",
                "note": 53,
                "velocity": 39,
                "time": 240
            },
            {
                "type": "note_on",
                "note": 58,
                "velocity": 39,
                "time": 0
            },
            {
                "type": "note_on",
                "note": 62,
                "velocity": 47,
                "time": 0
            },
            {
                "type": "note_on",
                "note": 62,
                "velocity": 0,
                "time": 480
            },
            {
                "type": "note_on",
                "note": 58,
                "velocity": 0,
                "time": 0
            },
            {
                "type": "note_on",
                "note": 53,
                "velocity": 0,
                "time": 0
            },
            {
                "type": "note_on",
                "note": 41,
                "velocity": 37,
                "time": 469
            },
            {
                "type": "note_on",
                "note": 41,
                "velocity": 0,
                "time": 480
            },
            {
                "type": "note_on",
                "note": 48,
                "velocity": 25,
                "time": 0
            },
            {
                "type": "note_on",
                "note": 57,
                "velocity": 30,
                "time": 0
            },
            {
                "type": "note_on",
                "note": 57,
                "velocity": 0,
                "time": 480
            },
            {
                "type": "note_on",
                "note": 48,
                "velocity": 0,
                "time": 0
            },
            {
                "type": "note_on",
                "note": 48,
                "velocity": 28,
                "time": 0
            },
            {
                "type": "note_on",
                "note": 57,
                "velocity": 34,
                "time": 0
            },
            {
                "type": "note_on",
                "note": 57,
                "velocity": 0,
                "time": 480
            },
            {
                "type": "note_on",
                "note": 48,
                "velocity": 0,
                "time": 0
            },
            {
                "type": "note_on",
                "note": 41,
                "velocity": 42,
                "time": 0
            },
            {
                "type": "note_on",
                "note": 41,
                "velocity": 0,
                "time": 480
            },
            {
                "type": "note_on",
                "note": 50,
                "velocity": 32,
                "time": 0
            },
            {
                "type": "note_on",
                "note": 58,
                "velocity": 38,
                "time": 0
            },
            {
                "type": "note_on",
                "note": 58,
                "velocity": 0,
                "time": 480
            },
            {
                "type": "note_on",
                "note": 50,
                "velocity": 0,
                "time": 0
            },
            {
                "type": "note_on",
                "note": 50,
                "velocity": 33,
                "time": 0
            },
            {
                "type": "note_on",
                "note": 58,
                "velocity": 39,
                "time": 0
            },
            {
                "type": "note_on",
                "note": 58,
                "velocity": 0,
                "time": 480
            },
            {
                "type": "note_on",
                "note": 50,
                "velocity": 0,
                "time": 0
            },
            {
                "type": "note_on",
                "note": 41,
                "velocity": 42,
                "time": 0
            },
            {
                "type": "note_on",
                "note": 41,
                "velocity": 0,
                "time": 480
            },
            {
                "type": "note_on",
                "note": 48,
                "velocity": 32,
                "time": 0
            },
            {
                "type": "note_on",
                "note": 57,
                "velocity": 38,
                "time": 0
            },
            {
                "type": "note_on",
                "note": 57,
                "velocity": 0,
                "time": 480
            },
            {
                "type": "note_on",
                "note": 48,
                "velocity": 0,
                "time": 0
            },
            {
                "type": "note_on",
                "note": 48,
                "velocity": 32,
                "time": 0
            },
            {
                "type": "note_on",
                "note": 57,
                "velocity": 38,
                "time": 0
            },
            {
                "type": "note_on",
                "note": 57,
                "velocity": 0,
                "time": 480
            },
            {
                "type": "note_on",
                "note": 48,
                "velocity": 0,
                "time": 0
            },
            {
                "type": "note_on",
                "note": 41,
                "velocity": 39,
                "time": 0
            },
            {
                "type": "note_on",
                "note": 41,
                "velocity": 0,
                "time": 240
            },
            {
                "type": "note_on",
                "note": 50,
                "velocity": 28,
                "time": 240
            },
            {
                "type": "note_on",
                "note": 58,
                "velocity": 34,
                "time": 0
            },
            {
                "type": "note_on",
                "note": 58,
                "velocity": 0,
                "time": 240
            },
            {
                "type": "note_on",
                "note": 50,
                "velocity": 0,
                "time": 0
            },
            {
                "type": "note_on",
                "note": 41,
                "velocity": 34,
                "time": 240
            },
            {
                "type": "note_on",
                "note": 41,
                "velocity": 0,
                "time": 240
            },
            {
                "type": "note_on",
                "note": 48,
                "velocity": 31,
                "time": 240
            },
            {
                "type": "note_on",
                "note": 57,
                "velocity": 37,
                "time": 0
            },
            {
                "type": "note_on",
                "note": 57,
                "velocity": 0,
                "time": 240
            },
            {
                "type": "note_on",
                "note": 48,
                "velocity": 0,
                "time": 0
            },
            {
                "type": "note_on",
                "note": 41,
                "velocity": 34,
                "time": 240
            },
            {
                "type": "note_on",
                "note": 41,
                "velocity": 0,
                "time": 240
            },
            {
                "type": "note_on",
                "note": 48,
                "velocity": 28,
                "time": 240
            },
            {
                "type": "note_on",
                "note": 57,
                "velocity": 34,
                "time": 0
            },
            {
                "type": "note_on",
                "note": 57,
                "velocity": 0,
                "time": 240
            },
            {
                "type": "note_on",
                "note": 48,
                "velocity": 0,
                "time": 0
            },
            {
                "type": "note_on",
                "note": 41,
                "velocity": 42,
                "time": 240
            },
            {
                "type": "note_on",
                "note": 41,
                "velocity": 0,
                "time": 240
            },
            {
                "type": "note_on",
                "note": 50,
                "velocity": 32,
                "time": 240
            },
            {
                "type": "note_on",
                "note": 58,
                "velocity": 38,
                "time": 0
            },
            {
                "type": "note_on",
                "note": 58,
                "velocity": 0,
                "time": 212
            },
            {
                "type": "note_on",
                "note": 50,
                "velocity": 0,
                "time": 0
            },
            {
                "type": "note_on",
                "note": 41,
                "velocity": 34,
                "time": 240
            },
            {
                "type": "note_on",
                "note": 41,
                "velocity": 0,
                "time": 236
            },
            {
                "type": "note_on",
                "note": 48,
                "velocity": 32,
                "time": 240
            },
            {
                "type": "note_on",
                "note": 57,
                "velocity": 38,
                "time": 0
            },
            {
                "type": "note_on",
                "note": 57,
                "velocity": 0,
                "time": 240
            },
            {
                "type": "note_on",
                "note": 48,
                "velocity": 0,
                "time": 0
            },
            {
                "type": "note_on",
                "note": 41,
                "velocity": 34,
                "time": 240
            },
            {
                "type": "note_on",
                "note": 41,
                "velocity": 0,
                "time": 240
            },
            {
                "type": "note_on",
                "note": 48,
                "velocity": 38,
                "time": 240
            },
            {
                "type": "note_on",
                "note": 57,
                "velocity": 45,
                "time": 0
            },
            {
                "type": "note_on",
                "note": 57,
                "velocity": 0,
                "time": 480
            },
            {
                "type": "note_on",
                "note": 52,
                "velocity": 38,
                "time": 0
            },
            {
                "type": "note_on",
                "note": 58,
                "velocity": 45,
                "time": 0
            },
            {
                "type": "note_on",
                "note": 58,
                "velocity": 0,
                "time": 480
            },
            {
                "type": "note_on",
                "note": 52,
                "velocity": 0,
                "time": 0
            },
            {
                "type": "note_on",
                "note": 48,
                "velocity": 0,
                "time": 0
            },
            {
                "type": "note_on",
                "note": 53,
                "velocity": 38,
                "time": 0
            },
            {
                "type": "note_on",
                "note": 57,
                "velocity": 45,
                "time": 0
            },
            {
                "type": "note_on",
                "note": 57,
                "velocity": 0,
                "time": 321
            },
            {
                "type": "note_on",
                "note": 53,
                "velocity": 0,
                "time": 0
            },
            {
                "type": "note_on",
                "note": 41,
                "velocity": 70,
                "time": 0
            },
            {
                "type": "note_on",
                "note": 41,
                "velocity": 0,
                "time": 120
            },
            {
                "type": "note_on",
                "note": 63,
                "velocity": 59,
                "time": 240
            },
            {
                "type": "note_on",
                "note": 60,
                "velocity": 50,
                "time": 0
            },
            {
                "type": "note_on",
                "note": 53,
                "velocity": 50,
                "time": 0
            },
            {
                "type": "note_on",
                "note": 53,
                "velocity": 0,
                "time": 480
            },
            {
                "type": "note_on",
                "note": 60,
                "velocity": 0,
                "time": 0
            },
            {
                "type": "note_on",
                "note": 63,
                "velocity": 0,
                "time": 0
            },
            {
                "type": "note_on",
                "note": 63,
                "velocity": 60,
                "time": 0
            },
            {
                "type": "note_on",
                "note": 60,
                "velocity": 51,
                "time": 0
            },
            {
                "type": "note_on",
                "note": 53,
                "velocity": 51,
                "time": 0
            },
            {
                "type": "note_on",
                "note": 53,
                "velocity": 0,
                "time": 473
            },
            {
                "type": "note_on",
                "note": 60,
                "velocity": 0,
                "time": 0
            },
            {
                "type": "note_on",
                "note": 63,
                "velocity": 0,
                "time": 0
            },
            {
                "type": "note_on",
                "note": 46,
                "velocity": 70,
                "time": 0
            },
            {
                "type": "note_on",
                "note": 46,
                "velocity": 0,
                "time": 99
            },
            {
                "type": "note_on",
                "note": 62,
                "velocity": 52,
                "time": 240
            },
            {
                "type": "note_on",
                "note": 58,
                "velocity": 52,
                "time": 0
            },
            {
                "type": "note_on",
                "note": 53,
                "velocity": 52,
                "time": 0
            },
            {
                "type": "note_on",
                "note": 53,
                "velocity": 0,
                "time": 480
            },
            {
                "type": "note_on",
                "note": 58,
                "velocity": 0,
                "time": 0
            },
            {
                "type": "note_on",
                "note": 62,
                "velocity": 0,
                "time": 0
            },
            {
                "type": "note_on",
                "note": 46,
                "velocity": 62,
                "time": 0
            },
            {
                "type": "note_on",
                "note": 46,
                "velocity": 0,
                "time": 221
            },
            {
                "type": "note_on",
                "note": 39,
                "velocity": 68,
                "time": 240
            },
            {
                "type": "note_on",
                "note": 51,
                "velocity": 80,
                "time": 0
            },
            {
                "type": "note_on",
                "note": 51,
                "velocity": 0,
                "time": 312
            },
            {
                "type": "note_on",
                "note": 39,
                "velocity": 0,
                "time": 0
            },
            {
                "type": "note_on",
                "note": 55,
                "velocity": 59,
                "time": 0
            },
            {
                "type": "note_on",
                "note": 58,
                "velocity": 59,
                "time": 30
            },
            {
                "type": "note_on",
                "note": 63,
                "velocity": 59,
                "time": 30
            },
            {
                "type": "note_on",
                "note": 67,
                "velocity": 70,
                "time": 30
            },
            {
                "type": "note_on",
                "note": 67,
                "velocity": 0,
                "time": 480
            },
            {
                "type": "note_on",
                "note": 55,
                "velocity": 0,
                "time": 0
            },
            {
                "type": "note_on",
                "note": 58,
                "velocity": 0,
                "time": 0
            },
            {
                "type": "note_on",
                "note": 63,
                "velocity": 0,
                "time": 0
            },
            {
                "type": "note_on",
                "note": 46,
                "velocity": 48,
                "time": 468
            },
            {
                "type": "note_on",
                "note": 46,
                "velocity": 0,
                "time": 166
            },
            {
                "type": "note_on",
                "note": 62,
                "velocity": 31,
                "time": 240
            },
            {
                "type": "note_on",
                "note": 58,
                "velocity": 27,
                "time": 0
            },
            {
                "type": "note_on",
                "note": 53,
                "velocity": 27,
                "time": 0
            },
            {
                "type": "note_on",
                "note": 53,
                "velocity": 0,
                "time": 480
            },
            {
                "type": "note_on",
                "note": 58,
                "velocity": 0,
                "time": 0
            },
            {
                "type": "note_on",
                "note": 62,
                "velocity": 0,
                "time": 0
            },
            {
                "type": "note_on",
                "note": 62,
                "velocity": 29,
                "time": 0
            },
            {
                "type": "note_on",
                "note": 58,
                "velocity": 24,
                "time": 0
            },
            {
                "type": "note_on",
                "note": 53,
                "velocity": 24,
                "time": 0
            },
            {
                "type": "note_on",
                "note": 53,
                "velocity": 0,
                "time": 471
            },
            {
                "type": "note_on",
                "note": 58,
                "velocity": 0,
                "time": 0
            },
            {
                "type": "note_on",
                "note": 62,
                "velocity": 0,
                "time": 0
            },
            {
                "type": "note_on",
                "note": 41,
                "velocity": 45,
                "time": 0
            },
            {
                "type": "note_on",
                "note": 41,
                "velocity": 0,
                "time": 194
            },
            {
                "type": "note_on",
                "note": 63,
                "velocity": 30,
                "time": 240
            },
            {
                "type": "note_on",
                "note": 60,
                "velocity": 26,
                "time": 0
            },
            {
                "type": "note_on",
                "note": 53,
                "velocity": 26,
                "time": 0
            },
            {
                "type": "note_on",
                "note": 53,
                "velocity": 0,
                "time": 480
            },
            {
                "type": "note_on",
                "note": 60,
                "velocity": 0,
                "time": 0
            },
            {
                "type": "note_on",
                "note": 63,
                "velocity": 0,
                "time": 0
            },
            {
                "type": "note_on",
                "note": 63,
                "velocity": 28,
                "time": 0
            },
            {
                "type": "note_on",
                "note": 60,
                "velocity": 23,
                "time": 0
            },
            {
                "type": "note_on",
                "note": 53,
                "velocity": 23,
                "time": 0
            },
            {
                "type": "note_on",
                "note": 53,
                "velocity": 0,
                "time": 470
            },
            {
                "type": "note_on",
                "note": 60,
                "velocity": 0,
                "time": 0
            },
            {
                "type": "note_on",
                "note": 63,
                "velocity": 0,
                "time": 0
            },
            {
                "type": "note_on",
                "note": 46,
                "velocity": 48,
                "time": 0
            },
            {
                "type": "note_on",
                "note": 46,
                "velocity": 0,
                "time": 155
            },
            {
                "type": "note_on",
                "note": 62,
                "velocity": 31,
                "time": 240
            },
            {
                "type": "note_on",
                "note": 58,
                "velocity": 27,
                "time": 0
            },
            {
                "type": "note_on",
                "note": 53,
                "velocity": 27,
                "time": 0
            },
            {
                "type": "note_on",
                "note": 53,
                "velocity": 0,
                "time": 480
            },
            {
                "type": "note_on",
                "note": 58,
                "velocity": 0,
                "time": 0
            },
            {
                "type": "note_on",
                "note": 62,
                "velocity": 0,
                "time": 0
            },
            {
                "type": "note_on",
                "note": 62,
                "velocity": 29,
                "time": 0
            },
            {
                "type": "note_on",
                "note": 58,
                "velocity": 24,
                "time": 0
            },
            {
                "type": "note_on",
                "note": 53,
                "velocity": 24,
                "time": 0
            },
            {
                "type": "note_on",
                "note": 53,
                "velocity": 0,
                "time": 480
            },
            {
                "type": "note_on",
                "note": 58,
                "velocity": 0,
                "time": 0
            },
            {
                "type": "note_on",
                "note": 62,
                "velocity": 0,
                "time": 0
            },
            {
                "type": "note_on",
                "note": 41,
                "velocity": 57,
                "time": 0
            },
            {
                "type": "note_on",
                "note": 41,
                "velocity": 0,
                "time": 166
            },
            {
                "type": "note_on",
                "note": 53,
                "velocity": 39,
                "time": 240
            },
            {
                "type": "note_on",
                "note": 63,
                "velocity": 47,
                "time": 0
            },
            {
                "type": "note_on",
                "note": 63,
                "velocity": 0,
                "time": 480
            },
            {
                "type": "note_on",
                "note": 53,
                "velocity": 0,
                "time": 0
            },
            {
                "type": "note_on",
                "note": 53,
                "velocity": 39,
                "time": 0
            },
            {
                "type": "note_on",
                "note": 57,
                "velocity": 39,
                "time": 0
            },
            {
                "type": "note_on",
                "note": 63,
                "velocity": 46,
                "time": 0
            },
            {
                "type": "note_on",
                "note": 63,
                "velocity": 0,
                "time": 467
            },
            {
                "type": "note_on",
                "note": 57,
                "velocity": 0,
                "time": 0
            },
            {
                "type": "note_on",
                "note": 53,
                "velocity": 0,
                "time": 0
            },
            {
                "type": "note_on",
                "note": 46,
                "velocity": 57,
                "time": 0
            },
            {
                "type": "note_on",
                "note": 46,
                "velocity": 0,
                "time": 176
            },
            {
                "type": "note_on",
                "note": 53,
                "velocity": 39,
                "time": 240
            },
            {
                "type": "note_on",
                "note": 58,
                "velocity": 39,
                "time": 0
            },
            {
                "type": "note_on",
                "note": 62,
                "velocity": 47,
                "time": 0
            },
            {
                "type": "note_on",
                "note": 62,
                "velocity": 0,
                "time": 480
            },
            {
                "type": "note_on",
                "note": 58,
                "velocity": 0,
                "time": 0
            },
            {
                "type": "note_on",
                "note": 53,
                "velocity": 0,
                "time": 0
            },
            {
                "type": "note_on",
                "note": 53,
                "velocity": 39,
                "time": 0
            },
            {
                "type": "note_on",
                "note": 58,
                "velocity": 39,
                "time": 0
            },
            {
                "type": "note_on",
                "note": 62,
                "velocity": 46,
                "time": 0
            },
            {
                "type": "note_on",
                "note": 62,
                "velocity": 0,
                "time": 467
            },
            {
                "type": "note_on",
                "note": 58,
                "velocity": 0,
                "time": 0
            },
            {
                "type": "note_on",
                "note": 53,
                "velocity": 0,
                "time": 0
            },
            {
                "type": "note_on",
                "note": 46,
                "velocity": 40,
                "time": 0
            },
            {
                "type": "note_on",
                "note": 46,
                "velocity": 0,
                "time": 194
            },
            {
                "type": "note_on",
                "note": 63,
                "velocity": 27,
                "time": 240
            },
            {
                "type": "note_on",
                "note": 60,
                "velocity": 22,
                "time": 0
            },
            {
                "type": "note_on",
                "note": 53,
                "velocity": 22,
                "time": 0
            },
            {
                "type": "note_on",
                "note": 53,
                "velocity": 0,
                "time": 480
            },
            {
                "type": "note_on",
                "note": 60,
                "velocity": 0,
                "time": 0
            },
            {
                "type": "note_on",
                "note": 63,
                "velocity": 0,
                "time": 0
            },
            {
                "type": "note_on",
                "note": 63,
                "velocity": 25,
                "time": 0
            },
            {
                "type": "note_on",
                "note": 60,
                "velocity": 21,
                "time": 0
            },
            {
                "type": "note_on",
                "note": 53,
                "velocity": 21,
                "time": 0
            },
            {
                "type": "note_on",
                "note": 53,
                "velocity": 0,
                "time": 474
            },
            {
                "type": "note_on",
                "note": 60,
                "velocity": 0,
                "time": 0
            },
            {
                "type": "note_on",
                "note": 63,
                "velocity": 0,
                "time": 0
            },
            {
                "type": "note_on",
                "note": 46,
                "velocity": 43,
                "time": 0
            },
            {
                "type": "note_on",
                "note": 46,
                "velocity": 0,
                "time": 155
            },
            {
                "type": "note_on",
                "note": 62,
                "velocity": 28,
                "time": 240
            },
            {
                "type": "note_on",
                "note": 58,
                "velocity": 23,
                "time": 0
            },
            {
                "type": "note_on",
                "note": 53,
                "velocity": 23,
                "time": 0
            },
            {
                "type": "note_on",
                "note": 53,
                "velocity": 0,
                "time": 480
            },
            {
                "type": "note_on",
                "note": 58,
                "velocity": 0,
                "time": 0
            },
            {
                "type": "note_on",
                "note": 62,
                "velocity": 0,
                "time": 0
            },
            {
                "type": "note_on",
                "note": 62,
                "velocity": 26,
                "time": 0
            },
            {
                "type": "note_on",
                "note": 58,
                "velocity": 22,
                "time": 0
            },
            {
                "type": "note_on",
                "note": 53,
                "velocity": 22,
                "time": 0
            },
            {
                "type": "note_on",
                "note": 53,
                "velocity": 0,
                "time": 480
            },
            {
                "type": "note_on",
                "note": 58,
                "velocity": 0,
                "time": 0
            },
            {
                "type": "note_on",
                "note": 62,
                "velocity": 0,
                "time": 0
            },
            {
                "type": "note_on",
                "note": 41,
                "velocity": 57,
                "time": 0
            },
            {
                "type": "note_on",
                "note": 41,
                "velocity": 0,
                "time": 166
            },
            {
                "type": "note_on",
                "note": 53,
                "velocity": 39,
                "time": 240
            },
            {
                "type": "note_on",
                "note": 63,
                "velocity": 47,
                "time": 0
            },
            {
                "type": "note_on",
                "note": 63,
                "velocity": 0,
                "time": 480
            },
            {
                "type": "note_on",
                "note": 53,
                "velocity": 0,
                "time": 0
            },
            {
                "type": "note_on",
                "note": 53,
                "velocity": 39,
                "time": 0
            },
            {
                "type": "note_on",
                "note": 57,
                "velocity": 39,
                "time": 0
            },
            {
                "type": "note_on",
                "note": 63,
                "velocity": 46,
                "time": 0
            },
            {
                "type": "note_on",
                "note": 63,
                "velocity": 0,
                "time": 423
            },
            {
                "type": "note_on",
                "note": 57,
                "velocity": 0,
                "time": 0
            },
            {
                "type": "note_on",
                "note": 53,
                "velocity": 0,
                "time": 0
            },
            {
                "type": "note_on",
                "note": 46,
                "velocity": 57,
                "time": 0
            },
            {
                "type": "note_on",
                "note": 46,
                "velocity": 0,
                "time": 169
            },
            {
                "type": "note_on",
                "note": 53,
                "velocity": 39,
                "time": 240
            },
            {
                "type": "note_on",
                "note": 58,
                "velocity": 39,
                "time": 0
            },
            {
                "type": "note_on",
                "note": 62,
                "velocity": 47,
                "time": 0
            },
            {
                "type": "note_on",
                "note": 62,
                "velocity": 0,
                "time": 480
            },
            {
                "type": "note_on",
                "note": 58,
                "velocity": 0,
                "time": 0
            },
            {
                "type": "note_on",
                "note": 53,
                "velocity": 0,
                "time": 0
            },
            {
                "type": "note_on",
                "note": 41,
                "velocity": 37,
                "time": 473
            },
            {
                "type": "note_on",
                "note": 41,
                "velocity": 0,
                "time": 480
            },
            {
                "type": "note_on",
                "note": 48,
                "velocity": 25,
                "time": 0
            },
            {
                "type": "note_on",
                "note": 57,
                "velocity": 30,
                "time": 0
            },
            {
                "type": "note_on",
                "note": 57,
                "velocity": 0,
                "time": 480
            },
            {
                "type": "note_on",
                "note": 48,
                "velocity": 0,
                "time": 0
            },
            {
                "type": "note_on",
                "note": 48,
                "velocity": 28,
                "time": 0
            },
            {
                "type": "note_on",
                "note": 57,
                "velocity": 34,
                "time": 0
            },
            {
                "type": "note_on",
                "note": 57,
                "velocity": 0,
                "time": 480
            },
            {
                "type": "note_on",
                "note": 48,
                "velocity": 0,
                "time": 0
            },
            {
                "type": "note_on",
                "note": 41,
                "velocity": 42,
                "time": 0
            },
            {
                "type": "note_on",
                "note": 41,
                "velocity": 0,
                "time": 480
            },
            {
                "type": "note_on",
                "note": 50,
                "velocity": 32,
                "time": 0
            },
            {
                "type": "note_on",
                "note": 58,
                "velocity": 38,
                "time": 0
            },
            {
                "type": "note_on",
                "note": 58,
                "velocity": 0,
                "time": 480
            },
            {
                "type": "note_on",
                "note": 50,
                "velocity": 0,
                "time": 0
            },
            {
                "type": "note_on",
                "note": 50,
                "velocity": 33,
                "time": 0
            },
            {
                "type": "note_on",
                "note": 58,
                "velocity": 39,
                "time": 0
            },
            {
                "type": "note_on",
                "note": 58,
                "velocity": 0,
                "time": 480
            },
            {
                "type": "note_on",
                "note": 50,
                "velocity": 0,
                "time": 0
            },
            {
                "type": "note_on",
                "note": 41,
                "velocity": 42,
                "time": 0
            },
            {
                "type": "note_on",
                "note": 41,
                "velocity": 0,
                "time": 480
            },
            {
                "type": "note_on",
                "note": 48,
                "velocity": 32,
                "time": 0
            },
            {
                "type": "note_on",
                "note": 57,
                "velocity": 38,
                "time": 0
            },
            {
                "type": "note_on",
                "note": 57,
                "velocity": 0,
                "time": 480
            },
            {
                "type": "note_on",
                "note": 48,
                "velocity": 0,
                "time": 0
            },
            {
                "type": "note_on",
                "note": 48,
                "velocity": 32,
                "time": 0
            },
            {
                "type": "note_on",
                "note": 57,
                "velocity": 38,
                "time": 0
            },
            {
                "type": "note_on",
                "note": 57,
                "velocity": 0,
                "time": 480
            },
            {
                "type": "note_on",
                "note": 48,
                "velocity": 0,
                "time": 0
            },
            {
                "type": "note_on",
                "note": 41,
                "velocity": 39,
                "time": 0
            },
            {
                "type": "note_on",
                "note": 41,
                "velocity": 0,
                "time": 240
            },
            {
                "type": "note_on",
                "note": 50,
                "velocity": 28,
                "time": 240
            },
            {
                "type": "note_on",
                "note": 58,
                "velocity": 34,
                "time": 0
            },
            {
                "type": "note_on",
                "note": 58,
                "velocity": 0,
                "time": 240
            },
            {
                "type": "note_on",
                "note": 50,
                "velocity": 0,
                "time": 0
            },
            {
                "type": "note_on",
                "note": 41,
                "velocity": 34,
                "time": 240
            },
            {
                "type": "note_on",
                "note": 41,
                "velocity": 0,
                "time": 240
            },
            {
                "type": "note_on",
                "note": 48,
                "velocity": 31,
                "time": 240
            },
            {
                "type": "note_on",
                "note": 57,
                "velocity": 37,
                "time": 0
            },
            {
                "type": "note_on",
                "note": 57,
                "velocity": 0,
                "time": 240
            },
            {
                "type": "note_on",
                "note": 48,
                "velocity": 0,
                "time": 0
            },
            {
                "type": "note_on",
                "note": 41,
                "velocity": 34,
                "time": 240
            },
            {
                "type": "note_on",
                "note": 41,
                "velocity": 0,
                "time": 240
            },
            {
                "type": "note_on",
                "note": 48,
                "velocity": 28,
                "time": 240
            },
            {
                "type": "note_on",
                "note": 57,
                "velocity": 34,
                "time": 0
            },
            {
                "type": "note_on",
                "note": 57,
                "velocity": 0,
                "time": 240
            },
            {
                "type": "note_on",
                "note": 48,
                "velocity": 0,
                "time": 0
            },
            {
                "type": "note_on",
                "note": 41,
                "velocity": 42,
                "time": 240
            },
            {
                "type": "note_on",
                "note": 41,
                "velocity": 0,
                "time": 240
            },
            {
                "type": "note_on",
                "note": 50,
                "velocity": 32,
                "time": 240
            },
            {
                "type": "note_on",
                "note": 58,
                "velocity": 38,
                "time": 0
            },
            {
                "type": "note_on",
                "note": 58,
                "velocity": 0,
                "time": 219
            },
            {
                "type": "note_on",
                "note": 50,
                "velocity": 0,
                "time": 0
            },
            {
                "type": "note_on",
                "note": 41,
                "velocity": 34,
                "time": 240
            },
            {
                "type": "note_on",
                "note": 41,
                "velocity": 0,
                "time": 231
            },
            {
                "type": "note_on",
                "note": 48,
                "velocity": 32,
                "time": 240
            },
            {
                "type": "note_on",
                "note": 57,
                "velocity": 38,
                "time": 0
            },
            {
                "type": "note_on",
                "note": 57,
                "velocity": 0,
                "time": 240
            },
            {
                "type": "note_on",
                "note": 48,
                "velocity": 0,
                "time": 0
            },
            {
                "type": "note_on",
                "note": 41,
                "velocity": 34,
                "time": 240
            },
            {
                "type": "note_on",
                "note": 41,
                "velocity": 0,
                "time": 240
            },
            {
                "type": "note_on",
                "note": 48,
                "velocity": 38,
                "time": 240
            },
            {
                "type": "note_on",
                "note": 57,
                "velocity": 45,
                "time": 0
            },
            {
                "type": "note_on",
                "note": 57,
                "velocity": 0,
                "time": 480
            },
            {
                "type": "note_on",
                "note": 52,
                "velocity": 38,
                "time": 0
            },
            {
                "type": "note_on",
                "note": 58,
                "velocity": 45,
                "time": 0
            },
            {
                "type": "note_on",
                "note": 58,
                "velocity": 0,
                "time": 480
            },
            {
                "type": "note_on",
                "note": 52,
                "velocity": 0,
                "time": 0
            },
            {
                "type": "note_on",
                "note": 48,
                "velocity": 0,
                "time": 0
            },
            {
                "type": "note_on",
                "note": 53,
                "velocity": 38,
                "time": 0
            },
            {
                "type": "note_on",
                "note": 57,
                "velocity": 45,
                "time": 0
            },
            {
                "type": "note_on",
                "note": 57,
                "velocity": 0,
                "time": 310
            },
            {
                "type": "note_on",
                "note": 53,
                "velocity": 0,
                "time": 0
            },
            {
                "type": "note_on",
                "note": 41,
                "velocity": 70,
                "time": 480
            },
            {
                "type": "note_on",
                "note": 41,
                "velocity": 0,
                "time": 120
            },
            {
                "type": "note_on",
                "note": 63,
                "velocity": 59,
                "time": 240
            },
            {
                "type": "note_on",
                "note": 60,
                "velocity": 50,
                "time": 0
            },
            {
                "type": "note_on",
                "note": 53,
                "velocity": 50,
                "time": 0
            },
            {
                "type": "note_on",
                "note": 53,
                "velocity": 0,
                "time": 480
            },
            {
                "type": "note_on",
                "note": 60,
                "velocity": 0,
                "time": 0
            },
            {
                "type": "note_on",
                "note": 63,
                "velocity": 0,
                "time": 0
            },
            {
                "type": "note_on",
                "note": 63,
                "velocity": 60,
                "time": 0
            },
            {
                "type": "note_on",
                "note": 60,
                "velocity": 51,
                "time": 0
            },
            {
                "type": "note_on",
                "note": 53,
                "velocity": 51,
                "time": 0
            },
            {
                "type": "note_on",
                "note": 53,
                "velocity": 0,
                "time": 469
            },
            {
                "type": "note_on",
                "note": 60,
                "velocity": 0,
                "time": 0
            },
            {
                "type": "note_on",
                "note": 63,
                "velocity": 0,
                "time": 0
            },
            {
                "type": "note_on",
                "note": 46,
                "velocity": 70,
                "time": 0
            },
            {
                "type": "note_on",
                "note": 46,
                "velocity": 0,
                "time": 99
            },
            {
                "type": "note_on",
                "note": 62,
                "velocity": 52,
                "time": 240
            },
            {
                "type": "note_on",
                "note": 58,
                "velocity": 52,
                "time": 0
            },
            {
                "type": "note_on",
                "note": 53,
                "velocity": 52,
                "time": 0
            },
            {
                "type": "note_on",
                "note": 53,
                "velocity": 0,
                "time": 480
            },
            {
                "type": "note_on",
                "note": 58,
                "velocity": 0,
                "time": 0
            },
            {
                "type": "note_on",
                "note": 62,
                "velocity": 0,
                "time": 0
            },
            {
                "type": "note_on",
                "note": 46,
                "velocity": 62,
                "time": 0
            },
            {
                "type": "note_on",
                "note": 46,
                "velocity": 0,
                "time": 224
            },
            {
                "type": "note_on",
                "note": 39,
                "velocity": 68,
                "time": 240
            },
            {
                "type": "note_on",
                "note": 51,
                "velocity": 80,
                "time": 0
            },
            {
                "type": "note_on",
                "note": 51,
                "velocity": 0,
                "time": 312
            },
            {
                "type": "note_on",
                "note": 39,
                "velocity": 0,
                "time": 0
            },
            {
                "type": "note_on",
                "note": 55,
                "velocity": 59,
                "time": 0
            },
            {
                "type": "note_on",
                "note": 58,
                "velocity": 59,
                "time": 30
            },
            {
                "type": "note_on",
                "note": 63,
                "velocity": 59,
                "time": 30
            },
            {
                "type": "note_on",
                "note": 67,
                "velocity": 70,
                "time": 30
            },
            {
                "type": "note_on",
                "note": 67,
                "velocity": 0,
                "time": 480
            },
            {
                "type": "note_on",
                "note": 55,
                "velocity": 0,
                "time": 0
            },
            {
                "type": "note_on",
                "note": 58,
                "velocity": 0,
                "time": 0
            },
            {
                "type": "note_on",
                "note": 63,
                "velocity": 0,
                "time": 0
            },
            {
                "type": "note_on",
                "note": 46,
                "velocity": 48,
                "time": 470
            },
            {
                "type": "note_on",
                "note": 46,
                "velocity": 0,
                "time": 169
            },
            {
                "type": "note_on",
                "note": 62,
                "velocity": 31,
                "time": 240
            },
            {
                "type": "note_on",
                "note": 58,
                "velocity": 27,
                "time": 0
            },
            {
                "type": "note_on",
                "note": 53,
                "velocity": 27,
                "time": 0
            },
            {
                "type": "note_on",
                "note": 53,
                "velocity": 0,
                "time": 480
            },
            {
                "type": "note_on",
                "note": 58,
                "velocity": 0,
                "time": 0
            },
            {
                "type": "note_on",
                "note": 62,
                "velocity": 0,
                "time": 0
            },
            {
                "type": "note_on",
                "note": 62,
                "velocity": 29,
                "time": 0
            },
            {
                "type": "note_on",
                "note": 58,
                "velocity": 24,
                "time": 0
            },
            {
                "type": "note_on",
                "note": 53,
                "velocity": 24,
                "time": 0
            },
            {
                "type": "note_on",
                "note": 53,
                "velocity": 0,
                "time": 470
            },
            {
                "type": "note_on",
                "note": 58,
                "velocity": 0,
                "time": 0
            },
            {
                "type": "note_on",
                "note": 62,
                "velocity": 0,
                "time": 0
            },
            {
                "type": "note_on",
                "note": 41,
                "velocity": 45,
                "time": 0
            },
            {
                "type": "note_on",
                "note": 41,
                "velocity": 0,
                "time": 194
            },
            {
                "type": "note_on",
                "note": 63,
                "velocity": 30,
                "time": 240
            },
            {
                "type": "note_on",
                "note": 60,
                "velocity": 26,
                "time": 0
            },
            {
                "type": "note_on",
                "note": 53,
                "velocity": 26,
                "time": 0
            },
            {
                "type": "note_on",
                "note": 53,
                "velocity": 0,
                "time": 480
            },
            {
                "type": "note_on",
                "note": 60,
                "velocity": 0,
                "time": 0
            },
            {
                "type": "note_on",
                "note": 63,
                "velocity": 0,
                "time": 0
            },
            {
                "type": "note_on",
                "note": 63,
                "velocity": 28,
                "time": 0
            },
            {
                "type": "note_on",
                "note": 60,
                "velocity": 23,
                "time": 0
            },
            {
                "type": "note_on",
                "note": 53,
                "velocity": 23,
                "time": 0
            },
            {
                "type": "note_on",
                "note": 53,
                "velocity": 0,
                "time": 469
            },
            {
                "type": "note_on",
                "note": 60,
                "velocity": 0,
                "time": 0
            },
            {
                "type": "note_on",
                "note": 63,
                "velocity": 0,
                "time": 0
            },
            {
                "type": "note_on",
                "note": 46,
                "velocity": 48,
                "time": 0
            },
            {
                "type": "note_on",
                "note": 46,
                "velocity": 0,
                "time": 155
            },
            {
                "type": "note_on",
                "note": 62,
                "velocity": 31,
                "time": 240
            },
            {
                "type": "note_on",
                "note": 58,
                "velocity": 27,
                "time": 0
            },
            {
                "type": "note_on",
                "note": 53,
                "velocity": 27,
                "time": 0
            },
            {
                "type": "note_on",
                "note": 53,
                "velocity": 0,
                "time": 480
            },
            {
                "type": "note_on",
                "note": 58,
                "velocity": 0,
                "time": 0
            },
            {
                "type": "note_on",
                "note": 62,
                "velocity": 0,
                "time": 0
            },
            {
                "type": "note_on",
                "note": 62,
                "velocity": 29,
                "time": 0
            },
            {
                "type": "note_on",
                "note": 58,
                "velocity": 24,
                "time": 0
            },
            {
                "type": "note_on",
                "note": 53,
                "velocity": 24,
                "time": 0
            },
            {
                "type": "note_on",
                "note": 53,
                "velocity": 0,
                "time": 480
            },
            {
                "type": "note_on",
                "note": 58,
                "velocity": 0,
                "time": 0
            },
            {
                "type": "note_on",
                "note": 62,
                "velocity": 0,
                "time": 0
            },
            {
                "type": "note_on",
                "note": 41,
                "velocity": 57,
                "time": 0
            },
            {
                "type": "note_on",
                "note": 41,
                "velocity": 0,
                "time": 166
            },
            {
                "type": "note_on",
                "note": 53,
                "velocity": 39,
                "time": 240
            },
            {
                "type": "note_on",
                "note": 63,
                "velocity": 47,
                "time": 0
            },
            {
                "type": "note_on",
                "note": 63,
                "velocity": 0,
                "time": 480
            },
            {
                "type": "note_on",
                "note": 53,
                "velocity": 0,
                "time": 0
            },
            {
                "type": "note_on",
                "note": 53,
                "velocity": 39,
                "time": 0
            },
            {
                "type": "note_on",
                "note": 57,
                "velocity": 39,
                "time": 0
            },
            {
                "type": "note_on",
                "note": 63,
                "velocity": 46,
                "time": 0
            },
            {
                "type": "note_on",
                "note": 63,
                "velocity": 0,
                "time": 474
            },
            {
                "type": "note_on",
                "note": 57,
                "velocity": 0,
                "time": 0
            },
            {
                "type": "note_on",
                "note": 53,
                "velocity": 0,
                "time": 0
            },
            {
                "type": "note_on",
                "note": 46,
                "velocity": 51,
                "time": 0
            },
            {
                "type": "note_on",
                "note": 46,
                "velocity": 0,
                "time": 176
            },
            {
                "type": "note_on",
                "note": 53,
                "velocity": 31,
                "time": 240
            },
            {
                "type": "note_on",
                "note": 58,
                "velocity": 31,
                "time": 0
            },
            {
                "type": "note_on",
                "note": 62,
                "velocity": 37,
                "time": 0
            },
            {
                "type": "note_on",
                "note": 62,
                "velocity": 0,
                "time": 480
            },
            {
                "type": "note_on",
                "note": 58,
                "velocity": 0,
                "time": 0
            },
            {
                "type": "note_on",
                "note": 53,
                "velocity": 0,
                "time": 0
            },
            {
                "type": "note_on",
                "note": 53,
                "velocity": 31,
                "time": 0
            },
            {
                "type": "note_on",
                "note": 58,
                "velocity": 31,
                "time": 0
            },
            {
                "type": "note_on",
                "note": 62,
                "velocity": 36,
                "time": 0
            },
            {
                "type": "note_on",
                "note": 62,
                "velocity": 0,
                "time": 467
            },
            {
                "type": "note_on",
                "note": 58,
                "velocity": 0,
                "time": 0
            },
            {
                "type": "note_on",
                "note": 53,
                "velocity": 0,
                "time": 0
            },
            {
                "type": "note_on",
                "note": 46,
                "velocity": 40,
                "time": 0
            },
            {
                "type": "note_on",
                "note": 46,
                "velocity": 0,
                "time": 194
            },
            {
                "type": "note_on",
                "note": 63,
                "velocity": 27,
                "time": 240
            },
            {
                "type": "note_on",
                "note": 60,
                "velocity": 22,
                "time": 0
            },
            {
                "type": "note_on",
                "note": 53,
                "velocity": 22,
                "time": 0
            },
            {
                "type": "note_on",
                "note": 53,
                "velocity": 0,
                "time": 480
            },
            {
                "type": "note_on",
                "note": 60,
                "velocity": 0,
                "time": 0
            },
            {
                "type": "note_on",
                "note": 63,
                "velocity": 0,
                "time": 0
            },
            {
                "type": "note_on",
                "note": 63,
                "velocity": 25,
                "time": 0
            },
            {
                "type": "note_on",
                "note": 60,
                "velocity": 21,
                "time": 0
            },
            {
                "type": "note_on",
                "note": 53,
                "velocity": 21,
                "time": 0
            },
            {
                "type": "note_on",
                "note": 53,
                "velocity": 0,
                "time": 471
            },
            {
                "type": "note_on",
                "note": 60,
                "velocity": 0,
                "time": 0
            },
            {
                "type": "note_on",
                "note": 63,
                "velocity": 0,
                "time": 0
            },
            {
                "type": "note_on",
                "note": 46,
                "velocity": 43,
                "time": 0
            },
            {
                "type": "note_on",
                "note": 46,
                "velocity": 0,
                "time": 155
            },
            {
                "type": "note_on",
                "note": 62,
                "velocity": 28,
                "time": 240
            },
            {
                "type": "note_on",
                "note": 58,
                "velocity": 23,
                "time": 0
            },
            {
                "type": "note_on",
                "note": 53,
                "velocity": 23,
                "time": 0
            },
            {
                "type": "note_on",
                "note": 53,
                "velocity": 0,
                "time": 480
            },
            {
                "type": "note_on",
                "note": 58,
                "velocity": 0,
                "time": 0
            },
            {
                "type": "note_on",
                "note": 62,
                "velocity": 0,
                "time": 0
            },
            {
                "type": "note_on",
                "note": 62,
                "velocity": 26,
                "time": 0
            },
            {
                "type": "note_on",
                "note": 58,
                "velocity": 22,
                "time": 0
            },
            {
                "type": "note_on",
                "note": 53,
                "velocity": 22,
                "time": 0
            },
            {
                "type": "note_on",
                "note": 53,
                "velocity": 0,
                "time": 480
            },
            {
                "type": "note_on",
                "note": 58,
                "velocity": 0,
                "time": 0
            },
            {
                "type": "note_on",
                "note": 62,
                "velocity": 0,
                "time": 0
            },
            {
                "type": "note_on",
                "note": 41,
                "velocity": 57,
                "time": 0
            },
            {
                "type": "note_on",
                "note": 41,
                "velocity": 0,
                "time": 166
            },
            {
                "type": "note_on",
                "note": 53,
                "velocity": 39,
                "time": 240
            },
            {
                "type": "note_on",
                "note": 63,
                "velocity": 47,
                "time": 0
            },
            {
                "type": "note_on",
                "note": 63,
                "velocity": 0,
                "time": 480
            },
            {
                "type": "note_on",
                "note": 53,
                "velocity": 0,
                "time": 0
            },
            {
                "type": "note_on",
                "note": 53,
                "velocity": 39,
                "time": 0
            },
            {
                "type": "note_on",
                "note": 57,
                "velocity": 39,
                "time": 0
            },
            {
                "type": "note_on",
                "note": 63,
                "velocity": 46,
                "time": 0
            },
            {
                "type": "note_on",
                "note": 63,
                "velocity": 0,
                "time": 420
            },
            {
                "type": "note_on",
                "note": 57,
                "velocity": 0,
                "time": 0
            },
            {
                "type": "note_on",
                "note": 53,
                "velocity": 0,
                "time": 0
            },
            {
                "type": "note_on",
                "note": 46,
                "velocity": 57,
                "time": 0
            },
            {
                "type": "note_on",
                "note": 46,
                "velocity": 0,
                "time": 113
            },
            {
                "type": "note_on",
                "note": 53,
                "velocity": 39,
                "time": 240
            },
            {
                "type": "note_on",
                "note": 58,
                "velocity": 39,
                "time": 0
            },
            {
                "type": "note_on",
                "note": 62,
                "velocity": 47,
                "time": 0
            },
            {
                "type": "note_on",
                "note": 62,
                "velocity": 0,
                "time": 480
            },
            {
                "type": "note_on",
                "note": 58,
                "velocity": 0,
                "time": 0
            },
            {
                "type": "note_on",
                "note": 53,
                "velocity": 0,
                "time": 0
            },
            {
                "type": "note_on",
                "note": 46,
                "velocity": 49,
                "time": 0
            },
            {
                "type": "note_on",
                "note": 46,
                "velocity": 0,
                "time": 462
            },
            {
                "type": "note_on",
                "note": 42,
                "velocity": 22,
                "time": 0
            },
            {
                "type": "note_on",
                "note": 49,
                "velocity": 26,
                "time": 0
            },
            {
                "type": "note_on",
                "note": 49,
                "velocity": 0,
                "time": 381
            },
            {
                "type": "note_on",
                "note": 42,
                "velocity": 0,
                "time": 0
            },
            {
                "type": "note_on",
                "note": 42,
                "velocity": 20,
                "time": 0
            },
            {
                "type": "note_on",
                "note": 49,
                "velocity": 23,
                "time": 0
            },
            {
                "type": "note_on",
                "note": 49,
                "velocity": 0,
                "time": 480
            },
            {
                "type": "note_on",
                "note": 42,
                "velocity": 0,
                "time": 0
            },
            {
                "type": "note_on",
                "note": 42,
                "velocity": 20,
                "time": 0
            },
            {
                "type": "note_on",
                "note": 49,
                "velocity": 23,
                "time": 0
            },
            {
                "type": "note_on",
                "note": 49,
                "velocity": 0,
                "time": 480
            },
            {
                "type": "note_on",
                "note": 42,
                "velocity": 0,
                "time": 0
            },
            {
                "type": "note_on",
                "note": 42,
                "velocity": 22,
                "time": 0
            },
            {
                "type": "note_on",
                "note": 49,
                "velocity": 26,
                "time": 0
            },
            {
                "type": "note_on",
                "note": 49,
                "velocity": 0,
                "time": 416
            },
            {
                "type": "note_on",
                "note": 42,
                "velocity": 0,
                "time": 0
            },
            {
                "type": "note_on",
                "note": 42,
                "velocity": 20,
                "time": 0
            },
            {
                "type": "note_on",
                "note": 49,
                "velocity": 23,
                "time": 0
            },
            {
                "type": "note_on",
                "note": 49,
                "velocity": 0,
                "time": 480
            },
            {
                "type": "note_on",
                "note": 42,
                "velocity": 0,
                "time": 0
            },
            {
                "type": "note_on",
                "note": 42,
                "velocity": 20,
                "time": 0
            },
            {
                "type": "note_on",
                "note": 49,
                "velocity": 23,
                "time": 0
            },
            {
                "type": "note_on",
                "note": 49,
                "velocity": 0,
                "time": 480
            },
            {
                "type": "note_on",
                "note": 42,
                "velocity": 0,
                "time": 0
            },
            {
                "type": "note_on",
                "note": 42,
                "velocity": 22,
                "time": 0
            },
            {
                "type": "note_on",
                "note": 49,
                "velocity": 26,
                "time": 0
            },
            {
                "type": "note_on",
                "note": 49,
                "velocity": 0,
                "time": 332
            },
            {
                "type": "note_on",
                "note": 42,
                "velocity": 0,
                "time": 0
            },
            {
                "type": "note_on",
                "note": 42,
                "velocity": 20,
                "time": 0
            },
            {
                "type": "note_on",
                "note": 49,
                "velocity": 23,
                "time": 0
            },
            {
                "type": "note_on",
                "note": 49,
                "velocity": 0,
                "time": 480
            },
            {
                "type": "note_on",
                "note": 42,
                "velocity": 0,
                "time": 0
            },
            {
                "type": "note_on",
                "note": 42,
                "velocity": 20,
                "time": 0
            },
            {
                "type": "note_on",
                "note": 49,
                "velocity": 23,
                "time": 0
            },
            {
                "type": "note_on",
                "note": 49,
                "velocity": 0,
                "time": 480
            },
            {
                "type": "note_on",
                "note": 42,
                "velocity": 0,
                "time": 0
            },
            {
                "type": "note_on",
                "note": 42,
                "velocity": 22,
                "time": 0
            },
            {
                "type": "note_on",
                "note": 49,
                "velocity": 26,
                "time": 0
            },
            {
                "type": "note_on",
                "note": 49,
                "velocity": 0,
                "time": 346
            },
            {
                "type": "note_on",
                "note": 42,
                "velocity": 0,
                "time": 0
            },
            {
                "type": "note_on",
                "note": 42,
                "velocity": 20,
                "time": 0
            },
            {
                "type": "note_on",
                "note": 49,
                "velocity": 23,
                "time": 0
            },
            {
                "type": "note_on",
                "note": 49,
                "velocity": 0,
                "time": 480
            },
            {
                "type": "note_on",
                "note": 42,
                "velocity": 0,
                "time": 0
            },
            {
                "type": "note_on",
                "note": 42,
                "velocity": 20,
                "time": 0
            },
            {
                "type": "note_on",
                "note": 49,
                "velocity": 23,
                "time": 0
            },
            {
                "type": "note_on",
                "note": 49,
                "velocity": 0,
                "time": 480
            },
            {
                "type": "note_on",
                "note": 42,
                "velocity": 0,
                "time": 0
            },
            {
                "type": "note_on",
                "note": 42,
                "velocity": 22,
                "time": 0
            },
            {
                "type": "note_on",
                "note": 49,
                "velocity": 26,
                "time": 0
            },
            {
                "type": "note_on",
                "note": 49,
                "velocity": 0,
                "time": 381
            },
            {
                "type": "note_on",
                "note": 42,
                "velocity": 0,
                "time": 0
            },
            {
                "type": "note_on",
                "note": 42,
                "velocity": 20,
                "time": 0
            },
            {
                "type": "note_on",
                "note": 49,
                "velocity": 23,
                "time": 0
            },
            {
                "type": "note_on",
                "note": 49,
                "velocity": 0,
                "time": 480
            },
            {
                "type": "note_on",
                "note": 42,
                "velocity": 0,
                "time": 0
            },
            {
                "type": "note_on",
                "note": 42,
                "velocity": 20,
                "time": 0
            },
            {
                "type": "note_on",
                "note": 49,
                "velocity": 23,
                "time": 0
            },
            {
                "type": "note_on",
                "note": 49,
                "velocity": 0,
                "time": 480
            },
            {
                "type": "note_on",
                "note": 42,
                "velocity": 0,
                "time": 0
            },
            {
                "type": "note_on",
                "note": 42,
                "velocity": 22,
                "time": 0
            },
            {
                "type": "note_on",
                "note": 49,
                "velocity": 26,
                "time": 0
            },
            {
                "type": "note_on",
                "note": 49,
                "velocity": 0,
                "time": 416
            },
            {
                "type": "note_on",
                "note": 42,
                "velocity": 0,
                "time": 0
            },
            {
                "type": "note_on",
                "note": 42,
                "velocity": 20,
                "time": 0
            },
            {
                "type": "note_on",
                "note": 49,
                "velocity": 23,
                "time": 0
            },
            {
                "type": "note_on",
                "note": 49,
                "velocity": 0,
                "time": 480
            },
            {
                "type": "note_on",
                "note": 42,
                "velocity": 0,
                "time": 0
            },
            {
                "type": "note_on",
                "note": 42,
                "velocity": 20,
                "time": 0
            },
            {
                "type": "note_on",
                "note": 49,
                "velocity": 23,
                "time": 0
            },
            {
                "type": "note_on",
                "note": 49,
                "velocity": 0,
                "time": 480
            },
            {
                "type": "note_on",
                "note": 42,
                "velocity": 0,
                "time": 0
            },
            {
                "type": "note_on",
                "note": 42,
                "velocity": 22,
                "time": 0
            },
            {
                "type": "note_on",
                "note": 49,
                "velocity": 26,
                "time": 0
            },
            {
                "type": "note_on",
                "note": 49,
                "velocity": 0,
                "time": 353
            },
            {
                "type": "note_on",
                "note": 42,
                "velocity": 0,
                "time": 0
            },
            {
                "type": "note_on",
                "note": 42,
                "velocity": 20,
                "time": 0
            },
            {
                "type": "note_on",
                "note": 49,
                "velocity": 23,
                "time": 0
            },
            {
                "type": "note_on",
                "note": 49,
                "velocity": 0,
                "time": 480
            },
            {
                "type": "note_on",
                "note": 42,
                "velocity": 0,
                "time": 0
            },
            {
                "type": "note_on",
                "note": 42,
                "velocity": 20,
                "time": 0
            },
            {
                "type": "note_on",
                "note": 49,
                "velocity": 23,
                "time": 0
            },
            {
                "type": "note_on",
                "note": 49,
                "velocity": 0,
                "time": 480
            },
            {
                "type": "note_on",
                "note": 42,
                "velocity": 0,
                "time": 0
            },
            {
                "type": "note_on",
                "note": 41,
                "velocity": 22,
                "time": 0
            },
            {
                "type": "note_on",
                "note": 49,
                "velocity": 26,
                "time": 0
            },
            {
                "type": "note_on",
                "note": 49,
                "velocity": 0,
                "time": 476
            },
            {
                "type": "note_on",
                "note": 48,
                "velocity": 23,
                "time": 0
            },
            {
                "type": "note_on",
                "note": 48,
                "velocity": 0,
                "time": 960
            },
            {
                "type": "note_on",
                "note": 41,
                "velocity": 0,
                "time": 0
            },
            {
                "type": "note_on",
                "note": 41,
                "velocity": 70,
                "time": 0
            },
            {
                "type": "note_on",
                "note": 41,
                "velocity": 0,
                "time": 120
            },
            {
                "type": "note_on",
                "note": 63,
                "velocity": 59,
                "time": 240
            },
            {
                "type": "note_on",
                "note": 60,
                "velocity": 50,
                "time": 0
            },
            {
                "type": "note_on",
                "note": 53,
                "velocity": 50,
                "time": 0
            },
            {
                "type": "note_on",
                "note": 53,
                "velocity": 0,
                "time": 480
            },
            {
                "type": "note_on",
                "note": 60,
                "velocity": 0,
                "time": 0
            },
            {
                "type": "note_on",
                "note": 63,
                "velocity": 0,
                "time": 0
            },
            {
                "type": "note_on",
                "note": 63,
                "velocity": 60,
                "time": 0
            },
            {
                "type": "note_on",
                "note": 60,
                "velocity": 51,
                "time": 0
            },
            {
                "type": "note_on",
                "note": 53,
                "velocity": 51,
                "time": 0
            },
            {
                "type": "note_on",
                "note": 53,
                "velocity": 0,
                "time": 480
            },
            {
                "type": "note_on",
                "note": 60,
                "velocity": 0,
                "time": 0
            },
            {
                "type": "note_on",
                "note": 63,
                "velocity": 0,
                "time": 0
            },
            {
                "type": "note_on",
                "note": 46,
                "velocity": 70,
                "time": 0
            },
            {
                "type": "note_on",
                "note": 46,
                "velocity": 0,
                "time": 99
            },
            {
                "type": "note_on",
                "note": 62,
                "velocity": 52,
                "time": 240
            },
            {
                "type": "note_on",
                "note": 58,
                "velocity": 52,
                "time": 0
            },
            {
                "type": "note_on",
                "note": 53,
                "velocity": 52,
                "time": 0
            },
            {
                "type": "note_on",
                "note": 53,
                "velocity": 0,
                "time": 480
            },
            {
                "type": "note_on",
                "note": 58,
                "velocity": 0,
                "time": 0
            },
            {
                "type": "note_on",
                "note": 62,
                "velocity": 0,
                "time": 0
            },
            {
                "type": "note_on",
                "note": 46,
                "velocity": 62,
                "time": 0
            },
            {
                "type": "note_on",
                "note": 46,
                "velocity": 0,
                "time": 240
            },
            {
                "type": "note_on",
                "note": 39,
                "velocity": 68,
                "time": 240
            },
            {
                "type": "note_on",
                "note": 51,
                "velocity": 80,
                "time": 0
            },
            {
                "type": "note_on",
                "note": 51,
                "velocity": 0,
                "time": 312
            },
            {
                "type": "note_on",
                "note": 39,
                "velocity": 0,
                "time": 0
            },
            {
                "type": "note_on",
                "note": 55,
                "velocity": 59,
                "time": 0
            },
            {
                "type": "note_on",
                "note": 58,
                "velocity": 59,
                "time": 30
            },
            {
                "type": "note_on",
                "note": 63,
                "velocity": 59,
                "time": 30
            },
            {
                "type": "note_on",
                "note": 67,
                "velocity": 70,
                "time": 30
            },
            {
                "type": "note_on",
                "note": 67,
                "velocity": 0,
                "time": 480
            },
            {
                "type": "note_on",
                "note": 55,
                "velocity": 0,
                "time": 0
            },
            {
                "type": "note_on",
                "note": 58,
                "velocity": 0,
                "time": 0
            },
            {
                "type": "note_on",
                "note": 63,
                "velocity": 0,
                "time": 0
            },
            {
                "type": "note_on",
                "note": 46,
                "velocity": 48,
                "time": 468
            },
            {
                "type": "note_on",
                "note": 46,
                "velocity": 0,
                "time": 152
            },
            {
                "type": "note_on",
                "note": 62,
                "velocity": 31,
                "time": 240
            },
            {
                "type": "note_on",
                "note": 58,
                "velocity": 27,
                "time": 0
            },
            {
                "type": "note_on",
                "note": 53,
                "velocity": 27,
                "time": 0
            },
            {
                "type": "note_on",
                "note": 53,
                "velocity": 0,
                "time": 480
            },
            {
                "type": "note_on",
                "note": 58,
                "velocity": 0,
                "time": 0
            },
            {
                "type": "note_on",
                "note": 62,
                "velocity": 0,
                "time": 0
            },
            {
                "type": "note_on",
                "note": 62,
                "velocity": 29,
                "time": 0
            },
            {
                "type": "note_on",
                "note": 58,
                "velocity": 24,
                "time": 0
            },
            {
                "type": "note_on",
                "note": 53,
                "velocity": 24,
                "time": 0
            },
            {
                "type": "note_on",
                "note": 53,
                "velocity": 0,
                "time": 480
            },
            {
                "type": "note_on",
                "note": 58,
                "velocity": 0,
                "time": 0
            },
            {
                "type": "note_on",
                "note": 62,
                "velocity": 0,
                "time": 0
            },
            {
                "type": "note_on",
                "note": 41,
                "velocity": 45,
                "time": 0
            },
            {
                "type": "note_on",
                "note": 41,
                "velocity": 0,
                "time": 120
            },
            {
                "type": "note_on",
                "note": 63,
                "velocity": 30,
                "time": 240
            },
            {
                "type": "note_on",
                "note": 60,
                "velocity": 26,
                "time": 0
            },
            {
                "type": "note_on",
                "note": 53,
                "velocity": 26,
                "time": 0
            },
            {
                "type": "note_on",
                "note": 53,
                "velocity": 0,
                "time": 480
            },
            {
                "type": "note_on",
                "note": 60,
                "velocity": 0,
                "time": 0
            },
            {
                "type": "note_on",
                "note": 63,
                "velocity": 0,
                "time": 0
            },
            {
                "type": "note_on",
                "note": 63,
                "velocity": 28,
                "time": 0
            },
            {
                "type": "note_on",
                "note": 60,
                "velocity": 23,
                "time": 0
            },
            {
                "type": "note_on",
                "note": 53,
                "velocity": 23,
                "time": 0
            },
            {
                "type": "note_on",
                "note": 53,
                "velocity": 0,
                "time": 480
            },
            {
                "type": "note_on",
                "note": 60,
                "velocity": 0,
                "time": 0
            },
            {
                "type": "note_on",
                "note": 63,
                "velocity": 0,
                "time": 0
            },
            {
                "type": "note_on",
                "note": 46,
                "velocity": 48,
                "time": 0
            },
            {
                "type": "note_on",
                "note": 46,
                "velocity": 0,
                "time": 106
            },
            {
                "type": "note_on",
                "note": 62,
                "velocity": 31,
                "time": 240
            },
            {
                "type": "note_on",
                "note": 58,
                "velocity": 27,
                "time": 0
            },
            {
                "type": "note_on",
                "note": 53,
                "velocity": 27,
                "time": 0
            },
            {
                "type": "note_on",
                "note": 53,
                "velocity": 0,
                "time": 480
            },
            {
                "type": "note_on",
                "note": 58,
                "velocity": 0,
                "time": 0
            },
            {
                "type": "note_on",
                "note": 62,
                "velocity": 0,
                "time": 0
            },
            {
                "type": "note_on",
                "note": 62,
                "velocity": 29,
                "time": 0
            },
            {
                "type": "note_on",
                "note": 58,
                "velocity": 24,
                "time": 0
            },
            {
                "type": "note_on",
                "note": 53,
                "velocity": 24,
                "time": 0
            },
            {
                "type": "note_on",
                "note": 53,
                "velocity": 0,
                "time": 480
            },
            {
                "type": "note_on",
                "note": 58,
                "velocity": 0,
                "time": 0
            },
            {
                "type": "note_on",
                "note": 62,
                "velocity": 0,
                "time": 0
            },
            {
                "type": "note_on",
                "note": 41,
                "velocity": 57,
                "time": 0
            },
            {
                "type": "note_on",
                "note": 41,
                "velocity": 0,
                "time": 166
            },
            {
                "type": "note_on",
                "note": 53,
                "velocity": 39,
                "time": 240
            },
            {
                "type": "note_on",
                "note": 63,
                "velocity": 47,
                "time": 0
            },
            {
                "type": "note_on",
                "note": 63,
                "velocity": 0,
                "time": 480
            },
            {
                "type": "note_on",
                "note": 53,
                "velocity": 0,
                "time": 0
            },
            {
                "type": "note_on",
                "note": 53,
                "velocity": 39,
                "time": 0
            },
            {
                "type": "note_on",
                "note": 57,
                "velocity": 39,
                "time": 0
            },
            {
                "type": "note_on",
                "note": 63,
                "velocity": 46,
                "time": 0
            },
            {
                "type": "note_on",
                "note": 63,
                "velocity": 0,
                "time": 480
            },
            {
                "type": "note_on",
                "note": 57,
                "velocity": 0,
                "time": 0
            },
            {
                "type": "note_on",
                "note": 53,
                "velocity": 0,
                "time": 0
            },
            {
                "type": "note_on",
                "note": 46,
                "velocity": 57,
                "time": 0
            },
            {
                "type": "note_on",
                "note": 46,
                "velocity": 0,
                "time": 148
            },
            {
                "type": "note_on",
                "note": 53,
                "velocity": 39,
                "time": 240
            },
            {
                "type": "note_on",
                "note": 58,
                "velocity": 39,
                "time": 0
            },
            {
                "type": "note_on",
                "note": 62,
                "velocity": 47,
                "time": 0
            },
            {
                "type": "note_on",
                "note": 62,
                "velocity": 0,
                "time": 480
            },
            {
                "type": "note_on",
                "note": 58,
                "velocity": 0,
                "time": 0
            },
            {
                "type": "note_on",
                "note": 53,
                "velocity": 0,
                "time": 0
            },
            {
                "type": "note_on",
                "note": 53,
                "velocity": 39,
                "time": 0
            },
            {
                "type": "note_on",
                "note": 58,
                "velocity": 39,
                "time": 0
            },
            {
                "type": "note_on",
                "note": 62,
                "velocity": 46,
                "time": 0
            },
            {
                "type": "note_on",
                "note": 62,
                "velocity": 0,
                "time": 480
            },
            {
                "type": "note_on",
                "note": 58,
                "velocity": 0,
                "time": 0
            },
            {
                "type": "note_on",
                "note": 53,
                "velocity": 0,
                "time": 0
            },
            {
                "type": "note_on",
                "note": 46,
                "velocity": 40,
                "time": 0
            },
            {
                "type": "note_on",
                "note": 46,
                "velocity": 0,
                "time": 152
            },
            {
                "type": "note_on",
                "note": 63,
                "velocity": 27,
                "time": 240
            },
            {
                "type": "note_on",
                "note": 60,
                "velocity": 22,
                "time": 0
            },
            {
                "type": "note_on",
                "note": 53,
                "velocity": 22,
                "time": 0
            },
            {
                "type": "note_on",
                "note": 53,
                "velocity": 0,
                "time": 480
            },
            {
                "type": "note_on",
                "note": 60,
                "velocity": 0,
                "time": 0
            },
            {
                "type": "note_on",
                "note": 63,
                "velocity": 0,
                "time": 0
            },
            {
                "type": "note_on",
                "note": 63,
                "velocity": 25,
                "time": 0
            },
            {
                "type": "note_on",
                "note": 60,
                "velocity": 21,
                "time": 0
            },
            {
                "type": "note_on",
                "note": 53,
                "velocity": 21,
                "time": 0
            },
            {
                "type": "note_on",
                "note": 53,
                "velocity": 0,
                "time": 480
            },
            {
                "type": "note_on",
                "note": 60,
                "velocity": 0,
                "time": 0
            },
            {
                "type": "note_on",
                "note": 63,
                "velocity": 0,
                "time": 0
            },
            {
                "type": "note_on",
                "note": 46,
                "velocity": 43,
                "time": 0
            },
            {
                "type": "note_on",
                "note": 46,
                "velocity": 0,
                "time": 99
            },
            {
                "type": "note_on",
                "note": 62,
                "velocity": 28,
                "time": 240
            },
            {
                "type": "note_on",
                "note": 58,
                "velocity": 23,
                "time": 0
            },
            {
                "type": "note_on",
                "note": 53,
                "velocity": 23,
                "time": 0
            },
            {
                "type": "note_on",
                "note": 53,
                "velocity": 0,
                "time": 480
            },
            {
                "type": "note_on",
                "note": 58,
                "velocity": 0,
                "time": 0
            },
            {
                "type": "note_on",
                "note": 62,
                "velocity": 0,
                "time": 0
            },
            {
                "type": "note_on",
                "note": 62,
                "velocity": 26,
                "time": 0
            },
            {
                "type": "note_on",
                "note": 58,
                "velocity": 22,
                "time": 0
            },
            {
                "type": "note_on",
                "note": 53,
                "velocity": 22,
                "time": 0
            },
            {
                "type": "note_on",
                "note": 53,
                "velocity": 0,
                "time": 480
            },
            {
                "type": "note_on",
                "note": 58,
                "velocity": 0,
                "time": 0
            },
            {
                "type": "note_on",
                "note": 62,
                "velocity": 0,
                "time": 0
            },
            {
                "type": "note_on",
                "note": 41,
                "velocity": 57,
                "time": 0
            },
            {
                "type": "note_on",
                "note": 41,
                "velocity": 0,
                "time": 166
            },
            {
                "type": "note_on",
                "note": 53,
                "velocity": 39,
                "time": 240
            },
            {
                "type": "note_on",
                "note": 63,
                "velocity": 47,
                "time": 0
            },
            {
                "type": "note_on",
                "note": 63,
                "velocity": 0,
                "time": 480
            },
            {
                "type": "note_on",
                "note": 53,
                "velocity": 0,
                "time": 0
            },
            {
                "type": "note_on",
                "note": 53,
                "velocity": 39,
                "time": 0
            },
            {
                "type": "note_on",
                "note": 57,
                "velocity": 39,
                "time": 0
            },
            {
                "type": "note_on",
                "note": 63,
                "velocity": 46,
                "time": 0
            },
            {
                "type": "note_on",
                "note": 63,
                "velocity": 0,
                "time": 480
            },
            {
                "type": "note_on",
                "note": 57,
                "velocity": 0,
                "time": 0
            },
            {
                "type": "note_on",
                "note": 53,
                "velocity": 0,
                "time": 0
            },
            {
                "type": "note_on",
                "note": 46,
                "velocity": 57,
                "time": 0
            },
            {
                "type": "note_on",
                "note": 46,
                "velocity": 0,
                "time": 113
            },
            {
                "type": "note_on",
                "note": 53,
                "velocity": 39,
                "time": 240
            },
            {
                "type": "note_on",
                "note": 58,
                "velocity": 39,
                "time": 0
            },
            {
                "type": "note_on",
                "note": 62,
                "velocity": 47,
                "time": 0
            },
            {
                "type": "note_on",
                "note": 62,
                "velocity": 0,
                "time": 480
            },
            {
                "type": "note_on",
                "note": 58,
                "velocity": 0,
                "time": 0
            },
            {
                "type": "note_on",
                "note": 53,
                "velocity": 0,
                "time": 0
            },
            {
                "type": "note_on",
                "note": 46,
                "velocity": 48,
                "time": 0
            },
            {
                "type": "note_on",
                "note": 46,
                "velocity": 0,
                "time": 467
            },
            {
                "type": "note_on",
                "note": 42,
                "velocity": 22,
                "time": 0
            },
            {
                "type": "note_on",
                "note": 49,
                "velocity": 26,
                "time": 0
            },
            {
                "type": "note_on",
                "note": 49,
                "velocity": 0,
                "time": 381
            },
            {
                "type": "note_on",
                "note": 42,
                "velocity": 0,
                "time": 0
            },
            {
                "type": "note_on",
                "note": 42,
                "velocity": 20,
                "time": 0
            },
            {
                "type": "note_on",
                "note": 49,
                "velocity": 23,
                "time": 0
            },
            {
                "type": "note_on",
                "note": 49,
                "velocity": 0,
                "time": 480
            },
            {
                "type": "note_on",
                "note": 42,
                "velocity": 0,
                "time": 0
            },
            {
                "type": "note_on",
                "note": 42,
                "velocity": 20,
                "time": 0
            },
            {
                "type": "note_on",
                "note": 49,
                "velocity": 23,
                "time": 0
            },
            {
                "type": "note_on",
                "note": 49,
                "velocity": 0,
                "time": 480
            },
            {
                "type": "note_on",
                "note": 42,
                "velocity": 0,
                "time": 0
            },
            {
                "type": "note_on",
                "note": 42,
                "velocity": 22,
                "time": 0
            },
            {
                "type": "note_on",
                "note": 49,
                "velocity": 26,
                "time": 0
            },
            {
                "type": "note_on",
                "note": 49,
                "velocity": 0,
                "time": 416
            },
            {
                "type": "note_on",
                "note": 42,
                "velocity": 0,
                "time": 0
            },
            {
                "type": "note_on",
                "note": 42,
                "velocity": 20,
                "time": 0
            },
            {
                "type": "note_on",
                "note": 49,
                "velocity": 23,
                "time": 0
            },
            {
                "type": "note_on",
                "note": 49,
                "velocity": 0,
                "time": 480
            },
            {
                "type": "note_on",
                "note": 42,
                "velocity": 0,
                "time": 0
            },
            {
                "type": "note_on",
                "note": 42,
                "velocity": 20,
                "time": 0
            },
            {
                "type": "note_on",
                "note": 49,
                "velocity": 23,
                "time": 0
            },
            {
                "type": "note_on",
                "note": 49,
                "velocity": 0,
                "time": 480
            },
            {
                "type": "note_on",
                "note": 42,
                "velocity": 0,
                "time": 0
            },
            {
                "type": "note_on",
                "note": 42,
                "velocity": 22,
                "time": 0
            },
            {
                "type": "note_on",
                "note": 49,
                "velocity": 26,
                "time": 0
            },
            {
                "type": "note_on",
                "note": 49,
                "velocity": 0,
                "time": 395
            },
            {
                "type": "note_on",
                "note": 42,
                "velocity": 0,
                "time": 0
            },
            {
                "type": "note_on",
                "note": 42,
                "velocity": 20,
                "time": 0
            },
            {
                "type": "note_on",
                "note": 49,
                "velocity": 23,
                "time": 0
            },
            {
                "type": "note_on",
                "note": 49,
                "velocity": 0,
                "time": 480
            },
            {
                "type": "note_on",
                "note": 42,
                "velocity": 0,
                "time": 0
            },
            {
                "type": "note_on",
                "note": 42,
                "velocity": 20,
                "time": 0
            },
            {
                "type": "note_on",
                "note": 49,
                "velocity": 23,
                "time": 0
            },
            {
                "type": "note_on",
                "note": 49,
                "velocity": 0,
                "time": 480
            },
            {
                "type": "note_on",
                "note": 42,
                "velocity": 0,
                "time": 0
            },
            {
                "type": "note_on",
                "note": 42,
                "velocity": 22,
                "time": 0
            },
            {
                "type": "note_on",
                "note": 49,
                "velocity": 26,
                "time": 0
            },
            {
                "type": "note_on",
                "note": 49,
                "velocity": 0,
                "time": 360
            },
            {
                "type": "note_on",
                "note": 42,
                "velocity": 0,
                "time": 0
            },
            {
                "type": "note_on",
                "note": 42,
                "velocity": 20,
                "time": 0
            },
            {
                "type": "note_on",
                "note": 49,
                "velocity": 23,
                "time": 0
            },
            {
                "type": "note_on",
                "note": 49,
                "velocity": 0,
                "time": 480
            },
            {
                "type": "note_on",
                "note": 42,
                "velocity": 0,
                "time": 0
            },
            {
                "type": "note_on",
                "note": 42,
                "velocity": 20,
                "time": 0
            },
            {
                "type": "note_on",
                "note": 49,
                "velocity": 23,
                "time": 0
            },
            {
                "type": "note_on",
                "note": 49,
                "velocity": 0,
                "time": 480
            },
            {
                "type": "note_on",
                "note": 42,
                "velocity": 0,
                "time": 0
            },
            {
                "type": "note_on",
                "note": 42,
                "velocity": 22,
                "time": 0
            },
            {
                "type": "note_on",
                "note": 49,
                "velocity": 26,
                "time": 0
            },
            {
                "type": "note_on",
                "note": 49,
                "velocity": 0,
                "time": 381
            },
            {
                "type": "note_on",
                "note": 42,
                "velocity": 0,
                "time": 0
            },
            {
                "type": "note_on",
                "note": 42,
                "velocity": 20,
                "time": 0
            },
            {
                "type": "note_on",
                "note": 49,
                "velocity": 23,
                "time": 0
            },
            {
                "type": "note_on",
                "note": 49,
                "velocity": 0,
                "time": 480
            },
            {
                "type": "note_on",
                "note": 42,
                "velocity": 0,
                "time": 0
            },
            {
                "type": "note_on",
                "note": 42,
                "velocity": 20,
                "time": 0
            },
            {
                "type": "note_on",
                "note": 49,
                "velocity": 23,
                "time": 0
            },
            {
                "type": "note_on",
                "note": 49,
                "velocity": 0,
                "time": 480
            },
            {
                "type": "note_on",
                "note": 42,
                "velocity": 0,
                "time": 0
            },
            {
                "type": "note_on",
                "note": 42,
                "velocity": 22,
                "time": 0
            },
            {
                "type": "note_on",
                "note": 49,
                "velocity": 26,
                "time": 0
            },
            {
                "type": "note_on",
                "note": 49,
                "velocity": 0,
                "time": 356
            },
            {
                "type": "note_on",
                "note": 42,
                "velocity": 0,
                "time": 0
            },
            {
                "type": "note_on",
                "note": 42,
                "velocity": 20,
                "time": 0
            },
            {
                "type": "note_on",
                "note": 49,
                "velocity": 23,
                "time": 0
            },
            {
                "type": "note_on",
                "note": 49,
                "velocity": 0,
                "time": 480
            },
            {
                "type": "note_on",
                "note": 42,
                "velocity": 0,
                "time": 0
            },
            {
                "type": "note_on",
                "note": 42,
                "velocity": 20,
                "time": 0
            },
            {
                "type": "note_on",
                "note": 49,
                "velocity": 23,
                "time": 0
            },
            {
                "type": "note_on",
                "note": 49,
                "velocity": 0,
                "time": 480
            },
            {
                "type": "note_on",
                "note": 42,
                "velocity": 0,
                "time": 0
            },
            {
                "type": "note_on",
                "note": 42,
                "velocity": 22,
                "time": 0
            },
            {
                "type": "note_on",
                "note": 49,
                "velocity": 26,
                "time": 0
            },
            {
                "type": "note_on",
                "note": 49,
                "velocity": 0,
                "time": 339
            },
            {
                "type": "note_on",
                "note": 42,
                "velocity": 0,
                "time": 0
            },
            {
                "type": "note_on",
                "note": 42,
                "velocity": 20,
                "time": 0
            },
            {
                "type": "note_on",
                "note": 49,
                "velocity": 23,
                "time": 0
            },
            {
                "type": "note_on",
                "note": 49,
                "velocity": 0,
                "time": 480
            },
            {
                "type": "note_on",
                "note": 42,
                "velocity": 0,
                "time": 0
            },
            {
                "type": "note_on",
                "note": 42,
                "velocity": 20,
                "time": 0
            },
            {
                "type": "note_on",
                "note": 49,
                "velocity": 23,
                "time": 0
            },
            {
                "type": "note_on",
                "note": 49,
                "velocity": 0,
                "time": 480
            },
            {
                "type": "note_on",
                "note": 42,
                "velocity": 0,
                "time": 0
            },
            {
                "type": "note_on",
                "note": 41,
                "velocity": 22,
                "time": 0
            },
            {
                "type": "note_on",
                "note": 49,
                "velocity": 26,
                "time": 0
            },
            {
                "type": "note_on",
                "note": 49,
                "velocity": 0,
                "time": 474
            },
            {
                "type": "note_on",
                "note": 48,
                "velocity": 23,
                "time": 0
            },
            {
                "type": "note_on",
                "note": 48,
                "velocity": 0,
                "time": 960
            },
            {
                "type": "note_on",
                "note": 41,
                "velocity": 0,
                "time": 0
            },
            {
                "type": "note_on",
                "note": 41,
                "velocity": 70,
                "time": 0
            },
            {
                "type": "note_on",
                "note": 41,
                "velocity": 0,
                "time": 120
            },
            {
                "type": "note_on",
                "note": 63,
                "velocity": 59,
                "time": 240
            },
            {
                "type": "note_on",
                "note": 60,
                "velocity": 50,
                "time": 0
            },
            {
                "type": "note_on",
                "note": 53,
                "velocity": 50,
                "time": 0
            },
            {
                "type": "note_on",
                "note": 53,
                "velocity": 0,
                "time": 480
            },
            {
                "type": "note_on",
                "note": 60,
                "velocity": 0,
                "time": 0
            },
            {
                "type": "note_on",
                "note": 63,
                "velocity": 0,
                "time": 0
            },
            {
                "type": "note_on",
                "note": 63,
                "velocity": 60,
                "time": 0
            },
            {
                "type": "note_on",
                "note": 60,
                "velocity": 51,
                "time": 0
            },
            {
                "type": "note_on",
                "note": 53,
                "velocity": 51,
                "time": 0
            },
            {
                "type": "note_on",
                "note": 53,
                "velocity": 0,
                "time": 480
            },
            {
                "type": "note_on",
                "note": 60,
                "velocity": 0,
                "time": 0
            },
            {
                "type": "note_on",
                "note": 63,
                "velocity": 0,
                "time": 0
            },
            {
                "type": "note_on",
                "note": 46,
                "velocity": 70,
                "time": 0
            },
            {
                "type": "note_on",
                "note": 46,
                "velocity": 0,
                "time": 99
            },
            {
                "type": "note_on",
                "note": 62,
                "velocity": 52,
                "time": 240
            },
            {
                "type": "note_on",
                "note": 58,
                "velocity": 52,
                "time": 0
            },
            {
                "type": "note_on",
                "note": 53,
                "velocity": 52,
                "time": 0
            },
            {
                "type": "note_on",
                "note": 53,
                "velocity": 0,
                "time": 480
            },
            {
                "type": "note_on",
                "note": 58,
                "velocity": 0,
                "time": 0
            },
            {
                "type": "note_on",
                "note": 62,
                "velocity": 0,
                "time": 0
            },
            {
                "type": "note_on",
                "note": 46,
                "velocity": 62,
                "time": 0
            },
            {
                "type": "note_on",
                "note": 46,
                "velocity": 0,
                "time": 240
            },
            {
                "type": "note_on",
                "note": 39,
                "velocity": 68,
                "time": 240
            },
            {
                "type": "note_on",
                "note": 51,
                "velocity": 80,
                "time": 0
            },
            {
                "type": "note_on",
                "note": 51,
                "velocity": 0,
                "time": 312
            },
            {
                "type": "note_on",
                "note": 39,
                "velocity": 0,
                "time": 0
            },
            {
                "type": "note_on",
                "note": 55,
                "velocity": 59,
                "time": 0
            },
            {
                "type": "note_on",
                "note": 58,
                "velocity": 59,
                "time": 30
            },
            {
                "type": "note_on",
                "note": 63,
                "velocity": 59,
                "time": 30
            },
            {
                "type": "note_on",
                "note": 67,
                "velocity": 70,
                "time": 30
            },
            {
                "type": "note_on",
                "note": 67,
                "velocity": 0,
                "time": 480
            },
            {
                "type": "note_on",
                "note": 55,
                "velocity": 0,
                "time": 0
            },
            {
                "type": "note_on",
                "note": 58,
                "velocity": 0,
                "time": 0
            },
            {
                "type": "note_on",
                "note": 63,
                "velocity": 0,
                "time": 0
            },
            {
                "type": "note_on",
                "note": 46,
                "velocity": 48,
                "time": 468
            },
            {
                "type": "note_on",
                "note": 46,
                "velocity": 0,
                "time": 183
            },
            {
                "type": "note_on",
                "note": 62,
                "velocity": 31,
                "time": 240
            },
            {
                "type": "note_on",
                "note": 58,
                "velocity": 27,
                "time": 0
            },
            {
                "type": "note_on",
                "note": 53,
                "velocity": 27,
                "time": 0
            },
            {
                "type": "note_on",
                "note": 53,
                "velocity": 0,
                "time": 480
            },
            {
                "type": "note_on",
                "note": 58,
                "velocity": 0,
                "time": 0
            },
            {
                "type": "note_on",
                "note": 62,
                "velocity": 0,
                "time": 0
            },
            {
                "type": "note_on",
                "note": 62,
                "velocity": 29,
                "time": 0
            },
            {
                "type": "note_on",
                "note": 58,
                "velocity": 24,
                "time": 0
            },
            {
                "type": "note_on",
                "note": 53,
                "velocity": 24,
                "time": 0
            },
            {
                "type": "note_on",
                "note": 53,
                "velocity": 0,
                "time": 480
            },
            {
                "type": "note_on",
                "note": 58,
                "velocity": 0,
                "time": 0
            },
            {
                "type": "note_on",
                "note": 62,
                "velocity": 0,
                "time": 0
            },
            {
                "type": "note_on",
                "note": 41,
                "velocity": 45,
                "time": 0
            },
            {
                "type": "note_on",
                "note": 41,
                "velocity": 0,
                "time": 141
            },
            {
                "type": "note_on",
                "note": 63,
                "velocity": 30,
                "time": 240
            },
            {
                "type": "note_on",
                "note": 60,
                "velocity": 26,
                "time": 0
            },
            {
                "type": "note_on",
                "note": 53,
                "velocity": 26,
                "time": 0
            },
            {
                "type": "note_on",
                "note": 53,
                "velocity": 0,
                "time": 480
            },
            {
                "type": "note_on",
                "note": 60,
                "velocity": 0,
                "time": 0
            },
            {
                "type": "note_on",
                "note": 63,
                "velocity": 0,
                "time": 0
            },
            {
                "type": "note_on",
                "note": 63,
                "velocity": 28,
                "time": 0
            },
            {
                "type": "note_on",
                "note": 60,
                "velocity": 23,
                "time": 0
            },
            {
                "type": "note_on",
                "note": 53,
                "velocity": 23,
                "time": 0
            },
            {
                "type": "note_on",
                "note": 53,
                "velocity": 0,
                "time": 480
            },
            {
                "type": "note_on",
                "note": 60,
                "velocity": 0,
                "time": 0
            },
            {
                "type": "note_on",
                "note": 63,
                "velocity": 0,
                "time": 0
            },
            {
                "type": "note_on",
                "note": 46,
                "velocity": 48,
                "time": 0
            },
            {
                "type": "note_on",
                "note": 46,
                "velocity": 0,
                "time": 92
            },
            {
                "type": "note_on",
                "note": 62,
                "velocity": 31,
                "time": 240
            },
            {
                "type": "note_on",
                "note": 58,
                "velocity": 27,
                "time": 0
            },
            {
                "type": "note_on",
                "note": 53,
                "velocity": 27,
                "time": 0
            },
            {
                "type": "note_on",
                "note": 53,
                "velocity": 0,
                "time": 480
            },
            {
                "type": "note_on",
                "note": 58,
                "velocity": 0,
                "time": 0
            },
            {
                "type": "note_on",
                "note": 62,
                "velocity": 0,
                "time": 0
            },
            {
                "type": "note_on",
                "note": 62,
                "velocity": 29,
                "time": 0
            },
            {
                "type": "note_on",
                "note": 58,
                "velocity": 24,
                "time": 0
            },
            {
                "type": "note_on",
                "note": 53,
                "velocity": 24,
                "time": 0
            },
            {
                "type": "note_on",
                "note": 53,
                "velocity": 0,
                "time": 480
            },
            {
                "type": "note_on",
                "note": 58,
                "velocity": 0,
                "time": 0
            },
            {
                "type": "note_on",
                "note": 62,
                "velocity": 0,
                "time": 0
            },
            {
                "type": "note_on",
                "note": 41,
                "velocity": 57,
                "time": 0
            },
            {
                "type": "note_on",
                "note": 41,
                "velocity": 0,
                "time": 166
            },
            {
                "type": "note_on",
                "note": 53,
                "velocity": 39,
                "time": 240
            },
            {
                "type": "note_on",
                "note": 63,
                "velocity": 47,
                "time": 0
            },
            {
                "type": "note_on",
                "note": 63,
                "velocity": 0,
                "time": 480
            },
            {
                "type": "note_on",
                "note": 53,
                "velocity": 0,
                "time": 0
            },
            {
                "type": "note_on",
                "note": 53,
                "velocity": 39,
                "time": 0
            },
            {
                "type": "note_on",
                "note": 57,
                "velocity": 39,
                "time": 0
            },
            {
                "type": "note_on",
                "note": 63,
                "velocity": 46,
                "time": 0
            },
            {
                "type": "note_on",
                "note": 63,
                "velocity": 0,
                "time": 480
            },
            {
                "type": "note_on",
                "note": 57,
                "velocity": 0,
                "time": 0
            },
            {
                "type": "note_on",
                "note": 53,
                "velocity": 0,
                "time": 0
            },
            {
                "type": "note_on",
                "note": 46,
                "velocity": 51,
                "time": 0
            },
            {
                "type": "note_on",
                "note": 46,
                "velocity": 0,
                "time": 176
            },
            {
                "type": "note_on",
                "note": 53,
                "velocity": 31,
                "time": 240
            },
            {
                "type": "note_on",
                "note": 58,
                "velocity": 31,
                "time": 0
            },
            {
                "type": "note_on",
                "note": 62,
                "velocity": 37,
                "time": 0
            },
            {
                "type": "note_on",
                "note": 62,
                "velocity": 0,
                "time": 480
            },
            {
                "type": "note_on",
                "note": 58,
                "velocity": 0,
                "time": 0
            },
            {
                "type": "note_on",
                "note": 53,
                "velocity": 0,
                "time": 0
            },
            {
                "type": "note_on",
                "note": 53,
                "velocity": 31,
                "time": 0
            },
            {
                "type": "note_on",
                "note": 58,
                "velocity": 31,
                "time": 0
            },
            {
                "type": "note_on",
                "note": 62,
                "velocity": 36,
                "time": 0
            },
            {
                "type": "note_on",
                "note": 62,
                "velocity": 0,
                "time": 480
            },
            {
                "type": "note_on",
                "note": 58,
                "velocity": 0,
                "time": 0
            },
            {
                "type": "note_on",
                "note": 53,
                "velocity": 0,
                "time": 0
            },
            {
                "type": "note_on",
                "note": 46,
                "velocity": 40,
                "time": 0
            },
            {
                "type": "note_on",
                "note": 46,
                "velocity": 0,
                "time": 148
            },
            {
                "type": "note_on",
                "note": 63,
                "velocity": 27,
                "time": 240
            },
            {
                "type": "note_on",
                "note": 60,
                "velocity": 22,
                "time": 0
            },
            {
                "type": "note_on",
                "note": 53,
                "velocity": 22,
                "time": 0
            },
            {
                "type": "note_on",
                "note": 53,
                "velocity": 0,
                "time": 480
            },
            {
                "type": "note_on",
                "note": 60,
                "velocity": 0,
                "time": 0
            },
            {
                "type": "note_on",
                "note": 63,
                "velocity": 0,
                "time": 0
            },
            {
                "type": "note_on",
                "note": 63,
                "velocity": 25,
                "time": 0
            },
            {
                "type": "note_on",
                "note": 60,
                "velocity": 21,
                "time": 0
            },
            {
                "type": "note_on",
                "note": 53,
                "velocity": 21,
                "time": 0
            },
            {
                "type": "note_on",
                "note": 53,
                "velocity": 0,
                "time": 480
            },
            {
                "type": "note_on",
                "note": 60,
                "velocity": 0,
                "time": 0
            },
            {
                "type": "note_on",
                "note": 63,
                "velocity": 0,
                "time": 0
            },
            {
                "type": "note_on",
                "note": 46,
                "velocity": 43,
                "time": 0
            },
            {
                "type": "note_on",
                "note": 46,
                "velocity": 0,
                "time": 63
            },
            {
                "type": "note_on",
                "note": 62,
                "velocity": 28,
                "time": 240
            },
            {
                "type": "note_on",
                "note": 58,
                "velocity": 23,
                "time": 0
            },
            {
                "type": "note_on",
                "note": 53,
                "velocity": 23,
                "time": 0
            },
            {
                "type": "note_on",
                "note": 53,
                "velocity": 0,
                "time": 480
            },
            {
                "type": "note_on",
                "note": 58,
                "velocity": 0,
                "time": 0
            },
            {
                "type": "note_on",
                "note": 62,
                "velocity": 0,
                "time": 0
            },
            {
                "type": "note_on",
                "note": 62,
                "velocity": 26,
                "time": 0
            },
            {
                "type": "note_on",
                "note": 58,
                "velocity": 22,
                "time": 0
            },
            {
                "type": "note_on",
                "note": 53,
                "velocity": 22,
                "time": 0
            },
            {
                "type": "note_on",
                "note": 53,
                "velocity": 0,
                "time": 480
            },
            {
                "type": "note_on",
                "note": 58,
                "velocity": 0,
                "time": 0
            },
            {
                "type": "note_on",
                "note": 62,
                "velocity": 0,
                "time": 0
            },
            {
                "type": "note_on",
                "note": 41,
                "velocity": 57,
                "time": 0
            },
            {
                "type": "note_on",
                "note": 41,
                "velocity": 0,
                "time": 166
            },
            {
                "type": "note_on",
                "note": 53,
                "velocity": 41,
                "time": 240
            },
            {
                "type": "note_on",
                "note": 63,
                "velocity": 49,
                "time": 0
            },
            {
                "type": "note_on",
                "note": 63,
                "velocity": 0,
                "time": 480
            },
            {
                "type": "note_on",
                "note": 53,
                "velocity": 0,
                "time": 0
            },
            {
                "type": "note_on",
                "note": 53,
                "velocity": 44,
                "time": 0
            },
            {
                "type": "note_on",
                "note": 57,
                "velocity": 44,
                "time": 0
            },
            {
                "type": "note_on",
                "note": 63,
                "velocity": 51,
                "time": 0
            },
            {
                "type": "note_on",
                "note": 63,
                "velocity": 0,
                "time": 480
            },
            {
                "type": "note_on",
                "note": 57,
                "velocity": 0,
                "time": 0
            },
            {
                "type": "note_on",
                "note": 53,
                "velocity": 0,
                "time": 0
            },
            {
                "type": "note_on",
                "note": 46,
                "velocity": 68,
                "time": 0
            },
            {
                "type": "note_on",
                "note": 46,
                "velocity": 0,
                "time": 310
            },
            {
                "type": "note_on",
                "note": 46,
                "velocity": 46,
                "time": 0
            },
            {
                "type": "note_on",
                "note": 53,
                "velocity": 46,
                "time": 0
            },
            {
                "type": "note_on",
                "note": 62,
                "velocity": 56,
                "time": 0
            },
            {
                "type": "note_on",
                "note": 62,
                "velocity": 0,
                "time": 960
            },
            {
                "type": "note_on",
                "note": 53,
                "velocity": 0,
                "time": 0
            },
            {
                "type": "note_on",
                "note": 46,
                "velocity": 0,
                "time": 0
            }
        ]
    },
    {
        "track": 3,
        "notes": []
    },
    {
        "track": 4,
        "notes": []
    },
    {
        "track": 5,
        "notes": []
    },
    {
        "track": 6,
        "notes": []
    },
    {
        "track": 7,
        "notes": []
    }
]