[
    {
        "track": 1,
        "notes": [
            {
                "type": "note_on",
                "note": 65,
                "velocity": 70,
                "time": 0
            },
            {
                "type": "note_on",
                "note": 65,
                "velocity": 0,
                "time": 240
            },
            {
                "type": "note_on",
                "note": 65,
                "velocity": 66,
                "time": 120
            },
            {
                "type": "note_on",
                "note": 65,
                "velocity": 0,
                "time": 120
            },
            {
                "type": "note_on",
                "note": 67,
                "velocity": 70,
                "time": 0
            },
            {
                "type": "note_on",
                "note": 67,
                "velocity": 0,
                "time": 480
            },
            {
                "type": "note_on",
                "note": 69,
                "velocity": 70,
                "time": 0
            },
            {
                "type": "note_on",
                "note": 69,
                "velocity": 0,
                "time": 480
            },
            {
                "type": "note_on",
                "note": 70,
                "velocity": 71,
                "time": 0
            },
            {
                "type": "note_on",
                "note": 70,
                "velocity": 0,
                "time": 240
            },
            {
                "type": "note_on",
                "note": 72,
                "velocity": 66,
                "time": 120
            },
            {
                "type": "note_on",
                "note": 72,
                "velocity": 0,
                "time": 120
            },
            {
                "type": "note_on",
                "note": 74,
                "velocity": 70,
                "time": 0
            },
            {
                "type": "note_on",
                "note": 74,
                "velocity": 0,
                "time": 480
            },
            {
                "type": "note_on",
                "note": 75,
                "velocity": 75,
                "time": 0
            },
            {
                "type": "note_on",
                "note": 75,
                "velocity": 0,
                "time": 240
            },
            {
                "type": "note_on",
                "note": 77,
                "velocity": 79,
                "time": 0
            },
            {
                "type": "note_on",
                "note": 77,
                "velocity": 0,
                "time": 240
            },
            {
                "type": "note_on",
                "note": 79,
                "velocity": 83,
                "time": 0
            },
            {
                "type": "note_on",
                "note": 79,
                "velocity": 0,
                "time": 120
            },
            {
                "type": "note_on",
                "note": 81,
                "velocity": 75,
                "time": 240
            },
            {
                "type": "note_on",
                "note": 81,
                "velocity": 0,
                "time": 120
            },
            {
                "type": "note_on",
                "note": 82,
                "velocity": 76,
                "time": 0
            },
            {
                "type": "note_on",
                "note": 82,
                "velocity": 0,
                "time": 60
            },
            {
                "type": "note_on",
                "note": 84,
                "velocity": 67,
                "time": 0
            },
            {
                "type": "note_on",
                "note": 84,
                "velocity": 0,
                "time": 60
            },
            {
                "type": "note_on",
                "note": 82,
                "velocity": 73,
                "time": 0
            },
            {
                "type": "note_on",
                "note": 82,
                "velocity": 0,
                "time": 60
            },
            {
                "type": "note_on",
                "note": 84,
                "velocity": 66,
                "time": 0
            },
            {
                "type": "note_on",
                "note": 84,
                "velocity": 0,
                "time": 60
            },
            {
                "type": "note_on",
                "note": 82,
                "velocity": 70,
                "time": 0
            },
            {
                "type": "note_on",
                "note": 82,
                "velocity": 0,
                "time": 60
            },
            {
                "type": "note_on",
                "note": 84,
                "velocity": 64,
                "time": 0
            },
            {
                "type": "note_on",
                "note": 84,
                "velocity": 0,
                "time": 60
            },
            {
                "type": "note_on",
                "note": 82,
                "velocity": 70,
                "time": 0
            },
            {
                "type": "note_on",
                "note": 82,
                "velocity": 0,
                "time": 60
            },
            {
                "type": "note_on",
                "note": 84,
                "velocity": 64,
                "time": 0
            },
            {
                "type": "note_on",
                "note": 84,
                "velocity": 0,
                "time": 60
            },
            {
                "type": "note_on",
                "note": 81,
                "velocity": 70,
                "time": 0
            },
            {
                "type": "note_on",
                "note": 81,
                "velocity": 0,
                "time": 240
            },
            {
                "type": "note_on",
                "note": 79,
                "velocity": 56,
                "time": 0
            },
            {
                "type": "note_on",
                "note": 79,
                "velocity": 0,
                "time": 180
            },
            {
                "type": "note_on",
                "note": 77,
                "velocity": 46,
                "time": 0
            },
            {
                "type": "note_on",
                "note": 77,
                "velocity": 0,
                "time": 60
            },
            {
                "type": "note_on",
                "note": 82,
                "velocity": 53,
                "time": 0
            },
            {
                "type": "note_on",
                "note": 82,
                "velocity": 0,
                "time": 120
            },
            {
                "type": "note_on",
                "note": 82,
                "velocity": 49,
                "time": 240
            },
            {
                "type": "note_on",
                "note": 82,
                "velocity": 0,
                "time": 120
            },
            {
                "type": "note_on",
                "note": 74,
                "velocity": 44,
                "time": 0
            },
            {
                "type": "note_on",
                "note": 74,
                "velocity": 0,
                "time": 900
            },
            {
                "type": "note_on",
                "note": 75,
                "velocity": 45,
                "time": 0
            },
            {
                "type": "note_on",
                "note": 75,
                "velocity": 0,
                "time": 60
            },
            {
                "type": "note_on",
                "note": 79,
                "velocity": 51,
                "time": 0
            },
            {
                "type": "note_on",
                "note": 79,
                "velocity": 0,
                "time": 120
            },
            {
                "type": "note_on",
                "note": 79,
                "velocity": 46,
                "time": 240
            },
            {
                "type": "note_on",
                "note": 79,
                "velocity": 0,
                "time": 120
            },
            {
                "type": "note_on",
                "note": 69,
                "velocity": 44,
                "time": 0
            }
        ]
    }
]
